<svg id="p3" xmlns="http://www.w3.org/2000/svg" viewBox="0 0 1920 1080">
  <title>P3_3</title>
  <g id="_3" data-name="3">
    <g>
      <path d="M374.11133,424.32227q-.64453,0-1.29639-.959a3.85571,3.85571,0,0,1-.65185-2.21973,6.42322,6.42322,0,0,1,1.04-3.31738q1.04-1.72119,2.03614-1.72168v.62989q-1.06934.62988-1.27442,2.7832a2.36323,2.36323,0,0,0,1.88965,2.3584v.61523Zm5.1709,0q-.64454,0-1.29639-.959a3.85572,3.85572,0,0,1-.65186-2.21973,6.42314,6.42314,0,0,1,1.04-3.31738q1.04-1.72119,2.03614-1.72168v.62989q-1.06934.62988-1.27442,2.7832a2.36322,2.36322,0,0,0,1.88965,2.3584v.61523Z" fill="#666"/>
      <path d="M389.00293,424.70312a.95008.95008,0,0,0-.05859.14649q-.16115.4248.21972.57129.05859.02929.01465.10254-.01464.04393-.04394.04394.07323,0-.14649-.01465a.11937.11937,0,0,0-.13183.11719,1.39144,1.39144,0,0,0-.0293.23438q-.01466.19043.0293.21972.0293.044.20507.01465h.07325a.08151.08151,0,0,1,.07324.08789.1858.1858,0,0,1-.04395.08789q-.04393.04395-.17578.01465-.14649-.02929-.19043.13184a1.35313,1.35313,0,0,0-.04394.16113,1.4848,1.4848,0,0,0-.01465.33691,1.42158,1.42158,0,0,0-.01465.36622q-.01466.19043-.01465.35156a.27617.27617,0,0,0,.13184.26367.30853.30853,0,0,1,.16113.38086,1.31471,1.31471,0,0,0-.0293.61523.60712.60712,0,0,1-.01465.23438,2.38983,2.38983,0,0,0-.05859.4834,3.01959,3.01959,0,0,1-.07324.4834,2.74271,2.74271,0,0,0-.04395.57128,1.65431,1.65431,0,0,1-.20508.9668,1.25863,1.25863,0,0,0-.05859.30762q-.10254.76172-.14648.99609.01464-.08788-.26367.98145-.20508.8496-.19043.77636a2.05939,2.05939,0,0,0-.0586.42481,1.06793,1.06793,0,0,1-.08789.4248.88915.88915,0,0,0-.07324.26368q-.01466.20506-.19043,1.15722a.60223.60223,0,0,0,0,.38086.18122.18122,0,0,1-.05859.26367q-.04395.02931-.04395.17578l.01465.27833a.88848.88848,0,0,0,.0293.26367.31753.31753,0,0,1-.07325.32226q-.10254.0879.01465.19043a.56944.56944,0,0,1,.13184.20508.67126.67126,0,0,1,.01465.249,2.35586,2.35586,0,0,0-.01465.64454.2379.2379,0,0,0,0,.11718,4.90206,4.90206,0,0,1,.05859.57129,3.00858,3.00858,0,0,1,0,.60059l-.01465.293q-.01464.27831-.01465.33691-.01464.05859-.02929.14649l-.0293.07324v.02929l-.01465.07325v.19043a1.61145,1.61145,0,0,1-.01465.249l-.02929.13184-.01465.08789-.01465.02929-.01465.08789v.0293q-.01464.07325-.04394.17578a1.35521,1.35521,0,0,1-.04395.16113.75466.75466,0,0,0,0,.21973,2.4573,2.4573,0,0,1-.01465.498v.11719l-.02929.13183a.51325.51325,0,0,1-.0293.16113,1.13067,1.13067,0,0,1-.05859.13184.37686.37686,0,0,1-.17579.20508.09741.09741,0,0,1-.14648-.01465.47482.47482,0,0,0-.33691-.23438q-.10254-.01464-.17579-.20507l-.08789-.26368a.1472.1472,0,0,0-.23437-.07324,1.60825,1.60825,0,0,1-.20508.08789.20117.20117,0,0,1-.17578-.04394.35415.35415,0,0,1-.07324-.16113.38093.38093,0,0,1-.01465-.11719,2.58988,2.58988,0,0,1-.0293-.26367q-.02929-.19044-.04394-.30762-.01466-.33692-.01465-.293v-.01465h-.01465a.04221.04221,0,0,0-.01465-.0293.04218.04218,0,0,1-.0293.01465q-.02929.05861-.01464-.01465a.04222.04222,0,0,1-.01465.0293q0,.01466-.01465.20508-.044.55664-.05859.60059a.09889.09889,0,0,1-.13184.05859.15753.15753,0,0,1-.08789-.0293l-.04395-.04394a.81664.81664,0,0,1-.13183-.27832,1.3375,1.3375,0,0,1,0-.4834.16314.16314,0,0,0,.01465-.07324.23985.23985,0,0,0,.01464-.0586v-.05859q0,.01464-.01464-.0586v-.11718q-.01466-.14649-.01465-.27832a1.881,1.881,0,0,1,.02929-.33692q.02931-.08789.0586-.16113a.89791.89791,0,0,1,.08789-.16113,1.54458,1.54458,0,0,0,.08789-.13184q.05859-.10254.01465-.0293a.21352.21352,0,0,0,.02929-.08789.61653.61653,0,0,0,.01465-.10254.4624.4624,0,0,0,0-.36621.48923.48923,0,0,1-.04394-.21972,2.06665,2.06665,0,0,1,.02929-.26367l.0293-.26368q.01466-.11718.16113-.02929h.0586q-.02929-.30762-.0293-.41016-.01464-.10254-.05859-.10254-.20508-.04395-.11719-.27832a.51811.51811,0,0,0-.04395-.35156.13949.13949,0,0,1,.07325-.20508q.13183-.05859.02929-.14648a.25658.25658,0,0,1-.08789-.23438q.01466-.30762.01465-.39551,0,.01466.0293-.30761a1.03251,1.03251,0,0,0-.01465-.30762v-.07324a3.1166,3.1166,0,0,0,.11719-.68848,2.81124,2.81124,0,0,1,.13183-.67383,1.34384,1.34384,0,0,0,.07325-.38086,7.70345,7.70345,0,0,1,.14648-1.23047,2.80581,2.80581,0,0,1,.19043-.65918,1.00113,1.00113,0,0,0,.05859-.36621,6.06382,6.06382,0,0,1,.20508-1.43554,2.9167,2.9167,0,0,0,.0293-.30762,8.346,8.346,0,0,1,.14648-1.18652.823.823,0,0,0,.0293-.293,5.42809,5.42809,0,0,0,.0293-.9375.79589.79589,0,0,1,.05859-.249.79141.79141,0,0,0,.05859-.23437q.02931-.57129,0-.46875.01466-.07324.16114-1.20117.01464-.21974.26367-1.77246.05859-.30762.08789-.498a1.20971,1.20971,0,0,1,.07324-.30762,1.82775,1.82775,0,0,0,.19043-.498,3.24292,3.24292,0,0,1,.17578-.51269.14242.14242,0,0,0,.0293-.07324q.14649-1.21582.14648-1.18653a.43911.43911,0,0,1,.0586-.293.61975.61975,0,0,0,.11718-.32226q.23438-1.69921.26368-1.93359a8.77156,8.77156,0,0,1,.17578-.9961q.08788-.4248.20508-.9375h-.0293l-.0293.11719a.61429.61429,0,0,1-.07324.17578q-.01466.04395-.05859.01465a.059.059,0,0,1-.0293-.05859,1.48793,1.48793,0,0,1,.01465-.23438l.01465-.0293q.38085.01466.36621.01465-.10254.498-.20508,1.34766-.10254.98143-.16113,1.34765-.01466.0879-.11719,1.46485a.68778.68778,0,0,0,.14648-.23438q.05861-.16113.08789-.21972a.08445.08445,0,0,1,.0586-.0293q.05859,0,.05859.07324.044.293.08789.30762-.05859-.01466.10254-.293.05859-.10254-.07324-.249.08788-.01466.10254-.01465.11718-.05859.04394-.11719-.13184-.08789-.04394-.19043a1.5971,1.5971,0,0,0,.19043-.498,3.662,3.662,0,0,1,.13183-.38086,1.97686,1.97686,0,0,0,.13184-.38085q.10254.02929.08789.16113a10.57009,10.57009,0,0,1-.13184,1.3623q-.02929.16113-.17578,1.3916a.26581.26581,0,0,0,.07325.26368.08439.08439,0,0,0,.05859.02929.05743.05743,0,0,0,.05859-.04394,1.19045,1.19045,0,0,1,.01465-.14649.93654.93654,0,0,1,.0293-.14648q.02929-.13183.13183-.11719.07325.01466.0586.13184,0-.04395.02929.19043.04395.39551-.33691.41015-.14649.01466-.16113.0586a.24029.24029,0,0,0,.07324.26367q.11718.10254.16113.10254.20508,0,.16114.21972-.07325.30762-.26368.293-.08788-.01464-.08789.13184l.01465.51269Zm-3.76465,15.17579.044.04394a.04094.04094,0,0,0,.05859-.0293q.01466-.07323-.05859-.07324Zm1.34766-18.38379q-.05859-.23437-.20508-.21973-.02929,0-.0293.01465-.01464.10254.19043.23437l.0293-.01464Zm1.333,3.501a.10173.10173,0,0,0,.02929.10254l.0586-.02929a.09939.09939,0,0,0-.0293-.07325Q387.94825,424.9375,387.919,424.99609Zm.08789-.71777a.51069.51069,0,0,0,0,.38086.46285.46285,0,0,1,.17578-.39551q.04393-.01464,0-.05859a.163.163,0,0,0-.07324-.01465Q388.03613,424.19043,388.00684,424.27832Zm.04394-.87891a.72966.72966,0,0,1-.01465.08789v.07325q0,.04393.04395.02929.02929-.01464.04394-.08789.01466-.08789-.01464-.11718Q388.06543,423.35546,388.05078,423.39941Zm3.33984,5.77149a.45411.45411,0,0,1-.02929-.08789.22489.22489,0,0,1-.0293-.08789.08332.08332,0,0,0-.10254-.0586.16916.16916,0,0,1-.17578-.07324l-.0293-.0293a.73206.73206,0,0,1-.17578-.07324l-.01465-.05859a.53049.53049,0,0,1-.14648-.27832q-.01466-.0293.0293-.0586.07323-.01464.08789.01465.05859.0879.249.04395a.15889.15889,0,0,0,.05859-.0293q.01466-.02929-.01464-.0293a.89709.89709,0,0,1-.23438-.08789.906.906,0,0,0-.23437-.07324q-.0879,0-.07325-.05859a.30471.30471,0,0,0-.01464-.20508l-.0293-.08789a.22489.22489,0,0,1-.0293-.08789.24083.24083,0,0,1,.01465-.07324q0-.0293.05859-.04395.044-.01464.0586,0a.28216.28216,0,0,1,.13183.14649.38083.38083,0,0,0,.17579.17578.13557.13557,0,0,0,.08789,0q.05859-.0293.04394-.07325a.51286.51286,0,0,0-.05859-.20507.86045.86045,0,0,1-.07324-.19043q.01464-.07325-.16114-.0586H390.585q.08788,0-.17578.01465-.08788.01466-.08789-.04394,0-.10254.17578-.13184h.11719a.32222.32222,0,0,0,.13183-.05859q.0293-.02931,0-.07325a1.353,1.353,0,0,1-.16113-.36621.02589.02589,0,0,0-.0293-.02929.073.073,0,0,0-.07324-.01465q-.17578.08788-.19043-.01465-.01464-.11719-.20508-.10254h-.14648q-.33691-.0293-.35156-.21973,0,.01466-.0293-.02929-.05859-.14649.04395-.17578a.3079.3079,0,0,1,.21972.02929.15863.15863,0,0,1,.0586.07324.09216.09216,0,0,0,.13183.0293q.17578-.08788.16113-.16113a.64786.64786,0,0,0-.17578-.39551.44033.44033,0,0,1-.13183-.20508.22028.22028,0,0,0-.07324-.11718q-.14649-.07325-.10254-.30762a.315.315,0,0,0-.0586-.32227.64437.64437,0,0,1-.11719-.26367q.01466.08788-.16113-.35156a1.90754,1.90754,0,0,1-.08789-.27832q-.07324-.30762-.14648-.35156-.04395-.02931,0-.10254a.25052.25052,0,0,0,0-.32227.68948.68948,0,0,1-.08789-.26367.6305.6305,0,0,0-.16114-.38086q-.05859-.04395-.01464-.07324-.0586.05859.07324-.30762.0293-.05859-.13184-.13184-.11718-.05859-.0293-.16113.16115-.19042-.01464-.30762a.2388.2388,0,0,1-.07325-.08789.1339.1339,0,0,0-.10254-.08789,1.97645,1.97645,0,0,1-.14648.35157.1412.1412,0,0,1-.07324.05859.05338.05338,0,0,1-.07324-.04395.285.285,0,0,1,.10254-.27832q.13184-.14648-.0293-.17578-.27833-.04393-.16113-.30762a.26826.26826,0,0,0-.11719-.35156q-.10254-.07324.05859-.10254a.126.126,0,0,0,.11719-.11718.61477.61477,0,0,0,0-.19043.55307.55307,0,0,0-.0293-.17579l-.02929-.08789v-.07324q-.01466-.02929.02929-.07324a.73.73,0,0,0,.08789-.01465q.04395-.01464.04395.01465a.3248.3248,0,0,1,.01465.10254.15751.15751,0,0,0,.02929.08789.28847.28847,0,0,0,.07325.10254l.05859-.044.0293-.35156q.01464-.01464-.044-.17578,0-.04395.05859-.05859a.27669.27669,0,0,1,.0879.01464q.05859.02931.11718.21973t.10254.20508q.0879-.05859.04395-.21973a1.39045,1.39045,0,0,1-.0293-.32226,2.9167,2.9167,0,0,0-.0293-.30762.46345.46345,0,0,1-.01464-.19043.23972.23972,0,0,1,.07324-.17578q-.01466.01464.02929-.13184.01466-.07324.04395-.08789.0293,0,.07324.0586a.1213.1213,0,0,0,.13184.01464.0874.0874,0,0,1,.08789.01465q.05859.04395.10254.07325.11718.07323.14648.08789a.184.184,0,0,0,.04395-.07325l.02929-.05859v-.05859q0,.01464.01465-.0586a.1839.1839,0,0,1,.07324.04395.22925.22925,0,0,1,.0586.04394.31435.31435,0,0,1,.05859.10254,1.54537,1.54537,0,0,0,.08789.13184.16584.16584,0,0,0,.0586.05859q0,.01466.02929.0293l.044.04394a.21422.21422,0,0,0-.044-.13183l-.05859-.08789q-.02929-.04395.10254-.07324.13183-.04395.14648,0l.0293.04394.04395.07324.02929.0586.0293.08789a.73178.73178,0,0,1,.05859.13183l.04395.16114q.01464.02929.10254.35156a.18571.18571,0,0,0,.04394.08789.05906.05906,0,0,0,.0586.0293.05339.05339,0,0,0,.07324-.04395.744.744,0,0,0-.0293-.43945.81031.81031,0,0,1-.05859-.20508.32613.32613,0,0,1-.0293-.14649l-.01465-.07324v-.04394a.27632.27632,0,0,0-.01465-.08789l-.02929-.0586a.09439.09439,0,0,0-.04395-.05859.04224.04224,0,0,1-.01465-.0293.08488.08488,0,0,1,.0586-.01465q.05859-.01464.07324,0l.01465.01465.02929.04395.04395.04394.0293.07325.02929.05859.01465.05859a.33667.33667,0,0,0,.11719.11719q.05859.02929.05859.13184a.62072.62072,0,0,1-.02929.14648,2.83444,2.83444,0,0,0-.01465.542v.08789a.40111.40111,0,0,1,.01465.08789v.33692a.67857.67857,0,0,0-.01465.13183.36615.36615,0,0,0,0,.14649.56946.56946,0,0,1,.0293.07324.22939.22939,0,0,0,.04394.05859.87789.87789,0,0,1,.07324.14649q.02929.04395.17578.01465a.159.159,0,0,0,.0586-.0293q.11718-.01466.05859.04395l-.01465.02929a.37685.37685,0,0,0-.20508.17578.67134.67134,0,0,0-.01464.17578v.07325a.25691.25691,0,0,0,.02929.07324q0,.0293.04395.01465a.06767.06767,0,0,0,.07324-.04395.73031.73031,0,0,1,.01465-.08789.163.163,0,0,1,.01465-.07324q.01464-.02929.08789-.04395a.08485.08485,0,0,1,.05859.01465.13.13,0,0,1,.01465.0586.24088.24088,0,0,1-.01465.07324,1.224,1.224,0,0,1-.14648.23437q-.04395.05861-.07324.10254a.22472.22472,0,0,0-.0293.08789q-.01466.41016-.01465.4834a4.16343,4.16343,0,0,0,.08789.58594l.0293.14648.02929.16114q.04395.16113.10254.32226.044.16113.17578.57129l.07325.293a.80269.80269,0,0,0,.04394.10254l.0293.10254a6.99085,6.99085,0,0,0,.33691.73242.52573.52573,0,0,0,.11719.17578.08112.08112,0,0,1,.01465.11719q-.05859.07324.04394.13183a.62524.62524,0,0,1,.27832.42481.59645.59645,0,0,0,.0293.14648.184.184,0,0,0,.04395.07325q0-.01466.04394.02929a.22954.22954,0,0,0,.0586.04395.47789.47789,0,0,1,.16113.23437q-.0293-.10254.04394.249.02931.13183.04395.21972a1.0244,1.0244,0,0,0,.07324.14649l.0293.05859a.17062.17062,0,0,1,.0293.04395l.02929.02929q0,.48341.0586.39551-.044.07324.04394.16113a.49284.49284,0,0,1,.13184.27832.163.163,0,0,1-.01465-.07324.5686.5686,0,0,0-.0293-.07324v.01465q.01466.04395.0586.26367l.01464.07324a.441.441,0,0,0,.01465.07324.8099.8099,0,0,0,.07324.16114.257.257,0,0,0,.0879.10254.532.532,0,0,1,.13183.11718q.01466.0293.0586-.02929.04394-.04395.04394-.0586l-.0293-.08789-.01464-.07324a.33072.33072,0,0,0-.0586-.14648.1543.1543,0,0,1-.05859-.13184.36064.36064,0,0,1,.05859-.16113.10519.10519,0,0,1,.07324-.04395.27669.27669,0,0,1,.08789-.01465q.02931.01466.0293.0293a.24011.24011,0,0,0-.01465.05859.16318.16318,0,0,0,.01465.07325.465.465,0,0,1,.0293.13183q.01464.10254.249.01465l.01465.01465h.01465q.10254,0,.10254.01465,0,.0293-.13184.07324-.14647.044-.11719.11719a.49857.49857,0,0,0,.0586.13183q.04393.0879.16113.0293h.10254q.11718.01466,0,.08789a.87229.87229,0,0,1-.11719.08789q-.08788.044-.07324.11719.01466.10254.0293.16113.05859.16113.13183.07324.04395-.04394,0-.13183a.15754.15754,0,0,1-.02929-.08789q0-.02929.04394-.04395.05859-.02929.07324-.01465a2.20758,2.20758,0,0,0,.19043.30762.14121.14121,0,0,1,.0586.07324l.02929.0586a.2142.2142,0,0,1,.044.13183l.0293.16114q.02929.08788.01464.07324.01466.0293-.04394.10254-.044.07323-.01465.10254a.2556.2556,0,0,1,.05859.14648.29554.29554,0,0,1-.05859.19043q-.10254.13184.05859.16113.11719.02929.07325.13184a.25664.25664,0,0,0-.0293.07324q.07325.04395,0,.249a.17514.17514,0,0,0,0,.10254.93816.93816,0,0,1-.04395.4834.612.612,0,0,0-.02929.10254.62664.62664,0,0,0-.17578.52734.97115.97115,0,0,1,.01464.20508q.01466.04395-.08789.04395-.16113,0-.11718.07324a.40162.40162,0,0,1,.02929.23438.68133.68133,0,0,0,.0293.23437.11359.11359,0,0,1-.0293.13184.25917.25917,0,0,0-.07324.11718.66.66,0,0,0,.0293.13184l.04394.16113a.4004.4004,0,0,1,.01465.08789q.01466.07324.0293.20508a2.6846,2.6846,0,0,0,.19043.61524l.05859.11718q.0293.07324.04395.11719l.11718.293q.0586.17579.04395.16113l.07324.16113q.07324.21973.21973.67383a.215.215,0,0,0,.05859.11719.381.381,0,0,1,.0586.10254v.10254a.30494.30494,0,0,0,.01464.11719,1.01372,1.01372,0,0,0,.0586.17578l.04394.07324.04395.11719a1.51307,1.51307,0,0,1,.10254.23437l.07324.23438a.18441.18441,0,0,0,.07324.10254q.11719.07323.07324.26367a.82325.82325,0,0,0-.02929.19043q0,.01464.04394.21972l.0586-.08789a.08439.08439,0,0,1,.05859-.02929q.05859-.0293.07324.01464a.91106.91106,0,0,1,.01465.26368.93326.93326,0,0,0-.01465.27832.42493.42493,0,0,0,.10254.23437.853.853,0,0,0,.04395.20508.33653.33653,0,0,1-.01465.21973q0-.01466.0293.17578.08788.46875.05859.41015.01466.01466-.01465.07325-.0293.11718-.19043.10254a.1948.1948,0,0,0-.11719.04394.64061.64061,0,0,0-.13183.17578.05906.05906,0,0,1-.0586.0293q-.04394.01464-.05859,0a.23941.23941,0,0,0-.01465-.05859.08483.08483,0,0,0-.01465-.0586q-.02929-.08788-.16113.01465a.43737.43737,0,0,1-.05859.04395l-.04395.04394q-.10254.07325-.10254,0,0-.11718-.16113-.10254a.08331.08331,0,0,1-.10254-.05859.336.336,0,0,1-.0293-.10254q.01466-.13184-.21972-.10254-.17578.01466-.19043-.10254a.08483.08483,0,0,0-.01465-.05859.39044.39044,0,0,1-.07324-.30762q.01464-.08788-.10254-.19043-.13184-.11718-.11719-.10254a.13943.13943,0,0,1-.01465-.16113q.01466-.01466-.04394-.0586-.044-.02929-.0293-.05859.044-.044.01465-.32226,0,.04394-.0293-.11719-.04395-.14649.05859-.14649a.128.128,0,0,1,.14649.08789.454.454,0,0,1,.0293.08789l.04394.0879a.25152.25152,0,0,0,.07324.07324q.01466.01464.0586,0a.09439.09439,0,0,0,.05859-.04395q.01466-.04393,0-.05859a1.07635,1.07635,0,0,1-.08789-.4541q0-.07325-.11719,0-.05859.01464-.04394.01464a2.59465,2.59465,0,0,1-.249.10254q-.14648-.04394-.05859-.19043.01466-.05859.08789-.02929.13184.05859.08789.04394.05859.01466.19043-.07324.07324-.0293-.01465-.05859-.0293,0-.02929-.01465l-.0293-.17578q-.02929-.02929.0293-.16114.02929-.08788-.10254-.04394a.05938.05938,0,0,1-.07325-.0293.57739.57739,0,0,1-.05859-.11719.33379.33379,0,0,0-.07324-.13183q-.04395-.0293.01465-.08789a.17889.17889,0,0,0,.02929-.23438q-.23437-.4248-.249-.4541-.10254-.23437-.20508-.51269l-.05859-.17578-.05859-.19043a2.84161,2.84161,0,0,1-.10254-.38086q.02929.17577-.14649-.5127,0,.01466-.01465-.13184,0-.05859-.01465-.05859a.24337.24337,0,0,1-.20507-.14648q.01464.04393-.0293-.23438,0-.05859-.10254-.05859a.19018.19018,0,0,1-.16113-.0586.42869.42869,0,0,1-.07324-.11718q-.044-.07325-.07325-.13184a1.21862,1.21862,0,0,1-.10254-.27832.71073.71073,0,0,0-.08789-.17578.47216.47216,0,0,1-.05859-.20508q0-.01464-.07324-.05859-.05859-.02929-.04395-.07324.05861-.11719-.11718-.23438a.441.441,0,0,1-.32227.04395q-.249-.10254-.19043-.30762-.04395.02929.17578.01465.10254,0,.08789-.0586-.04393-.36621-.07324-.57129a.17788.17788,0,0,0-.04395-.08789.23608.23608,0,0,1-.07324-.20508.61277.61277,0,0,0-.08789-.27832q-.05859-.11718.08789-.20507.13184-.0879.0586-.16114-.05861-.05859-.04395-.08789a.51675.51675,0,0,0-.08789-.293.663.663,0,0,0-.11719-.11718q-.05859-.04395-.14648-.10254-.14649-.0879.11719-.27832.17577-.11719.10253-.20508a2.64911,2.64911,0,0,0-.16113-.36621Zm-3.22265-6.94336a1.46073,1.46073,0,0,0-.08789.77637,2.59987,2.59987,0,0,0,.16113-.65918Q388.22657,422.24219,388.168,422.22754Zm.21973-3.61816-.07325-.19043a.08437.08437,0,0,0-.05859-.0293.04692.04692,0,0,0-.04395.0293.39117.39117,0,0,0,.0586.27832q0,.02929.05859.01464a.04693.04693,0,0,0,.04395-.02929Zm-.0879,1.01074-.02929-.01465q-.07324,0-.0586.0293,0,.01464.0293.01464Q388.2998,419.64941,388.2998,419.62012Zm.11719,2.84179.04395.0586.05859-.01465q.01466-.13183.044-.33691a.0259.0259,0,0,0-.0293-.0293.01831.01831,0,0,0-.0293,0Q388.46095,422.57911,388.417,422.46191Zm.21973-1.24511a.86628.86628,0,0,0-.07324-.13184q-.0293-.07325-.08789-.04394-.044.02929-.0293.05859.01464.07325.04394.08789A.41759.41759,0,0,0,388.63672,421.2168Zm-.13184,1.47949q-.05859.0293-.05859.05859,0,.04395.07324.0293.05859-.01466.05859-.05859T388.50488,422.69629Zm.07324-1.83106q0,.01466-.01464-.32226h-.0586q-.0293.30762-.02929.33691,0,.0879.07324.0293Q388.57813,420.87989,388.57812,420.86523Zm-.07324-.30761q.02929.08789.08789.05859.0293-.01464.0293-.07324,0-.07324-.05859-.05859A.06922.06922,0,0,0,388.50488,420.55762Zm0,2.7539a.10491.10491,0,0,0,.0586.10254.21044.21044,0,0,0,.19043,0q.02929-.0293-.01465-.10254a.227.227,0,0,0-.13184-.08789.09441.09441,0,0,0-.07324,0,.17054.17054,0,0,0-.0293.04395Zm.26367-2.21191q.0586-.07325-.08789-.07324-.13184,0-.10254.05859.04395.07324.16114.0293A.04217.04217,0,0,0,388.76855,421.09961Zm-.07324,7.57324q-.01464-.04395-.07324-.17578.16113-.10254.17578-.16113.0293-.10254-.04394-.13184-.044-.01464-.08789.04395a.68793.68793,0,0,0-.04395.249.14576.14576,0,0,0,0,.17578.16584.16584,0,0,0,.05859.0586Q388.72461,428.73145,388.69531,428.67285Zm.01465-4.70215.07324.0586a.13349.13349,0,0,0,.10254-.01465.17054.17054,0,0,0,.0293-.04395q.01464-.04393-.07324-.07324a.0874.0874,0,0,0-.08789.01465Q388.73926,423.91211,388.71,423.9707Zm.27832,3.58887a.094.094,0,0,0-.08789.10254.12579.12579,0,0,0,.04395.13184q.02929.0293.07324,0a.12827.12827,0,0,0,.05859-.19043A.09858.09858,0,0,0,388.98828,427.55957Zm.07324-.92285a.29509.29509,0,0,1-.08789.05859.04787.04787,0,0,0-.01465.0586q.04395.07323.0879.02929a.34066.34066,0,0,0,.05859-.08789Zm-.05859-1.80176-.04395.0293v.05859a.05973.05973,0,0,0,.01465.04395.1543.1543,0,0,0,.13184.05859.163.163,0,0,0,.07324-.01465.04668.04668,0,0,0,.01465-.07324.1367.1367,0,0,0-.10254-.10254l-.05859-.01465Zm0-.13184q.0293.14649.0293.16114,0,.08788.05859.07324a.09409.09409,0,0,0,.07324-.07324.924.924,0,0,0-.02929-.60059q-.02931.0879-.07325.23438a1.44442,1.44442,0,0,1-.07324.20507Zm.05859-5.30273q0,.01466.044.26367h.01465q-.02929-.249-.0293-.27832Zm.044.82031a.03884.03884,0,0,0,.04394-.04394v-.0293a.04224.04224,0,0,0-.01464-.0293h-.01465q-.04395.044-.04395.0586Q389.07617,420.2207,389.10547,420.2207Zm.38086,5.36133q-.044-.01464-.0586-.14648-.01464-.10254-.19043-.11719-.07323-.01466-.08789.0293a.37938.37938,0,0,0,.23438.46875.15522.15522,0,0,0,.13183,0,.07118.07118,0,0,0,.04395-.08789A.87789.87789,0,0,1,389.48633,425.582Zm-.30762-5.03906a.22.22,0,0,0,.04395.20508Q389.208,420.67481,389.17871,420.543Zm.07324.4541a.96432.96432,0,0,0,.0586.68848A1.37538,1.37538,0,0,0,389.252,420.99707Zm.4834,1.43555-.04394-.01465a.08738.08738,0,0,0-.01465.08789q.14647.58593.14648.60059.02929.05859-.05859.07324a.073.073,0,0,1-.07324-.01465.14717.14717,0,0,1-.07325-.11719,1.19564,1.19564,0,0,0-.11718-.38086v-.05859a2.77574,2.77574,0,0,0-.0293-.38086q-.01466-.10254-.05859-.30762a.08331.08331,0,0,0-.10254-.05859q-.07324.01464-.04395.08789a.318.318,0,0,1-.0293.23437q-.04394.0879.01465.13184a.32811.32811,0,0,1,.07325.30762.52266.52266,0,0,0,.07324.36621.67475.67475,0,0,1,.08789.41015.39042.39042,0,0,0,.07324.30762.58654.58654,0,0,0,.17578.13184q.0293-.02929,0-.20508a.191.191,0,0,0-.08789-.14649q-.08789-.05859.08789-.16113.05859-.02929.08789,0a1.715,1.715,0,0,1,.10254.16113q.05859-.01464.0586-.05859Zm-.07324-.835q0-.01466-.04395-.0293l-.02929.04394q-.02929.0879.05859.01465A.04217.04217,0,0,0,389.66211,421.59766Zm.39551,3.00293q-.01466,0,.20508.04394-.04395-.17578-.0586-.21973-.01464-.0293-.10254,0t-.11718-.01464q0-.01466-.01465-.10254a1.04385,1.04385,0,0,0-.14649-.27832H389.794q-.02931,0-.0293.01465l-.01465.07324a2.74858,2.74858,0,0,0,.14648.36621A.16677.16677,0,0,0,390.05762,424.60059Zm.02929-.42481.0293-.0293-.0293-.26367a2.18124,2.18124,0,0,0-.04394-.21972q-.01466-.05861-.08789-.04395a.041.041,0,0,0-.0293.05859Zm-.04394-5.74219q-.0293.01466-.0293.0293a.04224.04224,0,0,0-.01465.0293q0,.01464.07325.02929a.0422.0422,0,0,0,.02929-.01464Q390.16015,418.47753,390.043,418.43359Zm.14648,8.64258a.07914.07914,0,0,0-.11718-.01465q-.07325.0293-.07325.07325.01466.07323.10254.04394Q390.2041,427.16407,390.18945,427.07617Zm.16114-.64453a.08485.08485,0,0,0,.01464-.05859l-.01464-.0293h-.0586l-.01465.04395q0,.01464.0293.02929A.11235.11235,0,0,0,390.35059,426.43164Zm1.04,2.73926a.61659.61659,0,0,1-.10253-.01465h-.11719a.16882.16882,0,0,0-.11719.05859q-.07325.07325,0,.08789.10254.02931.08789.11719-.01464.16113.19043.21973a.14083.14083,0,0,0,.10254-.01465.08608.08608,0,0,0,.04395-.07324.08488.08488,0,0,0-.01465-.0586q-.13183-.08788-.04395-.32226Zm-.26367-9.19922-.04394.01465.05859.01465.0293-.0293Zm-.02929.14648.02929.01465a.163.163,0,0,0,.07325-.01465q.10253-.02929-.01465-.04394a.13.13,0,0,0-.0586.01465Zm.05859.38086q.01466.10254.01465.11719,0,.02929.08789.01465t.08789-.05859a.23606.23606,0,0,0-.0293-.10254q-.01464-.0293.0586-.07325.07323-.05859.08789-.07324-.19044,0-.21973-.04394a.18388.18388,0,0,0-.04394-.07325h-.0586q-.02929,0-.0293.01465l-.01464.0293v.05859l.01464.0586.0293.13183Zm.30762,1.30371q.10254-.02929.08789-.05859-.01466-.044-.10254-.0293-.16113.044-.11719.08789Q391.36133,421.832,391.46387,421.80273Zm-.08789.35157.05859.02929a.06923.06923,0,0,0,.07324-.05859q.11719-.27832.07324-.16113.02931-.05861-.11718-.0293a.10515.10515,0,0,0-.07325.04395Q391.39062,422.00781,391.376,422.1543Zm.20507.27832q-.01464-.0879-.02929-.08789,0-.0293-.0586-.0293t-.05859.04395q-.01466.13184-.01465.19042,0,.02931.04395.0586a.06228.06228,0,0,0,.05859,0,.1858.1858,0,0,0,.08789-.04395Q391.625,422.53516,391.58105,422.43262Zm.10254,10.3125q-.27831.10254-.16113.16113a3.012,3.012,0,0,0,.38086.19043.12994.12994,0,0,0,.05859-.01465.0469.0469,0,0,0,.0293-.04394q0-.05861-.0293-.07325a.14373.14373,0,0,1-.07324-.17578Q391.93262,432.65723,391.68359,432.74512Zm0-9.93164q-.02929-.044-.10254,0-.0293.01464-.01464.02929.02929.044.10254.01465A.11248.11248,0,0,1,391.68359,422.81348Zm.04395.27832a.05339.05339,0,0,0-.07324-.04395q-.04395.0293-.0293.0586a.05937.05937,0,0,0,.07324.02929Zm.17578.55664q-.01466-.04395-.07324-.01465a.04094.04094,0,0,0-.0293.05859q0,.04395.07324.01465Q391.918,423.67774,391.90332,423.64844Zm.20508.4541q-.0879-.17579-.10254-.21973a.0874.0874,0,0,0-.08789-.01465q-.05859,0-.044.0586l.0586.19043.02929.07324.01465.07324.0293.01465h.05859a.17054.17054,0,0,0,.04395-.0293.14238.14238,0,0,0,.0293-.07324.04225.04225,0,0,0-.01465-.0293v-.01464Zm-.16113-3.83789q0,.01464.04394,0,.04395,0,.04395-.01465t-.0586,0Zm.16113,4.11621-.04395.0293q0,.01464.0293.01464a.059.059,0,0,0,.05859-.02929Q392.15234,424.36622,392.1084,424.38086Zm.23437.20508-.04394-.04395a.1435.1435,0,0,0-.13184-.02929q-.08788.01464-.01465.08789a.48043.48043,0,0,0,.07325.05859.104.104,0,0,0,.08789-.01465A.04094.04094,0,0,0,392.34277,424.58594Zm-.07324.249a.09433.09433,0,0,0,.07324,0,.04692.04692,0,0,0,.0293-.04394q0-.02931-.05859-.01465Q392.25488,424.80567,392.26953,424.835Zm.13184-.73242q-.0879.0293-.07325.04394.02931.02931.11719,0,.04395-.01464.04395-.04394Q392.5039,424.07325,392.40137,424.10254Zm.08789.87891-.0293-.04395q-.0293-.02929-.07324,0-.0293.01466-.0293.0293-.01464.08789.01465.10254h.05859q.044-.01466.04395-.04395Q392.48927,425.02539,392.48926,424.98145Zm.21972.36621-.01464-.07325a.85823.85823,0,0,0-.08789-.07324q-.01466-.01464-.0586.01465-.02929.01466-.0293.0293a.59282.59282,0,0,0,.14649.293q.0293.02929.07324,0t.044-.0586q-.01466-.02929-.0586-.13183Zm-.04394,15.46875a.03662.03662,0,0,0-.05859,0q-.07325.05859-.04395.10254a.029.029,0,0,0,.04395.01464Q392.72363,440.88965,392.665,440.81641Zm.16113-16.377-.05859.0293q-.07324.04395-.0586.07324a.013.013,0,0,0,.01465.01465.15889.15889,0,0,0,.0586-.0293q.08788-.04394.07324-.07324Zm.01465,1.34766q.04395.044.05859.04394a.04785.04785,0,0,0,.0586-.01464.10175.10175,0,0,0,.02929-.10254.09063.09063,0,0,0-.10253-.0293.09579.09579,0,0,0-.04395.04395Zm.33691.4541-.05859.04395a.12071.12071,0,0,0,.10254.14648.04784.04784,0,0,0,.05859-.01465Q393.41211,426.28516,393.17773,426.24121Zm2.73926-2.60742a.44079.44079,0,0,0,0-.17578.52827.52827,0,0,0,.14649-.249q0-.05859.16113-.21972t.11719-.293a.24823.24823,0,0,1,.07324-.21973.223.223,0,0,0,.05859-.21972q-.0293-.14649-.27832-.14649-.08788-.01464-.07324-.08789t.11719-.10254q.10254-.02929.04394-.11719a1.32909,1.32909,0,0,1-.05859-.32226,3.225,3.225,0,0,1,.01465-.5127q.02929-.38085.02929-.52734,0-.07325.0879-.05859.05859,0,.07324.08789a.56813.56813,0,0,1,.02929.07324.04225.04225,0,0,0,.0293.01465q.0293,0,.0293-.01465a.336.336,0,0,0,.0293-.10254l.01464-.26367v-.67383l.01465-.11719q0-.14647.0293-.498.02929-.32227.04394-.5127.01466-.21972.11719-.26367a.2892.2892,0,0,0,.14649-.35156q.01464.10253,0-.13184a.13544.13544,0,0,1,0-.08789.36452.36452,0,0,1,.04394-.16113q.01466-.05861.044-.14649.01464-.05859.02929-.13183a1.19045,1.19045,0,0,1,.01465-.14649.93628.93628,0,0,1,.0293-.14648q.07324-.33691.14648-.38086.05861.07324,0,.39551-.08789.64452-.07324.51269l-.01465.249-.01465.07325v.07324l-.02929.16113q-.13183.89355-.14649,1.05469a1.48909,1.48909,0,0,0-.01465.23437,1.778,1.778,0,0,0,.01465.21973,1.48641,1.48641,0,0,1-.01465.35156v.16114l-.01464.11718v.19043a2.38782,2.38782,0,0,1-.0293.30762,2.72688,2.72688,0,0,0-.0293.32227,4.19755,4.19755,0,0,1-.08789.70312.05179.05179,0,0,0,.0586.05859.08439.08439,0,0,0,.05859-.02929.35364.35364,0,0,0,.05859-.21973q-.01464-.05859.07324-.04394.07325.01464.0879.04394a.33519.33519,0,0,1,.05859.13184.17777.17777,0,0,0,.10254.11718q.05859.04395-.04395.10254-.19043.13184-.07324.293a.15084.15084,0,0,1-.01465.21973q-.08788.07325-.07324.13184a1.79914,1.79914,0,0,1-.08789.4541,5.00527,5.00527,0,0,0-.11719.64453q-.01464.13184.14649.16113h.10254q.13184,0,.13183.08789a.33.33,0,0,1-.05859.11719q-.01466.02929-.08789-.01465-.05861-.0293-.11719.04395a1.08592,1.08592,0,0,0-.17578.30761,1.15773,1.15773,0,0,0-.04395.17578.27669.27669,0,0,0-.01465.08789v.07325q0,.08789.13184.08789a.90946.90946,0,0,1,.13184-.0293q.04393.04395-.0293.11719-.10254.08788-.08789.14648.01464.07324-.07324.0586-.05861,0-.07325-.07325a.18027.18027,0,0,0-.02929-.07324q0-.01464-.0586-.01465a.04222.04222,0,0,0-.02929.01465.116.116,0,0,0-.01465.14649l.11719.17578q.11718.14647-.0293.20508,0,.01464.20508.01464a.25148.25148,0,0,1,.10254.01465q.04393.02929-.0293.07324-.21972.11719-.249.20508a.09316.09316,0,0,1-.07325.0586.40019.40019,0,0,0-.21972.14648.41587.41587,0,0,0-.07324.21973q-.01466.08788-.0293.16113a.27637.27637,0,0,0-.01465.08789l-.01465.01465h-.0293v.01465l-.01464.04394a.80936.80936,0,0,1-.07325.16114q-.05859.10254.0586.14648a.23962.23962,0,0,1,.05859.01465.11252.11252,0,0,0,.04395.01465q.14648.07324.04394.17578-.02929.04395-.04394.04394a.86586.86586,0,0,1-.13184.07325,1.80334,1.80334,0,0,1,.17578.13183q.07324.05859.01465.11719a.14351.14351,0,0,1-.13184.0293.12994.12994,0,0,0-.05859-.01465.23962.23962,0,0,0-.05859-.01465q-.0879-.02929-.11719.04394a.4612.4612,0,0,0-.04395.17579.08608.08608,0,0,0,.04395.07324.11332.11332,0,0,0,.10254-.0293.13171.13171,0,0,1,.13183-.01465.09858.09858,0,0,1,.04395.08789.2858.2858,0,0,1-.10254.19043q-.05859.05861-.21973-.01465a1.89069,1.89069,0,0,1-.05859.32227,1.63993,1.63993,0,0,0-.04394.32227.23663.23663,0,0,1-.01465.14648l-.19043.68848a.48684.48684,0,0,0-.0293.11718.04218.04218,0,0,0,.01465.0293.40183.40183,0,0,1,0,.26367.501.501,0,0,0-.0293.27832.68411.68411,0,0,1-.10254.52735.15773.15773,0,0,0-.01465.14648,1.25837,1.25837,0,0,1-.04394.542,1.31129,1.31129,0,0,0,.04394.77637q0,.01466-.02929.16113a.33023.33023,0,0,0,.08789.38086.21031.21031,0,0,1,.08789.14649.16022.16022,0,0,0,.07324.13183q.13183.07325.01465.16114a.16571.16571,0,0,0-.05859.05859q-.01466.02929.02929.08789a.0841.0841,0,0,1,.01465.10254.57029.57029,0,0,1-.10254.05859.13348.13348,0,0,0-.07324.07325.28766.28766,0,0,0,.0293.249q.02929.08789.04394.14648a1.06711,1.06711,0,0,1,.01465.17578.456.456,0,0,1-.05859.16114.284.284,0,0,1-.10254.13183.11568.11568,0,0,0-.01465.17578.6886.6886,0,0,1,.13184.249v.10254a.3248.3248,0,0,1-.01465.10254.12994.12994,0,0,0-.01465.05859v.01465a.11254.11254,0,0,1,.01465.04394.3093.3093,0,0,0,.10254.14649.19482.19482,0,0,1,.04394.11719.08481.08481,0,0,1-.01465.05859.09575.09575,0,0,1-.04394.04394.27448.27448,0,0,0-.11719.32227.336.336,0,0,1,.0293.10254q.02929.08789.01465.04394l.01464.01465.044.01465h-.01465q-.0293,0-.0293.01465a.40086.40086,0,0,1-.01464.08789.33565.33565,0,0,0-.0293.10254l-.01465.01465a1.21044,1.21044,0,0,0-.01465.16113.32221.32221,0,0,0,.0586.13184q.04394.0293.08789.293.02929.11718-.14649.05859a1.19216,1.19216,0,0,1-.16113-.04395.34765.34765,0,0,0-.04395.21973.24907.24907,0,0,1-.07324.20508.01832.01832,0,0,0,0,.0293.56245.56245,0,0,1,.21973.21972q.0293.02929.05859-.01465a.23056.23056,0,0,0,.0586-.08789.24011.24011,0,0,0-.01465-.05859v-.05859a.58133.58133,0,0,1,.08789-.17579q.0293,0,.13183.19043.04395.07325.0293.10254a.44572.44572,0,0,0,0,.16114,1.43332,1.43332,0,0,0,.08789.14648q.02929.07325-.10254.08789h-.19043a.35231.35231,0,0,0-.35156.13184q-.10254.19043-.38086.04394a1.03649,1.03649,0,0,0-.65918-.14648.46094.46094,0,0,1-.49805-.21973,2.74666,2.74666,0,0,1-.30761-1.04.13544.13544,0,0,1,0-.08789l.02929-.14648.0293-.14649v-.27832q0-.01464-.0293-.02929V435.499l-.01465-.08789v-.14648l-.01464-.13184v-.10254a.225.225,0,0,1,0-.16113.05969.05969,0,0,0,.01464-.04394v-.0879q-.01464-.16113-.05859-.3955a.79663.79663,0,0,1-.0293-.21973v-.11719l-.01464-.07324a.48193.48193,0,0,0-.01465-.11719v-.05859l-.01465-.04395-.0293-.05859-.01465-.04394v-.07325q-.05859-.43946.08789-.58593.05861-.0586-.01464-.14649a.3271.3271,0,0,1-.04395-.32226.76647.76647,0,0,0,0-.36622,1.66713,1.66713,0,0,1,.11719-.8789q.02929-.05859.01465-.07324a.63092.63092,0,0,1,.04394-.46875.132.132,0,0,0,0-.08789.90839.90839,0,0,1,.08789-.60059q.13184-.36621.08789-.249a.13943.13943,0,0,0-.01465-.16114.4602.4602,0,0,1-.01464-.41015.65578.65578,0,0,0,.05859-.26367,1.43718,1.43718,0,0,1,.11719-.60059q.04393-.07324.01465-.10254a.31352.31352,0,0,1,.08789-.4248q.08788-.07325.02929-.14649a.445.445,0,0,1-.01465-.30762l.0293-.17578.0293-.17578a.58353.58353,0,0,1,.07324-.19043.31457.31457,0,0,1,.05859-.07324l.04395-.08789a.18372.18372,0,0,0,0-.14649.62745.62745,0,0,1-.04395-.14648q.02931-.07325.04395-.11719v-.02929l.01465-.04395.01465-.08789a.40086.40086,0,0,1,.01464-.08789l.01465-.0293.01465-.02929a.68646.68646,0,0,1,.249-.21973q-.21973-.16113-.17579-.30762.02931-.11718.0586-.26367a2.53807,2.53807,0,0,0,.05859-.293q0-.0293.01465-.14648.01466-.0879.0293-.14649l.04394-.30761q.05859-.27832.10254-.43946a1.34618,1.34618,0,0,1,.20508-.41015.52154.52154,0,0,0,.01465-.33692q-.02929-.17578.16113-.17578a.3841.3841,0,0,0,.35156-.36621.07119.07119,0,0,0-.08789.04394.08607.08607,0,0,1-.07324.04395.35577.35577,0,0,1-.17578-.04395q-.07324-.05859.01465-.11718a.30906.30906,0,0,0,.11718-.17578q.02931-.10254.16114-.08789.13184.0293.14648-.0879v-.02929q.05859-.249-.26367-.38086a.17913.17913,0,0,1,.05859-.14649.17912.17912,0,0,0,.0586-.14648q0-.04395.08789-.04395a.15751.15751,0,0,0,.20508-.14648,2.93591,2.93591,0,0,0,0-.43945,2.07668,2.07668,0,0,1,.02929-.293,1.39832,1.39832,0,0,0,.044-.27832v-.30762l-.01465-.19043.01465-.19043a6.70172,6.70172,0,0,1,.14648-1.02539q.04395-.23437.10254-.49805.01466-.13183.0293-.249l.0293-.11719v-.10254l.01464-.05859v-.07324a.9203.9203,0,0,0,.01465-.14649.71467.71467,0,0,0-.02929-.293q-.01466-.04394.04394-.11718a.132.132,0,0,0,0-.14649q.01466.02929.08789-.20508a1.89151,1.89151,0,0,0,.11719-.55664,2.88424,2.88424,0,0,1,.05859-.52734l-.01465.05859.0293-.13183q.044-.21974.14649-.26367.04394-.01466,0-.10254l-.04395-.08789q0-.07325.08789-.07325a.066.066,0,0,1,.08789.0586v.08789l.01465.58594V415.46a3.81277,3.81277,0,0,1-.10254.835,8037.67467,8037.67467,0,0,1-.08789.55664q-.0293.21973-.0293.27832l-.01464.293a1.2732,1.2732,0,0,1-.07325.30762q-.08789.27832-.10254.32226a2.96239,2.96239,0,0,0-.10254.9375q.01466.0879,0,.10254a.52751.52751,0,0,0-.08789.39551,2.14944,2.14944,0,0,1-.01464.23438l-.0293.23437a.94174.94174,0,0,0-.01465.17578q.01466,0,.10254-.08789a.22.22,0,0,1,.20508-.04394.09021.09021,0,0,1,.07324.10254.05179.05179,0,0,1-.05859.05859q-.0879,0-.35157.249-.11718.11719,0,.30762a.18892.18892,0,0,1-.04394.26367,2.60719,2.60719,0,0,0-.08789.36621q-.02929.16113.08789.20508a1.95844,1.95844,0,0,1-.0586.33691q-.10253.0586,0,.10254t.04395.20508l-.11719.30762a.133.133,0,0,1,.01465.19043q-.044.05859.07324.07324.11719.0293.10254.13184l-.05859.498a.35131.35131,0,0,1-.17578-.11718.09433.09433,0,0,0-.07324,0q-.02931,0-.0293.04394-.0293.10254.11719.32227.07323.11718.13183.08789A.11015.11015,0,0,0,395.917,423.63379Zm-2.56347,3.252v.01465a.06637.06637,0,0,0,.07324.01465q.04393-.01466.02929-.04395a.14238.14238,0,0,0-.02929-.07324h-.04395q-.01464,0-.02929.0293Zm.249.249a.40828.40828,0,0,1-.0293-.08789q-.02929-.0879-.10254-.04395a.13114.13114,0,0,0-.07324.08789.073.073,0,0,0,.01465.07324.49965.49965,0,0,1,.08789.20508.6168.6168,0,0,0,.01465.10254v.07324l.01465.07324a.487.487,0,0,0,.02929.11719q.01466.044.08789.0293a.05179.05179,0,0,0,.0586-.0586v-.249l-.01465-.07324A.50685.50685,0,0,0,393.60254,427.13477Zm-.17578-1.43555a.24088.24088,0,0,0-.01465.07324v.0293a.11237.11237,0,0,0,.01465.04394.53971.53971,0,0,0,.08789.16114q.07324.10254.11719.07324.04394-.01466-.01465-.13184-.04395-.08788-.08789-.16113-.01466-.02929-.0293-.0293a.04217.04217,0,0,0-.01465-.02929Zm.36621,2.124q-.05859-.02929-.044-.02929a1.79706,1.79706,0,0,1,.0586.17578.08443.08443,0,0,0-.0586-.0293.09385.09385,0,0,0-.08789.05859.56813.56813,0,0,1-.02929-.07324.4004.4004,0,0,1-.01465-.08789.08441.08441,0,0,0-.0293.05859q-.0293.0586-.01465.07325.01466.02929.13184-.01465a.167.167,0,0,0,.08789-.0586Zm-.0293,9.00879a.26408.26408,0,0,0-.02929-.23437A.24739.24739,0,0,0,393.76367,436.832Zm.38086-6.69433a.06974.06974,0,1,0,.10254-.0293q-.05859-.05859-.05859-.07324a2.97457,2.97457,0,0,0-.044-.36621.93221.93221,0,0,0-.0293-.13184.26655.26655,0,0,0-.08789-.11719.23845.23845,0,0,1-.08789-.293.21333.21333,0,0,0,.01465-.13183.23052.23052,0,0,0-.05859-.08789.13544.13544,0,0,0-.08789,0q-.07324.01464-.0586.05859a1.0359,1.0359,0,0,1,.0293.17578.81628.81628,0,0,0,.04395.20508,1.5119,1.5119,0,0,0,.10253.21973q.01466.02929.04395.10254l.0293.08789Zm-.39551,7.67578a.18764.18764,0,0,0,.19043.19043A.30687.30687,0,0,0,393.749,437.81348Zm.19043-11.13282-.05859.0293q-.07325.05859-.05859.10254.01464.01466.04394,0,.13183-.07325.11719-.11719Zm.0293,10.752.0293.11718q0,.01466.04394,0a.0844.0844,0,0,0,.0293-.16113.51146.51146,0,0,0-.13184-.08789Zm.08789-9.97559-.05859.044a.59724.59724,0,0,0-.01465.293.059.059,0,0,0,.05859.02929q.05859,0,.0586-.01465.04394-.14648.07324-.293Q394.18847,427.38379,394.05664,427.457Zm.10254.835a.35416.35416,0,0,1,.19043-.20508q.10254-.05859.0293-.08789a.26084.26084,0,0,0-.17579.044.302.302,0,0,0-.11718.08789q-.0879.14649.05859.16113Zm-.05859,10.98633-.04395.05859q-.01464.044.05859.0586.01466.01464.07325,0a.04222.04222,0,0,0,.01464-.0293.0579.0579,0,0,0-.02929-.08789Zm.08789-6.75293q.01464.01466.04394-.01465.0293-.01464.01465-.01465h-.04395Zm.08789-4.02832a.15855.15855,0,0,0-.07325.05859q-.01464.07325.10254.01465.05861-.0293.0586-.05859Q394.34961,428.48243,394.27637,428.49707Zm.20508,1.05469q0-.02929-.04395-.0293l-.0293.04395q0,.04394.04395.02929Q394.48145,429.5957,394.48145,429.55176Zm.16113,9.03808q.04395-.02929.04394-.05859-.01464-.07325-.10254-.04395-.08788.01466-.07324.07325Q394.54,438.6338,394.64258,438.58984Zm.04394.45411a.2271.2271,0,0,0-.10254-.249A.39636.39636,0,0,0,394.68652,439.044Zm-.04394-5.69825.0293.0293a.18024.18024,0,0,0,.07324-.0293.08483.08483,0,0,0,.01465-.05859,1.10627,1.10627,0,0,0,.01464-.20508.58979.58979,0,0,1,.01465-.16113q.01466-.23437.01465-.293a3.22,3.22,0,0,1,.13184-.61523.01832.01832,0,0,0,0-.0293h-.0293a.05969.05969,0,0,0-.04395.01465.622.622,0,0,1-.05859.08789l-.10254.35156a.62272.62272,0,0,0-.07324.33691v.49805Zm.07324,3.501-.0293.0293a.57406.57406,0,0,0,.0586.26367.07323.07323,0,0,0,.11718,0,.2508.2508,0,0,0-.10253-.27832A.05969.05969,0,0,0,394.71582,436.84668Zm.05859-1.64063a2.989,2.989,0,0,0,.33692,1.084q-.044-.14649-.16113-.5127l-.0879-.27832Q394.78907,435.25,394.77441,435.20605Zm.4834-8.833q.01466-.10254-.13183-.10254-.10254,0-.11719.05859-.02929.1172.16113.11719Q395.25782,426.44629,395.25781,426.37305Zm-.08789,5.127a.15109.15109,0,0,1-.05859.0293q-.05859.07323.02929.11718a.08352.08352,0,0,0,.0879-.02929.07325.07325,0,0,0,0-.11719Zm.293-6.0498q.01466-.0879-.08789-.11719a.07852.07852,0,0,0-.08789.05859.09565.09565,0,0,0,.07324.11719Q395.44825,425.52343,395.46289,425.4502Zm-.05859-4.33594q.01464-.16113.01465-.19043l-.04395-.0293-.0293.044A.21528.21528,0,0,0,395.4043,421.11426Zm.07324,3.47168a.25293.25293,0,0,0-.04395.20508,1.21545,1.21545,0,0,0,.0293.249.10515.10515,0,0,0,.07324.04394q.05861.02931.0586-.04394a4.66724,4.66724,0,0,1,.23437-.80566q.05859-.21973.01465-.23438-.02929-.02929-.293.05859-.11718.0293-.05859.11719A.33791.33791,0,0,1,395.47754,424.58594Zm.16113,7.17773a.17921.17921,0,0,0,.16113.04395q.02931,0,.0293-.01465,0-.044-.05859-.05859-.10254-.02931-.13184,0Zm.08789,6.73828q.04395-.01464.04395-.04394-.02929-.04395-.0586-.0293-.01464,0-.02929.05859Q395.68262,438.502,395.72656,438.502Zm.01465-15.55664-.04394.0586.04394.04394q.04395,0,.0293-.05859Zm.08789,9.24317q.0879,0,.08789-.0586.01466-.10254-.11719-.08789a.05179.05179,0,0,0-.05859.0586Q395.72657,432.18848,395.8291,432.18848Zm.04395,6.67968v.04395l.04394.01465q.01466,0,0-.0293A.04692.04692,0,0,0,395.87305,438.86816Zm.01465-16.30371.02929.04395q.01466.01464.04395,0,.11718-.044.10254-.11719a.09436.09436,0,0,0-.044-.05859.04783.04783,0,0,0-.05859.01465A.1324.1324,0,0,0,395.8877,422.56445Zm.01464,8.34961.0586.0293q.07324-.01466.07324-.07324t-.07324-.04395A.07852.07852,0,0,0,395.90234,430.91406Zm.23438-2.51953q-.13184.01466-.10254.10254.01466.04395.08789.04395.13184-.01466.10254-.10254Q396.21,428.39453,396.13672,428.39453Zm.10254,9.126a.61829.61829,0,0,0,.10254.33691q.13184.17578.16113.21973l.05859.11719a.57279.57279,0,0,1,.044.11718,1.166,1.166,0,0,1,.08789.62989.05338.05338,0,0,0,.04394.07324h.07325a.22968.22968,0,0,0,.05859-.04395.1805.1805,0,0,0,.0293-.10254.30458.30458,0,0,1-.01465-.11718.62984.62984,0,0,1-.01465-.11719,1.5953,1.5953,0,0,0-.17578-.498q-.05859-.11718-.33691-.57129A.13187.13187,0,0,0,396.23926,437.52051Zm.65918-11.38184-.04395-.05859a.37833.37833,0,0,0-.30761.07324.36759.36759,0,0,0-.10254.11719q-.02931-.01466-.01465-.01465.01464.08789.08789.04394l.05859-.02929h.04395a.67935.67935,0,0,0,.13183.01465q.05861,0,.07325.02929v.01465h.01464l.01465-.05859Q396.91308,426.10938,396.89844,426.13867Zm-.39551-4.61426-.01465-.10253a.61258.61258,0,0,0-.0293.10253l.0293.04395A.11235.11235,0,0,0,396.50293,421.52441Zm-.0293-8.75976.01465-.0293h.01465l.14648.01465h0l-.05859-.01465.01465.01465q-.01466.04395-.10254.0293Zm.13184,10.01953a.17664.17664,0,0,0-.0293.19043.25319.25319,0,0,0,.08789-.17578q0-.01466-.02929-.01465Q396.60546,422.76953,396.60547,422.78418Zm-.044,3.06152.01465.0586a.0706.0706,0,0,0,.10254,0q.05859-.04395-.0293-.07325A.06381.06381,0,0,0,396.56152,425.8457Zm.11719,1.06934-.05859.01465a.12659.12659,0,0,0-.04395.08789.09688.09688,0,0,0,.01465.08789q.02929.04395.08789.01465a.1044.1044,0,0,0,.04395-.16114Zm.08789-4.51172a.16315.16315,0,0,0-.04394-.16113q-.02931.01464-.0586.14648-.0293.0879.04395.07324Q396.75195,422.46191,396.7666,422.40332Zm.01465-.542.0293-.04395a.05339.05339,0,0,0-.07325-.04394.04691.04691,0,0,0-.04394.02929Q396.66407,421.90527,396.78125,421.86133Zm.11719-7.86621.04394-.0293-.01465-.07324a.40086.40086,0,0,1-.01464-.08789v-.39551a.92137.92137,0,0,0-.01465-.14648q0-.0586-.07324-.07325-.0586-.01464-.04395.04395v.16113a1.27019,1.27019,0,0,1,.01465.17578v.26367l.01465.0293.01465.07324q0,.01466.04394.0586Zm-.10254,2.3291q-.0293.13183.05859.10254a.08807.08807,0,0,0,.0586-.0586q.01464-.07323-.07325-.08789Zm.293,6.73828a.08151.08151,0,0,0,.07324.08789q.07325.01466.05859-.04394a.08151.08151,0,0,0-.08789-.07325Zm.11718-.43945q-.04394.10254.01465.11718a.05339.05339,0,0,0,.07325-.04394q.01464-.04395-.04395-.07324Zm.0879-8.30567a.15261.15261,0,0,0,.01464.08789q0,.0293.04395.0293t.04394-.0293a.401.401,0,0,0-.01464-.08789q-.01466-.05859-.0586-.04394Zm.07324,2.54883q.04393-.16113.02929-.13183.01466-.0586-.02929-.07325-.02929,0-.04395.04395A.13982.13982,0,0,0,397.36719,416.86621Zm.05859-.87891a.39623.39623,0,0,0,.044-.27832l.01465-.02929a.36977.36977,0,0,0-.04395-.08789.09584.09584,0,0,0-.04395-.04395.06767.06767,0,0,0-.07324.04395v.07324Q397.32324,415.60645,397.42578,415.9873Zm.08789,2.50489q.07324-.02929.07324-.07324,0-.01466-.02929-.0293a.07851.07851,0,0,0-.08789.05859Q397.46973,418.47754,397.51367,418.49219Zm.04395-.791q-.01466.11719-.01465.07324.01464-.04394-.01465.13184-.01466.04395-.0293.10254,0,.08789.044.10254.05859,0,.08789-.08789l.01465-.04395a.159.159,0,0,1,.02929-.05859.43015.43015,0,0,0,.01465-.10254l.01465-.0293v-.02929q0-.23437-.04394-.26368Q397.58692,417.42286,397.55762,417.70117Z" fill="#666"/>
      <path d="M410.94043,426.8418v.43945a.36824.36824,0,0,1-.05859.249.42088.42088,0,0,0-.04395.27832,2.28442,2.28442,0,0,1-.11719,1.02539,2.48021,2.48021,0,0,0-.08789.27832.986.986,0,0,0-.01465.293v.07325a.43059.43059,0,0,1-.01464.10253l-.04395.17579q-.07325.19042-.27832.70312a6.33809,6.33809,0,0,0-.249.68848,3.55788,3.55788,0,0,0-.36621.52734.289.289,0,0,0-.10254.20508,1.19088,1.19088,0,0,1-.19043.36621q-.17578.249-.43946.58594-.20506.26367-.46875.58594-.05859.07323-.249.32226a2.17309,2.17309,0,0,1-.23437.293q-.04395.044.02929.04394a.20828.20828,0,0,0,.11719-.02929,3.54472,3.54472,0,0,0,.60059-.61524l.05859-.08789a.22962.22962,0,0,1,.04394-.05859,1.60107,1.60107,0,0,1,.11719-.13184,1.6267,1.6267,0,0,1,.27832-.21972q.04395-.04395.07324,0,.02931.01464.01465.08789a.21726.21726,0,0,1-.05859.10254,1.84884,1.84884,0,0,0-.21973.23437l-.02929.0586-.04395.05859-.04394.07324q-.01466,0-.01465.0293a.11237.11237,0,0,0-.01465.04394l-.17578.17578q-.01466.07325.13183.21973a.4285.4285,0,0,1,.08789-.26367q.16115-.17579.07325-.10254l.08789-.08789a.15522.15522,0,0,1,.13183,0,.12508.12508,0,0,1,.0586.16113.19523.19523,0,0,1-.07325.08789q-.02929.04395-.01464.04395a.29812.29812,0,0,0-.21973.0293q-.13183.05859-.13184.13183l-.08789.044a.35591.35591,0,0,1-.17578.19043q-.07324.04394-.11719-.0586-.02929-.13184-.17578,0l-.26367.23438q-.16113.13184-.11719.23437a.4004.4004,0,0,1-.01465.08789q-.05859.14649-.17578.10254a.28859.28859,0,0,1-.10254-.07324q-.05859-.05859-.16113,0a1.86145,1.86145,0,0,0-.20508.10254q-.20508.13184-.10254.16113.04395.01466.16114-.05859a.42884.42884,0,0,1,.11718-.07324q.04395-.02931.0586.01464.02929.04395,0,.0586a3.90182,3.90182,0,0,0-.36621.293,1.46214,1.46214,0,0,1-.14649.13183l-.04394.01465-.04395.044q-.11718.07323-.16113.10254-.04395.01464-.11719.04394l-.05859.01465-.0293.01465-.01465.01465a.23992.23992,0,0,0-.05859.01464q.08789-.0293-.13184.0586-.17577.08788-.13183.05859a.31836.31836,0,0,1-.17578.01465.33549.33549,0,0,0-.17579.04395,1.1896,1.1896,0,0,1-.35156.14648.87188.87188,0,0,1-.4541.04395.78537.78537,0,0,0-.51269.10253.60469.60469,0,0,1-.45411.0586h.13184l-.0293-.01465a.87866.87866,0,0,0-.11718-.0293.88722.88722,0,0,1-.52735-.05859.58049.58049,0,0,0-.21972-.04395,2.53643,2.53643,0,0,1-.9668-.33691.93309.93309,0,0,1-.16113-.10254,5.31016,5.31016,0,0,0-.835-.67383q-.14648-.11718-.32226-.27832-.08788-.07324.01465-.08789.14647-.02929,0-.13183a1.7539,1.7539,0,0,1-.32227-.36622q-.38085-.57128-.26367-.41015a.43845.43845,0,0,1-.08789-.23438.44344.44344,0,0,0-.0293-.21972,1.9051,1.9051,0,0,0-.07324-.20508,3.2599,3.2599,0,0,1-.26367-.835q-.044-.19043-.13184-.61524-.08788-.3955-.11718-.60058-.07325-.45411-.07325-.498-.04393-.52734-.05859-1.17187-.01466-.58594,0-1.17188a.80544.80544,0,0,0,0-.21973q-.01466-.14648-.01465-.20507a1.23412,1.23412,0,0,1,.0293-.21973,1.01518,1.01518,0,0,0,.02929-.20508l.01465-.35156v-.38086l.01465-.11719.01465-.10254.01465-.16113.01465-.36621a.41122.41122,0,0,0-.01465-.19043.7389.7389,0,0,1,.04394-.46875,1.881,1.881,0,0,0,.10254-.30762q.01466-.05859.04395-.19043t.04394-.21972l-.08789.11718q-.0293.02931-.04394.0293-.05861-.01464-.04395-.08789a.48682.48682,0,0,0,.0293-.11719l.0293-.10254a.70508.70508,0,0,1,.07324-.19043,2.46821,2.46821,0,0,0,.21972-.9082,2.64117,2.64117,0,0,0,.10254-.38086,1.14879,1.14879,0,0,1,.19043-.39551l.01465-.01464a.6625.6625,0,0,1,.0586-.0879.65018.65018,0,0,0,.05859-.11718q.0293-.07324.04394-.10254.14649-.249.33692-.52735l.38086.17579a1.825,1.825,0,0,0-.26367-.19043l-.0293-.0293.01465-.01465h.07324v-.0293h-.13184a.17.17,0,0,0,.0293-.04394.22965.22965,0,0,1,.04395-.0586.16571.16571,0,0,1,.05859-.05859q.13184-.13184.14648.05859a.07852.07852,0,0,0,.08789.0586q-.13184,0,.26368-.07324a.04691.04691,0,0,1,.04394.02929q.01466.01466-.01465.04395a.50529.50529,0,0,0-.13183.16113q-.05861.13183.07324.13184h.05859a.23955.23955,0,0,1,.0586-.01465q.10254.01464.04394.08789l-.05859.08789a.23941.23941,0,0,1-.01465.05859.14241.14241,0,0,0-.0293.07325q.01466-.04395.0293-.04395a.15753.15753,0,0,0,.0293.08789q.04393.04395,0,.13184l-.07324.14648a.27136.27136,0,0,0,0,.33692l.01464.04394q.05861.05859.044.10254-.01466,0-.01465.0293,0-.01466-.0293.04394a.25691.25691,0,0,0-.02929.07324v.10254a.80435.80435,0,0,1-.044.10254.99572.99572,0,0,1-.08789.21973.74586.74586,0,0,0-.0293.32226.70515.70515,0,0,1-.04394.46875q-.0293.02931,0,.13184a.15249.15249,0,0,1-.01465.08789.549.549,0,0,0-.13184.249.38127.38127,0,0,0-.01464.11719.48731.48731,0,0,1-.0293.11719l-.0293.19043q-.04395.23438-.10254.19043a.29182.29182,0,0,1-.07324-.23438.44416.44416,0,0,0,.01465-.13183.93553.93553,0,0,1,.0293-.14649q0-.02929-.01465-.14648,0-.02929-.04395-.04395a.08441.08441,0,0,0-.05859.0293.15753.15753,0,0,0-.0293.08789,4.48615,4.48615,0,0,1-.13183.73242q-.04395.11719.07324.08789.05859-.01464.02929-.01464a.6338.6338,0,0,1,.21973-.01465.32391.32391,0,0,1-.01465.33691q-.04393.05859-.07324-.01465-.07325-.16113-.04394-.11719-.04395-.05859-.16114,0-.07324.02931-.01465.10254a.13.13,0,0,1,.01465.0586l-.04394.293a.52844.52844,0,0,1-.07324.26367.15745.15745,0,0,0-.0293.08789q0,.044.05859.05859.044,0,.04395.07324v.21973a1.79664,1.79664,0,0,0,.01465.249.12175.12175,0,0,1-.04395.11718.43358.43358,0,0,0-.10254.33692q.01466.10254.0293.41015.01464.26367.01465.42481.02929.73242.02929.95215,0-.01466.0293,1.25976.01466.26367.11719.86426-.01466-.07325.02929.19043,0,.08789.01465.08789a1.45283,1.45283,0,0,1,.27832.60059q.0293.08788.10254.08789a.2984.2984,0,0,1,.19043.13183,4.853,4.853,0,0,0,.498.64453.61573.61573,0,0,0,.20508.14649,1.418,1.418,0,0,1,.21972.16113.25131.25131,0,0,0,.10254.01465.13184.13184,0,0,1,.11719.04394.36306.36306,0,0,0,.33691.0879.254.254,0,0,1,.14649-.21973.52543.52543,0,0,1,.4541,0q0-.0293-.10254.11719-.04395.07323.0293.08789a2.55057,2.55057,0,0,0,.55664.08789h.04394a.987.987,0,0,0,.16114.01465.18084.18084,0,0,0,.10254-.04395.48717.48717,0,0,1,.26367-.07324,1.71594,1.71594,0,0,0,.41015-.17578.23327.23327,0,0,1,.293,0,.18054.18054,0,0,0,.10254.02929.14235.14235,0,0,0,.07324-.02929.04222.04222,0,0,0,.0293-.01465q.04395-.044.04395-.0586a.71685.71685,0,0,1,.07324-.04394,1.64709,1.64709,0,0,0,.82031-.64453.23238.23238,0,0,1,.35156-.0586.17071.17071,0,0,0,.249-.04394q.04393-.05859.19043-.23438t.20507-.249a.72021.72021,0,0,0-.21972.14648.902.902,0,0,0-.14649.19043l-.05859.0586a.07325.07325,0,0,1-.08789,0,.14242.14242,0,0,1-.0293-.07324,1.51959,1.51959,0,0,1,.0586-.19043.523.523,0,0,1,.14648-.14649.318.318,0,0,0,.11719-.20508q0-.07323.08789-.07324.07324-.01464.08789.04395a1.27223,1.27223,0,0,1,.04394.21972q.11719-.16113.17579-.249a.14594.14594,0,0,0,.02929-.14648.22284.22284,0,0,1,.01465-.20508.13.13,0,0,0,.01465-.0586,1.75231,1.75231,0,0,1,.27832-.76171.05936.05936,0,0,1,.07324-.0293q.04395.01464.0293.07324a.20175.20175,0,0,0,.04394.27832.06224.06224,0,0,0,.0586,0,.08441.08441,0,0,0,.0293-.05859.83815.83815,0,0,1-.01465-.293.64279.64279,0,0,0-.0293-.293.1327.1327,0,0,1,.0293-.14648,3.67628,3.67628,0,0,0,.26367-.498.95828.95828,0,0,1,.05859-.10254.05766.05766,0,0,1,.10254.0293.813.813,0,0,1-.04394.30761,1.05149,1.05149,0,0,0-.07325.33692q.01466.07324.04395.07324.044.01466.07324-.04395a2.4698,2.4698,0,0,0,.16113-.32226q.11719-.35157.10254-.30762a.20983.20983,0,0,0-.02929-.23437,1.33224,1.33224,0,0,1-.20508-.26368.18567.18567,0,0,1,0-.17578q.07324-.17577.17578-.02929.13184.19042.05859.10254a.09571.09571,0,0,0,.11719.02929q.02929-.01464.05859-.10254.11719-.57129.14649-.64453a.09442.09442,0,0,0,0-.07324q-.01466-.07325-.044-.07324-.14648-.01466-.08789-.17578a.29934.29934,0,0,0-.07324-.293.5112.5112,0,0,1-.08789-.13184.579.579,0,0,1-.13184-.52734v-.0586q.01466-.21972.08789-.20507.0879.02929.14649.19043a.44449.44449,0,0,1,.01465.13183q0,.14649.07324.14649a.15919.15919,0,0,0,.17578-.13184,1.70054,1.70054,0,0,0,.0293-.68848,2.15718,2.15718,0,0,1-.0293-.38086.50259.50259,0,0,0-.0293-.20507.71842.71842,0,0,1,0-.49805,1.01141,1.01141,0,0,0-.01464-.5127,3.39887,3.39887,0,0,1-.07325-.4541q-.01464-.08788-.14648-.61523a4.3026,4.3026,0,0,0-.11719-.46875,2.67665,2.67665,0,0,0-.16113-.52735,502.87224,502.87224,0,0,1-.0586-.08789H408.626a.15191.15191,0,0,1,0-.13183.4263.4263,0,0,0-.11719-.42481.31457.31457,0,0,0-.07324-.05859l-.0293-.04395q-.16113-.23437-.14648-.21972a2.65389,2.65389,0,0,0-.5127-.43946q-.01466,0-.04395-.02929l-.01464-.01465a2.0868,2.0868,0,0,1-.27832-.36621.35125.35125,0,0,0-.249-.08789.21848.21848,0,0,1-.21972-.13184.382.382,0,0,0-.41016-.23437q-.3955.05859-.30762,0a1.24642,1.24642,0,0,0,.16114.16113q.11718.10254.16113.14648t.01465.07325q-.01466.04394-.08789.01464a.46378.46378,0,0,1-.249-.21972.17055.17055,0,0,1-.02929-.04395q-.0879-.11718-.19043,0a.25124.25124,0,0,1-.19043.10254.18215.18215,0,0,1-.10254,0q-.04395-.01464-.11719-.04394a.52522.52522,0,0,0-.4834.10254q-.11718.08788-.14648-.0293-.01466-.0879-.14649-.08789a.82243.82243,0,0,0-.4541.13183l-.23437.11719a.26009.26009,0,0,1-.11719.0293.3142.3142,0,0,1-.07324-.0586q-.01466-.01464.02929-.04394a.73224.73224,0,0,1,.17578-.07324.80479.80479,0,0,0,.23438-.19043l-.05859-.0293q-.07325.02929-.27832.11719a.95868.95868,0,0,1-.293.10254,2.77772,2.77772,0,0,0-.27832.16113q-.05861.044-.08789,0a.09685.09685,0,0,1,.01464-.08789,1.73744,1.73744,0,0,1,.32227-.249q.27832-.17579.27832-.21973-.10254-.02929-.33691.11719-.1172.07323-.70313.36621a1.53932,1.53932,0,0,0-.23437.14648,2.74693,2.74693,0,0,1-.542.35156l-.19043.14649q-.13184.11718-.16113.11719-.01464-.02931.0586-.14649.05859-.08788-.04395-.10254-.04395-.01464-.01465-.08789a.93669.93669,0,0,0,.11719-.21972.82545.82545,0,0,0,.10254-.23438,2.27137,2.27137,0,0,0-.52735.41016,1.68516,1.68516,0,0,1,.36622-.57129q.20506-.21974.249-.26367.13183-.14649.27832-.30762a.75954.75954,0,0,0-.27832.20508.9579.9579,0,0,1-.08789.10254l-.08789.08789q-.0879.10254-.17578.04394-.10254-.05859-.0293-.13183.14649-.16115.26367-.27832.17579-.14649.33692-.26368h.01464l.08789-.07324.0879-.05859.17578-.11719q.21972-.14649.3955-.249a.39071.39071,0,0,0,.10254-.07325.163.163,0,0,0,.01465-.07324q0-.05859-.07324-.02929a1.697,1.697,0,0,0-.5127.23437.90177.90177,0,0,1-.19043.14649.34066.34066,0,0,1-.08789.05859l-.11718.05859-.0586.0293q-.11718.07325-.249.16113a.4591.4591,0,0,1-.11719.08789l-.10254.10254a2.512,2.512,0,0,0-.32226.32227q-.07324.08788-.13184.14648t-.08789.04395q-.05859-.01466,0-.08789.13184-.16115.26367-.30762.07324-.07325.14649-.16113l.08789-.07325.10254-.10253q.02929-.02931.38086-.293a.681.681,0,0,0,.10253-.13184.68936.68936,0,0,1,.32227-.16113,4.20186,4.20186,0,0,0,.60059-.249q.249-.11718.48339-.20507a4.602,4.602,0,0,1,.57129-.16114q.0879-.01464.14649-.02929l.08789-.01465h.04394l.19043-.01465a3.36049,3.36049,0,0,1,.41016-.0293q.16113,0,.4541-.02929.10254,0,.293-.01465h.14648a.44457.44457,0,0,0,.13184-.01465,3.38093,3.38093,0,0,1,.4834.04394l.07324.01465q.17579.02929.19043-.07324a.15889.15889,0,0,1,.0293-.05859q.05859-.07324.19043.02929l.04394.0293a1.86621,1.86621,0,0,0,.61524.542q.0293.01466.27832.16114.04393.02929.07324,0,.044-.02931-.01465-.0879-.04395-.0293-.11719-.08789a1.26988,1.26988,0,0,1-.13183-.10253q-.05859-.0586,0-.0879a.09441.09441,0,0,1,.07324,0,.375.375,0,0,1,.23438.14649,3.63851,3.63851,0,0,1,.23437.33691,1.31183,1.31183,0,0,0,.21973.30762q.14648.13184.32226.32227l.17578.17578q-.02929.0293.16114.23437a3.85818,3.85818,0,0,1,.58593.74707l-.01464-.01465a2.45911,2.45911,0,0,1,.14648.23438q.07325.13184.14648.293.10254.26367.19043.55664v.01465l.01465.01465.04395.16113.05859.17578q.05859.20508.10254.35156a9.519,9.519,0,0,1,.21973,1.05469l.02929.27832a1.53605,1.53605,0,0,1,.0293.26367l.04395.5127A14.56941,14.56941,0,0,1,410.94043,426.8418Zm-11.11816,1.582a4.80726,4.80726,0,0,0-.0293-.95215q-.0293.77637-.044.95215v.98144q.01466-.16113.0293-.48339Q399.82227,428.46777,399.82227,428.42383Zm.48339-4.77539q.01466-.04395-.01464-.0586t-.04395.0586q0,.05859.01465.05859Q400.27636,423.72169,400.30566,423.64844Zm.14649-.84961q-.01466-.07324,0-.07324-.0293,0-.0293.05859-.01464.07325,0,.07324Zm.498-1.34766.01464-.01465a.04222.04222,0,0,1-.01464.0293Q400.9795,421.42187,400.9502,421.45117Zm.02929,2.75391q-.01464.10254.04395.13183.07324.01466.08789-.08789.02929-.11718-.07324-.11718Q401.00878,424.13184,400.97949,424.20508Zm.10254,10.13672h.05859l-.02929-.0586q-.044-.01464-.04395.0293Q401.06738,434.34179,401.082,434.3418Zm.16113-10.91309a.64336.64336,0,0,0-.05859.42481A1.432,1.432,0,0,0,401.24316,423.42871Zm.30762-2.75391q.01466-.01464.01465,0-.01466.13185-.23438.26368A.47644.47644,0,0,1,401.55078,420.6748Zm.08789,15.04395a.35511.35511,0,0,1,.249.11719l.02929.05859-.07324.01465a.32378.32378,0,0,1-.249-.13184Q401.55078,435.70411,401.63867,435.71875Zm.0586-12.30469a.15858.15858,0,0,1,.02929-.13183.04219.04219,0,0,1,.0293-.01465q.044.01464.04394.0293a.10491.10491,0,0,1,.01465.11718l-.05859.04395Zm.73242-1.71386a.06222.06222,0,0,1,.05859,0,.04784.04784,0,0,1,.01465.05859,1.81845,1.81845,0,0,1-.249.30762.0623.0623,0,0,1-.0586,0,.08488.08488,0,0,1-.01465-.0586q.01466-.01464.16114-.249A.62457.62457,0,0,0,402.42969,421.7002Zm.01465,11.36718a.17029.17029,0,0,1,.02929-.04394.64931.64931,0,0,1,.20508-.0293,1.03465,1.03465,0,0,0,.17578-.0293q.11719-.01464.04395.19043t-.17578.10254a.22429.22429,0,0,0-.19043-.10254.71607.71607,0,0,1-.07325-.04394A.029.029,0,0,1,402.44434,433.06738ZM403.25,420.543q.21972-.1172.36621-.20508v-.01465a3.90054,3.90054,0,0,0-.38086.20508Zm.23438,2.43164q0-.01466.01464,0a.17029.17029,0,0,0-.04394-.0293q-.044-.01464-.0293-.01465a.15889.15889,0,0,0,.0586.0293.01294.01294,0,0,1,.01464.01465.11235.11235,0,0,0,.044.01465.04222.04222,0,0,0,.0293.01465h-.01465a.11252.11252,0,0,1-.04395-.01465Q403.48438,422.98926,403.48438,422.97461Zm.293-1.96289a.04691.04691,0,0,1-.02929.04394q-.05861.044-.07325-.01464l.0293-.04395Q403.76269,420.96777,403.77734,421.01172Zm.0586-2.46094.04394-.04394h.08789l-.04394.04394Zm.62988,1.49414q.07325-.01464.08789-.04394,0-.0293-.08789-.01465l-.08789.02929q-.02929.01466,0,.0293Zm-.0293-1.626q-.07323-.01466-.04394-.04395a.159.159,0,0,1,.05859-.0293.11235.11235,0,0,0,.04395-.01465.25152.25152,0,0,1,.10254.01465q.02929.01466,0,.04395l-.0586.0293h-.10254Zm.46875-.04395q-.02929,0-.02929-.01465.01464-.04395.02929-.04394a2.65555,2.65555,0,0,1,.26368-.07325.55343.55343,0,0,0,.35156-.17578.67509.67509,0,0,1,.23437.0586.61459.61459,0,0,0,.249.05859,2.25009,2.25009,0,0,1,.46875.04395q.14648.02929.13183.10253-.02929.0586-.17578.0293-.27833-.02929-.4541-.04394v.01464a6.86877,6.86877,0,0,0-.95215.04395A.2344.2344,0,0,1,404.90527,418.375Zm.65918,2.06543q.11719,0,.04395-.04395-.0293-.02929-.04395-.02929-.19043,0-.498.02929v.04395A4.20217,4.20217,0,0,1,405.56445,420.44043Zm-.02929-.58594q-.16115.01466-.36621.0293A.7909.7909,0,0,0,405.53516,419.85449Zm2.09472,14.58985a.0835.0835,0,0,0,.0293-.08789q-.01466-.0586-.08789-.01465a2.13037,2.13037,0,0,1-.27832.16113q-.19043.08788-.27832.13184-.13184.08788-.27832.19043l-.32227.20507-.36621.19043-.35156.17578q-.17579.0879-.20508.16114-.14649,0,.36621-.17578a2.15514,2.15514,0,0,0,.293-.10254l.13184-.0586.19043-.07324.05859-.0293.07324-.04394.0293-.0293h.0293l.08789-.05859a.96015.96015,0,0,0,.14648-.11719.56066.56066,0,0,1,.39551-.21973A.49686.49686,0,0,0,407.62988,434.44434Zm-1.77246-16.81641q.01466.044-.11719.04395l-.07324-.0293q-.02929-.044.10254-.04395Q405.84277,417.59863,405.85742,417.62793Zm-.05859,4.39453q-.044.11719-.0293.08789a.08351.08351,0,0,1-.08789.0293q-.01464,0-.01465-.0293a.11809.11809,0,0,1,.0586-.08789l.04394-.0293a.04222.04222,0,0,1,.0293-.01464v.04394Zm.07324-1.64062q.11719-.01466.10254-.10254a.04219.04219,0,0,0-.01465-.0293q-.08789-.07325-.14648.04395Q405.76953,420.39648,405.87207,420.38184Zm.87891-.23438q.23438.10254.3955.17578a2.20477,2.20477,0,0,0-.36621-.249,2.06417,2.06417,0,0,0-.43945-.17578,2.8492,2.8492,0,0,0-.33691-.04395q.27831.10254.32226.11719Q406.54591,420.05957,406.751,420.14746Zm-.13184,15.249a.17381.17381,0,0,0,.10254-.10253l-.08789.01464a.17054.17054,0,0,0-.04395.0293q-.05859.02929-.05859.05859t.07324,0Zm.64453-15.26367q.10254.10254.07324,0a.05743.05743,0,0,0-.04394-.05859h-.05859Zm1.97754,2.417q.01466.02931.08789.19043.044-.02929.01465-.10253l-.0293-.11719-.01465-.0293v-.04394l-.14648-.41016a1.90447,1.90447,0,0,0-.23437-.41016l.01464.0293a2.80448,2.80448,0,0,0-.52734-.60059h-.04395a.16073.16073,0,0,0,.0586.10254,2.27078,2.27078,0,0,1,.4541.542l-.01465-.01465a3.36991,3.36991,0,0,1,.249.3955q.04394.0879-.0293.11719a.12.12,0,0,1-.07324-.04394,1.05824,1.05824,0,0,1-.13184-.20508q-.07325-.14649-.10254-.19043a.74839.74839,0,0,0-.30762-.33691l-.07324-.07325q-.23437-.27831-.30762-.38086l-.01464-.01465-.08789-.08789a3.24589,3.24589,0,0,0-.43946-.33691q-.11718-.07325-.14648-.0293-.04395.044.07324.11719a.753.753,0,0,1,.249.249.31825.31825,0,0,0,.16114.16114.36972.36972,0,0,1,.08789.04394,2.18675,2.18675,0,0,1,.293.33692,4.78249,4.78249,0,0,0,.36621.4541h.01464v.01465a.74006.74006,0,0,1,.19043.27832,1.554,1.554,0,0,1,.0879.32226l.01464.08789v.04395l.01465.04394a1.01729,1.01729,0,0,0,.11719.32227,1.48518,1.48518,0,0,0,.19043.27832.96686.96686,0,0,0-.05859-.32227.49145.49145,0,0,0-.11719-.27832,678.48748,678.48748,0,0,1-.0293-.08789.11237.11237,0,0,1,.01465-.04394.18571.18571,0,0,1,.04395-.08789q.04394-.04395.07324.01465l.01465.02929.01464.04395Zm-1.49414-.74707q-.05859.04395-.11719-.02929a.07324.07324,0,0,1,0-.08789q.05861-.04395.10254.02929Q407.77637,421.77345,407.74707,421.80273Zm-.04395-.48339-.01464-.01465q.02929.01464.01464,0Zm.57129.84961-.07324.07324h-.17578a.013.013,0,0,1,.01465-.01465q0-.01466.0293-.01465Zm-.07324.07324a.17029.17029,0,0,0-.04394.02929l-.01465.01465.01465-.01465h.04394l.04395.04395q.05859.05859.04394.08789-.0293.05859-.16113.01465a.09313.09313,0,0,1-.05859-.07324h0l.01464-.01465q-.02929.01464.0586-.04395A.43619.43619,0,0,0,408.20117,422.24219Zm-.04394,12.23144q.07323-.04393.10254.01465.01464.05859-.0586.10254a.07059.07059,0,0,1-.10254,0Q408.04,434.51758,408.15723,434.47363Zm.3955-11.16211q-.02929.0293-.07324-.01464l-.07324-.0879a.72966.72966,0,0,0,.01465-.08789q.02929-.02929.08789,0a.18218.18218,0,0,1,.05859.13184A.12994.12994,0,0,1,408.55273,423.31152Zm.07325,4.98047q.02929-.07324.08789-.05859.05859.02929.04394.13183-.04393.11719-.11719.0586A.12132.12132,0,0,1,408.626,428.292Zm.10254-3.67676q.04394.02931.04394.04395.16113.21972.04395.27832-.01466.01466-.04395,0a.2458.2458,0,0,1-.10254-.27832l.0293-.0293Zm.10253.74707a.293.293,0,0,1,.11719.249.88351.88351,0,0,0,0,.23437q.01466.17578.01465.23438,0,.08788-.05859.10254-.04395,0-.08789-.07324a.89011.89011,0,0,1-.0586-.71778Q408.77247,425.31836,408.83105,425.3623Zm.42481,2.10938-.0293-.04395a.151.151,0,0,0-.02929.0586v.05859l.01464.0586q.02931,0,.04395-.0586Zm.293-2.87109q.01464.01464.16113.14648-.01464-.27833-.0293-.39551-.01464-.04393-.08789-.02929t-.08789-.07325a.41851.41851,0,0,1-.01465-.16113,3.27977,3.27977,0,0,0-.14648-.49805.01294.01294,0,0,0-.01465-.01464q-.02929,0-.0293.01464v.13184q.10254.46875.13184.64453A.27484.27484,0,0,0,409.54883,424.60059ZM409.3877,422.96q-.04395.01466-.01465.08789.11718.41016.20507.84961l.0293-.01465q-.02929-.26367-.07324-.4834a2.01819,2.01819,0,0,0-.07324-.36621Q409.44629,422.94531,409.3877,422.96Z" fill="#666"/>
      <path d="M417.77539,436.832a.13945.13945,0,0,1,.04395.13184q-.02931.08789-.10254.07324a1.23641,1.23641,0,0,1-.77637-.30762.22434.22434,0,0,0-.23438-.10254q-.10253.02929-.11718.07325-.01466.0293.08789.07324.16113.10254.01465.21972-.17579.13184-.14649.10254a.63479.63479,0,0,1-.10254.13184l-.17578.05859q-.16113.0879-.01465.14649.48341.20508.542.21972.27831.05861.4248.4834.07325.20508-.14648.17578-.07325-.01464-.23438-.04394-.14649-.01466-.21973-.0293-.13184-.01464-.14648.07324-.02929.249-.293.16114-.16113-.05861-.249.13183a.454.454,0,0,0-.0293.08789.45376.45376,0,0,1-.0293.08789.43813.43813,0,0,1-.293.26368q-.23436.08788-.33691.13183a.63579.63579,0,0,1-.65918-.01465.797.797,0,0,0-.26367-.07324.55743.55743,0,0,1-.249-.08789.37515.37515,0,0,1-.10254-.23438,1.39078,1.39078,0,0,0-.07325-.26367,1.09546,1.09546,0,0,1,.11719-1.06933q-.04393.08789.19043-.26367a.35326.35326,0,0,0,.0586-.38086.1918.1918,0,0,1,.04394-.249,1.0638,1.0638,0,0,0,.27832-.4541.38642.38642,0,0,1,.36621-.293q-.01464,0,.21973-.02929l.19043-.0293a.30409.30409,0,0,0,.14648-.08789.14146.14146,0,0,1,.16114-.0586q-.07325-.02929.27832.14649.11718.05859.10254-.10254a.88218.88218,0,0,0-.01465-.13184.88073.88073,0,0,1-.01465-.13183q0-.05861.07324-.0293a.193.193,0,0,1,.10254.14649,1.83111,1.83111,0,0,0,1.333,1.24511A.99728.99728,0,0,1,417.77539,436.832Zm-1.333.41016v0Zm.13184.14648a.08608.08608,0,0,1-.07324-.04394.57154.57154,0,0,1-.0586-.10254q.10254.01464.11719.01465a.1411.1411,0,0,1,.05859.07324Q416.63282,437.374,416.57422,437.38867Zm.27832-1.90429q-.04395,0-.08789-.07325-.10254-.14647,0-.23437.01464-.01466.19043-.13184.11718.01466.10254.08789a1.45833,1.45833,0,0,1-.04395.21973Q416.95508,435.499,416.85254,435.48438Zm-.0293.32226q.01466-.07325.10254-.05859.1172.0293.0586.21972-.02931.0879-.10254.0293A.14266.14266,0,0,1,416.82324,435.80664Zm.68848,2.53418q.08788-.01466.08789.07324a.05745.05745,0,0,1-.04395.0586q-.08788,0-.08789-.07325Z" fill="#666"/>
      <path d="M423.96582,416.10449q.64454,0,1.29639.96a3.85261,3.85261,0,0,1,.65185,2.21875,6.42629,6.42629,0,0,1-1.04,3.31836q-1.04,1.72119-2.03613,1.72071v-.62989q1.06933-.62988,1.27441-2.7832a2.36322,2.36322,0,0,0-1.88964-2.3584v-.61523Zm5.1709,0q.64453,0,1.29639.96a3.85261,3.85261,0,0,1,.65185,2.21875,6.42629,6.42629,0,0,1-1.04,3.31836q-1.04,1.72119-2.03613,1.72071v-.62989q1.06934-.62988,1.27441-2.7832a2.36322,2.36322,0,0,0-1.88965-2.3584v-.61523Z" fill="#666"/>
    </g>
  </g>
</svg>
