<svg id="P15" xmlns="http://www.w3.org/2000/svg" viewBox="0 0 1920 1080">
  <title>P15_2</title>
  <g id="_2" data-name="2">
    <g>
      <path d="M1738.46387,522.626q-.64453,0-1.2959-.96a3.853,3.853,0,0,1-.65235-2.21875,6.42629,6.42629,0,0,1,1.04-3.31836q1.04-1.72119,2.03614-1.72071v.62989q-1.06933.62988-1.27442,2.7832a2.36323,2.36323,0,0,0,1.88965,2.3584v.61523Zm5.1709,0q-.64453,0-1.2959-.96a3.853,3.853,0,0,1-.65235-2.21875,6.42629,6.42629,0,0,1,1.04-3.31836q1.04-1.72119,2.03614-1.72071v.62989q-1.06935.62988-1.27442,2.7832a2.36322,2.36322,0,0,0,1.88965,2.3584v.61523Z" fill="#999"/>
      <path d="M1761.4707,526.53711a2.06222,2.06222,0,0,1,.14649.65918,1.73945,1.73945,0,0,1-.26367,1.05469,2.65578,2.65578,0,0,0-.32227.58593.91207.91207,0,0,1-.17578.30762,7.64966,7.64966,0,0,1-.9375,1.084,10.6429,10.6429,0,0,1-.80567.73242.65739.65739,0,0,0-.249.32226q-.01464.07325-.21973.16114.04395-.01465-.21972.16113a.98378.98378,0,0,0-.13184.10254.53888.53888,0,0,1-.13183.10254.17514.17514,0,0,1,0-.10254.07416.07416,0,0,0-.0293-.08789q-.542.33691-.60059.36621l-.46875.23437a.10519.10519,0,0,0-.07324.04395q.01465-.01466-.4541.32226a7.02225,7.02225,0,0,0-.62988.46875q-.07324.05861-.21973.16114a1.71268,1.71268,0,0,0-.23437.14648.74449.74449,0,0,1-.35157.20508q-.05859.01464-.08789.10254a.48.48,0,0,1-.38086.30762,1.23716,1.23716,0,0,0-.58593.293q-.45411.35157-.73243.542-.33692.249-1.47949,1.04l-.01465.07324q.05861.10254-.05859.17578-.01466,0-.05859.05859a.04669.04669,0,0,0-.01465.07325.53866.53866,0,0,0,.10254.19042q.0293.02931,0,.04395,0,.01465-.04395.0293a.04225.04225,0,0,1-.0293-.01465.41552.41552,0,0,0-.3955.0293q-.04395.01464-.16114.04394a1.11766,1.11766,0,0,1-.30761.27832.159.159,0,0,1-.0586.0293.83085.83085,0,0,1-.13183.13183q-.02931.0293-.07325,0-.35155.48341-.33691.45411l-.04395.05859a.27846.27846,0,0,1-.05859-.16113q-.01464-.11719-.07324-.14649-.10254-.16113-.11719-.19043-.04395-.05859-.07324-.01465a.20559.20559,0,0,0-.01465.17579.08151.08151,0,0,0,.08789.07324,1.01349,1.01349,0,0,0,.11719-.0293q.01464.01466,0,.01465l-.07324.05859a.22494.22494,0,0,1-.08789.0293.84123.84123,0,0,0-.36621-.0293q-.0879.01466-.0879-.11718a.50935.50935,0,0,1,.20508-.4834.13923.13923,0,0,0,.0586-.11719v-.07324a.24088.24088,0,0,1-.01465-.07325v-.10253a.0712.0712,0,0,1-.08789-.04395q-.044-.08789-.11719-.05859h-.01465q-.11718.01464-.11719-.04395,0-.0293.0586-.07324a.33861.33861,0,0,1,.07324-.04395.0712.0712,0,0,0,.04395-.08789.27377.27377,0,0,1,.07324-.249.18027.18027,0,0,0,.02929-.07324.151.151,0,0,0-.02929-.0586.04784.04784,0,0,1-.01465-.05859.17062.17062,0,0,0,.0293-.04395l.04394-.04394q.01466-.0293-.0293-.04395h-.05859q-.05859-.01464-.0293-.07324l.04395-.16113a1.71183,1.71183,0,0,1,.10254-.16113.0579.0579,0,0,0-.0293-.08789.33509.33509,0,0,1-.10254-.0879q-.0293-.04394,0-.07324.05859-.04393.08789,0,.04395.07325.08789,0,.04395-.05859.07325-.05859h.04394a.14238.14238,0,0,0,.07324-.0293.151.151,0,0,1,.0586-.02929.96891.96891,0,0,0,.17578.07324v.14648a.32119.32119,0,0,0,.04394-.08789q-.04394-.07325-.04394-.04394v-.01465a.04219.04219,0,0,1,.01465-.0293q.01464-.01464,0-.05859a.08489.08489,0,0,1,.01464-.0586q.02931,0,.10254.08789.04395.044.0586-.01464a.05743.05743,0,0,1,.05859-.04395q.07325.01465.07324.07324-.01464.11719.13184.19043.0293-.01464.01465-.05859a.11584.11584,0,0,1,.01465-.07324v-.01465q.07323-.46875.10254-.70313.05859-.48339.17578-1.47949.0293-.33691.10254-1.4209,0-.13184.02929-.64453.01465-.14649.01465-.16113a1.92206,1.92206,0,0,1,.0293-.73242,6.81314,6.81314,0,0,0,.01465-.87891q-.01465-.05859-.04395-.21973a.67951.67951,0,0,1-.01465-.23437,2.11341,2.11341,0,0,0-.11719-.835.23463.23463,0,0,1,0-.11719q.01466-.20508.01465-.60059,0-.4248.01465-.61523.01465-.10254.0586-.71777.04394-.43945.04394-.71778a1.18849,1.18849,0,0,1,.01465-.14648,5.34009,5.34009,0,0,0,.11719-.791q.05859-.60058.08789-.791.0293-.14649.10254-.71778.05859-.43945.10254-.70312.01464-.04395.10253-.68848a.28076.28076,0,0,0-.11718.07324.636.636,0,0,1-.26367.19043.09441.09441,0,0,0-.0586.04395.74569.74569,0,0,1-.17578.17578q-.16113.10254-.20508.13184a1.66029,1.66029,0,0,1-.38086.293l-.04394.01465q-.04395-.11718-.13184-.07324-.11718.05859-.13183.04395a.013.013,0,0,1-.01465.01464.29581.29581,0,0,1-.13184-.01464.15257.15257,0,0,1,.07324-.17578,1.24063,1.24063,0,0,0,.27832-.27832q-.11718-.02931-.11718-.0586-.01465-.0293.04394-.13183a1.5098,1.5098,0,0,0,.17578-.43946.15425.15425,0,0,1,.0586-.13183.64286.64286,0,0,0,.14648-.19043q.08789-.16115.11719-.20508a.24449.24449,0,0,1-.10254-.07324.35377.35377,0,0,1,.04394-.11719,3.13653,3.13653,0,0,1,.77637-.9375q.17578-.14649.52735-.42481a.46814.46814,0,0,0,.14648-.293,3.9862,3.9862,0,0,1,.35156-.90821.75071.75071,0,0,1,.38086-.35156.87614.87614,0,0,0,.26367-.20508q.46875-.55664.43946-.51269a.67856.67856,0,0,0,.20507.3955.28826.28826,0,0,1,.0879.32227.51206.51206,0,0,0-.04395.14648.54914.54914,0,0,0,0,.19043q.0293.0293.14648-.01464.0879-.02931.30762-.13184.20508-.07324.32227-.11719a4.02439,4.02439,0,0,1,1.23047-.33691q.8496-.02929.92285-.01465a4.3835,4.3835,0,0,1,1.04.293,2.56963,2.56963,0,0,1,1.23047,1.23047.49626.49626,0,0,0,.07324.16113,1.74235,1.74235,0,0,1,.23437,1.333,5.22,5.22,0,0,1-.293,1.02539q-.04393.10254-.13183.26367a2.25628,2.25628,0,0,0-.13184.249q-.10254.21973-.92285,1.61133-.0293.04395-.36621.43945a.16584.16584,0,0,1-.05859.0586,1.52816,1.52816,0,0,0-.57129.4834q-.04395.04393-.19043.17578a.81745.81745,0,0,0-.16114.17578.08606.08606,0,0,1-.07324.04394q-.19042.01465-.16113.23438,0,.07324-.04395.08789-.08789.0293-.07324.0293-.07324.01464-.04394.13183,0,.0879.08789.0586.21972-.05861.67383-.14649a5.38456,5.38456,0,0,1,1.3916-.07324,2.13332,2.13332,0,0,0,.27832.0293q.17577.01464.27832.02929a4.11588,4.11588,0,0,1,1.23047.36622,3.46791,3.46791,0,0,1,1.15722.98144A2.07289,2.07289,0,0,1,1761.4707,526.53711Zm-11.44043,8.26172a1.29,1.29,0,0,0,.14649.19043v-.11719l-.08789-.0293Q1750.001,534.79884,1750.03027,534.79883Zm9.917-6.665q.13183.044.14648-.19043a.93011.93011,0,0,0-.35156-.77637l-.0293.0293q0-.04395.05859.17578.02931.10254,0,.11719t-.07324-.0586q.0293.05861-.05859-.14648a.08888.08888,0,0,0-.13184-.0293q-.01464,0-.02929-.05859a.68927.68927,0,0,0-.41016-.42481,3.87107,3.87107,0,0,0-.61524-.249q-.3369-.13184-.30761-.11719a9.23118,9.23118,0,0,0-1.30371-.07324h-.23438a.70378.70378,0,0,0-.21972.0293q-.70312.23438-.68848.21972l-.14649.04395a3.52,3.52,0,0,0-.4541.14648q-.293.11719-.23437.13184-.044-.01466-.10254.05859a.326.326,0,0,1-.11719.10254.46063.46063,0,0,1-.16113.0586.16262.16262,0,0,0-.16113.05859.11874.11874,0,0,1-.14649.05859.10175.10175,0,0,0-.10254.0293,1.92366,1.92366,0,0,1-.293.19043,8.45523,8.45523,0,0,1-1.14257.55664.22218.22218,0,0,0-.11719.13184.08483.08483,0,0,0,.05859.01465q.0293,0,.04395.04394a.33874.33874,0,0,0-.26367.27832l-.04395.04395a.34816.34816,0,0,0-.10254.249q-.0293.542-.04394.67383-.01465.35156-.0586.89355-.05859.73242-.07324.89356-.01465.19043-.05859.498-.04395.41016-.04395.49805-.14649,1.30371-.21973,1.88965a.96845.96845,0,0,0,.13184-.04395l.08789-.07324.0293-.01465q.01464-.01464.04394.0293l.01465.01465v.01465q.044.04394.05859.04394.02931-.01464.0293-.02929a.11807.11807,0,0,1,.0586-.08789l.10253-.10254.07325-.04395q.01464-.01464-.0293-.05859-.05859-.0879,0-.08789a.04694.04694,0,0,0,.04395-.0293.67467.67467,0,0,1,.27832-.21973.23656.23656,0,0,1,.14648-.01464.6469.6469,0,0,0,.11719-.04395.257.257,0,0,1,.07324-.0293.318.318,0,0,0,.11719-.05859.88544.88544,0,0,1,.16113-.07324.33746.33746,0,0,1,.14648,0h.20508l.0293.01465a.11249.11249,0,0,1,.01465.04394.013.013,0,0,1-.01465.01465q.04395,0-.08789.07324-.01466,0,0,.04395a.09442.09442,0,0,1,0,.07324q.14648-.10254.249-.17578a.159.159,0,0,1,.0586-.0293.22944.22944,0,0,1-.04395-.05859q-.07325-.14649-.04395-.16114a.0469.0469,0,0,0,.0293-.04394v-.04395q-.08789-.13184-.07324-.19043.05859-.16113.10254-.17578-.0293.01466.26367-.14648a.454.454,0,0,1,.08789-.0293q.07325-.0293.10254-.04394h0a.22944.22944,0,0,1,.05859-.04395q.02931-.01465.0293-.0293a.04222.04222,0,0,0,.0293-.01464l.01465-.01465q0-.01466.04394-.0293a.17054.17054,0,0,0,.04395-.0293l.16113-.14648h.01465a.43513.43513,0,0,1,.05859-.04395q-.0293-.04393.01465-.04394a.05969.05969,0,0,0,.04395-.01465.43091.43091,0,0,1,.21972-.19043.12662.12662,0,0,1,.08789-.04395l.11719-.08789a.14235.14235,0,0,0,.07324-.02929.159.159,0,0,0,.0586-.0293.98488.98488,0,0,0,.13183-.10254,1.57007,1.57007,0,0,1,.21973-.16113q.01464,0,.05859-.04395a1.67833,1.67833,0,0,1,.32227-.23437q.23438-.13183.19043-.11719a.7681.7681,0,0,0,.13183-.08789.49369.49369,0,0,1,.13184-.08789l.08789-.08789a.77053.77053,0,0,1,.14648-.11719.19165.19165,0,0,0,.0879-.08789q.0293-.05859.07324-.04394a.04692.04692,0,0,0,.04394-.0293q0,.01464.11719-.08789.08789-.05859.08789-.08789a.06635.06635,0,0,1,.07324-.01465q.10254.01464.07325-.08789-.01465-.02929,0-.0293a.43756.43756,0,0,0,.05859-.04394.01294.01294,0,0,0,.01465.01464v.01465q-.0293.0293-.0293.04395v.01465l.01465.01464q.08788-.08789.11719-.08789v-.01464q.07323-.07325.08789-.07325t.07324-.05859l.01465-.01465q.01464.04395.04394-.14648a.10519.10519,0,0,1,.07325-.04395.10032.10032,0,0,0,.07324-.08789.08331.08331,0,0,1,.10254-.05859.05937.05937,0,0,0,.07324-.0293q.0293-.0293.10254.0293a.11254.11254,0,0,0,.04394.01465.013.013,0,0,0,.01465-.01465.159.159,0,0,1,.0586-.0293,2.99418,2.99418,0,0,1,.249-.17578q.23438-.13184.19043-.11719a.308.308,0,0,0,.13183-.08789l.13184-.08789.07324-.08789a.61825.61825,0,0,1,.16114-.11719.19168.19168,0,0,0,.08789-.08789.08608.08608,0,0,1,.07324-.04394.04692.04692,0,0,0,.04394-.0293q0,.01466.11719-.08789.08789-.05859.08789-.07324a.05936.05936,0,0,1,.07324-.0293q.10254.01465.07325-.08789a.01831.01831,0,0,1,0-.0293l.05859-.02929q-.01466-.02931.01465.01464-.04395.04395-.0293.04395v.01465l.01465.01465.04395-.04395a.22662.22662,0,0,0,.05859-.20508Q1759.88868,528.11914,1759.94727,528.13379Zm-7.48536-2.21191a1.14892,1.14892,0,0,0,.01465.48339q.9375-.86425.9961-.92285.19043-.17579.84961-.82031.52734-.5127.84961-.82031.249-.21974.74707-.70313.46875-.46875.73242-.70312a.45927.45927,0,0,0,.08789-.11719.73343.73343,0,0,1,.17578-.249,2.95581,2.95581,0,0,0,.542-.77637,1.7541,1.7541,0,0,0,.17578-1.05469.33762.33762,0,0,0-.02929-.11719,1.07793,1.07793,0,0,0-.04395-.11718,1.19222,1.19222,0,0,0-.9082-1.02539,3.84984,3.84984,0,0,0-1.11328-.0586,6.29457,6.29457,0,0,0-1.377.36621,2.02184,2.02184,0,0,0-.293.14649q-.21972.14647-.27832.17578a.75077.75077,0,0,0-.3955.57129l-.17579.96679q-.08789.6006-.21972,1.52344-.04395.35157-.11719,1.02539-.07324.70313-.11719,1.02539-.01464.17579-.04394.60059A3.73594,3.73594,0,0,1,1752.46191,525.92188Zm2.08008,6.43066h-.01465v.01465Z" fill="#999"/>
      <path d="M1775.11719,517.25a.62454.62454,0,0,1,.05859.32227.759.759,0,0,1-.05859.35156.18077.18077,0,0,1-.13184.08789q-.249.05859-.249.26367v.14649a1.21031,1.21031,0,0,0-.01465.16113.24409.24409,0,0,0,.17578.21972l.04395.04395a.26291.26291,0,0,1-.21973.13184.24706.24706,0,0,0-.19043.27832,6.31646,6.31646,0,0,0-.11719.68847.39729.39729,0,0,1-.19043.27832.3897.3897,0,0,1-.32226.0586,3.19222,3.19222,0,0,0-.76172-.10254q-.05859-.01466-.89356.04394-.20507.01465-.19043.01465a11.14763,11.14763,0,0,0-1.49414.16113,1.1569,1.1569,0,0,1-.26367,0,1.17629,1.17629,0,0,0-.26367,0,3.28314,3.28314,0,0,0-.84961.27832.44366.44366,0,0,1-.27832.10254,1.6043,1.6043,0,0,0-.68848.23438.25.25,0,0,0-.13183.21973q-.04395.45409-.13184,1.15722-.07325.76171-.08789.791a.59873.59873,0,0,0-.0293.19043q0-.10254-.21972,1.83105-.05861.48341-.0586.4541-.01464.20508.16114.19043a15.17033,15.17033,0,0,0,1.64062-.293,1.7452,1.7452,0,0,1,.70313-.07324,1.54231,1.54231,0,0,1,.4248-.04394q.13184-.01465.14649.04394t-.08789.14649q-.0586.0293-.0586.07324.21973.08789.11719.38086a1.90432,1.90432,0,0,0-.07324.20508q-.01466.11718.01465.13183.10253.05859.10253.33692a.29326.29326,0,0,0,.0293.19043.18934.18934,0,0,1-.01465.19043.29.29,0,0,0-.04394.33691.23926.23926,0,0,0,.27832.11719q.08789-.01466.11718.04394a1.85937,1.85937,0,0,1-.36621.16114q-.11718.04394-.41015.19042a2.12662,2.12662,0,0,1-.41016.17579,10.40721,10.40721,0,0,0-1.01074.41015,2.92038,2.92038,0,0,1-.5127.19043.73578.73578,0,0,0-.23437.07324.71528.71528,0,0,1-.42481.14649q-.19043.0293-.20507.26367-.11719,1.47949-.11719,1.55273-.01465.21973,0,.67383v.67383q-.01465.293-.0586.82031-.01464.21973.10254.249.07325.01464.04395.07324-.08789.13184.08789.35156a.27606.27606,0,0,0,.30762.11719,14.38052,14.38052,0,0,0,2.50488-.74707.46259.46259,0,0,1,.33691-.0586.15772.15772,0,0,0,.14649-.01464,1.27126,1.27126,0,0,1,.64453-.23438q.07325-.01464.33691-.07324a1.89046,1.89046,0,0,1,.35157-.04395.10032.10032,0,0,1-.07325.08789.15863.15863,0,0,0-.07324.0586l.0293.04394a2.46245,2.46245,0,0,1,.65918-.17578.79447.79447,0,0,0,.14648-.08789.12748.12748,0,0,0-.13183-.01465.18323.18323,0,0,1-.11719.01465q-.0293-.0293,0-.08789.04395-.07325-.01465-.10254.044.02929-.16113.0586a.83084.83084,0,0,1,.19043-.42481q.0293-.04395.07324,0,.07325.08788.13184-.01465a.40311.40311,0,0,1,.38086-.17578q.0293-.30762.11718-.36621.07325-.04395.30762.10254,0,.01466-.14648.01465-.13183,0-.16114.07324a.44432.44432,0,0,0,.33692.16113l.19043.13184a.19739.19739,0,0,1,.07324.23437q-.0293.1172.10254.08789a5.06857,5.06857,0,0,1,.70312.0879q.21974.0293.13184.30761-.01465.044-.0586.21973a.70253.70253,0,0,1-.07324.20508q-.07325.16113-.13183.01465a.53327.53327,0,0,0-.17578-.23438,2.132,2.132,0,0,1-.14649.26367l.01465.04395a.64729.64729,0,0,1,.11719.04394q.05859.01466.04394.08789a1.26526,1.26526,0,0,0-.17578.10254.1258.1258,0,0,0,.13184.04395.44416.44416,0,0,1,.13183.01465.15918.15918,0,0,1-.17578.13183,1.5612,1.5612,0,0,0-.16113.01465,1.21044,1.21044,0,0,1-.16113.01465.47279.47279,0,0,0-.32227.10254.21657.21657,0,0,1-.19043.05859q-.16113-.01464-.14648.08789a.05179.05179,0,0,0,.05859.0586q0-.01465.0293-.01465a.11237.11237,0,0,1,.04394-.01465.211.211,0,0,1,.16114.0293,3.157,3.157,0,0,1-.791.249.10493.10493,0,0,1,.01465-.11719.104.104,0,0,0,.01465-.08789q-.20508-.07325-.27832-.0293-.02931.01466-.65918.17579-.77637.20506-1.02539.293a.44311.44311,0,0,1-.14649-.04395.10753.10753,0,0,0-.14648.0293.52163.52163,0,0,1-.30762.14648q-.14649.0293-.32227.07324a1.07241,1.07241,0,0,1-.27832.0586,1.20182,1.20182,0,0,0-.4248.13183q-.45409.20508-.65918.0586-.08789-.05861-.11719.08789-.04393.17577-.19043.08789-.13184-.0879-.26367.07324-.14649.17579-.249.13184.01464.01464-.10254.05859-.39551.21972-.41016.21973-.044-.01466-.10254.07324t.0293.10254a.482.482,0,0,0,.14648-.0293.3393.3393,0,0,1,.07325-.04394.57006.57006,0,0,0,.07324-.0293q.14648-.04395.17578.01465,0,.04393-.13184.11718a.9339.9339,0,0,0-.38086.32227q-.08789.20508-.21972.23438-.1172.0293-.13184.20507a.40785.40785,0,0,0,.23438-.07324.32227.32227,0,0,1,.249-.05859l-.01465.04394a1.89057,1.89057,0,0,0-.57129.46875.013.013,0,0,1-.01465.01465.04217.04217,0,0,1-.02929.01465,5.6728,5.6728,0,0,1-.80567.52734.52046.52046,0,0,1-.35156.11719.69611.69611,0,0,1-.19043-.08789q-.08789-.14649-.20508-.05859a.09889.09889,0,0,1-.14648.01464.222.222,0,0,1-.0293-.20507,1.90754,1.90754,0,0,1,.08789-.27832.18247.18247,0,0,0,0-.17579q.04395-.04394-.293.36622,0,.01464.0586-.01465t.05859.02929a.57363.57363,0,0,1-.04394.19043q-.04395.14649-.08789.14649a.80917.80917,0,0,1-.30762-.07324q0,.0293.08789-.21973a.20985.20985,0,0,0-.0293-.23438q-.0293,0-.10254.11719a.40545.40545,0,0,1-.23437.19043q-.16113.04395-.11719-.16113a.38124.38124,0,0,1,.05859-.10254.41686.41686,0,0,0,.07325-.08789.36371.36371,0,0,0-.13184-.01465q-.07325,0-.08789-.08789a.44334.44334,0,0,1,.05859-.36621.322.322,0,0,0,.08789-.23438.1267.1267,0,0,1,.0586-.10253.24462.24462,0,0,0,.10254-.07325l-.01465-.02929q-.0293-.0293-.11719,0a.066.066,0,0,1-.08789-.0586.532.532,0,0,1,.08789-.33691,1.42345,1.42345,0,0,1,.39551-.39551.30863.30863,0,0,0,.19043-.23437,1.64878,1.64878,0,0,0,.23437-.92286q0-.08788.01465-.23437.01465-.16113.01465-.21973,0-.26367-.08789-.33691t.01465-.30762q.01464-.0293.05859-.10254l.04395-.08789q.05859-.13184-.07324-.08789-.02931.01466-.0293-.05859a.20391.20391,0,0,1,.01465-.08789.77026.77026,0,0,0,.11718-.57129q-.01464-.21974,0-.80567.01466-.32226.08789-.92285.07324-.62988.0879-.9375a.66239.66239,0,0,0-.17579-.55664l-.19043-.38086q-.07323-.13184.11719-.17578a.488.488,0,0,0,.26367-.10254l-.16113-.08789q-.27832-.13184-.07324-.38086a.50535.50535,0,0,0,.10254-.16113q0-.04395-.11719-.16113l-.0293-.07325q0-.0293.17578-.13183a.06973.06973,0,0,0,.04395-.10254q-.07325-.13184.08789-.21973.14649-.05859.16113-.30762a8.84145,8.84145,0,0,1,.13184-1.17187,4.50615,4.50615,0,0,0,.11719-.76172,5.256,5.256,0,0,1,.10254-.74707.42452.42452,0,0,0,0-.16113,1.92529,1.92529,0,0,1,.04394-.4541,7.981,7.981,0,0,0,.21973-1.34766q0-.08789.01465-.26367.01464-.19042.02929-.27832a.21817.21817,0,0,0-.14648-.249.57178.57178,0,0,0-.35156-.02929,3.65251,3.65251,0,0,1-.74707-.0293q-.1172,0-.17579-.16113a.47265.47265,0,0,1-.01464-.30762.3255.3255,0,0,1,.04394-.10254,2.38689,2.38689,0,0,0,.26367-1.02539,1.30472,1.30472,0,0,1,.498-.86426,1.4058,1.4058,0,0,1,.36621-.19043q.27832-.11718.38086-.16113a1.23628,1.23628,0,0,0,.23438-.17578.38242.38242,0,0,1,.23437-.04395q.16113,0,.10254-.17578a.26928.26928,0,0,1,0-.17578.33784.33784,0,0,0,.01465-.16113q.044-.0293.08789.0293a.12.12,0,0,0,.07324.04394.28217.28217,0,0,1,.17578-.249.8345.8345,0,0,0,.23438-.13184q.04393-.0293.08789.04395.07324.10254.08789.10254.05859-.0293.05859-.17579.01466-.14648.10254-.10253.04395.0293.10254-.04395.05859-.05859.10254-.01465a.224.224,0,0,1,.04394.11719.22409.22409,0,0,0,.04395.11719.17029.17029,0,0,0,.0293.04394q.04394.01466.07324.16114.04395.11718.11719.13183.01464,0,.30761-.05859,1.9629-.38086,2.32911-.46875.46875-.0879,1.88964-.27832a10.20469,10.20469,0,0,1,1.20118-.11719.86473.86473,0,0,1,.542.13184A3.81752,3.81752,0,0,1,1775.11719,517.25ZM1764.585,534.87207q.08789-.0293.11719.04395a1.76939,1.76939,0,0,0-.39551.293.2298.2298,0,0,1-.23437.0586A1.12568,1.12568,0,0,1,1764.585,534.87207Zm.80566-1.78711q.044-.05859-.02929-.08789-.05859-.0293-.0586.07324v.70313a1.19206,1.19206,0,0,0,.07325-.33692A.46839.46839,0,0,1,1765.39062,533.085Zm.04395-.87891q.07325-.39551-.10254-.542a3.889,3.889,0,0,1,0,.835v.249Zm.42481-6.18164a6.65061,6.65061,0,0,0,.20507-2.124q-.21972,1.52345-.249,1.77246A.56537.56537,0,0,0,1765.85938,526.02441Zm.52734-4.11621q.01464-.11718-.07324-.13183-.13183,1.40625-.23438,1.90429a.27781.27781,0,0,0,.11719-.20507Q1766.28417,522.8164,1766.38672,521.9082Zm5.39062,12.832q-.0293.044.39551-.14648a.2233.2233,0,0,1-.17578.16113h-.11719A.61777.61777,0,0,0,1771.77734,534.74023Zm2.05078-.73242a.13243.13243,0,0,1,.11719.07324.6197.6197,0,0,1-.32226.11719.527.527,0,0,0-.33692.10254.353.353,0,0,0,.17578.0293.21778.21778,0,0,1,.16114.05859l-.01465.04395a2.15421,2.15421,0,0,1-.77637.14648q-.08789,0-.08789-.07324t.08789-.08789a.23621.23621,0,0,0,.19043-.08789.33861.33861,0,0,0-.07324-.04395q-.04395-.01464-.04395-.04394,0-.07325.0586-.07324.11718-.01465.43945-.0879A1.67486,1.67486,0,0,1,1773.82812,534.00781Zm-.4248-1.77246a3.843,3.843,0,0,1-.43945-.249.17426.17426,0,0,0,.08789.11719q.07324.05859.07324.10253a.45388.45388,0,0,0,.04395.13184q.0293.01465.08789-.0293Q1773.418,532.2207,1773.40332,532.23535Z" fill="#999"/>
      <path d="M1788.9248,533.09961q.0586.01465.0293.07324l-.249.498a1.048,1.048,0,0,0-.14649.33691q0,.1172-.17578.21973a1.22151,1.22151,0,0,0-.33691.30762,4.87071,4.87071,0,0,1-.89356.9375,3.54267,3.54267,0,0,0-.46875.46875,2.98182,2.98182,0,0,1-.21972.23437q-.07325.07324.01465.16113a.151.151,0,0,1,.02929.0586q.01465.01464-.01465.05859a.08441.08441,0,0,1-.05859.0293l-.0293.01465a.38065.38065,0,0,0-.30761-.04395q-.04395.01466-.293.13184a.6414.6414,0,0,0-.11719.05859l-.10254.07324q-.04395.01465-.0293.04395a.05339.05339,0,0,0,.07325.04394l.13183-.04394a1.01349,1.01349,0,0,0,.11719-.0293.05338.05338,0,0,1,.07324.04395.09938.09938,0,0,1-.02929.07324.23622.23622,0,0,1-.19043.08789h-.36622a.98568.98568,0,0,0-.16113-.01465.4731.4731,0,0,0-.17578.0293,5.11937,5.11937,0,0,1-1.04.17578,3.0604,3.0604,0,0,1-.89355-.01465,3.01925,3.01925,0,0,1-.86426-.26367q.0293.01465.10254.04394.05859.01465.10254.0293a2.94127,2.94127,0,0,1-1.17188-.65918,4.08318,4.08318,0,0,1-.70312-.8789,7.518,7.518,0,0,1-.43946-.82032,8.36206,8.36206,0,0,1-.51269-1.53808.5688.5688,0,0,0-.0293-.07325h-.01465q-.01464-.0293,0-.02929l-.04394-.07324a.22983.22983,0,0,1-.01465-.17579q.05859-.07323-.0293-.19042a1.33676,1.33676,0,0,1-.23437-.71778.71162.71162,0,0,0-.11719-.4248.4229.4229,0,0,1-.08789-.23438q-.0293-.36621-.04395-.52734a4.51614,4.51614,0,0,0-.11718-.52735l-.0293-.249a.30433.30433,0,0,1,.05859-.23437.1669.1669,0,0,0-.01465-.17579.53194.53194,0,0,1-.05859-.32226q.01465-.04395.04395-.58594a5.50385,5.50385,0,0,0,.05859-.60058.29929.29929,0,0,0,0-.13184.32451.32451,0,0,0-.01465-.10254,1.48125,1.48125,0,0,1-.0293-.23437q0-.02931-.04394,0-.07325.0293-.07324.04394t-.0586.23438a1.588,1.588,0,0,0-.02929.27832.98587.98587,0,0,1-.01465.293,1.51143,1.51143,0,0,1-.10254.293.07414.07414,0,0,1-.08789.0293q-.0293,0-.05859-.05859a.09683.09683,0,0,1-.01465-.08789.91809.91809,0,0,0,.05859-.27832,2.58982,2.58982,0,0,1,.0293-.26368q.0293-.11718,0-.14648a.42118.42118,0,0,0-.17578-.10254.31676.31676,0,0,1-.0293.36621.18075.18075,0,0,1-.13184.08789q-.10254.01465-.14648-.10254t.05859-.13183a.38256.38256,0,0,0,.249-.21973l-.01465-.0293q-.07325-.08789-.0586-.11718.02929-.044.14649,0t.14648-.0586a1.00388,1.00388,0,0,0,.01465-.19043q.01466-.10254-.10254-.14648a.12.12,0,0,1-.07324-.04395.06222.06222,0,0,1,0-.05859q.01465-.04395.04395-.04395a.44455.44455,0,0,1,.13183-.01464.114.114,0,0,0,.11719-.07325q.0293-.08788.04394-.14648.02931-.16113-.07324-.11719-.04395.01466-.04394.10254-.01465.05859-.0293.10254,0,.01466-.05859.01465-.04395-.01465-.04395-.0293a1.60426,1.60426,0,0,0-.01465-.35156.883.883,0,0,1,.0293-.33692q0-.01464.05859-.20507.0293-.16115.01465-.10254a.25687.25687,0,0,1,.08789-.10254q.07325-.04395.0586-.10254a.402.402,0,0,1,.02929-.20508.49528.49528,0,0,1,.13184-.20508q.14648-.07324.04394-.21972a.133.133,0,0,1,.01465-.19043q.04395-.044.04395-.0586-.0293-.11718.13183-.293a.3351.3351,0,0,0,.0586-.13183,1.51033,1.51033,0,0,1,.27832-.542q.07325-.07325.07324-.08789a.99773.99773,0,0,0,.43945-.5127,1.29424,1.29424,0,0,1,.08789-.23437q.0293-.07324.10254,0,.10254.08788.11719-.01465a.82388.82388,0,0,1,.11719-.293,2.15511,2.15511,0,0,0,.14648-.26367.18372.18372,0,0,1,.10254-.13184.36964.36964,0,0,0,.19043-.23437,2.94176,2.94176,0,0,1,.11719-.293,2.07567,2.07567,0,0,1,.16113-.293,2.91357,2.91357,0,0,0,.21973-.41016.57178.57178,0,0,1,.05859-.10254l.0293-.08789q.05859-.13184.08789-.19043.01464-.04394.07324-.17578.04395-.10254.07324-.16113a13.28381,13.28381,0,0,1,.90821-1.56738l.08789-.17579a1.60093,1.60093,0,0,1,.10254-.16113.8.8,0,0,1,.13183-.13183.6773.6773,0,0,0,.14649-.13184,3.65492,3.65492,0,0,1,.498-.46875,1.90919,1.90919,0,0,1,.30762-.21973q.13184-.07324.19043-.10254.14649-.07323.21973-.10254a.16311.16311,0,0,1,.07324-.01464l.0293-.01465.01464-.01465a.22931.22931,0,0,0,.0586-.04395l.01465-.01464h-.01465l-.01465-.01465v-.01465h.07324l.01465.01465q.02929-.01465.01465-.01465l.05859-.0293a.3248.3248,0,0,1,.10254-.01465.60894.60894,0,0,1,.21973.01465q.20508.02929.27832.04395.20508.01464.35156.01465l-.11719-.07325a.08439.08439,0,0,1-.02929-.05859q0-.05859.07324-.04395a1.68138,1.68138,0,0,1,.20508.01465.65357.65357,0,0,1,.21972.0586q.0879.02929.20508.07324t.21973.08789q.19043.05859.43945.11719a.715.715,0,0,1,.07324.04394.36977.36977,0,0,1,.08789.04395q-.0293-.01466.16114.08789.08789.05859.14648.10254l.05859.05859.0586.08789a.24768.24768,0,0,0,.10254.10254.6009.6009,0,0,1,.11718.11719,1.84283,1.84283,0,0,1,.21973.27832q.14649.23438.19043.30762a.48684.48684,0,0,1,.0293.11718q.0293.14649-.13184.13184a.094.094,0,0,0-.10254.04394,2.11945,2.11945,0,0,0-.04394.249.04693.04693,0,0,1-.04395.02929q-.04393.01465-.05859,0a.14242.14242,0,0,0-.0293-.07324.18009.18009,0,0,0-.0293-.07324q-.05859-.10254-.14648.0293a.17029.17029,0,0,0-.0293.04394.15906.15906,0,0,1-.02929.0586q-.0586.08789-.07325.01464a.11269.11269,0,0,0-.17578-.07324q-.04394.0293-.10254-.02929a.66319.66319,0,0,1-.05859-.0879q-.07325-.13184-.21973-.01464-.11718.08788-.17578.01464l-.04394-.02929a.46047.46047,0,0,1-.14649-.0586q-.0293-.0293-.11718-.10253a.17478.17478,0,0,0-.17579-.0293,1.25163,1.25163,0,0,0-.14648.0293.13084.13084,0,0,1-.13184-.0586q-.01464-.0293-.07324.01465-.0293.01465-.04394,0-.04395-.07324-.293-.10254h-.13184q-.16113,0-.14648-.07324a.18629.18629,0,0,1,.14648-.11719.6168.6168,0,0,0,.10254-.01465h.08789a.255.255,0,0,0,.10254-.04394q.0293-.01466.01465-.0586a.05965.05965,0,0,0-.01465-.04394.08441.08441,0,0,0-.05859-.0293,2.50289,2.50289,0,0,1-.542,0q-.04394,0-.04394.0586l-.08789-.01465h-.04395v.01465h-.02929q-.01465,0-.0293.04394-.01465.0293-.0293.0293h-.07324a.18571.18571,0,0,0-.08789.04394q-.01466.0293-.17578.0293-.10254,0-.04395.10254.0293.04395,0,.07324a1.95978,1.95978,0,0,0-.21972.21973q-.01466.04393-.08789.02929-.13184-.0293-.21973.13184.04395-.08789-.293.52734-.21972.41016-.35156.62989-.5127.87889-.4834.835a1.86665,1.86665,0,0,0-.16113.293q-.13183.26367-.16114.30761a1.08026,1.08026,0,0,1-.08789.11719q-.04393.05859-.02929.07324a.35733.35733,0,0,1,.01465.26368.64252.64252,0,0,1-.0586.11718.42871.42871,0,0,0-.07324.11719.0957.0957,0,0,0,.0293.11719.20064.20064,0,0,1,.07324.19043,4.05529,4.05529,0,0,1-.17578.71777.80748.80748,0,0,0-.04395.249.73551.73551,0,0,1-.07324.23438.14078.14078,0,0,0,.01465.10254.1004.1004,0,0,1-.01465.11719.31787.31787,0,0,0-.04395.32226.2678.2678,0,0,1,.249.14649.37921.37921,0,0,1-.01465.43945q.04395,0-.11719-.11719-.07325-.044-.10254.01465-.11718.30762-.23437.67383v.13183a.35028.35028,0,0,1-.04395.26368,1.00136,1.00136,0,0,0-.05859.36621.195.195,0,0,1-.17578.19043.11724.11724,0,0,0-.11719.14648.2779.2779,0,0,1,0,.13184,1.25891,1.25891,0,0,0-.01465.835q.05859.19043-.21973.23437a.66444.66444,0,0,0-.16113.0293q-.0293.0293-.01465.11719,0-.04395-.02929.4834a.42284.42284,0,0,0,.10254-.36622.04784.04784,0,0,1,.01464-.05859q.01466-.05859.0586-.04394a.21358.21358,0,0,1,.08789.02929q.11718.20508.04394.32227a.1515.1515,0,0,0,.0293.17578q.0293.04395-.04394.07324a.12452.12452,0,0,1-.11719,0q-.0293-.01464-.16114-.10254-.01464.17579-.01464.21973,0,.08789.05859.10254a.15033.15033,0,0,1,.11719.13183.17037.17037,0,0,0,.02929.04395.91806.91806,0,0,1,.19043.58594q0,.05859-.04394.05859-.05859.01465-.07324-.0293a.18045.18045,0,0,0-.20508-.14648q-.04395,0-.04395.01465-.0293.0293,0,.04394a.73039.73039,0,0,1,.17578.17578.61029.61029,0,0,0,.19043.17579q.0879.04393.0586.10253a2.52392,2.52392,0,0,0,.01465.43946.4308.4308,0,0,1-.01465.10254q0,.04393-.0586.04394a.08481.08481,0,0,1-.05859-.01465.66468.66468,0,0,1-.10254-.23437.6575.6575,0,0,0-.11719-.249.1423.1423,0,0,0-.07324-.0293q-.05859.01464-.05859.05859a1.87763,1.87763,0,0,0,.01465.27832l.05859.249q0,.10254.14648.13183l.30762.10254a.14076.14076,0,0,1,.08789.13184q0,.14647-.17578.08789-.01464,0-.04394-.0293a.24.24,0,0,0-.0586-.01465.1522.1522,0,0,0-.11719.01465q-.04393.0293-.01464.10254a4.43764,4.43764,0,0,1,.10254.4834.08484.08484,0,0,0,.01464.05859q.04395.04395.0586.0293.16113-.04395.17578.08789,0,.13184.16113.19043.05859.01464.14649.04394.293.11719.293.33692l.01465.05859q.07324.23438-.02929.23438-.07325,0-.20508-.14649a.17029.17029,0,0,1-.0293-.04394.11235.11235,0,0,0-.01465-.04395q-.05859-.10254-.11718-.08789-.17578.05859-.16114.16113.01465.05861.0293.13184v.07324a.44117.44117,0,0,1,.01465.07324.82764.82764,0,0,0,.08789.249.82533.82533,0,0,1,.11719.26367.33526.33526,0,0,0,.05859.13184.34542.34542,0,0,1,.11719.35156.43257.43257,0,0,0,.13183.35156,1.02225,1.02225,0,0,1,.17578.26367,1.61414,1.61414,0,0,0,.27832.35157,2.07447,2.07447,0,0,0,.21973.21972l.13184.13184a.13945.13945,0,0,0,.16113.01465q.0293-.01466.04395.02929l.05859.01465a.04219.04219,0,0,0,.01465.0293.20644.20644,0,0,0,.26367.14648h.27832a.45076.45076,0,0,0,.38086-.11718q.05859-.04395.08789-.01465a.1484.1484,0,0,0,.16113.04394,1.02191,1.02191,0,0,1,.17578-.04394q.07325,0,.13184-.16114a.13459.13459,0,0,1,.17578-.08789.23884.23884,0,0,0,.32227-.16113.73235.73235,0,0,1,.07324-.10254.18216.18216,0,0,0,.05859-.13183.50838.50838,0,0,0-.20508.01464,1.28482,1.28482,0,0,1-.19043.0293.059.059,0,0,1-.05859-.0293q-.02929-.05859.01465-.08789a.34114.34114,0,0,1,.30762-.05859q.17577.05859.14648-.10254-.04395-.23437.21973-.293a.30146.30146,0,0,0,.21972-.30762q.01466-.11718.11719-.02929a.12525.12525,0,0,0,.16113,0,.83764.83764,0,0,0,.26368-.32227,1.37076,1.37076,0,0,1,.11718-.17578.09939.09939,0,0,1,.16114-.0293.029.029,0,0,1,.01464.04395.36777.36777,0,0,1-.10253.11719.37864.37864,0,0,0-.07325.249h.0586a3.734,3.734,0,0,0,.33691-.33691l.14649-.20508a.04668.04668,0,0,1,.07324-.01465.09937.09937,0,0,1,.0293.07324.6038.6038,0,0,1-.13184.27832q-.1172.21974-.10254.26367.08789,0,.20508-.17578.08789-.11718.26367-.30761.19043-.21974.26367-.30762a.94072.94072,0,0,1,.36621-.32227q-.01464,0,.11719-.13183.08789-.0879.11719-.08789.01464.01464,0,.11718-.0293.0879.07324.10254.04395,0,.04395.0586a.32442.32442,0,0,0-.01465.10254.72966.72966,0,0,0-.01465.08789.55483.55483,0,0,0-.01465.20507,1.16585,1.16585,0,0,0,.35156-.33691,1.07444,1.07444,0,0,1-.14648.4834,1.39585,1.39585,0,0,0-.16113.46875,3.42927,3.42927,0,0,1,.16113-.32227q.04393-.08789.16113-.02929.10254.04393.05859.10254-.08789.20506-.20507.4248-.16115.26367-.35157.57129l-.02929.08789a.12994.12994,0,0,0,.01465.05859.06379.06379,0,0,0,.08789.01465.82627.82627,0,0,0,.26367-.293,1.041,1.041,0,0,1,.21972-.33691,1.86739,1.86739,0,0,0,.33692-.5127.65018.65018,0,0,1,.05859-.11718Q1788.89551,533.085,1788.9248,533.09961Zm-10.7373-3.91113q.04395.01464.04395.02929a.48724.48724,0,0,1-.07325.26368q0,.01464-.04394.02929a.04786.04786,0,0,1-.0586-.01465q-.04393-.0293-.02929-.05859a1.89609,1.89609,0,0,1,.10254-.249Q1778.14355,529.17383,1778.1875,529.18848Zm-.0293,1.21582q.04395-.01466.04395.02929a.16267.16267,0,0,1-.0586.16114l-.05859.01465-.0293-.0293A.16216.16216,0,0,1,1778.1582,530.4043Zm.13184.92285q.05859-.01466.07324.01465v.04394a.04219.04219,0,0,1,.01465.0293.37991.37991,0,0,1,.01465.30762.66137.66137,0,0,1-.11719-.293Q1778.26073,531.34179,1778.29,531.32715Zm.04394-4.01367q-.05859-.0293-.04394-.07325t.07324-.02929q.10254.01464.0586.07324A.07417.07417,0,0,1,1778.334,527.31348Zm.26368,2.84179a.185.185,0,0,1-.0586.13184q-.07325.04395-.10254-.13184v-.13183a.70743.70743,0,0,1-.04394-.33692q.01464-.10254.05859-.32226,0-.04395.07324-.04395.05861.01466.0586.0586v.11718a2.66829,2.66829,0,0,0,.01465.57129A.13557.13557,0,0,1,1778.59766,530.15527Zm-.01465-1.15722q-.044.17577-.11719.14648-.02929-.01464-.07324-.16113.0293-.13184.0293-.14649.02929-.08788.08789-.07324.10253.01465.11718.08789A1.15951,1.15951,0,0,1,1778.583,528.99805Zm-.0293,1.46484q.044-.01465.07324.05859v.04395l-.01465.08789q0,.0293-.01464.0293-.04395-.01465-.04395-.0293a.3919.3919,0,0,1-.0293-.14648A.04693.04693,0,0,1,1778.55371,530.46289Zm.16113.64453a.1036.1036,0,0,1,.04395.14649l-.04395.02929a.13111.13111,0,0,1-.07324-.08789.0874.0874,0,0,1,.01465-.08789Q1778.67091,531.07813,1778.71484,531.10742Zm.0293-4.89258q.01465-.04393-.01465-.05859t-.04394.0293a.04094.04094,0,0,0,.02929.05859Zm.08789,5.58106q.0293-.02929.04395,0,0-.01466.05859.08789a.15252.15252,0,0,1-.01465.08789.04692.04692,0,0,1-.04394.0293.10034.10034,0,0,1-.07325-.08789A.09048.09048,0,0,1,1778.832,531.7959Zm.36621-6.0791a.16317.16317,0,0,0-.04394-.16114.20828.20828,0,0,0-.0293.11719.2779.2779,0,0,1,0,.13184q.01465-.07325-.13184.4541a.59292.59292,0,0,0-.02929.30762.28024.28024,0,0,1-.07325.30761.18639.18639,0,0,0-.05859.23438.09582.09582,0,0,0,.04395.04394q.07323.02931.07324-.02929a1.35466,1.35466,0,0,1,.07324-.19043.45622.45622,0,0,0,.05859-.19043Q1779.0957,526.58106,1779.19824,525.7168Zm-.16113,8.05664q.01466,0,.0293.02929a.23005.23005,0,0,1-.0293.16114l-.05859.02929a.1508.1508,0,0,1-.0293-.05859.123.123,0,0,1,.04394-.14648Q1778.99316,533.77344,1779.03711,533.77344Zm-.0293-1.49414q.04395-.0293.07324.02929a1.8044,1.8044,0,0,1,.13184.4834q.01465.02929-.0293.04395a.029.029,0,0,1-.04394-.01465.76814.76814,0,0,1-.08789-.13184q0-.01464-.01465-.13183h-.01465a.85287.85287,0,0,1-.04394-.20508A.05936.05936,0,0,1,1779.00781,532.2793Zm.14649-8.77442-.0293-.04394a.12844.12844,0,0,1,.07324-.14649q.05859-.01464.07324.0293a.11155.11155,0,0,1-.05859.14648Zm.19043,9.56543v.01465l-.01465.05859q0,.04395-.0293.04395-.04395.01465-.05859-.04395a.12994.12994,0,0,1-.01465-.05859v-.01465a.013.013,0,0,1,.01465-.01465.05969.05969,0,0,1,.04394-.01464q.0293-.01466.04395,0a.013.013,0,0,1,.01465.01464Zm.08789.39551q.01464.05859-.0293.07324-.05859.01466-.07324-.05859a.059.059,0,0,1,.0293-.05859Q1779.40332,533.39257,1779.43262,533.46582Zm.17578.52734q.08788.17579.01465.17579a.212.212,0,0,1-.14649-.11719.65636.65636,0,0,1-.05859-.14649q-.0293-.07323.01465-.08789.04393-.04393.07324.01465Q1779.56445,533.91991,1779.6084,533.99316Zm-.04395.92286q.0586-.044.11719.02929.04395.05861-.0293.10254t-.10254-.04394A.0874.0874,0,0,1,1779.56445,534.916Zm.10254-11.80664a239.857,239.857,0,0,0-.05859-.0293q0-.02929.01465-.0293a7.02225,7.02225,0,0,0,.46875-.62988q.30762-.48341.43945-.64453a.04693.04693,0,0,1,.04395-.0293.06222.06222,0,0,1,.05859,0l.01465.04395q-.04395.07323-.0293.07324a4.16962,4.16962,0,0,0-.32226.498.962.962,0,0,1-.26368.33692,3.08183,3.08183,0,0,1-.27832.33691Q1779.74024,523.05078,1779.667,523.10938Zm.07324,11.27929a.04692.04692,0,0,1,.0293.04395q.01465,0-.01465.04394a.05179.05179,0,0,1-.05859-.05859Q1779.68164,534.35938,1779.74023,534.38867Zm.23438.41016a6.29773,6.29773,0,0,0,.293.57129q.044.07324-.01465.08789a.08351.08351,0,0,1-.08789-.0293q-.08789-.11718-.21973-.32226a1.077,1.077,0,0,1-.11719-.32227q.01466-.044.0293-.04395a.09442.09442,0,0,1,.07324,0A.22965.22965,0,0,1,1779.97461,534.79883Zm.46875-11.87988a.029.029,0,0,0-.04395-.01465q-.0293,0-.01464.01465,0,.01464.02929.04394Zm-.0293,12.78808q.04395-.05859.08789.01465a.13345.13345,0,0,1,.01465.10254q-.0293.04395-.08789-.01465A.0841.0841,0,0,1,1780.41406,535.707Zm.84961-3.55957.01465-.04394q0-.01466-.0293-.04395-.01464-.044-.02929-.04395a.159.159,0,0,0-.0293.0586.15109.15109,0,0,1,.0293.05859Zm.08789,4.49707q.10254.05859.08789.10254-.0293.05859-.14648-.0293-.05859-.08788-.04395-.10254Q1781.249,536.58593,1781.35156,536.64453Zm.27832-2.124q.07325-.02929.10254.01465l.0586.11718a1.03245,1.03245,0,0,0,.26367.293.0183.0183,0,0,0,.02929,0q.02931-.01464.01465-.02929l-.02929-.0879a2.97334,2.97334,0,0,1-.293-.3955.1877.1877,0,0,0-.17578-.11719,1.09286,1.09286,0,0,1-.20508-.04395,1.62777,1.62777,0,0,0,.13183.26368Q1781.55665,534.57909,1781.62988,534.52051Zm-.20508-3.208q-.01464-.10254.0879-.08789a.08151.08151,0,0,1,.07324.08789.06923.06923,0,0,1-.0586.07324Q1781.45411,531.40039,1781.4248,531.3125Zm.835,4.11621q.01464-.0293-.0293-.07324a2.459,2.459,0,0,1-.4834-.5127l-.01465.0293q.10254.17578.20508.32227.08789.10254.21973.23437Q1782.21582,535.4873,1782.25977,535.42871Zm-.23438-2.43164a.428.428,0,0,1,.20508.4541q0,.04395-.05859.04395-.16115-.01465-.17579-.11719-.01464-.13184-.05859-.16113-.04395-.11719-.05859-.16114a.0579.0579,0,0,1,.02929-.08789A.13506.13506,0,0,1,1782.02539,532.99707Zm0,4.043a.167.167,0,0,1,.08789.05859q.01465.0879-.14648.04395l-.08789-.0586Q1781.86426,536.9961,1782.02539,537.04Zm.46875-12.91992q.01465.04393-.05859.07324a.36652.36652,0,0,1-.14649,0q-.21972-.04395-.13183-.16113a.25671.25671,0,0,0,.05859-.23438.22489.22489,0,0,1,.0293-.08789q0-.0293.04394-.0293a.05973.05973,0,0,1,.04395.01465A2.5143,2.5143,0,0,1,1782.49414,524.12012Zm.5127-5.77149a10.38629,10.38629,0,0,0-.86426,1.30371q.08789-.11718.23437-.30761.16115-.21973.23438-.30762A3.867,3.867,0,0,0,1783.00684,518.34863Zm-.74707,15.42481a.12994.12994,0,0,1,.05859-.01465.13336.13336,0,0,1,.16113.11719l-.02929.04394-.0293.01465q-.044.01466-.0586,0Q1782.15724,533.86133,1782.25977,533.77344Zm2.35839,1.66992q.10254-.04395.07325-.10254t-.11719-.01465a.26266.26266,0,0,1-.13184.04395.25327.25327,0,0,1-.14648.01465.19231.19231,0,0,0-.16113.02929.38492.38492,0,0,1-.19043.08789.61415.61415,0,0,1-.19043,0,1.76306,1.76306,0,0,0-.45411,0,.62039.62039,0,0,1-.4541-.13183h-.01465l-.01464-.01465a1.38145,1.38145,0,0,0-.32227-.17578l-.23437-.04395q0,.05859.16113.19043a.25618.25618,0,0,0,.20508.07324q.10254,0,.11718.16114,0,.07324-.05859.05859a1.07087,1.07087,0,0,1-.27832-.07324.07118.07118,0,0,0,.04395.08789.82257.82257,0,0,0,.27832.11719l-.04395-.01465a2.43225,2.43225,0,0,0,.61523.17578,1.94584,1.94584,0,0,0,.61524-.04395q.01464,0,.0293-.04394-.02931-.02929-.10254,0a3.20915,3.20915,0,0,1-.90821-.0586q-.08789-.01464-.05859-.08789a.10515.10515,0,0,1,.07324-.04394.40293.40293,0,0,1,.17578.01465.77621.77621,0,0,0,.52735,0l.07324.01465q.04395,0,.249-.01465.19044-.0293.249-.04395.04394-.01464.10254-.02929l.10253-.04395Q1784.501,535.502,1784.61816,535.44336Zm-1.42089,1.88965q.10253.0293.07324.07324t-.13184.04395a1.98617,1.98617,0,0,1-.27832-.04395.85891.85891,0,0,1-.38086-.10254.07415.07415,0,0,1-.02929-.08789q0-.0293.05859-.0293a.75833.75833,0,0,1,.19043.01465,2.17656,2.17656,0,0,0,.249.07324A1.44815,1.44815,0,0,0,1783.19727,537.333Zm-.36622-2.71a.08807.08807,0,0,1,.0586-.0586.04221.04221,0,0,0,.0293-.01465h.02929l-.01465.0586a.22939.22939,0,0,1-.04394.05859q-.05859.04395-.07324,0A.11248.11248,0,0,1,1782.83105,534.62305Zm.45411.07324q.0293-.04395.05859-.01465a.04219.04219,0,0,1,.0293.01465v.0293a.14154.14154,0,0,1-.10254.13183q-.05859.01465-.0586-.01465A.25458.25458,0,0,1,1783.28516,534.69629Zm.9082,2.63672q.07324,0,.07324.05859.01466.13184-.14648.11719-.17578-.01466-.36621-.04395-.14649-.0293-.11719-.08789l.11719-.02929h.21972A1.55656,1.55656,0,0,0,1784.19336,537.333Zm-.5127-2.53418q-.01464-.07324.0293-.0586.01466,0,.04395.04395,0,.07324-.0293.07324T1783.68066,534.79883Zm.16114-15.542a.35594.35594,0,0,1,.19043-.17579A.31106.31106,0,0,1,1783.8418,519.25684Zm.38086,13.47656q.01464-.01466.01464,0a.16224.16224,0,0,1-.02929.23437l-.01465-.01465-.0293-.01464Q1784.16406,532.748,1784.22266,532.7334Zm.23437-15.68848v.01465l-.07324-.01465v-.05859h.07324Zm.11719,1.50879q.0293,0,.04394.04395.01466.0293,0,.04394a.69308.69308,0,0,0-.21972.11719Q1784.42774,518.53905,1784.57422,518.55371Zm-.11719-1.49414q.04395,0,0,.01465Zm.17578,20.15625q.11719-.05859.14649.05859a.09565.09565,0,0,1-.07325.11719q-.10253.02929-.13183-.05859A.09483.09483,0,0,1,1784.63281,537.21582Zm.23438-18.79394v-.10254q.07325.20506.07324.21972a.14121.14121,0,0,1-.07324.0586v-.0293l-.01465.04394-.0293.0879-.01465-.04395-.02929-.0293q-.0293-.02929-.0293-.04394-.05859-.01465-.01465-.07324l.04395-.04395.02929-.01465h-.10254v-.13183l.01465-.01465V518.29q.07324.11718.04395.16113h.0293Zm.11719.27832q-.02931.11718-.0586.13183a.05965.05965,0,0,1-.04394.01465h-.04395l-.05859.01465a.58123.58123,0,0,1,.07324-.08789h-.01465l.01465-.01465.01465-.01465A.572.572,0,0,1,1784.98438,518.7002Zm-.14649.14648h0Zm.01465-.23438q-.01466,0,.01465-.01464v.01464Zm0-.32226v-.05859l.01465.01464v.0586A.013.013,0,0,0,1784.85254,518.29Zm.01465.55664h0Zm.02929,16.40625a1.69014,1.69014,0,0,0,.80567-.4834A4.28161,4.28161,0,0,0,1784.89648,535.25293Zm.16114.27832a.23941.23941,0,0,1,.01465-.05859l-.04395-.01465q-.02929.01464-.0293.02929-.01464.02931,0,.04395A.06224.06224,0,0,0,1785.05762,535.53125Zm.27832-18.86719h-.32227a.23752.23752,0,0,1,.14649-.10254,4.36362,4.36362,0,0,1,1.23046-.02929,2.53094,2.53094,0,0,1,1.05469.4248,2.6934,2.6934,0,0,1,.38086.32227.35483.35483,0,0,1,.13184.19043.04786.04786,0,0,1-.01465.05859.12994.12994,0,0,1-.05859.01465.21728.21728,0,0,1-.14649-.10254,1.297,1.297,0,0,0-.21973-.249,3.09887,3.09887,0,0,0-.26367-.20508l-.293-.14649q-.26367-.10254-.32226-.11718-.13184-.02931-.249-.0586-.11718-.01464-.249-.02929a2.77478,2.77478,0,0,0-.498.01464h-.14648A.98568.98568,0,0,1,1785.33594,516.66406Zm.02929,17.62207a.11528.11528,0,0,0,.01465.16114h.0293q.02929,0,.05859-.04395a.09433.09433,0,0,0,0-.07324Q1785.40918,534.22754,1785.36523,534.28613Zm.07325-13.71093q-.0293.0293-.0293.01464l.04394-.04394q.02931-.02929.04395-.0293Q1785.52637,520.502,1785.43848,520.5752Zm.13183,13.56445q.11719-.0879.293-.23438l-.0293-.04394q-.19043.13184-.32226.21972a.05969.05969,0,0,0-.01465.04395.0259.0259,0,0,0,.0293.0293A.05969.05969,0,0,0,1785.57031,534.13965Zm.16114-15.9375a.08151.08151,0,0,0-.0879.07324q0,.07324.0586.07324.07325.01465.07324-.08789A.05744.05744,0,0,0,1785.73145,518.20215Zm.498.26367a.2364.2364,0,0,0-.27832-.07324A.51035.51035,0,0,0,1786.22949,518.46582Zm-.26367,16.09863q.20508-.21972.19043-.20507A.43021.43021,0,0,0,1785.96582,534.56445Zm.08789-15.57129q.044-.04393.04395-.05859.04394-.01466.07324.04395v.01464a.151.151,0,0,0-.0293.0586q-.05859.0293-.07324,0Zm.17578-1.626q-.05859,0-.05859.02929,0,.01466.05859.04395.0293.0293.04395,0Q1786.28808,517.39648,1786.22949,517.36719Zm.21973,15.4834q.0293-.04395.05859,0v.04394a.03662.03662,0,0,1-.05859,0Q1786.43457,532.86524,1786.44922,532.85059Zm.08789,1.12793.0293-.0586q.01464-.0293-.01465-.01465a.18017.18017,0,0,0-.07324.0293q-.02931.044-.01465.05859Q1786.47851,534.02247,1786.53711,533.97852Zm.92285,1.582q-.07324.10254-.13184.17578a.36783.36783,0,0,0-.05859.293.27446.27446,0,0,1-.14648.02929.2021.2021,0,0,0-.14649.04395,1.4198,1.4198,0,0,1-.20508.17578q-.05859.05859-.11718-.01465a.09571.09571,0,0,1,.02929-.11719q.01465-.01464.20508-.16113.21973-.20508.43945-.4248a.15855.15855,0,0,1,.07325-.0586.04222.04222,0,0,1,.02929.01465Zm-.51269-17.915q-.04395-.01465-.0586,0l.04395.04394h.05859Q1787.00587,517.67481,1786.94727,517.64551Zm0,15.835q.07323-.10254.20507-.26367l-.01464-.01465a3.06837,3.06837,0,0,1-.20508.249Zm.46875-1.71387a.06228.06228,0,0,1,.05859,0,.05969.05969,0,0,1,.01465.04395q0,.01464-.07324.21972l-.0586.0586a.06228.06228,0,0,1-.05859,0,.04694.04694,0,0,1-.0293-.04395A.63557.63557,0,0,1,1787.416,531.7666Zm.04394,4.6582h.05859q.04395.02931-.01464.07325a.0623.0623,0,0,1-.0586,0Q1787.416,536.46876,1787.46,536.4248Zm.16113-1.14257.07325-.04395q.04393-.01464.04394.0293.01465.0293-.0293.07324a.08607.08607,0,0,1-.07324.04395q-.0293,0-.02929-.04395Zm.23438-.26368.04394-.01464.01465.04394-.04394.01465Zm.68848-2.02148a.013.013,0,0,1-.01465-.01465q-.04395-.10254.13183-.21972Q1788.63184,532.96777,1788.544,532.99707Z" fill="#999"/>
      <path d="M1790.35449,536.67383q0,.04394-.05859.04394l-.10254.01465q-.10254.04395-.249-.10254a.31779.31779,0,0,0,.249-.07324.17475.17475,0,0,1,.14648-.04394.2186.2186,0,0,0,.14649-.0293l.08789-.04395.01465.01465q.01464.01466,0,.01465a.26261.26261,0,0,1-.13184.08789A.14108.14108,0,0,0,1790.35449,536.67383Zm9.78516.70312a2.25993,2.25993,0,0,1,.07324.542q.0293.35155-.14648-.13184a.64.64,0,0,0-.13184.52734q.01466.044.07324.49805.01465.11718.01465.13184,0,.20506-.21973.13183-.01464.04395.21973,1.25977a2.97284,2.97284,0,0,1,.11719,1.25976q-.1172-.17577-.16113-.19043-.01465-.01464-.23438-1.084-.21972-1.05469-.293-.99609-.01464.0293-.04394-.04395a.23606.23606,0,0,1-.0293-.10254,2.07014,2.07014,0,0,0-.08789-.51269,3.5857,3.5857,0,0,1-.11719-.5127,3.09372,3.09372,0,0,0-.11719-.38086,1.23093,1.23093,0,0,0,.04395.61524,3.83121,3.83121,0,0,1,.11719.498q.08789.35157.11718.4834l.07325.21973a13.98367,13.98367,0,0,1,.36621,1.52343.77873.77873,0,1,1-.17578.0293q.17577.58594.23437.80567a7.76661,7.76661,0,0,0-.38086-1.4209,5.67,5.67,0,0,0-.20508-.73242,6.12375,6.12375,0,0,0,.20508.73242q.0293.08788.07324.293t.07325.32226q-.64453-2.15333-.86426-2.71-.16113.36621-.01465.542a.859.859,0,0,1,.11719.23438,1.37578,1.37578,0,0,0,.10254.249.2138.2138,0,0,1-.249-.07324.97387.97387,0,0,1-.07324-.17578,2.9249,2.9249,0,0,0-.11719-.4834,2.70447,2.70447,0,0,1-.10254-.4834q-.01464-.13184-.04394-.14648a.63747.63747,0,0,1-.19043-.39551q-.01465-.1172-.08789-.4541-.04395-.27832-.07324-.4541a2.01412,2.01412,0,0,1-.0293-.26368,1.23253,1.23253,0,0,0-.0293-.293v.35156q0,.13183.01465.32226a.80072.80072,0,0,1-.0293.17578,1.55514,1.55514,0,0,0-.01464.17579,1.22509,1.22509,0,0,1-.01465.32226,1.031,1.031,0,0,1-.13184.32227.98.98,0,0,1-.07324-.32227q-.01465-.16113-.14648-.13183-.07325.0293-.0879-.10254V537.04q-.0293-.45411-.04394-.5127a.38913.38913,0,0,1,.11719.27832.79067.79067,0,0,0,.05859.30762.09858.09858,0,0,0,.04395-.08789q-.01465-.07325.01464-.08789.04395.01465.0586.10254,0,.08789.04394.10254a.576.576,0,0,0,.01465-.35156,1.65417,1.65417,0,0,1-.0293-.20508,1.60956,1.60956,0,0,0-.02929-.19043q-.01466-.10254.01465-.11719.11718-.08789,0-.19043a.20117.20117,0,0,1-.04395-.17578.97554.97554,0,0,0,0-.33691q.0293-.05861.05859-.0293.04395.044.0586.01465.07325-.0879.07324-.0586-.05859-.19042-.0293-.14648a.54943.54943,0,0,1-.05859-.249,5.69618,5.69618,0,0,0-.08789-.86426,8.67015,8.67015,0,0,1-.13184-.86426,1.42293,1.42293,0,0,0-.05859-.33691q-.05859-.249-.07324-.35157a5.80589,5.80589,0,0,0-.10254-.70312.54706.54706,0,0,1-.01465-.23438,1.017,1.017,0,0,0,0-.249,1.16989,1.16989,0,0,0-.07324-.33691,1.0155,1.0155,0,0,1-.04395-.23438.35456.35456,0,0,0-.07324-.21973q-.11718-.16113-.27832.07325a.29729.29729,0,0,0-.33691-.293q-.05861,0-.542.05859a10.81382,10.81382,0,0,0-1.59668.249q-.21972.05861-.293.0879-.17578.08788-.04395.17578.07325.04393-.01465.05859-.11718.044-.13183.23438a3.75512,3.75512,0,0,1-.04395.58593.45407.45407,0,0,1-.0293-.10254.3812.3812,0,0,0-.01464-.11718,4.08834,4.08834,0,0,0-.14649.64453q-.05859.293-.16113.84961-.10254.60059-.16114.86425-.3076,1.64063-.32226,1.72852a.4741.4741,0,0,1,.35156-.19043l.0293.0293q.01464.01464-.01465.01465a.2477.2477,0,0,0-.10254.10253.15882.15882,0,0,1-.05859.0293q-.04395.02929-.04395.04395.01466.01464.04395,0a.11237.11237,0,0,1,.04394-.01465l.01465.01465a.0183.0183,0,0,1,0,.02929.29167.29167,0,0,1-.19043.07325.08607.08607,0,0,1-.07324-.04395q-.04395.27832-.05859.39551a.24.24,0,0,1-.01465.05859v.04395a.04222.04222,0,0,1,.01465.02929.05936.05936,0,0,0,.07324.0293.78215.78215,0,0,0,.17578-.05859l.13183-.04395a.09444.09444,0,0,1,.07325,0q.0293,0,.02929.04395a.05969.05969,0,0,1-.01464.04394q-.01465.0293-.10254.0586a.27979.27979,0,0,0-.16114.08789l-.01464.04394a.25141.25141,0,0,0-.249-.01465,1.83762,1.83762,0,0,1-.10254.38086.224.224,0,0,1,.11719,0,1.49885,1.49885,0,0,0,.21973.0293.08441.08441,0,0,1-.0293.05859.03663.03663,0,0,0,0,.0586.22939.22939,0,0,1,.05859.04394l.0586.0293q.01464.01466,0,.04395a.04222.04222,0,0,1-.0293.01464.13006.13006,0,0,0-.05859-.01464q-.04395-.02931-.19043-.10254l.01465-.0293q.01464-.044,0-.05859-.04395-.04395-.07325,0,.01466-.01465-.02929.04394a.04219.04219,0,0,1-.0293.01465.15906.15906,0,0,0-.05859-.0293.11252.11252,0,0,1-.01465.04395.13007.13007,0,0,1-.01465.05859v.0586a.04224.04224,0,0,1,.0293.01464.0811.0811,0,0,0,.11718.01465q.0586-.04393.07325.07324.01464.02931-.01465.0293a.36435.36435,0,0,1-.23438-.01465q-.0293.14649-.26367.0293a.6469.6469,0,0,0-.11719-.04395q-.14648.02931-.17578-.13183a.06228.06228,0,0,1-.05859,0l-.0293-.01465a.04221.04221,0,0,1-.0293-.01465l-.04394-.01465a1.46255,1.46255,0,0,0-.0293.17578q0-.01464.01465,0a.013.013,0,0,1,.01465.01465q.05859.19044.04394.17578l-.01464.0293q-.07324.02929-.10254-.0293a.0183.0183,0,0,1,0-.02929q.0293-.01466.02929-.14649a.5826.5826,0,0,1-.08789.14649.09393.09393,0,0,1-.10254.04394.151.151,0,0,0-.02929.0586.12.12,0,0,1-.04395.07324.21419.21419,0,0,0-.04394.07324l.02929-.01465q-.0293,0-.02929-.01465v.01465h-.0586q.01465,0,0-.04394h0v-.0293a.013.013,0,0,0-.01465.01465l.01465.0293a.17029.17029,0,0,1-.04394.02929h-.01465v.01465a1.07358,1.07358,0,0,0-.30762-.0293q.044-.01464-.16113.01465a.22406.22406,0,0,1-.04395.11719q-.05859-.01465-.08789-.11719h-.05859a.013.013,0,0,1-.01465-.01465q-.01466-.0293.01465-.02929h.04394l-.05859-.20508h-.32227q-.07323-.01466-.01464-.07324a1.03051,1.03051,0,0,1,.14648-.10254.05969.05969,0,0,1,.04395.01465.17029.17029,0,0,0,.04394.02929q.01466.0293.0293.0293a.04218.04218,0,0,0,.0293.01465.64223.64223,0,0,0-.0586-.11719.25144.25144,0,0,0-.21973.01465.11237.11237,0,0,0-.04394.01465l-.0293-.01465a.21821.21821,0,0,0,0-.16113.029.029,0,0,1,.01465-.04395.33768.33768,0,0,1,.11719-.0293q-.0879-.08789-.04395-.05859.01466.01465-.01465,0t-.01464-.01465a.402.402,0,0,0-.20508-.02929q-.01466-.05861.05859-.0586a.27972.27972,0,0,0,.16113-.08789.3393.3393,0,0,1,.07325-.04394q.0293-.05861.13183-.293a.5688.5688,0,0,1,.0293-.07325.25482.25482,0,0,1-.0293-.10253.73191.73191,0,0,1,.01465-.08789.09435.09435,0,0,0,0-.07325.104.104,0,0,1,.01465-.08789.4004.4004,0,0,0,.01465-.08789.06635.06635,0,0,1,.01465-.07324.60208.60208,0,0,0,.07324-.30762q0-.04394.0293-.04394a.177.177,0,0,0,.10254-.10254.84459.84459,0,0,1,.08789-.11719q.01464-.0293.04394,0-.01464-.01466.0293.05859a.57421.57421,0,0,1,.05859-.13183.59049.59049,0,0,0,.0586-.17578q.3369-1.84571.33691-1.80176.04395-.27832.14648-.82031a7.79853,7.79853,0,0,0,.14649-.80567.99372.99372,0,0,1,.08789-.27832.23691.23691,0,0,0,.0293-.19043q-.04395-.13183-.14649-.10254-.74707.16115-.62988.11719a4.22049,4.22049,0,0,1-1.09863.04395q-.10254,0-.07325-.10254a.87885.87885,0,0,1,.19043-.46875q.07324-.0879.23438-.27832a3.03962,3.03962,0,0,1,.23437-.27832,2.54031,2.54031,0,0,1,.73242-.42481,1.84383,1.84383,0,0,1,.20508-.05859q.36621-.05859.35157-.33692.04394-.0293.05859,0,.04395.16115.08789.16114.10254.01464.16113-.14649.0293-.13183.07324-.35156.02931-.27832.04395-.36621a1.65829,1.65829,0,0,1,.05859-.20508.33519.33519,0,0,0,.0293-.249,1.62668,1.62668,0,0,1,.05859-.43946q.01465-.04393-.08789-.20507-.01464-.0293-.05859.01464-.04395.05861-.05859,0v-.21972a.48834.48834,0,0,1,.01464-.17578.114.114,0,0,0,.04395-.10254.4709.4709,0,0,1,.20508-.38086q.16113-.13184-.01465-.17578-.05859-.0293-.01465-.08789a.21963.21963,0,0,0-.05859-.30762.23871.23871,0,0,1,.08789-.07324q.05859-.0293.05859-.07324.01466-.13185-.04394-.13184-.11719-.01466-.08789-.14649a.79992.79992,0,0,1,.10254-.33691q.16113-.05859.21972-.41016a1.53956,1.53956,0,0,1,.04395-.17578.30726.30726,0,0,0-.10254.21973.59333.59333,0,0,1-.07324.23437.73265.73265,0,0,1-.11719-.38085q.05859-.02931.08789-.16114a.11937.11937,0,0,1,.13184-.11719.11932.11932,0,0,0-.13184-.02929q-.13183.05859-.16113-.0293-.04395-.11718.08789-.14648a.24133.24133,0,0,0,.20508-.17578q0-.02931.01464-.14649a.93343.93343,0,0,1,.0293-.13183.36089.36089,0,0,0-.10254.17578.22842.22842,0,0,1-.13183.16113,1.45925,1.45925,0,0,1,.04394-.38086q.0293-.05859.08789-.21973a.65354.65354,0,0,1,.08789-.23437q.01465-.01466,0-.08789a.63069.63069,0,0,1-.01465-.11719,10.33588,10.33588,0,0,1,.21973-1.11328.11235.11235,0,0,1,.01465-.04395.11254.11254,0,0,0,.01465-.04394q.0293-.07324-.0293-.10254-.04395-.04395-.11719,0-.11718.05859-.14648.04394a.35415.35415,0,0,1-.01465-.14648.30464.30464,0,0,1,.01465-.11719q.0293-.13183.14648-.07324a.17029.17029,0,0,0,.26367-.10254.82192.82192,0,0,0,.08789-.33691,2.09658,2.09658,0,0,1,.0879-.52735,2.32113,2.32113,0,0,0,.08789-.58593,2.996,2.996,0,0,1,.05859-.49805q.05859-.33691.07324-.49805a2.752,2.752,0,0,1,.0293-.33691q.02929-.21974.04394-.32227a.58276.58276,0,0,0-.16113-.498q-.14648-.1172-.01465-.293a.4325.4325,0,0,0,.01465-.30762q-.10254.01465-.11719.14648-.0293.13185-.11718.41016a2.05034,2.05034,0,0,0-.10254.41016.05969.05969,0,0,1-.01465.04394q-.01466.0879-.07324.0586-.0586,0-.04395-.07325v-.04394a4.56136,4.56136,0,0,0,.0586-.70313,1.49957,1.49957,0,0,1,.08789-.4541q.13184-.38085.46875-.17578.14648.08788.16113.13184a.39817.39817,0,0,1-.05859.20507,2.317,2.317,0,0,0-.11719.4834q0,.16115.13183.08789a.255.255,0,0,0,.16114-.19043.10033.10033,0,0,1,.07324-.08789.06767.06767,0,0,1,.04394.07325q0,.07323.04395.08789a1.00478,1.00478,0,0,0,.01465-.19043.7805.7805,0,0,1,.01465-.17578q-.02931,0-.0586.04394a.04786.04786,0,0,1-.05859.01465q-.044,0-.01465-.04395a1.99158,1.99158,0,0,1,.23437-.52734,1.151,1.151,0,0,1,.0586.14648q.04395.05861.14648-.01464.07324-.05861.10254.04394.05859.17578.11719.19043.05859-.21972.14648-.23437.05861-.01465.07325-.16114.01464-.17577.16113-.13183.11718.02929.16113-.10254.01465-.05859.11719-.11719.23438-.13184.23437.13184,0,.07323-.04394.3955a.25758.25758,0,0,0,.07324.19043,2.51634,2.51634,0,0,0,.04395-.4541.54856.54856,0,0,1,.08789-.30761.19486.19486,0,0,0,.04394-.11719q-.01464-.11719.0293-.11719.13183,0,.11719.14648a.21423.21423,0,0,1-.04395.13184,1.479,1.479,0,0,0-.04394.57129q0,.05859.08789.10254a.62231.62231,0,0,0,.08789.05859.23056.23056,0,0,0,.08789.0586.28172.28172,0,0,1,.17578.23437.94664.94664,0,0,0,.26367.4834q.07325.08789.0293.14648-.04395.01465-.10254-.04394a.16884.16884,0,0,0-.11719-.0586,1.50077,1.50077,0,0,0,.14649.36622.68116.68116,0,0,1,.08789.41015,1.63717,1.63717,0,0,1-.13184-.249.42846.42846,0,0,0-.14648-.20508q.07323.21973.07324.23438a13.24187,13.24187,0,0,1,.51269,1.56738,2.48538,2.48538,0,0,0,.08789.33691q.0586.20508.08789.32227a3.55165,3.55165,0,0,1,.11719.71777.70254.70254,0,0,0,.04395.20508.84985.84985,0,0,1,.04394.21973q.0586.57129.0586.43945a.45392.45392,0,0,0,.02929.19043q-.01464-.01466.20508,1.15723.20508,1.20117.30762,1.626a4.03455,4.03455,0,0,1,.05859.42481,4.01876,4.01876,0,0,0,.0586.41015q.04393.20508.293,1.84571a.95409.95409,0,0,0,.20507.55664q.0293.02929,0,.08789a.33145.33145,0,0,0,.14649.46875.577.577,0,0,1,.16113.17578.429.429,0,0,1-.11719-.07324q-.07325-.05861-.11718-.04395a.3694.3694,0,0,0,.11718.33692q.10254.05859.0293.16113a.86213.86213,0,0,0-.11719.27832q-.04394.14648.13184.17578a.13346.13346,0,0,1-.07324.07324.08608.08608,0,0,0-.04395.07324.58942.58942,0,0,0,.01465.16114q.14649.61522.19043.74707a.60029.60029,0,0,1,0,.19043.24423.24423,0,0,0,.04394.19043l.01465.07324a.14223.14223,0,0,0,.0586.08789.16718.16718,0,0,1,.05859.23437.24025.24025,0,0,0,0,.20508l.16113.49805a.11584.11584,0,0,1,.01465.07324,2.48493,2.48493,0,0,0,.0293.5127q.07325.41014.08789.51269a1.03308,1.03308,0,0,0,.07324.32227q.05859.21972.07324.30762.01466.11718.33692,1.69921.04394.16115.11718.42481a4.13641,4.13641,0,0,1,.11719.41015Q1800.11035,537.28907,1800.13965,537.377Zm-9.8584-.16113q0-.01466.0293-.01465l.01465.0293a.04225.04225,0,0,1-.0293.01465Q1790.26661,537.23047,1790.28125,537.21582Zm.26367-1.333q-.07324-.01464-.07324-.05859.10254-.62988.11719-.64453a.9335.9335,0,0,1,.01465.64453Q1790.58887,535.88281,1790.54492,535.88281Zm.19043,1.83106q0,.02929-.04394.04394h-.10254a.013.013,0,0,1-.01465-.01465q-.01465-.0293,0-.02929.05859-.04395.13183-.10254.0586-.02929.04395.02929A.163.163,0,0,1,1790.73535,537.71387Zm-.01465.17578q-.04394-.04395.04395-.04395l.01465.01465q0,.02929-.04395.0293Q1790.72071,537.90429,1790.7207,537.88965Zm.23438-1.66992q.044-.20508.0293-.14649a.22968.22968,0,0,0-.04395-.05859q-.0293-.01466-.04395,0a.02894.02894,0,0,0-.01464.04394,1.14653,1.14653,0,0,0,.02929.16114Zm.23437,1.626a.05937.05937,0,0,1,.0293.07325.18449.18449,0,0,1-.19043.10253.3224.3224,0,0,1,.07324-.17578Q1791.13086,537.80177,1791.18945,537.8457Zm-.11718-.19043q.04394-.01464.02929-.01465a.01294.01294,0,0,0-.01465-.01464Zm.20507-.11718q0-.04395-.02929-.04395t-.0293.04395q-.01465.0293.0293.08789Zm.07325.32226q.0293,0,.02929.04395,0,.01464-.02929.02929-.02931,0-.04395-.04394Q1791.30664,537.86036,1791.35059,537.86035Zm.04394-5.083a2.47855,2.47855,0,0,1,.14649-.80566A2.31552,2.31552,0,0,1,1791.39453,532.77734Zm.11719,5.24414a.04692.04692,0,0,1,.04394.0293q.01466.01465-.01464.04395a.073.073,0,0,1-.07325.01465l-.01465-.0293Q1791.46778,538.02149,1791.51172,538.02148Zm.05859-.26367.0586.01465h0a.43649.43649,0,0,0-.04395.05859.05965.05965,0,0,1-.04394.01465.24011.24011,0,0,0-.01465-.05859l-.01465-.04395.01465.01465Q1791.62891,537.77247,1791.57031,537.75781Zm.9961-6.5332q-.01465.01465-.04395-.20508,0-.08788-.13184-.01465a.491.491,0,0,0-.26367.36621l-.11718.70313q-.0879.65918-.27832,1.46484a.47848.47848,0,0,0,.04394.39551.32168.32168,0,0,1,.01465.38086.11235.11235,0,0,1-.04395.01465q-.11718-.13183-.07324-.11719a1.46745,1.46745,0,0,0-.10254.52734.47473.47473,0,0,0,.07324-.13183.25773.25773,0,0,1,.10254-.10254.47135.47135,0,0,1,.0293.249.79113.79113,0,0,0-.01465.249.64719.64719,0,0,0,.04395-.11719q.20508-1.11328.293-1.55274.04394-.21972.11718-.249t.04395-.08789q0,.01466.04394-.20508a2.07294,2.07294,0,0,0,.04395-.58594q-.08789-.39551.13184-.542a.06379.06379,0,0,0,.01464-.08789A.23135.23135,0,0,1,1792.56641,531.22461Zm-.90821,6.15234v-.05859l-.04394.0293A.04691.04691,0,0,0,1791.6582,537.377Zm.0586.43946a.04691.04691,0,0,1,.02929.04394.17118.17118,0,0,1-.10254.11719q.04395-.11719.0586-.14649A.01294.01294,0,0,1,1791.7168,537.81641Zm.05859-.14649.0293.01465q.0293.044,0,.07324a.013.013,0,0,1-.01465.01465.0259.0259,0,0,1-.0293-.0293A.06637.06637,0,0,1,1791.77539,537.66992Zm.21973.16113v.0879l-.01465.01464-.01465-.02929v-.0586Zm.46875-9.873a2.82359,2.82359,0,0,0-.21973.43945.35256.35256,0,0,1-.05859-.30762,2.71923,2.71923,0,0,1,.11718-.33691q.02931-.07324.08789-.05859.0586,0,.0879.08789A.21491.21491,0,0,1,1792.46387,527.958Zm-.0293,9.56543q.0293,0,.04395.04394l-.01465.01465a.04692.04692,0,0,1-.04395-.0293Q1792.40528,537.5088,1792.43457,537.52344Zm.16113-8.18848q.26367-.0293.26368-.21973,0-.14648-.23438-.14648a.42833.42833,0,0,1,.10254.17578Q1792.72754,529.18848,1792.5957,529.335Zm.33692-.55664a.61517.61517,0,0,0,.02929-.33691q-.01464-.293-.01464-.35157a1.97864,1.97864,0,0,0-.10254.542A.11821.11821,0,0,0,1792.93262,528.77832Zm.11718-7.83691a1.66728,1.66728,0,0,1-.08789.46875.30805.30805,0,0,1-.01464-.249,3.46754,3.46754,0,0,0,.08789-.77636.29073.29073,0,0,1,.02929-.13184.09685.09685,0,0,0,.01465-.08789q0-.01466-.05859-.04395t-.01465-.08789a.93716.93716,0,0,0,.13184-.08789.25574.25574,0,0,0,.05859-.14648,1.38516,1.38516,0,0,0,.0293-.32227q.01464-.01464-.0293-.04394-.08789-.07325,0-.16114a.22394.22394,0,0,0,.07324-.16113,2.45957,2.45957,0,0,1,.05859-.4248,1.05225,1.05225,0,0,0,.0293-.41016q-.0293-.19043.21973-.27832a.68335.68335,0,0,0-.04395.4541.22411.22411,0,0,1-.01465.13184,1.47726,1.47726,0,0,0-.14648.77637,3.15673,3.15673,0,0,1-.04395.35156.23992.23992,0,0,1-.01464.05859.23962.23962,0,0,0-.01465.05859q-.01465.07324.07324.10254a.013.013,0,0,1,.01465.01465q.0293.044-.0293.249-.044.21972-.08789.249-.07325.05859-.08789.07324-.0293.07324-.01465.08789t.0586,0q.04393-.01464.05859,0a.07851.07851,0,0,1-.05859.08789A.291.291,0,0,0,1793.0498,520.94141Zm.04395,15.9375q.07325.01464.0293.05859a.05969.05969,0,0,1-.04395.01465q-.04395-.01466-.04394-.04395A.059.059,0,0,1,1793.09375,536.87891Zm.30762-4.18946a.69057.69057,0,0,0,.05859-.30761,1.08526,1.08526,0,0,1,.0293-.32227.50964.50964,0,0,0-.10254.21973,1.77806,1.77806,0,0,1-.08789.30761v-.07324h-.01465a1.27019,1.27019,0,0,1-.01465-.17578.53565.53565,0,0,0-.0293-.13184,2.12087,2.12087,0,0,0-.17578.67383.74057.74057,0,0,0,.16114-.35156.013.013,0,0,0-.01465-.01465h.05859l.01465.07324.01465-.01464a5.296,5.296,0,0,1-.08789.73242q0,.01464-.14649.80566a1.02931,1.02931,0,0,0,.11719-.33691,2.82328,2.82328,0,0,1,.07324-.35156,1.3492,1.3492,0,0,0,.0586-.36622A.801.801,0,0,1,1793.40137,532.68945Zm-.21973-.17578.0293,3.48633.19043-.07324h.01465l.01464.01465-.01464.04394a.77018.77018,0,0,1-.07325.11719q-.01464.0293-.05859.01465a.3142.3142,0,0,1-.07324-.0586Q1793.167,536.02929,1793.21094,536Zm.32226-4.16016q.04395-.01464.0293-.11718t-.04395-.07325q-.10253.10254-.17578-.01464l-.02929.02929q-.01466.1172.01464.13184Q1793.47461,531.86915,1793.5332,531.83984Zm-.21972,5.24414q.13183-.01464.16113.0879.01466.0293-.0293.04394a.12994.12994,0,0,1-.05859-.01465.11237.11237,0,0,1-.01465-.04394Q1793.31348,537.05469,1793.31348,537.084Zm.13183-.4541-.01465.0293q-.04393,0-.04394-.01465l.0293-.01465Zm3.16407-7.96875a.1708.1708,0,0,0,.16113-.23437q-.0293-.19044-.13184-.65918a.224.224,0,0,0-.04394-.11719.40437.40437,0,0,1-.07325-.26367q-.0293-.58595-.05859-.76172-.11718-.498-.10254-.38086-.0293-.36621-.20508-1.31836-.04393-.249-.08789-.26367-.05859-.0293-.11718-.20508-.13185-.4541-.13184-.43945a1.10393,1.10393,0,0,1-.04395-.19043,3.19058,3.19058,0,0,0-.17578-.61524,1.41827,1.41827,0,0,0-.08789.60059q.0293.19043.04395.41016a.02589.02589,0,0,1-.0293.02929l-.08789-.10254a1.0287,1.0287,0,0,0-.08789.27832q-.14649.76173-.17578.9961-.05859.36621-.17578.95215-.17578.791-.20508.9375-.249,1.28905-.249,1.31836a.44509.44509,0,0,0-.01465.249q.0293.04395.27832.0293a1.16079,1.16079,0,0,0,.19043-.01465q.05859-.01465.21972-.04395.13183-.02929.21973-.04394a1.38054,1.38054,0,0,1,.43945-.01465.39885.39885,0,0,0,.21973-.04395.32982.32982,0,0,1,.20508-.05859A1.035,1.035,0,0,0,1796.60938,528.66113Zm-.67383-11.35254q-.04395-.13184-.23438-.05859.293.36621.27832.35156A.76989.76989,0,0,0,1795.93555,517.30859Zm1.90429,20.97657q-.10254.3076.14649.41015a.1708.1708,0,0,1-.23438-.16113,1.64625,1.64625,0,0,1,.01465-.4834A.17622.17622,0,0,1,1797.83984,538.28516Z" fill="#999"/>
      <path d="M1813.41992,518.05566a3.666,3.666,0,0,1-.26367.33692q-.04395.0293-.01465.08789.0293.04395.10254,0a.0841.0841,0,0,1,.10254-.01465.04786.04786,0,0,1,.01465.05859,10.569,10.569,0,0,1-.4834,1.17188.52542.52542,0,0,0-.08789.26367,2.04391,2.04391,0,0,1-.07324.46875,4.91118,4.91118,0,0,0-.08789.4834q-.01465.08788-.14649.08789-.16113-.01465-.13183.11719a.73048.73048,0,0,1-.04395.46875.45228.45228,0,0,0-.0293.20508.25329.25329,0,0,1-.05859.26367.39859.39859,0,0,0-.05859.26367q-.02931.99609-.04395,1.12793a2.09534,2.09534,0,0,0,.01465.61523q.01464.01465-.0293.13184a.38976.38976,0,0,0,.16114.49805q.05859.05859.05859.08789,0,.04393-.10254.02929-.14649-.0293-.13184.10254a.44315.44315,0,0,1-.02929.20508q-.0293.04395-.0586,0-.08788-.11718-.11718.0293,0-.01465.01464.13183a1.384,1.384,0,0,1,.0293.33692.44765.44765,0,0,0,.0586.41015,2.21124,2.21124,0,0,1,.13183.64454q.01466.08788-.11719.05859.0293,0-.02929-.01465-.14649-.05859-.16114-.04394-.14648.10253.01465.17578a.49369.49369,0,0,1,.21973.52734,3.57511,3.57511,0,0,1-.19043.9375.23973.23973,0,0,0-.0293.13184.93682.93682,0,0,1-.02929.14648,5.92827,5.92827,0,0,1-.76172,1.61133,5.06789,5.06789,0,0,1-.5127.62988q-.498.43945-.67383.61524a1.43853,1.43853,0,0,1-.43945.30761,1.33453,1.33453,0,0,0-.23437.13184q-.0586.05859-1.15723.60059-.0293.01464-.30762.10253-.36621.10254-.38086.10254-.293.13184-.30762.17578a4.61,4.61,0,0,1-.46875.0586q-.04393.01464-.08789-.0586a.25781.25781,0,0,0-.33691-.10253.41643.41643,0,0,1-.43945-.0586.11235.11235,0,0,1-.04395-.01465.59075.59075,0,0,0-.33691,0,.04219.04219,0,0,0-.01465.0293q.02929.08788.293.13184l.43945.02929.23438.0293a1.09244,1.09244,0,0,1-.70313.08789,6.11846,6.11846,0,0,0-.70312-.11719,2.39147,2.39147,0,0,1-1.64063-1.15722q-.02929-.044-.11719-.19043-.13183-.20508-.08789-.11719-.35155-.65917-.293-.61524a5.83579,5.83579,0,0,0-.249-.65918,3.21257,3.21257,0,0,1-.17578-.542q-.10254-.3955-.16113-.55664a.98387.98387,0,0,1-.04395-.16113q-.20508-1.28907-.20508-1.3916-.01464-.17578-.07324-.62988a5.61585,5.61585,0,0,1-.04394-.61524q.01464-.17579.01464-.23437a.18775.18775,0,0,1,.19043-.16114q.16114-.01464.13184-.16113a.32592.32592,0,0,0-.21973-.26367q-.19043-.07324.01465-.17578-.05859.02929.11719-.04395.11718-.044.08789-.13183a.41916.41916,0,0,1,.0293-.30762.15524.15524,0,0,0,0-.13184.69712.69712,0,0,1,.01464-.542.16164.16164,0,0,0-.02929-.16113l-.01465-.0293a.18017.18017,0,0,0-.07324.0293.78733.78733,0,0,0-.0586.39551q0,.11718-.02929.58593a.1805.1805,0,0,1-.0293.10254.05744.05744,0,0,1-.05859.04395.05906.05906,0,0,1-.0586-.0293,1.23437,1.23437,0,0,1-.02929-.20508q.01464-.62988.02929-.9375.01465-.23437.07324-.76172a5.70081,5.70081,0,0,0,.07325-.77636q-.01465-.10254.04394-.13184a.10032.10032,0,0,1,.07324.08789.13734.13734,0,0,0,.07325.08789l.07324.0293a.05906.05906,0,0,0,.0293-.0586.90654.90654,0,0,0-.16114-.33691.39123.39123,0,0,1,.11719-.60059q.27833-.20506.11719-.4541a.32614.32614,0,0,1-.01465-.21972,1.07853,1.07853,0,0,1,.21973-.49805,1.147,1.147,0,0,0-.07325-.43945q-.10254-.17579.04395-.26368a.2388.2388,0,0,0,.07324-.08789q.0879-.11718-.05859-.19043-.13184-.05859-.11719-.16113.20508-.99609.27832-1.20117-.01465.05859.11719-.19043a.12794.12794,0,0,1,.14648-.08789,1.11681,1.11681,0,0,0,.30762-.07324.47509.47509,0,0,0,.38086-.36621.14472.14472,0,0,1,.14648-.13184.732.732,0,0,0,.26367-.14648q.17579-.1172.27833,0a.224.224,0,0,0,.11718,0q.16113-.01465.17578.08789a1.90569,1.90569,0,0,1-.02929.61523,8.76171,8.76171,0,0,0-.13184,1.582q-.01464,1.20117-.0293,1.377a7.3668,7.3668,0,0,0-.02929.99609q.01464.71776,0,.99609a5.60023,5.60023,0,0,1-.0586.68848,3.82346,3.82346,0,0,0,.0586.77637.18967.18967,0,0,1,.02929.13183.7268.7268,0,0,0-.01464.33692.89033.89033,0,0,1,.01464.35156,2.88245,2.88245,0,0,1,.04395.87891q-.01466.08788,0,.10253l.16113.70313a2.15553,2.15553,0,0,1,.0586.65918.29924.29924,0,0,0,0,.13183.95943.95943,0,0,1,.07324.249,2.58691,2.58691,0,0,0,.0293.26367,14.77291,14.77291,0,0,0,.55664,1.74316,1.22987,1.22987,0,0,0,.21972.293,2.09458,2.09458,0,0,1,.32227.43946,2.48572,2.48572,0,0,0,.26367.38086.64539.64539,0,0,0,.62988.21972,2.474,2.474,0,0,0,.542-.13183.38492.38492,0,0,1,.293-.0586.4758.4758,0,0,0,.46875-.23437q.41016-.61524.4834-.70313a2.60105,2.60105,0,0,0,.4541-1.05468q0,.04394.33692-1.4209a2.13892,2.13892,0,0,0,.05859-.33692.45947.45947,0,0,1,.13184-.38086q.05859-.04393.04394-.23437a.42492.42492,0,0,1,.08789-.35156.2859.2859,0,0,0,.0586-.20508l-.01465-.20508v-.20508a.60018.60018,0,0,1,.04394-.33691.223.223,0,0,0,.01465-.23438q-.11718-.30762-.04394-.4248.01464-.01466-.0293-.13184a1.40809,1.40809,0,0,1-.0293-.51269q0-.13184.21973-.14649.05859-.01464.05859-.04394.02929-.0293-.01464-.0586a.45745.45745,0,0,1-.20508-.51269q.01464-.13184.01465-.10254a7.40743,7.40743,0,0,0,.17578-1.09863q0,.05859.13183-.87891a.56684.56684,0,0,1,.07325-.26367,1.73476,1.73476,0,0,0,.23437-1.04,1.16387,1.16387,0,0,1,.07324-.498.52125.52125,0,0,0,.07324-.36621.312.312,0,0,1,.10254-.32226.26967.26967,0,0,0,.08789-.21973q.01466-.293.01465-.30762a2.35041,2.35041,0,0,1,.16114-.95215.77935.77935,0,0,1,.38085-.3955,1.75676,1.75676,0,0,0,.36622-.249.23337.23337,0,0,1,.249-.05859q.16113.05859.14648.19043a2.79259,2.79259,0,0,0,.08789.51269q.02931.17579.23438.10254-.07325.02929.10254-.04394.23438-.0879.293-.01465.0293.0293-.10254.20508a.80435.80435,0,0,0-.04395.10254q-.01464.07323,0,.08789.05861.04393.13184-.0293.10254-.08789.10254-.10254a.10493.10493,0,0,1,.11719.01465.04784.04784,0,0,1,.01464.05859q-.0293.05859-.16113.30762a.111.111,0,0,0,.14649-.0293q.04393-.04393.14648-.16113a1.673,1.673,0,0,0,.14648-.16113.20828.20828,0,0,1,.11719-.0293q.07325,0,.08789.10254a.123.123,0,0,1-.04394.14648q-.07324.0879-.17578.23438-.0879.11718.10253.16113-.07323-.01464.11719.0293Z" fill="#999"/>
      <path d="M1821.83691,538.666l.13184-.13184q.41016-.4248.08789-.71777-.05859-.044,0-.11719a.12.12,0,0,1,.07324-.04395q-.07325-.01464.13184.04395.10254.0293.14648-.10254a1.13662,1.13662,0,0,0,.0586-.14648l.02929-.14649q.0586-.23437.01465-.293-.01464-.04394-.20508-.02929h-.07324q-.07324-.01465-.05859-.10254a.318.318,0,0,1,.05859-.11719q.0293-.04395.16113-.01465.13185.044.19043-.17578a.6958.6958,0,0,0,.0293-.19043v-.249a.35455.35455,0,0,0-.04394-.20508.49444.49444,0,0,1-.0586-.249.82125.82125,0,0,0-.01465-.23437.33762.33762,0,0,0-.02929-.11719.45407.45407,0,0,0-.0293-.10254q-.01465-.05859-.07324-.21972a.37155.37155,0,0,0-.08789-.17579.90393.90393,0,0,0-.16114-.10253.5285.5285,0,0,1-.36621-.43946,3.69936,3.69936,0,0,0-.35156-.89355,1.61941,1.61941,0,0,1-.14648-.32227,4.86647,4.86647,0,0,0-.249-.70312,4.5336,4.5336,0,0,1-.26367-.68848,4.88432,4.88432,0,0,0-.33691-.77637q-.20508-.3955-.32227-.68847a3.2138,3.2138,0,0,1-.16113-.73242,3.35332,3.35332,0,0,0-.16113-.45411l-.07325-.17578-.04394-.08789v-.02929h-.01465l-.14648-.30762q-.249-.43945-.33692-.62988-.16113-.293-.71777-1.377-.293-.57129-.55664-1.14258-.0879-.20508-.14649-.32226-.08789-.19044-.16113-.32227a2.7025,2.7025,0,0,1-.23437-.70312q-.0586-.35157-.0879-.46875a1.27043,1.27043,0,0,1-.07324-.249l-.01465-.13183-.02929-.16113v-.55665a8.29974,8.29974,0,0,1,.13183-.98144.80142.80142,0,0,1,.0293-.17578.97545.97545,0,0,1,.0293-.16113.88643.88643,0,0,0,0-.32227.46013.46013,0,0,1,.14648-.43945.90311.90311,0,0,0,.11719-.30762,9.47022,9.47022,0,0,1,.27832-.92285,1.23275,1.23275,0,0,1,.14648-.32227.89085.89085,0,0,1,.23438-.23437.44856.44856,0,0,0,.20508-.32227.943.943,0,0,1,.14648-.39551.73115.73115,0,0,0,.07324-.10254.95448.95448,0,0,0,.08789-.10253q.14649-.13184.20508-.19043a3.13607,3.13607,0,0,1,1.25977-.68848q.10254-.0293.23437-.07324a3.63231,3.63231,0,0,1,1.06934-.249,6.16327,6.16327,0,0,1,1.04,0q.4541.044.98144.14649l.27832.05859a.85673.85673,0,0,0,.19043.0586l.13184.05859a1.99977,1.99977,0,0,1,.26367.10254,1.07773,1.07773,0,0,0,.26367.10254,3.11946,3.11946,0,0,1,1.12793.89355l.08789.10254.08789.11719.17578.249q.01465.01465.16114.249l.07324.14648.0293.0293.01465.01465.02929.05859.0293.0293.0293.04394.02929.04395.04395.07324.07324.13183.07324.14649a1.34171,1.34171,0,0,1,.07324.17578q.01465.044.0586.16113l.04394.14649.01465.01465v.01464h.01465v-.02929l-.01465-.01465.01465.0293.01465.04394a.74886.74886,0,0,1,.07324.20508.75945.75945,0,0,1,.0293.41016q-.0293.14648-.11719.08789a.32756.32756,0,0,0-.39551,0q-.08789.05859-.27832-.13184l-.13183-.13184-.07325-.05859-.02929-.0293q-.01466-.0293-.01465-.01464h-.01465q-.13183-.05861-.14648-.04395-.04395.01465-.07325.13184v.01464a.013.013,0,0,0-.01464.01465v.0293a.24088.24088,0,0,0-.01465.07324,1.04,1.04,0,0,1-.04395.13184q-.11718.19043-.33691-.0586.01464.01465-.0293-.05859l-.04394-.05859-.0293-.0293v-.0293l-.0293-.07324q-.01464-.04395-.07324-.19043l-.04395-.07324-.04394-.07324-.0586-.07325-.05859-.07324-.07324-.10254-.08789-.11718-.0586-.0586a.33941.33941,0,0,0-.04394-.07324.19505.19505,0,0,0-.16113-.07324.13507.13507,0,0,0,.02929.11719l.04395.04394q.0293.0293.0293.04395l.05859.05859.07324.13184a1.5398,1.5398,0,0,1,.11719.20507.715.715,0,0,1,.04394.07325.56657.56657,0,0,1,.0293.07324.24083.24083,0,0,1,.01465.07324l.01465.0293v.05859a.63069.63069,0,0,1,.01465.11719v.05859q0-.0293.01464.0586v.08789l-.01464.04394v.04395h-.0293l-.0293-.0293a.12.12,0,0,1-.07324-.04395.47982.47982,0,0,1-.05859-.07324.363.363,0,0,1-.04395-.10254l-.04394-.08789-.01465-.04394-.0293-.01465q-.07324-.05859-.04394-.04395a.04224.04224,0,0,0-.0293-.01464l-.0293-.0293-.02929-.01465-.0293-.0293-.07324-.07324a.33861.33861,0,0,1-.04395-.07324l-.0293-.0293-.02929-.04394a.95824.95824,0,0,1-.0586-.10254q-.01464-.0293-.02929-.0293l-.0293-.05859a1.39213,1.39213,0,0,0-.542-.41016,1.81958,1.81958,0,0,1-.4834-.32227q-.01465,0-.0293-.02929l-.0293-.0293v-.01465h-.02929l-.0293-.01465-.08789-.02929a2.38519,2.38519,0,0,0-.32226-.08789q-.19044-.05861-.249-.07325h-.13183a.29074.29074,0,0,0-.13184.0293,1.06479,1.06479,0,0,1-.30762.04395h-.16113a1.5585,1.5585,0,0,0-.16113-.01465q-.16113,0-.30762.01465-.14649.02929-.07324-.13184l-.01465-.04394-.11719.02929a.60493.60493,0,0,0-.10254.04395.80133.80133,0,0,0-.21972.10254q-.07325.02929-.0586.08789a.15311.15311,0,0,1-.02929.16113.19723.19723,0,0,1-.13184.07324.30826.30826,0,0,0-.13184.08789q-.01464.0293-.05859.13184l-.0293.05859a.17055.17055,0,0,1-.02929.04395.16535.16535,0,0,1-.11719.01465q-.16113-.0293-.11719.11718a.29929.29929,0,0,1,0,.13184.19484.19484,0,0,1-.04394.11719,1.20369,1.20369,0,0,0-.10254.17578l-.0586.08789-.02929.10254q-.05861.11718-.14649.32226a1.32338,1.32338,0,0,0-.07324.36621.15756.15756,0,0,1-.0293.0879,3.024,3.024,0,0,0-.19043.835l-.10254.86425q0,.01466-.01464.11719v.0586q-.01465.05859,0,.01464a.01831.01831,0,0,0,0,.0293l.02929.11719q.01466.0293.0586.16113a.90811.90811,0,0,1,.05859.17578.73206.73206,0,0,1,.07324.17578l.0293.08789.0293.08789.07324.17579.07324.19043q.0293.07323.16113.38086a7.95886,7.95886,0,0,1,.39551.8789,2.50157,2.50157,0,0,0,.30762.498,9.44014,9.44014,0,0,1,.64453.98144q.17578.30762.293.542.07324.14648.13183.293l.07325.14649.02929.08789a.33516.33516,0,0,1,.0586.13184l.01465.05859.02929.05859q.0293.07325.04395.10254.05859.11719.10254.21973.249.55663.38086.8789.21972.52736.33691.89356a3.41541,3.41541,0,0,0,.19043.43945,5.57654,5.57654,0,0,1,.32226.67383q.23439.57129.27833.67383a1.89476,1.89476,0,0,1,.13183.38086,2.24364,2.24364,0,0,0,.08789.36621,3.7465,3.7465,0,0,0,.293.67383q.05859.20508.13184.43945a1.57237,1.57237,0,0,0,.08789.249,1.59465,1.59465,0,0,0,.08789.249l.08789.26367a1.04867,1.04867,0,0,0,.05859.27832q.044.16113.11719.55664a5.87,5.87,0,0,1-.46875,3.2666q-.0293.05859-.20508.42481-.16113.27831-.249.41015a3.55148,3.55148,0,0,1-.35156.42481,1.16409,1.16409,0,0,0-.17579.14648q-.10253.0879-.17578.16113a1.044,1.044,0,0,0-.17578.16114.95761.95761,0,0,0-.20508.14648q-.17577.13183-.20507.14649-.11719.07323-.20508.13183a2.671,2.671,0,0,1-.42481.17578.574.574,0,0,0-.13183.0586,3.89163,3.89163,0,0,1-.98145.33691q-.33691.07324-.249.05859a2.47578,2.47578,0,0,0-.26367.04395l-.11719.01465-.13184.0293a1.88409,1.88409,0,0,0-.249.04394.86389.86389,0,0,1-.4834-.01465,5.2634,5.2634,0,0,0-.55664-.07324,9.23146,9.23146,0,0,1-1.53809-.26367l-.19043-.0586q.04395.01465-.01464,0l-.0586-.01464-.08789-.01465a2.34978,2.34978,0,0,1-.38086-.10254q-.249-.05859-.74707-.21973-.23437-.08789-1.43554-.64453l-.36622-.17578q-.14648-.07324-.38085-.17578a2.37193,2.37193,0,0,1-.38086-.17578.9964.9964,0,0,1-.32227-.249.21307.21307,0,0,1-.04395-.21972q.01465-.04395.0586-.01465a.04221.04221,0,0,1,.0293.01465l.01464.02929q.01465.05861.14649.16114a1.25744,1.25744,0,0,0,.41015.23437q.11719.04395.249.10254.11718.04395.249.08789.14649.07324.4834.20508.32226.13184.498.20508a14.95716,14.95716,0,0,0,1.99218.67383,7.76889,7.76889,0,0,0,2.25586.26367,3.189,3.189,0,0,0-.38086-.11719,1.08924,1.08924,0,0,1-.32226-.10254q-.05859-.0293-.0586-.04394,0-.05861.11719-.0586.43945-.04394.43946-.08789,0,.07324-.43946-.10254a.47962.47962,0,0,0-.35156.07324.87826.87826,0,0,1-.0293-.11718q-.07325-.1172-.16113-.04395a.21439.21439,0,0,1-.27832,0q-.13184-.07325-.33691-.16113a.05969.05969,0,0,0-.04395-.01465.17.17,0,0,1-.04394-.0293l-.04395-.02929-.01465-.01465v-.01465h-.01465q.07325.0293-.02929.01465l-.04395.01465-.0293-.01465h-.01464l-.04395-.01465-.08789-.0293a3.13214,3.13214,0,0,1-.498-.21972,3.80144,3.80144,0,0,0-.498-.249q.04394-.08789.23437-.02929.39551.10254.46875.11718.27832.05861.21973.0586l.21972.04394h.0586l.07324.01465.05859.01465.11719.0293q.32226.07323.21973.05859.43945.08789.46875.10254.10254.01464.4834.07324.4248.02929.48339.0293a6.48935,6.48935,0,0,0,.9375-.04395.43945.43945,0,0,0,.30762-.16113.24088.24088,0,0,0,.01465-.07324.041.041,0,0,0-.05859-.0293q-.01465,0-.19043.0293-.19044.01464-.20508.01465-.16113.01464-.16113-.08789,0-.0879.14648-.08789-.05859.01464.20508-.0879l.20508-.05859a.44612.44612,0,0,1,.16113,0,.39467.39467,0,0,1,.21973.19043q.07323.13184.13183.11719a.32.32,0,0,0,.249-.20508q.05859-.14649.01464-.19043-.10254-.17579.10254-.26367a1.352,1.352,0,0,1,.19043-.10254.16651.16651,0,0,1,.20508.07324q.05859.07324.17578-.07324l.19043-.249Q1821.86621,538.60743,1821.83691,538.666Zm-4.87793,1.96289q.13185,0,.0879-.0586a.09861.09861,0,0,0-.0879-.04394.11237.11237,0,0,0-.04394-.01465h-.01465v.01465l-.01465-.01465a.04222.04222,0,0,1-.02929.01465.02894.02894,0,0,0-.01465.04394q0,.0293.04394.04395A.16314.16314,0,0,0,1816.959,540.62891Zm.98145.01464a.81142.81142,0,0,0-.20508.04395q-.08788.01465-.05859.07324.04393.05859.08789.04395.11718,0,.13183-.0293A.45388.45388,0,0,0,1817.94043,540.64355Zm1.86035.0879.07324-.07325-.04394-.04394q.07324-.01465-.249.02929-.21972.02931-.249.0293t-.0293.01465q-.01464.0293.01465.0293a.62984.62984,0,0,1,.11719.01465q.20508.0293.11719.01464A.42972.42972,0,0,0,1819.80078,540.73145Zm-.293.293a1.99831,1.99831,0,0,0,1.17188-.21972q-.10254.01464-.11719.01465l-.13184.01464q-.01464,0-.249.0293a3.25266,3.25266,0,0,0-.51269.0586Q1819.50781,540.96582,1819.50781,541.02441Zm1.377-22.23632q.04394-.04395.04394-.0586,0-.04394-.04394-.02929-.0879,0-.0586.07324Zm.38085,21.75293a.55279.55279,0,0,0,.11719-.0586.29535.29535,0,0,1,.08789-.05859q.07324-.05859.0293-.07324-.17578-.05861-.27832.16113Q1821.19239,540.57031,1821.26562,540.541Zm.57129-1.875a.9688.9688,0,0,1,.07325-.17579q.04394-.10253-.01465-.11718a.18083.18083,0,0,0-.10254.04394,3.19117,3.19117,0,0,0-.19043.27832.647.647,0,0,0-.10254.17578.8983.8983,0,0,0-.08789.16114.43649.43649,0,0,1,.05859-.04395.08443.08443,0,0,1,.0586-.0293l.10254-.10253Q1821.86622,538.63672,1821.83691,538.666Zm-.05859-5.02442q.16113.19042.19043.21973a.7603.7603,0,0,0-.05859.30762q.0293.14648.11718.16113.0586.01464.0586-.10254a1.37507,1.37507,0,0,0-.13184-.36621.4572.4572,0,0,0-.10254-.26367.21421.21421,0,0,0-.07324-.04395Q1821.71973,533.56837,1821.77832,533.6416Zm.39551,1.61133q.07324-.044.04394-.16113-.04393-.11719-.11718-.13184a.04787.04787,0,0,0-.0586.01465.18146.18146,0,0,0,.0293.23437A.09394.09394,0,0,0,1822.17383,535.25293Zm.13183,4.40918a1.45138,1.45138,0,0,0,.11719-.10254.60833.60833,0,0,0,.08789-.11719.70086.70086,0,0,0,.14649-.27832.75342.75342,0,0,1-.498.41016.06767.06767,0,0,0-.04395.07324.04094.04094,0,0,0,.0293.05859Q1822.20312,539.75,1822.30566,539.66211Zm.01465-3.2959q.07325-.05859.07324-.07324a.07322.07322,0,0,0,0-.08789q-.0293-.07324-.07324,0a.20132.20132,0,0,0-.04394.10254Zm.64453,2.373a.14839.14839,0,0,0,.04395-.16114l-.05859.04395a.18047.18047,0,0,0-.0293.10254Q1822.9209,538.81249,1822.96484,538.73926Z" fill="#999"/>
      <path d="M1839.80469,517.25a.62454.62454,0,0,1,.05859.32227.759.759,0,0,1-.05859.35156.18077.18077,0,0,1-.13184.08789q-.249.05859-.249.26367v.14649a1.21031,1.21031,0,0,0-.01465.16113.24409.24409,0,0,0,.17578.21972l.04395.04395a.26291.26291,0,0,1-.21973.13184.24706.24706,0,0,0-.19043.27832,6.31646,6.31646,0,0,0-.11719.68847.39729.39729,0,0,1-.19043.27832.3897.3897,0,0,1-.32226.0586,3.19222,3.19222,0,0,0-.76172-.10254q-.05859-.01466-.89356.04394-.20507.01465-.19043.01465a11.14763,11.14763,0,0,0-1.49414.16113,1.1569,1.1569,0,0,1-.26367,0,1.17629,1.17629,0,0,0-.26367,0,3.28314,3.28314,0,0,0-.84961.27832.44366.44366,0,0,1-.27832.10254,1.6043,1.6043,0,0,0-.68848.23438.25.25,0,0,0-.13183.21973q-.04395.45409-.13184,1.15722-.07325.76171-.08789.791a.59873.59873,0,0,0-.0293.19043q0-.10254-.21972,1.83105-.05861.48341-.0586.4541-.01464.20508.16114.19043a15.17033,15.17033,0,0,0,1.64062-.293,1.7452,1.7452,0,0,1,.70313-.07324,1.54231,1.54231,0,0,1,.4248-.04394q.13184-.01465.14649.04394t-.08789.14649q-.0586.0293-.0586.07324.21973.08789.11719.38086a1.90432,1.90432,0,0,0-.07324.20508q-.01466.11718.01465.13183.10253.05859.10253.33692a.29326.29326,0,0,0,.0293.19043.18934.18934,0,0,1-.01465.19043.29.29,0,0,0-.04394.33691.23926.23926,0,0,0,.27832.11719q.08789-.01466.11718.04394a1.85937,1.85937,0,0,1-.36621.16114q-.11718.04394-.41015.19042a2.12662,2.12662,0,0,1-.41016.17579,10.40721,10.40721,0,0,0-1.01074.41015,2.92038,2.92038,0,0,1-.5127.19043.73578.73578,0,0,0-.23437.07324.71528.71528,0,0,1-.42481.14649q-.19043.0293-.20507.26367-.11719,1.47949-.11719,1.55273-.01465.21973,0,.67383v.67383q-.01465.293-.0586.82031-.01464.21973.10254.249.07325.01464.04395.07324-.08789.13184.08789.35156a.27606.27606,0,0,0,.30762.11719A14.38052,14.38052,0,0,0,1835,533.01172a.46259.46259,0,0,1,.33691-.0586.15772.15772,0,0,0,.14649-.01464,1.27126,1.27126,0,0,1,.64453-.23438q.07325-.01464.33691-.07324a1.89046,1.89046,0,0,1,.35157-.04395.10032.10032,0,0,1-.07325.08789.15863.15863,0,0,0-.07324.0586l.0293.04394a2.46245,2.46245,0,0,1,.65918-.17578.79447.79447,0,0,0,.14648-.08789.12748.12748,0,0,0-.13183-.01465.18323.18323,0,0,1-.11719.01465q-.0293-.0293,0-.08789.04395-.07325-.01465-.10254.044.02929-.16113.0586a.83084.83084,0,0,1,.19043-.42481q.0293-.04395.07324,0,.07325.08788.13184-.01465a.40311.40311,0,0,1,.38086-.17578q.0293-.30762.11718-.36621.07325-.04395.30762.10254,0,.01466-.14648.01465-.13183,0-.16114.07324a.44432.44432,0,0,0,.33692.16113l.19043.13184a.19739.19739,0,0,1,.07324.23437q-.0293.1172.10254.08789a5.06857,5.06857,0,0,1,.70312.0879q.21974.0293.13184.30761-.01465.044-.0586.21973a.70253.70253,0,0,1-.07324.20508q-.07325.16113-.13183.01465a.53327.53327,0,0,0-.17578-.23438,2.132,2.132,0,0,1-.14649.26367l.01465.04395a.64729.64729,0,0,1,.11719.04394q.05859.01466.04394.08789a1.26526,1.26526,0,0,0-.17578.10254.1258.1258,0,0,0,.13184.04395.44416.44416,0,0,1,.13183.01465.15918.15918,0,0,1-.17578.13183,1.5612,1.5612,0,0,0-.16113.01465,1.21044,1.21044,0,0,1-.16113.01465.47279.47279,0,0,0-.32227.10254.21657.21657,0,0,1-.19043.05859q-.16113-.01464-.14648.08789a.05179.05179,0,0,0,.05859.0586q0-.01465.0293-.01465a.11237.11237,0,0,1,.04394-.01465.211.211,0,0,1,.16114.0293,3.157,3.157,0,0,1-.791.249.10493.10493,0,0,1,.01465-.11719.104.104,0,0,0,.01465-.08789q-.20508-.07325-.27832-.0293-.02931.01466-.65918.17579-.77637.20506-1.02539.293a.44311.44311,0,0,1-.14649-.04395.10753.10753,0,0,0-.14648.0293.52163.52163,0,0,1-.30762.14648q-.14649.0293-.32227.07324a1.07241,1.07241,0,0,1-.27832.0586,1.20182,1.20182,0,0,0-.4248.13183q-.45409.20508-.65918.0586-.08789-.05861-.11719.08789-.04393.17577-.19043.08789-.13184-.0879-.26367.07324-.14649.17579-.249.13184.01464.01464-.10254.05859-.39551.21972-.41016.21973-.044-.01466-.10254.07324t.0293.10254a.482.482,0,0,0,.14648-.0293.3393.3393,0,0,1,.07325-.04394.57006.57006,0,0,0,.07324-.0293q.14648-.04395.17578.01465,0,.04393-.13184.11718a.9339.9339,0,0,0-.38086.32227q-.08789.20508-.21972.23438-.1172.0293-.13184.20507a.40785.40785,0,0,0,.23438-.07324.32227.32227,0,0,1,.249-.05859l-.01465.04394a1.89057,1.89057,0,0,0-.57129.46875.013.013,0,0,1-.01465.01465.04217.04217,0,0,1-.02929.01465,5.6728,5.6728,0,0,1-.80567.52734.52046.52046,0,0,1-.35156.11719.69611.69611,0,0,1-.19043-.08789q-.08789-.14649-.20508-.05859a.09889.09889,0,0,1-.14648.01464.222.222,0,0,1-.0293-.20507,1.90754,1.90754,0,0,1,.08789-.27832.18247.18247,0,0,0,0-.17579q.04395-.04394-.293.36622,0,.01464.0586-.01465t.05859.02929a.57363.57363,0,0,1-.04394.19043q-.04395.14649-.08789.14649a.80917.80917,0,0,1-.30762-.07324q0,.0293.08789-.21973a.20985.20985,0,0,0-.0293-.23438q-.0293,0-.10254.11719a.40545.40545,0,0,1-.23437.19043q-.16113.04395-.11719-.16113a.38124.38124,0,0,1,.05859-.10254.41686.41686,0,0,0,.07325-.08789.36371.36371,0,0,0-.13184-.01465q-.07325,0-.08789-.08789a.44334.44334,0,0,1,.05859-.36621.322.322,0,0,0,.08789-.23438.1267.1267,0,0,1,.0586-.10253.24462.24462,0,0,0,.10254-.07325l-.01465-.02929q-.0293-.0293-.11719,0a.066.066,0,0,1-.08789-.0586.532.532,0,0,1,.08789-.33691,1.42345,1.42345,0,0,1,.39551-.39551.30863.30863,0,0,0,.19043-.23437,1.64878,1.64878,0,0,0,.23437-.92286q0-.08788.01465-.23437.01465-.16113.01465-.21973,0-.26367-.08789-.33691t.01465-.30762q.01464-.0293.05859-.10254l.04395-.08789q.05859-.13184-.07324-.08789-.02931.01466-.0293-.05859a.20391.20391,0,0,1,.01465-.08789.77026.77026,0,0,0,.11718-.57129q-.01464-.21974,0-.80567.01466-.32226.08789-.92285.07324-.62988.0879-.9375a.66239.66239,0,0,0-.17579-.55664l-.19043-.38086q-.07323-.13184.11719-.17578a.488.488,0,0,0,.26367-.10254l-.16113-.08789q-.27832-.13184-.07324-.38086a.50535.50535,0,0,0,.10254-.16113q0-.04395-.11719-.16113l-.0293-.07325q0-.0293.17578-.13183a.06973.06973,0,0,0,.04395-.10254q-.07325-.13184.08789-.21973.14649-.05859.16113-.30762a8.84145,8.84145,0,0,1,.13184-1.17187,4.50615,4.50615,0,0,0,.11719-.76172,5.256,5.256,0,0,1,.10254-.74707.42452.42452,0,0,0,0-.16113,1.92529,1.92529,0,0,1,.04394-.4541,7.981,7.981,0,0,0,.21973-1.34766q0-.08789.01465-.26367.01464-.19042.02929-.27832a.21817.21817,0,0,0-.14648-.249.57178.57178,0,0,0-.35156-.02929,3.65251,3.65251,0,0,1-.74707-.0293q-.1172,0-.17579-.16113a.47265.47265,0,0,1-.01464-.30762.3255.3255,0,0,1,.04394-.10254,2.38689,2.38689,0,0,0,.26367-1.02539,1.30472,1.30472,0,0,1,.498-.86426,1.4058,1.4058,0,0,1,.36621-.19043q.27832-.11718.38086-.16113a1.23628,1.23628,0,0,0,.23438-.17578.38242.38242,0,0,1,.23437-.04395q.16113,0,.10254-.17578a.26928.26928,0,0,1,0-.17578.33784.33784,0,0,0,.01465-.16113q.044-.0293.08789.0293a.12.12,0,0,0,.07324.04394.28217.28217,0,0,1,.17578-.249.8345.8345,0,0,0,.23438-.13184q.04393-.0293.08789.04395.07324.10254.08789.10254.05859-.0293.05859-.17579.01466-.14648.10254-.10253.04395.0293.10254-.04395.05859-.05859.10254-.01465a.224.224,0,0,1,.04394.11719.22409.22409,0,0,0,.04395.11719.17029.17029,0,0,0,.0293.04394q.04394.01466.07324.16114.04395.11718.11719.13183.01464,0,.30761-.05859,1.9629-.38086,2.32911-.46875.46875-.0879,1.88964-.27832a10.20469,10.20469,0,0,1,1.20118-.11719.86473.86473,0,0,1,.542.13184A3.81752,3.81752,0,0,1,1839.80469,517.25Zm-10.53223,17.62207q.08789-.0293.11719.04395a1.76939,1.76939,0,0,0-.39551.293.2298.2298,0,0,1-.23437.0586A1.12568,1.12568,0,0,1,1829.27246,534.87207Zm.80566-1.78711q.044-.05859-.02929-.08789-.05859-.0293-.0586.07324v.70313a1.19206,1.19206,0,0,0,.07325-.33692A.46839.46839,0,0,1,1830.07812,533.085Zm.04395-.87891q.07325-.39551-.10254-.542a3.889,3.889,0,0,1,0,.835v.249Zm.42481-6.18164a6.65061,6.65061,0,0,0,.20507-2.124q-.21972,1.52345-.249,1.77246A.56537.56537,0,0,0,1830.54688,526.02441Zm.52734-4.11621q.01464-.11718-.07324-.13183-.13183,1.40625-.23438,1.90429a.27781.27781,0,0,0,.11719-.20507Q1830.97167,522.8164,1831.07422,521.9082Zm5.39062,12.832q-.0293.044.39551-.14648a.2233.2233,0,0,1-.17578.16113h-.11719A.61777.61777,0,0,0,1836.46484,534.74023Zm2.05078-.73242a.13243.13243,0,0,1,.11719.07324.6197.6197,0,0,1-.32226.11719.527.527,0,0,0-.33692.10254.353.353,0,0,0,.17578.0293.21778.21778,0,0,1,.16114.05859l-.01465.04395a2.15421,2.15421,0,0,1-.77637.14648q-.08789,0-.08789-.07324t.08789-.08789a.23621.23621,0,0,0,.19043-.08789.33861.33861,0,0,0-.07324-.04395q-.04395-.01464-.04395-.04394,0-.07325.0586-.07324.11718-.01465.43945-.0879A1.67486,1.67486,0,0,1,1838.51562,534.00781Zm-.4248-1.77246a3.843,3.843,0,0,1-.43945-.249.17426.17426,0,0,0,.08789.11719q.07324.05859.07324.10253a.45388.45388,0,0,0,.04395.13184q.0293.01465.08789-.0293Q1838.10547,532.2207,1838.09082,532.23535Z" fill="#999"/>
      <path d="M1847.1377,535.13574a.13942.13942,0,0,1,.04394.13184q-.0293.08789-.10254.07324a1.23641,1.23641,0,0,1-.77637-.30762.22433.22433,0,0,0-.23437-.10254q-.10254.02931-.11719.07325-.01464.0293.08789.07324.16113.10254.01465.21973-.17578.13184-.14648.10253a.63479.63479,0,0,1-.10254.13184l-.17578.05859q-.16114.0879-.01465.14649.48339.20508.542.21972.27832.05861.4248.4834.07324.20508-.14648.17578-.07325-.01464-.23437-.04394-.14649-.01466-.21973-.0293-.13184-.01464-.14649.07324-.0293.249-.293.16114-.16114-.05861-.249.13183a.45411.45411,0,0,0-.02929.08789.45445.45445,0,0,1-.0293.08789.43815.43815,0,0,1-.293.26368q-.23437.08789-.33691.13183a.63579.63579,0,0,1-.65918-.01465.797.797,0,0,0-.26368-.07324.55753.55753,0,0,1-.249-.08789.37514.37514,0,0,1-.10254-.23437,1.39176,1.39176,0,0,0-.07324-.26368,1.09543,1.09543,0,0,1,.11719-1.06933q-.04395.08789.19043-.26367a.35328.35328,0,0,0,.05859-.38086.19179.19179,0,0,1,.04395-.249,1.0639,1.0639,0,0,0,.27832-.4541.38642.38642,0,0,1,.36621-.293q-.01465,0,.21972-.02929l.19043-.0293a.3041.3041,0,0,0,.14649-.08789.14145.14145,0,0,1,.16113-.0586q-.07325-.0293.27832.14649.11719.05859.10254-.10254a.88083.88083,0,0,0-.01465-.13184.882.882,0,0,1-.01465-.13183q0-.05859.07324-.0293a.193.193,0,0,1,.10254.14649,1.83113,1.83113,0,0,0,1.333,1.24511A.99744.99744,0,0,1,1847.1377,535.13574Zm-1.333.41016v0Zm.13183.14648a.08609.08609,0,0,1-.07324-.04394.57178.57178,0,0,1-.05859-.10254q.10254.01464.11719.01465a.1412.1412,0,0,1,.05859.07324Q1845.99511,535.67774,1845.93652,535.69238Zm.27832-1.90429q-.04394,0-.08789-.07325-.10254-.14647,0-.23437.01465-.01465.19043-.13184.1172.01465.10254.08789a1.45711,1.45711,0,0,1-.04394.21973Q1846.31738,533.80274,1846.21484,533.78809Zm-.02929.32226q.01464-.07325.10254-.05859.11718.0293.05859.21972-.0293.0879-.10254.0293A.14265.14265,0,0,1,1846.18555,534.11035Zm.68847,2.53418q.0879-.01464.08789.07324a.05744.05744,0,0,1-.04394.0586q-.08788,0-.08789-.07325Z" fill="#999"/>
      <path d="M1854.29492,535.13574a.13945.13945,0,0,1,.04395.13184q-.0293.08789-.10254.07324a1.23641,1.23641,0,0,1-.77637-.30762.22433.22433,0,0,0-.23437-.10254q-.10254.02931-.11719.07325-.01466.0293.08789.07324.16113.10254.01465.21973-.17578.13184-.14649.10253a.63479.63479,0,0,1-.10254.13184l-.17578.05859q-.16113.0879-.01465.14649.4834.20508.542.21972.27831.05861.4248.4834.07325.20508-.14648.17578-.07324-.01464-.23438-.04394-.14648-.01466-.21972-.0293-.13185-.01464-.14649.07324-.02929.249-.293.16114-.16113-.05861-.249.13183a.454.454,0,0,0-.0293.08789.45307.45307,0,0,1-.0293.08789.43811.43811,0,0,1-.293.26368q-.23437.08789-.33692.13183a.63579.63579,0,0,1-.65918-.01465.797.797,0,0,0-.26367-.07324.55748.55748,0,0,1-.249-.08789.37514.37514,0,0,1-.10254-.23437,1.39176,1.39176,0,0,0-.07324-.26368,1.09545,1.09545,0,0,1,.11718-1.06933q-.04393.08789.19043-.26367a.35326.35326,0,0,0,.0586-.38086.1918.1918,0,0,1,.04394-.249,1.0638,1.0638,0,0,0,.27832-.4541.38643.38643,0,0,1,.36621-.293q-.01464,0,.21973-.02929l.19043-.0293a.30409.30409,0,0,0,.14648-.08789.14146.14146,0,0,1,.16114-.0586q-.07324-.0293.27832.14649.11718.05859.10254-.10254a.88218.88218,0,0,0-.01465-.13184.88059.88059,0,0,1-.01465-.13183q0-.05859.07324-.0293a.193.193,0,0,1,.10254.14649,1.83111,1.83111,0,0,0,1.333,1.24511A.99728.99728,0,0,1,1854.29492,535.13574Zm-1.333.41016v0Zm.13184.14648a.08608.08608,0,0,1-.07324-.04394.57154.57154,0,0,1-.0586-.10254q.10254.01464.11719.01465a.14117.14117,0,0,1,.0586.07324Q1853.15234,535.67774,1853.09375,535.69238Zm.27832-1.90429q-.04395,0-.08789-.07325-.10254-.14647,0-.23437.01465-.01465.19043-.13184.11718.01465.10254.08789a1.45833,1.45833,0,0,1-.04395.21973Q1853.47461,533.80274,1853.37207,533.78809Zm-.0293.32226q.01466-.07325.10254-.05859.11719.0293.0586.21972-.02929.0879-.10254.0293A.14266.14266,0,0,1,1853.34277,534.11035Zm.68848,2.53418q.08789-.01464.08789.07324a.05745.05745,0,0,1-.04394.0586q-.0879,0-.0879-.07325Z" fill="#999"/>
      <path d="M1861.45215,535.13574a.13942.13942,0,0,1,.04394.13184q-.0293.08789-.10254.07324a1.23634,1.23634,0,0,1-.77636-.30762.22435.22435,0,0,0-.23438-.10254q-.10254.02931-.11719.07325-.01464.0293.0879.07324.16113.10254.01464.21973-.17577.13184-.14648.10253a.63479.63479,0,0,1-.10254.13184l-.17578.05859q-.16113.0879-.01465.14649.48341.20508.542.21972.27832.05861.42481.4834.07324.20508-.14649.17578-.07323-.01464-.23437-.04394-.14649-.01466-.21973-.0293-.13183-.01464-.14648.07324-.0293.249-.293.16114-.16113-.05861-.249.13183a.45331.45331,0,0,0-.0293.08789.45376.45376,0,0,1-.0293.08789.43813.43813,0,0,1-.293.26368q-.23437.08789-.33691.13183a.63579.63579,0,0,1-.65918-.01465.797.797,0,0,0-.26367-.07324.55753.55753,0,0,1-.249-.08789.37525.37525,0,0,1-.10254-.23437,1.391,1.391,0,0,0-.07324-.26368,1.09543,1.09543,0,0,1,.11719-1.06933q-.04395.08789.19043-.26367a.35324.35324,0,0,0,.05859-.38086.19181.19181,0,0,1,.04395-.249,1.0638,1.0638,0,0,0,.27832-.4541.38642.38642,0,0,1,.36621-.293q-.01465,0,.21973-.02929l.19043-.0293a.30413.30413,0,0,0,.14648-.08789.14145.14145,0,0,1,.16113-.0586q-.07323-.0293.27832.14649.11719.05859.10254-.10254a.88083.88083,0,0,0-.01465-.13184.88162.88162,0,0,1-.01464-.13183q0-.05859.07324-.0293a.193.193,0,0,1,.10254.14649,1.83111,1.83111,0,0,0,1.333,1.24511A.99724.99724,0,0,1,1861.45215,535.13574Zm-1.333.41016v0Zm.13184.14648a.08611.08611,0,0,1-.07325-.04394.57245.57245,0,0,1-.05859-.10254q.10254.01464.11719.01465a.14115.14115,0,0,1,.05859.07324Q1860.30957,535.67774,1860.251,535.69238Zm.27832-1.90429q-.04395,0-.08789-.07325-.10254-.14647,0-.23437.01464-.01465.19043-.13184.11718.01465.10254.08789a1.45833,1.45833,0,0,1-.04395.21973Q1860.63184,533.80274,1860.5293,533.78809Zm-.0293.32226q.01465-.07325.10254-.05859.11718.0293.05859.21972-.0293.0879-.10254.0293A.14265.14265,0,0,1,1860.5,534.11035Zm.68848,2.53418q.08788-.01464.08789.07324a.05745.05745,0,0,1-.04395.0586q-.08789,0-.08789-.07325Z" fill="#999"/>
      <path d="M1868.11133,519.03711a1.2879,1.2879,0,0,1,.27832,1.06934,3.19207,3.19207,0,0,0-.542-.35157q-.01465.01465-.14649.52735a4.06962,4.06962,0,0,0-.10254.498.93522.93522,0,0,1-.17578.52735,1.05842,1.05842,0,0,0-.21973.61523,11.76008,11.76008,0,0,1-.46874,1.94824,2.14716,2.14716,0,0,1-.17579.38086q-.08789.13184-.19043,0a1.67773,1.67773,0,0,1-.41015-.96679q0-.64454-.07324-2.62207a3.94153,3.94153,0,0,0-.07325-.65918.375.375,0,0,0-.38086-.35157l-.30761.0293q-.61524.04395-.67383.04395a.57039.57039,0,0,1-.4541-.20508.51467.51467,0,0,1-.10254-.4834,2.75611,2.75611,0,0,1,.26367-.55664.67687.67687,0,0,1,.46875-.36621q.20508-.04395.13184-.21973a1.62823,1.62823,0,0,1,.19043-.9375.23187.23187,0,0,1,.26367-.13183,2.95913,2.95913,0,0,1,1.50879.4248.84731.84731,0,0,0,.19043.07324,1.1454,1.1454,0,0,1,.58593.55664,3.62934,3.62934,0,0,1,.32227,1.18653Q1868.03808,518.93458,1868.11133,519.03711Zm-3.63281.99609q.11718-.01464.14648.11719,0,.1172-.13184.11719-.21972.01464-.17578-.13184Q1864.34668,520.04785,1864.47852,520.0332Zm3.86718,1.21582.07325-.05859.04394.08789-.08789.43945A.55978.55978,0,0,1,1868.3457,521.249ZM1874,519.31543a.45433.45433,0,0,1-.14648.4248.59357.59357,0,0,0-.21973.43946q-.0293.249-.10254.64453-.08789.48339-.11719.62988a.89818.89818,0,0,1-.13183.38086.20814.20814,0,0,0-.04395.19043,1.04746,1.04746,0,0,1-.23437.92285,3.35849,3.35849,0,0,0-.41016.98145,3.11459,3.11459,0,0,1-.16113.4834q-.07325.11718-.17578.08789a.174.174,0,0,1-.08789-.10254,2.04837,2.04837,0,0,1-.0586-.9668q.01466-.07325-.0293-.08789-.07323-.0293-.10253.07324.05859-.21972-.0293.20508-.10254.62988-.14649.82031a1.00985,1.00985,0,0,1-.10253.21973.04694.04694,0,0,1-.04395.0293.33691.33691,0,0,1-.08789-.04395,3.22659,3.22659,0,0,1-.04395-.4248,15.67325,15.67325,0,0,0,.08789-1.83106,2.375,2.375,0,0,0-.14648-1.01074,2.50812,2.50812,0,0,0-.14648-.60059,1.55,1.55,0,0,0-.11719-.33691.21394.21394,0,0,0-.293-.13184,2.342,2.342,0,0,1-1.49414-.20507q-.791-.30762-.14649-.98145.65919-.68847.46875-.58594.0586-.02929.04395-.14648a1.01534,1.01534,0,0,1,.0293-.20508,1.01518,1.01518,0,0,0,.02929-.20508,1.59336,1.59336,0,0,1,.5127-1.02539q.08788-.10254.07324-.07324a8.359,8.359,0,0,1,.76172-.43945.06222.06222,0,0,1,.05859,0q.791.20506.87891.23437.77637.38086.64453.32227-.04395-.01465.13184.07324a1.44745,1.44745,0,0,1,.96679,1.23047Q1873.83887,518.041,1874,519.31543Z" fill="#999"/>
    </g>
  </g>
</svg>
