<svg id="P18" xmlns="http://www.w3.org/2000/svg" viewBox="0 0 1920 1080">
  <title>P18_2</title>
  <g id="_2" data-name="2">
    <g>
      <path d="M1775.8916,376.73486q-.64453,0-1.2959-.95947a3.84729,3.84729,0,0,1-.65234-2.21924,6.42473,6.42473,0,0,1,1.04-3.31787q1.04-1.72119,2.03613-1.72119v.62988q-1.06934.62988-1.27441,2.78321a2.3632,2.3632,0,0,0,1.88965,2.35839v.61524Zm5.1709,0q-.64453,0-1.29688-.95947a3.8611,3.8611,0,0,1-.65136-2.21924,6.42473,6.42473,0,0,1,1.04-3.31787q1.04-1.72119,2.03613-1.72119v.62988q-1.06934.62988-1.27441,2.78321a2.3632,2.3632,0,0,0,1.88964,2.35839v.61524Z" fill="#666"/>
      <path d="M1803.21973,370.26025a.62883.62883,0,0,1,.02929.36621.50838.50838,0,0,0-.01464.20508,6.15072,6.15072,0,0,1-.0293.73242,1.0235,1.0235,0,0,0,.01465.41016.58652.58652,0,0,1-.0293.43945.63234.63234,0,0,0-.05859.43946.12326.12326,0,0,1-.01465.10254,1.07975,1.07975,0,0,0-.07324.51269,5.26417,5.26417,0,0,1-.19043,1.47949,1.27766,1.27766,0,0,1-.21973.542.17654.17654,0,0,0-.04395.19043.60946.60946,0,0,1-.07324.498.46116.46116,0,0,0-.04394.17578q.04394.26369-.17578.32227-.10254.0293-.04395.14648a.22776.22776,0,0,1-.0293.30762.22179.22179,0,0,0-.04394.32227.51438.51438,0,0,1,.01465.46875,1.29993,1.29993,0,0,1-.249.4834.07415.07415,0,0,0-.02929.08789.469.469,0,0,1,0,.23437,1.58146,1.58146,0,0,0-.0293.20508.83723.83723,0,0,1-.13184.4541.74718.74718,0,0,0-.11718.43945.65192.65192,0,0,1-.10254.39551.86891.86891,0,0,0-.10254.26367,1.37669,1.37669,0,0,1-.10254.249.09789.09789,0,0,0,.01465.13183.28678.28678,0,0,1-.04395.35157.53419.53419,0,0,0-.13183.293.37083.37083,0,0,1-.0586.17579.37282.37282,0,0,0-.08789.16113.25985.25985,0,0,1-.11719.07324q-.13183.02929-.07324.14648.01465.01466.08789.11719a.19481.19481,0,0,1-.04394.249.29547.29547,0,0,0-.0586.19043.65171.65171,0,0,1-.13183.48339.52687.52687,0,0,0-.10254.293,1.02769,1.02769,0,0,1-.20508.57129.37928.37928,0,0,0-.01465.52735.10438.10438,0,0,1-.04394.16113q-.0879.02929-.08789.04394-.04395-.08789-.13184.249a1.58858,1.58858,0,0,1-.07324.293q-.05861.20506-.07325.293a.37647.37647,0,0,0,.01465.23438q.07324.14649.0586.19043,0,.11718-.14649.10254-.0293,0-.04394.08789-.0293.14648-.07324.41015a6.1711,6.1711,0,0,0-.11719.68848.31912.31912,0,0,1-.17578.249.34616.34616,0,0,0-.20508.36622,3.66765,3.66765,0,0,1-.07324.41015q-.01465.0879-.0293.30762-.01465.14649-.05859.16113-.11719.04395-.13184.293a1.60581,1.60581,0,0,1-.0293.17578.22891.22891,0,0,1-.20508.20508l-.10253.01465q-.19044.19042-.57129-.01465a.49621.49621,0,0,0-.33692-.08789.33179.33179,0,0,1-.33691-.16113.30586.30586,0,0,0-.36621-.13184.54438.54438,0,0,1-.13184.01465.38783.38783,0,0,1-.36621-.17578q-.07324-.14649-.17578-.16113-.14649,0-.23438-.21973a4.99677,4.99677,0,0,1-.249-.835q-.08788-.41016-.36621-1.31836a.13667.13667,0,0,0-.10254-.10254q-.45409,1.04-.4834,1.17187a.34793.34793,0,0,1-.05859.16114.578.578,0,0,0-.13184.4541,1.23193,1.23193,0,0,1-.04394.23437.75224.75224,0,0,0-.01465.249.861.861,0,0,1-.07324.19043q-.0586.08789-.04395.13183a.58907.58907,0,0,1-.05859.46875.15861.15861,0,0,0-.0293.13184.1393.1393,0,0,1-.08789.16113.191.191,0,0,0-.08789.14649q0,.05859-.11719.10253a.27231.27231,0,0,0-.21972.32227q.07323.61524.07324.55664a1.51514,1.51514,0,0,1-.26367.74707.44267.44267,0,0,1-.27832.14649q-.249.02929-.249-.20508v-.0293q0-.27833-.05859-.32226a.58422.58422,0,0,0-.30762-.04395,3.01329,3.01329,0,0,0-.39551.04395.49274.49274,0,0,0-.27832.13183.26678.26678,0,0,1-.293.07324.53744.53744,0,0,1-.249-.11718,2.6858,2.6858,0,0,1-.41016-.46875,4.46353,4.46353,0,0,0-.60058-.82032q-.01465-.01464-.21973-.35156l-.05859-.11719-.07324.01465q-.11719.10254-.17578,0a1.89433,1.89433,0,0,1-.16114-.27832q-.0293-.10254-.13183-.498-.02929-.08788.04394-.11718a.21208.21208,0,0,0,.17578-.23438.24548.24548,0,0,0-.21972-.23437.11246.11246,0,0,1,.01464-.04395v-.0293a.04222.04222,0,0,0,.01465.0293.11235.11235,0,0,1,.01465.04395h-.0293v.02929a.04224.04224,0,0,0-.01464.0293.675.675,0,0,1,0,.21973q-.13184.11718-.19043-.16114-.23437-1.09863-.249-1.31835-.01464-.10254.11719-.14649,0-.044.01465.07324-.01466-.11718-.01465-.07324.04395-.21972.05859-.26367a.17514.17514,0,0,0,0-.10254,2.3136,2.3136,0,0,1-.13183-.38086,2.26252,2.26252,0,0,0-.11719-.38086q.07325-.01464-.0293.16113a.43717.43717,0,0,1-.04394.0586.059.059,0,0,1-.05859-.0293.1266.1266,0,0,1-.04395-.08789q-.0293-.23437-.05859-.55664a.111.111,0,0,1,.01464-.10254.1461.1461,0,0,0-.05859-.249q-.20508-.10254,0-.36621l.0293-.0293.04394-.04395q.1172-.14647-.05859-.14648a.15778.15778,0,0,1-.17578-.16113q-.1172-.71778-.20508-1.12793-.01466-.04395-.249-.80567a1.56963,1.56963,0,0,1-.08789-.46875.2142.2142,0,0,0-.04395-.13183,1.42912,1.42912,0,0,1-.16113-.42481,1.34692,1.34692,0,0,0-.19043-.41015q0,.02929-.16114-.49805-.45409-1.40625-.52734-1.626-.21972-.64452-.30762-.95215a1.71285,1.71285,0,0,1-.07324-.52734,1.25958,1.25958,0,0,0-.0293-.23437.8114.8114,0,0,1,.07325-.64454,1.50919,1.50919,0,0,0,.08789-.32226q.04393-.16113.16113-.14649.07324,0,.08789-.10253.10254-.35157.13184-.498.01464-.0879-.16114-.21973a.11937.11937,0,0,1-.02929-.08789q.01464-.05859.04394-.04394.1172.01464.26367-.14649a.013.013,0,0,1,.01465-.01465q.16115-.07325.19043-.04394a.21441.21441,0,0,1,.08789.21972q-.0293.07324-.07324.19043a1.90589,1.90589,0,0,0-.07324.20508q-.044.10254.05859.13184.1172.02929.16114-.04395a.669.669,0,0,0,.10253-.55664.44309.44309,0,0,1-.02929-.20508.47445.47445,0,0,1,.16113-.43945q.01465-.01464.36621-.33691a1.14056,1.14056,0,0,0,.35156.30761.29433.29433,0,0,1,.17579.21973q.0293.11719-.0586.13184-.14648.04393-.17578.10254a.41649.41649,0,0,0,0,.30761.04219.04219,0,0,0,.01465.0293.04094.04094,0,0,0,.05859-.0293q-.0293.0586,0-.05859.04395-.14649.16114-.11719.20506.05859.11718.19043t.04395.46875a2.20992,2.20992,0,0,1,.16113.60059,5.79689,5.79689,0,0,0,.41016,1.65527q.71776,1.69922.8789,2.10938.45411,1.20117.65918,1.97753.3955,1.5674.4834,1.86036a8.99409,8.99409,0,0,1,.41016,1.65527q.01464.16113.01465.14648a3.38942,3.38942,0,0,0,.16113.77637.62032.62032,0,0,0,.0293.14649.93707.93707,0,0,0,.02929.14648,1.81914,1.81914,0,0,0,.08789.23437.08483.08483,0,0,0,.0586.01465q.0293,0,.02929-.01465a1.8515,1.8515,0,0,1,.17579-.74707q-.01465.04395.07324-.293a1.03742,1.03742,0,0,1,.04394-.17579,2.773,2.773,0,0,0,.38086-.92285q-.0293.13183.30762-.62988a1.662,1.662,0,0,0,.05859-.33691.61979.61979,0,0,1,.11719-.32227.21965.21965,0,0,0,.04395-.17578.25276.25276,0,0,1,.19043-.293q.05859-.01466.07324-.11719l.01465-.16113a7.2,7.2,0,0,0,.57129-1.46484,2.51166,2.51166,0,0,1,.17578-.293.6954.6954,0,0,1,.791-.33692.2242.2242,0,0,0,.13184.01465.39033.39033,0,0,1,.36621.04395.56675.56675,0,0,1,.07324-.10254q.13184-.19043.17578-.19043.30762.04395.35157.27832a.58889.58889,0,0,1-.01465.35156.57279.57279,0,0,0,.02929.46875,3.38009,3.38009,0,0,1,.249.68848.04786.04786,0,0,1-.01465.05859q-.044.0293-.08789-.0293a.77651.77651,0,0,0-.10254-.14648q-.04395.02929,0,.14648.08789.20508.46875,1.31836.20508.60059.293.89356a.55224.55224,0,0,0,.05859.19043q.04395,0,.14649-.17578a.22046.22046,0,0,0,0-.21973.2423.2423,0,0,1,.04394-.32226,1.25141,1.25141,0,0,0,.32227-.86426.79739.79739,0,0,1,.11718-.39551q.05861-.10254.14649-.27832a.35193.35193,0,0,0,.0293-.23438.61561.61561,0,0,1,.13183-.48339,2.50857,2.50857,0,0,0,.36621-.92286,2.55562,2.55562,0,0,1,.07324-.30761.91019.91019,0,0,0,.07325-.30762q0-.02929.10254-.13184a.232.232,0,0,0,.02929-.32226.26567.26567,0,0,1,.07324-.39551.42821.42821,0,0,0,.21973-.41016.19637.19637,0,0,1,.0586-.16113q.11718-.13183,0-.23437-.02931-.01466-.0293-.16114.0293-.57129.05859-.43945-.01464-.044.04395-.07324.07325-.044.11718-.01465.1172.05859.13184-.07324a.2923.2923,0,0,0-.04394-.20508.30622.30622,0,0,1-.0586-.32227.43015.43015,0,0,0,.01465-.10254.4711.4711,0,0,1,.27832-.57128q.07325-.02931.0293-.11719l-.07325-.11719a.18165.18165,0,0,1,.07325-.21973q.11718-.08788,0-.17578-.0879-.08789-.0586-.10254a4.74364,4.74364,0,0,0,.14649-.4541.51045.51045,0,0,1,.14648-.26367.19772.19772,0,0,0,.08789-.13184.30312.30312,0,0,1,.08789-.13183.29452.29452,0,0,1-.23437-.33692.211.211,0,0,0-.0293-.16113q-.13184-.14648.0293-.30762l.0293-.02929a1.2308,1.2308,0,0,0,.41015-.95215,1.03952,1.03952,0,0,1,.08789-.36621.34493.34493,0,0,0,.04395-.13184.93656.93656,0,0,1,.02929-.14648,3.36235,3.36235,0,0,0,.20508-.82031,4.81953,4.81953,0,0,0,.14649-.61524,1.36706,1.36706,0,0,1,.10254-.21973q.05859-.10253.14648-.01464t.21973,0a.36829.36829,0,0,1,.3955-.0293h.10254a.44235.44235,0,0,1,.41016.36621q0,.02929.01465.0293a.43687.43687,0,0,0,.04394.05859.05339.05339,0,0,0,.07325-.04394,2.63885,2.63885,0,0,1,.43945-.498Q1803.19042,370.14307,1803.21973,370.26025ZM1789.28906,386.022l.0293.01465a.24647.24647,0,0,1,.0293.20508q-.02931.044-.04395.04394-.01464.01466-.01465-.01464a1.84261,1.84261,0,0,1-.05859-.20508Q1789.23047,386.05127,1789.28906,386.022Zm.249,1.02539v.0293a.11246.11246,0,0,1,.01464.04395.11246.11246,0,0,0-.01464-.04395Zm.02929,1.75782q-.08788-.07324.11719.23437a1.378,1.378,0,0,1,.14648.26367A.4934.4934,0,0,1,1789.56738,388.80518Zm.0293-1.4209q-.01466-.07325.0293.11718Q1789.582,387.311,1789.59668,387.38428Zm.20508.65918q-.05859-.17579-.11719-.32227Q1789.74316,387.86768,1789.80176,388.04346Zm.01465-.17578q.01464-.044.01464-.0293Q1789.83105,387.82373,1789.81641,387.86768Zm7.33886-6.09375q-.11718-.01466-.14648-.249l.01465-.02929h.02929A.29981.29981,0,0,1,1797.15527,381.77393Zm.74707,2.38769q.04395.01465.0586-.05859Q1797.94629,384.17628,1797.90234,384.16162Zm.17578,5.63965q.07325.01466.0586.13184-.01465.07323-.0586.05859-.08788-.02929-.07324-.14649A.05338.05338,0,0,1,1798.07812,389.80127Zm1.94825-6.76758q.08788-.30762.08789-.32226l-.04395-.04395-.05859.0293a.49454.49454,0,0,0-.04395.32226q0,.01466.0293.0293A.04219.04219,0,0,0,1800.02637,383.03369Zm2.50488-11.543a.44.44,0,0,1,.01465-.07324v-.0293l-.01465-.02929q-.04395-.01465-.0293.04394v.08789Zm.32227.30762a.13006.13006,0,0,0,.01464-.05859v-.10254q-.01464-.04395-.04394-.04395-.04395,0-.04395.07324a.1575.1575,0,0,0,.0293.08789Q1802.80957,371.769,1802.85352,371.79834Zm-.01465-.4834a.48471.48471,0,0,0-.0293-.41015A1.50478,1.50478,0,0,1,1802.83887,371.31494Z" fill="#666"/>
      <path d="M1816.45605,370.74365q-.0293.07325.10254.23438a.22526.22526,0,0,1,.0293.26367,1.26981,1.26981,0,0,1-.01465.57129,3.06016,3.06016,0,0,0-.11719.55664q0-.08788-.19043,1.11328a1.16009,1.16009,0,0,0,0,.4541.64336.64336,0,0,1-.05859.42481,1.413,1.413,0,0,0-.11719.43945q-.11718.60059-.17578.791a4.80079,4.80079,0,0,0-.249,1.30371,1.70376,1.70376,0,0,1-.07324.43945,3.90423,3.90423,0,0,0-.11719.43945,1.43926,1.43926,0,0,0-.0293.46875.63042.63042,0,0,1-.02929.30762q-.01465.07324-.0293.46875a1.64821,1.64821,0,0,1-.10254.4541q-.07325.16113.10254.39551a.13171.13171,0,0,1,.01465.13183.80645.80645,0,0,0-.0293.70313.191.191,0,0,1,.01465.16113,5.04806,5.04806,0,0,0-.16113.90821,2.106,2.106,0,0,1-.17579.43945q.19044.01464.16114.16113l-.249.89356q0,.02929-.02929.36621a.41018.41018,0,0,0,.13183.35156q.0293.01466,0,.10254-.01464.08789-.17578.20508a.26593.26593,0,0,0-.08789.19043.18211.18211,0,0,0,.13184.14648.15333.15333,0,0,1,.10254.23438l-.0586.16113q-.16113.23438.08789.35156a.8968.8968,0,0,0-.21972.249.51855.51855,0,0,0-.07325.45411.64585.64585,0,0,1,.04395.33691.17471.17471,0,0,0,.04395.14648.24.24,0,0,1,.08789.14649,2.335,2.335,0,0,1,.04394.52734,2.55194,2.55194,0,0,0,.0293.74707,2.98837,2.98837,0,0,1,.01465.32227q0,.20508-.14649.19043-.16113-.0293-.19043.10254-.01464.14648-.16113.05859-.16113-.08788-.16113.11719a1.32787,1.32787,0,0,1-.01465.23437.28369.28369,0,0,1-.293.249q-.13183,0-.16113.04394-.0293.02929-.01465.16114a.61357.61357,0,0,0,.13183.3955.13943.13943,0,0,1,.04395.13184q0,.05859-.0293.07324-.05859.044-.07324-.01465a1.295,1.295,0,0,0-.21973-.27832.48332.48332,0,0,1-.14648-.32226.18077.18077,0,0,0-.08789-.13184.18567.18567,0,0,0-.17578,0q-.11719.05859-.23438-.11719a.56162.56162,0,0,1-.05859-.27832,1.87354,1.87354,0,0,0-.05859-.293q-.07325,0-.0879.11719a.609.609,0,0,1-.13183.32227q0-.01466-.0293.08789-.01464.05859-.10254.0293-.19043-.05861-.19043-.17579.01466-.10254.0293-.41015a3.58455,3.58455,0,0,1,.04394-.42481.23164.23164,0,0,1,.0879-.11718.28872.28872,0,0,0,.07324-.10254q-.20508-.0879-.0586-.19043.07325-.07324.0586-.13184-.01466-.07324.20508-.293-.14649-.02929-.14649-.10254a2.62654,2.62654,0,0,1,.27832-1.11328,1.20663,1.20663,0,0,1-.02929.68848,2.29611,2.29611,0,0,0-.0586.52734.672.672,0,0,1-.04394.42481.15586.15586,0,0,0,.04394.21972.39639.39639,0,0,0,.10254-.293q.044-.61522.26367-2.44628a9.75028,9.75028,0,0,0,.11719-1.61133,1.49522,1.49522,0,0,0-.08789.4248,1.54264,1.54264,0,0,1-.08789.43946,1.58178,1.58178,0,0,0-.07324.43945.84585.84585,0,0,1-.17578.46875.83492.83492,0,0,1,0-.43945.7277.7277,0,0,0,.02929-.26368.88049.88049,0,0,1,.0586-.26367q.0293-.05859-.07325-.23437-.10254-.19044.0293-.293.14649-.11719,0-.41016-.07325-.16113-.01465-.23437t-.01465-.20508a.69479.69479,0,0,1-.11718-.32227q.01464-.07325-.04395-.08789a.12175.12175,0,0,0-.11719.04395.33772.33772,0,0,0-.08789.11718l-.05859.11719q-.11719-.23437-.4541-.13183a1.06167,1.06167,0,0,1-.52735.05859.67105.67105,0,0,0-.30761.05859,1.04521,1.04521,0,0,0-.249.10254q-.13184.01466-.21972-.14648-.01465-.044-.04395-.01465-.04395.07324-.19043.07324a.28808.28808,0,0,0-.20508.08789q-.08789.14649-.32226.01465a1.24389,1.24389,0,0,0-.82031,0,1.58811,1.58811,0,0,0-.39551.16113.40827.40827,0,0,0,.05859.10254q.044.07324-.07324.11719-.01465,0,.01465.08789a.32709.32709,0,0,1,.01465.16113q-.02931.17578-.04395.17579-.10254.08788-.04395.13183a.159.159,0,0,0,.0586.0293.43619.43619,0,0,1,.05859.04394l-.05859.0586q-.19043.07325-.08789.27832a.08483.08483,0,0,1,.01465.05859.1802.1802,0,0,0,.02929.07324q.0879.23438-.10254.30762-.08789.04395-.05859.08789a.24578.24578,0,0,1,0,.20508,1.23471,1.23471,0,0,0-.0293.20508q.02931.08788,0,.10254-.14648.16113.01465.55664a.47651.47651,0,0,1-.05859.4541.40015.40015,0,0,0-.10254.19043q0,.04395.11719.17578.10254.13184-.04395.20508-.26367.14648-.04394.33691.14648.13184.14648.17578a.55354.55354,0,0,1-.10254.21973.77651.77651,0,0,0-.10254.14648q-.0293.0879.07324.16114.02931.01464.0293.16113-.0293.57129-.07324.87891a.88262.88262,0,0,0,0,.23437,1.03985,1.03985,0,0,1,0,.249.05937.05937,0,0,0,.0293.07325q-.11719-.0586.08789.64453.0293.08788-.07325.07324-.20506-.01466-.23437.14648-.07325.32228-.04395.27832-.01464.01466.01465.11719.0293.16113-.11718.08789l-.07325-.04394a.13111.13111,0,0,0-.08789.07324.2388.2388,0,0,1-.07324.08789q-.02929.02929-.08789-.01465-.05859-.05859-.10254-.02929-.293.16113-.43945-.17579a.61384.61384,0,0,0-.38086-.38086.7098.7098,0,0,1,.04394.43946q-.04393.36621-.04394.43945a.46507.46507,0,0,1-.0293.13184q-.04395.13184-.11719.10254t-.02929-.16114a.77313.77313,0,0,0,.01465-.3955.04669.04669,0,0,0-.07325.01464q-.11718.16115-.07324.16114-.11718,0-.11719-.16114a3.78519,3.78519,0,0,0-.02929-.61523,3.58215,3.58215,0,0,1-.0293-.60059,5.93292,5.93292,0,0,1,.10254-.76172,7.48549,7.48549,0,0,0,.11719-.76171q.04394-.293.08789-.90821l.08789-.92285q.249-2.21192.249-2.28516.01466-.07323.11719-.9082.01464-.13183-.04395-.16113a.12827.12827,0,0,0-.19043.05859q-.05859.11719-.10254.0586-.07323-.07324-.293-.04395-.42481.04395-.58594.07324-.11719.01465-.13184.04395a.04692.04692,0,0,0,.0293.04394q.04395,0,.04394.0293t-.07324.05859q-.60058.20508-.61523.20508a.37866.37866,0,0,1-.38086-.02929q-.20508-.13184-.33692-.04395-.08789.05859-.14648-.04394a.14356.14356,0,0,1,.04395-.17579.0422.0422,0,0,1,.02929-.01464q.16113-.02931.17578-.27832a.50214.50214,0,0,0-.13183-.36622.37085.37085,0,0,1,.17578-.05859.75788.75788,0,0,0,.19043-.01465q.19042-.07325.13183-.21972a.29527.29527,0,0,1,.0586-.32227.90462.90462,0,0,0,.20508-.55664q.17577.19043.52734.04394a7.78609,7.78609,0,0,1,1.40625-.48339.39415.39415,0,0,0,.33691-.36621q.02931-.26369.10254-.77637.0586-.5127.08789-.77637.10254-.791.20508-1.94824.0293-.26367.07324-.80567.04395-.51268.07325-.791.11718-1.09863.17578-1.99219.04394-.542.14648-1.31836a2.93465,2.93465,0,0,0,.0586-.65918,1.255,1.255,0,0,0,.08789-.26367.85883.85883,0,0,1,.11718-.23437,1.68767,1.68767,0,0,0,.21973-.32227q.1172-.20508.35156.01465.249.23438.26367.249a.361.361,0,0,0,.20508.0586q.05861-.01466.10254-.17579.07324-.20506.14649-.23437.19043-.04395.19043.13184-.02931.498-.04395.41015a.58083.58083,0,0,0,.14649.43945q.07323.05861.05859.249-.11719,1.50879-.13184,1.75781-.0293.293-.10254.77637-.08789.58593-.11718.77636a7.16316,7.16316,0,0,1-.21973,1.27442,1.14242,1.14242,0,0,0-.04395.77637q.04395.11718-.02929.11718h-.07324q-.04395-.01464-.0586,0a.26026.26026,0,0,0,.0586.17578q.04393.0879.02929.10254a.44071.44071,0,0,0-.07324.30762.76056.76056,0,0,1,0,.30762q-.05859.16113.01465.23437.07325.10254-.0586.249a.23183.23183,0,0,0,0,.35156q.13185.14649-.01464.20508a.48309.48309,0,0,0-.0293.16113,1.12407,1.12407,0,0,1-.07324.36621.22726.22726,0,0,0-.01465.17578.1486.1486,0,0,0,.16113.0586h.32227a.69056.69056,0,0,0,.30761-.0586,1.10554,1.10554,0,0,1,.33692-.05859,3.31076,3.31076,0,0,0,.82031-.14649q.16113-.04393.21973,0a.05493.05493,0,0,0,.08789,0,.85155.85155,0,0,1,.82031-.21972,1.8164,1.8164,0,0,0,.30762.01465.893.893,0,0,1,.30762.04394.08691.08691,0,0,0,.11718-.04394q.05859-.17578.30762-.17579.4248,0,.4834-.51269.20508-2.32909.30762-3.01758.04393-.33691.19042-1.084.14649-.70312.19043-1.084a7.497,7.497,0,0,1,.57129-1.96289.96552.96552,0,0,1,.08789-.14648,2.304,2.304,0,0,0,.5127-.80567q.17578.14649.27832,0a.5977.5977,0,0,0,.11719-.30761q.05859,0,.14648.10254A.12844.12844,0,0,0,1816.45605,370.74365Zm-6.15234.9375a.5024.5024,0,0,1,.01465.542A.93041.93041,0,0,1,1810.30371,371.68115Zm4.043,2.71q-.01466.07324-.0293.17578a1.0362,1.0362,0,0,1-.02929.17579.45438.45438,0,0,1-.21973.27832q.13183-.542.14648-.61524.02931-.07325.08789-.05859Q1814.36133,374.34717,1814.34668,374.39111Z" fill="#666"/>
      <path d="M1818.22266,390.78271q0,.04395-.0586.04395l-.10254.01465q-.10254.04395-.249-.10254a.31778.31778,0,0,0,.249-.07324.17477.17477,0,0,1,.14649-.04395.21856.21856,0,0,0,.14648-.02929l.08789-.04395.01465.01465q.01465.01464,0,.01465a.26258.26258,0,0,1-.13183.08789A.14105.14105,0,0,0,1818.22266,390.78271Zm9.78515.70313a2.25881,2.25881,0,0,1,.07324.542q.02931.35157-.14648-.13183a.64.64,0,0,0-.13184.52734q.01465.04395.07325.498.01464.11718.01464.13183,0,.20508-.21972.13184-.01466.04395.21972,1.25976a2.97289,2.97289,0,0,1,.11719,1.25977q-.11718-.17578-.16113-.19043-.01466-.01466-.23438-1.084-.21972-1.05469-.293-.9961-.01466.0293-.04395-.04394a.23613.23613,0,0,1-.0293-.10254,2.06973,2.06973,0,0,0-.08789-.5127,3.58408,3.58408,0,0,1-.11718-.51269,3.09506,3.09506,0,0,0-.11719-.38086,1.23089,1.23089,0,0,0,.04394.61523,3.82852,3.82852,0,0,1,.11719.498q.08789.35156.11719.4834l.07324.21972a13.97875,13.97875,0,0,1,.36621,1.52344.77873.77873,0,1,1-.17578.0293q.17579.58593.23438.80566a7.76894,7.76894,0,0,0-.38086-1.4209,5.67,5.67,0,0,0-.20508-.73242,6.1176,6.1176,0,0,0,.20508.73242q.0293.0879.07324.293t.07324.32227q-.64453-2.15333-.86426-2.71-.16113.36621-.01465.542a.85867.85867,0,0,1,.11719.23437,1.376,1.376,0,0,0,.10254.249.2138.2138,0,0,1-.249-.07324.9721.9721,0,0,1-.07324-.17579,2.92613,2.92613,0,0,0-.11719-.48339,2.70268,2.70268,0,0,1-.10254-.4834q-.01466-.13184-.04395-.14649a.63746.63746,0,0,1-.19043-.3955q-.01464-.11719-.08789-.45411-.04393-.27831-.07324-.4541a2.01549,2.01549,0,0,1-.0293-.26367,1.23268,1.23268,0,0,0-.02929-.293v.35156q0,.13184.01465.32227a.80142.80142,0,0,1-.0293.17578,1.55335,1.55335,0,0,0-.01465.17578,1.22472,1.22472,0,0,1-.01465.32227,1.03129,1.03129,0,0,1-.13183.32226.97992.97992,0,0,1-.07325-.32226q-.01464-.16113-.14648-.13184-.07325.0293-.08789-.10254v-.30761q-.0293-.45411-.04395-.5127a.38911.38911,0,0,1,.11719.27832.791.791,0,0,0,.05859.30762.09858.09858,0,0,0,.04395-.08789q-.01466-.07325.01465-.08789.044.01464.05859.10254,0,.08788.04395.10253a.57612.57612,0,0,0,.01465-.35156,1.64963,1.64963,0,0,1-.0293-.20508,1.60941,1.60941,0,0,0-.0293-.19043q-.01464-.10253.01465-.11718.1172-.0879,0-.19043a.20117.20117,0,0,1-.04394-.17578.9756.9756,0,0,0,0-.33692q.02929-.05859.05859-.02929.04395.04393.05859.01464.07325-.08788.07324-.05859-.05859-.19043-.02929-.14648a.54948.54948,0,0,1-.0586-.249,5.695,5.695,0,0,0-.08789-.86426,8.6691,8.6691,0,0,1-.13183-.86425,1.42268,1.42268,0,0,0-.0586-.33692q-.05859-.249-.07324-.35156a5.80626,5.80626,0,0,0-.10254-.70313.54717.54717,0,0,1-.01465-.23437,1.017,1.017,0,0,0,0-.249,1.16972,1.16972,0,0,0-.07324-.33692,1.01519,1.01519,0,0,1-.04394-.23437.35459.35459,0,0,0-.07325-.21973q-.11718-.16113-.27832.07324a.29729.29729,0,0,0-.33691-.293q-.05859,0-.542.0586a10.81221,10.81221,0,0,0-1.59668.249q-.21973.05859-.293.08789-.17578.0879-.04395.17578.07325.04395-.01464.0586-.11719.04394-.13184.23437a3.75525,3.75525,0,0,1-.04395.58594.45419.45419,0,0,1-.02929-.10254.38124.38124,0,0,0-.01465-.11719,4.089,4.089,0,0,0-.14649.64453q-.05859.293-.16113.84961-.10254.60059-.16113.86426-.30762,1.64063-.32227,1.72852a.47409.47409,0,0,1,.35157-.19043l.02929.02929q.01466.01466-.01465.01465a.24786.24786,0,0,0-.10253.10254.159.159,0,0,1-.0586.0293q-.04395.02929-.04394.04394.01464.01466.04394,0a.11246.11246,0,0,1,.04395-.01464l.01465.01464a.01832.01832,0,0,1,0,.0293.29169.29169,0,0,1-.19043.07324.08609.08609,0,0,1-.07325-.04394q-.04393.27831-.05859.39551a.23962.23962,0,0,1-.01465.05859v.04394a.04221.04221,0,0,1,.01465.0293.05937.05937,0,0,0,.07324.0293.78105.78105,0,0,0,.17578-.0586l.13184-.04394a.09433.09433,0,0,1,.07324,0q.0293,0,.0293.04394a.05967.05967,0,0,1-.01465.04395q-.01466.0293-.10254.05859a.27976.27976,0,0,0-.16113.08789l-.01465.04395a.25139.25139,0,0,0-.249-.01465,1.839,1.839,0,0,1-.10254.38086.22374.22374,0,0,1,.11718,0,1.49918,1.49918,0,0,0,.21973.0293.08437.08437,0,0,1-.0293.05859.03662.03662,0,0,0,0,.05859.22954.22954,0,0,1,.0586.04395l.05859.0293q.01466.01464,0,.04394a.04218.04218,0,0,1-.0293.01465.13007.13007,0,0,0-.05859-.01465q-.04395-.02929-.19043-.10254l.01465-.02929q.01465-.044,0-.0586-.044-.04394-.07324,0,.01464-.01464-.0293.04395a.04224.04224,0,0,1-.0293.01465.15889.15889,0,0,0-.05859-.0293.11232.11232,0,0,1-.01465.04394.13.13,0,0,1-.01465.0586v.05859a.04224.04224,0,0,1,.0293.01465.08112.08112,0,0,0,.11719.01465q.05859-.04395.07324.07324.01465.0293-.01465.0293a.36431.36431,0,0,1-.23437-.01465q-.02929.14649-.26368.0293a.647.647,0,0,0-.11718-.04395q-.14649.0293-.17578-.13183a.0623.0623,0,0,1-.0586,0l-.02929-.01465a.04222.04222,0,0,1-.0293-.01465l-.04395-.01465a1.46151,1.46151,0,0,0-.02929.17578q0-.01464.01464,0a.013.013,0,0,1,.01465.01465q.05861.19043.04395.17578l-.01465.0293q-.07325.02929-.10254-.0293a.01831.01831,0,0,1,0-.0293q.0293-.01464.0293-.14648a.58268.58268,0,0,1-.08789.14648.09394.09394,0,0,1-.10254.04395.15109.15109,0,0,0-.0293.05859.12.12,0,0,1-.04394.07325.21421.21421,0,0,0-.04395.07324l.0293-.01465q-.0293,0-.0293-.01465v.01465h-.05859q.01464,0,0-.04395h0v-.02929a.013.013,0,0,0-.01465.01465l.01465.02929a.17054.17054,0,0,1-.04395.0293h-.01465v.01465a1.0735,1.0735,0,0,0-.30761-.0293q.04394-.01464-.16114.01465a.224.224,0,0,1-.04394.11719q-.05861-.01465-.08789-.11719h-.0586a.013.013,0,0,1-.01465-.01465q-.01464-.0293.01465-.0293h.04395l-.0586-.20507h-.32226q-.07325-.01466-.01465-.07325a1.03051,1.03051,0,0,1,.14648-.10254.05971.05971,0,0,1,.04395.01465.17037.17037,0,0,0,.04395.0293q.01464.0293.02929.0293a.04224.04224,0,0,0,.0293.01465.64271.64271,0,0,0-.05859-.11719.2514.2514,0,0,0-.21973.01465.11251.11251,0,0,0-.04395.01464l-.02929-.01464a.21824.21824,0,0,0,0-.16114.02894.02894,0,0,1,.01465-.04394.33764.33764,0,0,1,.11718-.0293q-.08788-.08789-.04394-.05859.01464.01464-.01465,0t-.01465-.01465a.402.402,0,0,0-.20508-.0293q-.01464-.05859.0586-.05859a.27979.27979,0,0,0,.16113-.08789.33861.33861,0,0,1,.07324-.04395q.0293-.05859.13184-.293a.56872.56872,0,0,1,.02929-.07324.25489.25489,0,0,1-.02929-.10254.73031.73031,0,0,1,.01465-.08789.09441.09441,0,0,0,0-.07324.104.104,0,0,1,.01464-.08789.4004.4004,0,0,0,.01465-.08789.06637.06637,0,0,1,.01465-.07324.602.602,0,0,0,.07324-.30762q0-.04395.0293-.04395a.17694.17694,0,0,0,.10254-.10254.84473.84473,0,0,1,.08789-.11718q.01465-.02929.04395,0-.01466-.01466.02929.05859a.57384.57384,0,0,1,.0586-.13184.59015.59015,0,0,0,.05859-.17578q.33692-1.8457.33691-1.80175.04395-.27833.14649-.82032a7.8001,7.8001,0,0,0,.14648-.80566.994.994,0,0,1,.08789-.27832.23687.23687,0,0,0,.0293-.19043q-.044-.13183-.14648-.10254-.74707.16113-.62989.11719a4.22069,4.22069,0,0,1-1.09863.04394q-.10254,0-.07324-.10254a.87877.87877,0,0,1,.19043-.46875q.07325-.08788.23437-.27832a3.04217,3.04217,0,0,1,.23438-.27832,2.5403,2.5403,0,0,1,.73242-.4248,1.8431,1.8431,0,0,1,.20508-.0586q.36621-.05859.35156-.33691.04395-.0293.05859,0,.04395.16113.08789.16113.10254.01466.16114-.14648.0293-.13183.07324-.35156.02929-.27832.04394-.36621a1.65546,1.65546,0,0,1,.0586-.20508.33522.33522,0,0,0,.02929-.249,1.62636,1.62636,0,0,1,.0586-.43945q.01464-.044-.08789-.20508-.01465-.0293-.0586.01465-.04394.05859-.05859,0v-.21973a.488.488,0,0,1,.01465-.17578.114.114,0,0,0,.04394-.10254.4709.4709,0,0,1,.20508-.38085q.16113-.13185-.01465-.17579-.05859-.02929-.01464-.08789a.21962.21962,0,0,0-.0586-.30761.23879.23879,0,0,1,.08789-.07325q.05861-.02929.0586-.07324.01464-.13183-.04395-.13183-.11718-.01466-.08789-.14649a.79985.79985,0,0,1,.10254-.33691q.16113-.0586.21973-.41016a1.53791,1.53791,0,0,1,.04394-.17578.30726.30726,0,0,0-.10254.21973.59322.59322,0,0,1-.07324.23437.73278.73278,0,0,1-.11719-.38086q.05861-.02929.08789-.16113a.11937.11937,0,0,1,.13184-.11719.11933.11933,0,0,0-.13184-.0293q-.13183.05861-.16113-.02929-.04395-.11719.08789-.14649a.24131.24131,0,0,0,.20508-.17578q0-.02929.01465-.14648a.93391.93391,0,0,1,.02929-.13184.36086.36086,0,0,0-.10253.17578.22847.22847,0,0,1-.13184.16114,1.45965,1.45965,0,0,1,.04394-.38086q.02931-.0586.0879-.21973a.65328.65328,0,0,1,.08789-.23437q.01464-.01466,0-.0879a.62975.62975,0,0,1-.01465-.11718,10.33609,10.33609,0,0,1,.21972-1.11328.11252.11252,0,0,1,.01465-.04395.11237.11237,0,0,0,.01465-.04394q.0293-.07324-.0293-.10254-.04393-.044-.11718,0-.1172.05859-.14649.04394a.35435.35435,0,0,1-.01465-.14648.30481.30481,0,0,1,.01465-.11719q.0293-.13184.14649-.07324a.17029.17029,0,0,0,.26367-.10254.82208.82208,0,0,0,.08789-.33692,2.09688,2.09688,0,0,1,.08789-.52734,2.32069,2.32069,0,0,0,.08789-.58594,2.99606,2.99606,0,0,1,.05859-.498q.05861-.33692.07325-.49805a2.75139,2.75139,0,0,1,.02929-.33691q.0293-.21973.04395-.32227a.58284.58284,0,0,0-.16113-.498q-.14649-.11718-.01465-.293a.43257.43257,0,0,0,.01465-.30761q-.10254.01464-.11719.14648-.0293.13183-.11719.41016a2.05184,2.05184,0,0,0-.10254.41015.05969.05969,0,0,1-.01465.04395q-.01464.08789-.07324.05859-.05859,0-.04394-.07324V372.311a4.56082,4.56082,0,0,0,.05859-.70313,1.49951,1.49951,0,0,1,.08789-.4541q.13184-.38087.46875-.17578.14649.08789.16113.13183a.398.398,0,0,1-.05859.20508,2.31762,2.31762,0,0,0-.11719.4834q0,.16113.13184.08789a.255.255,0,0,0,.16113-.19043.10033.10033,0,0,1,.07324-.08789.06767.06767,0,0,1,.04395.07324q0,.07325.04394.08789a1.00388,1.00388,0,0,0,.01465-.19043.78056.78056,0,0,1,.01465-.17578q-.0293,0-.05859.04395a.04787.04787,0,0,1-.0586.01465q-.04394,0-.01465-.04395a1.991,1.991,0,0,1,.23438-.52734,1.14308,1.14308,0,0,1,.05859.14648q.044.05859.14649-.01465.07325-.05859.10254.04395.05859.17579.11718.19043.0586-.21973.14649-.23438.05859-.01464.07324-.16113.01466-.17578.16113-.13184.11719.02931.16114-.10254.01464-.05859.11718-.11718.23438-.13184.23438.13183,0,.07324-.04395.39551a.2576.2576,0,0,0,.07325.19043,2.51845,2.51845,0,0,0,.04394-.4541.54868.54868,0,0,1,.08789-.30762.19477.19477,0,0,0,.04395-.11719q-.01466-.11718.02929-.11718.13183,0,.11719.14648a.2143.2143,0,0,1-.04394.13184,1.47874,1.47874,0,0,0-.04395.57129q0,.05859.08789.10254a.62391.62391,0,0,0,.08789.05859.23055.23055,0,0,0,.08789.05859.28173.28173,0,0,1,.17578.23438.94677.94677,0,0,0,.26368.4834q.07323.08788.02929.14648-.04393.01466-.10254-.04394a.16878.16878,0,0,0-.11718-.0586,1.5,1.5,0,0,0,.14648.36621.68119.68119,0,0,1,.08789.41016,1.63811,1.63811,0,0,1-.13184-.249.42846.42846,0,0,0-.14648-.20508q.07325.21972.07324.23437a13.24236,13.24236,0,0,1,.5127,1.56739,2.48268,2.48268,0,0,0,.08789.33691q.05859.20508.08789.32226a3.55246,3.55246,0,0,1,.11719.71778.70246.70246,0,0,0,.04394.20508.8494.8494,0,0,1,.04395.21972q.05859.57129.05859.43946a.45392.45392,0,0,0,.0293.19043q-.01466-.01466.20508,1.15722.20507,1.20117.30761,1.626a4.034,4.034,0,0,1,.0586.4248,4.01926,4.01926,0,0,0,.05859.41016q.04395.20508.293,1.8457a.95411.95411,0,0,0,.20508.55664q.0293.0293,0,.08789a.33144.33144,0,0,0,.14648.46875.577.577,0,0,1,.16113.17579.42893.42893,0,0,1-.11718-.07325q-.07325-.05859-.11719-.04394a.36939.36939,0,0,0,.11719.33691q.10254.05859.02929.16113a.86225.86225,0,0,0-.11718.27833q-.04395.14647.13183.17578a.13346.13346,0,0,1-.07324.07324.08606.08606,0,0,0-.04394.07324.58981.58981,0,0,0,.01464.16113q.14649.61524.19043.74707a.59969.59969,0,0,1,0,.19043.24425.24425,0,0,0,.04395.19043l.01465.07325a.1422.1422,0,0,0,.05859.08789.16718.16718,0,0,1,.05859.23437.24032.24032,0,0,0,0,.20508l.16114.49805a.11591.11591,0,0,1,.01465.07324,2.4847,2.4847,0,0,0,.02929.51269q.07325.41016.08789.5127a1.03311,1.03311,0,0,0,.07325.32226q.05859.21973.07324.30762.01464.11719.33691,1.69922.044.16113.11719.42481a4.13938,4.13938,0,0,1,.11719.41015Q1827.97852,391.39795,1828.00781,391.48584Zm-9.8584-.16113q0-.01466.0293-.01465l.01465.0293a.04222.04222,0,0,1-.0293.01464Q1818.13477,391.33936,1818.14941,391.32471Zm.26368-1.333q-.07325-.01466-.07325-.05859.10254-.6299.11719-.64454a.93347.93347,0,0,1,.01465.64454Q1818.457,389.9917,1818.41309,389.9917Zm.19043,1.83105q0,.02931-.04395.04395h-.10254a.013.013,0,0,1-.01465-.01465q-.01464-.0293,0-.0293.05861-.04393.13184-.10254.05859-.0293.04394.0293A.16311.16311,0,0,1,1818.60352,391.82275Zm-.01465.17579q-.044-.04395.04394-.04395l.01465.01465q0,.02929-.04394.0293Q1818.58887,392.01318,1818.58887,391.99854Zm.23437-1.66993q.044-.20508.0293-.14648a.22968.22968,0,0,0-.04395-.05859q-.0293-.01466-.04394,0a.02894.02894,0,0,0-.01465.04394,1.14723,1.14723,0,0,0,.0293.16113Zm.23438,1.626a.05937.05937,0,0,1,.02929.07324.18448.18448,0,0,1-.19043.10254.3224.3224,0,0,1,.07325-.17578Q1818.999,391.91064,1819.05762,391.95459Zm-.11719-.19043q.04395-.01466.0293-.01465a.013.013,0,0,0-.01465-.01465Zm.20508-.11719q0-.04394-.0293-.04394t-.0293.04394q-.01464.02929.0293.08789Zm.07324.32227q.0293,0,.0293.04394,0,.01466-.0293.0293-.0293,0-.04395-.04394Q1819.1748,391.96923,1819.21875,391.96924Zm.04395-5.083a2.47811,2.47811,0,0,1,.14648-.80566A2.31561,2.31561,0,0,1,1819.2627,386.88623Zm.11718,5.24414a.04694.04694,0,0,1,.04395.0293q.01464.01464-.01465.04394a.073.073,0,0,1-.07324.01465l-.01465-.0293Q1819.33593,392.13037,1819.37988,392.13037Zm.0586-.26367.05859.01465h0a.436.436,0,0,0-.04395.05859.05965.05965,0,0,1-.04394.01465.23941.23941,0,0,0-.01465-.05859l-.01465-.04395.01465.01465Q1819.49707,391.88134,1819.43848,391.8667Zm.99609-6.5332q-.01465.01464-.04395-.20508,0-.0879-.13183-.01465a.49087.49087,0,0,0-.26367.36621l-.11719.70313q-.08789.65918-.27832,1.46484a.47856.47856,0,0,0,.04394.39551.32164.32164,0,0,1,.01465.38086.11248.11248,0,0,1-.04394.01464q-.1172-.13184-.07324-.11718a1.46693,1.46693,0,0,0-.10254.52734.47516.47516,0,0,0,.07324-.13183.25773.25773,0,0,1,.10254-.10254.47146.47146,0,0,1,.02929.249.79067.79067,0,0,0-.01464.249.64764.64764,0,0,0,.04394-.11718q.20508-1.11328.293-1.55274.044-.21972.11719-.249t.04394-.08789q0,.01464.04395-.20508a2.07237,2.07237,0,0,0,.04394-.58594q-.08789-.3955.13184-.542a.0638.0638,0,0,0,.01465-.08789A.23135.23135,0,0,1,1820.43457,385.3335Zm-.9082,6.15234v-.05859l-.04395.02929A.04694.04694,0,0,0,1819.52637,391.48584Zm.05859.43945a.04694.04694,0,0,1,.0293.04395.17123.17123,0,0,1-.10254.11719q.04395-.11719.05859-.14649A.013.013,0,0,1,1819.585,391.92529Zm.05859-.14648.0293.01465q.0293.04394,0,.07324a.013.013,0,0,1-.01465.01465.02589.02589,0,0,1-.02929-.0293A.06635.06635,0,0,1,1819.64355,391.77881Zm.21973.16113v.08789l-.01465.01465-.01465-.0293v-.05859Zm.46875-9.873a2.82547,2.82547,0,0,0-.21973.43946.35259.35259,0,0,1-.05859-.30762,2.71776,2.71776,0,0,1,.11719-.33691q.0293-.07324.08789-.0586.05859,0,.08789.08789A.21487.21487,0,0,1,1820.332,382.06689Zm-.0293,9.56543q.02931,0,.04395.04395l-.01465.01465a.04692.04692,0,0,1-.04394-.0293Q1820.27343,391.61767,1820.30273,391.63232Zm.16114-8.18847q.26367-.02929.26367-.21973,0-.14649-.23438-.14648a.42833.42833,0,0,1,.10254.17578Q1820.5957,383.29736,1820.46387,383.44385Zm.33691-.55664a.61528.61528,0,0,0,.0293-.33692q-.01465-.293-.01465-.35156a1.97943,1.97943,0,0,0-.10254.542A.11822.11822,0,0,0,1820.80078,382.88721Zm.11719-7.83692a1.66763,1.66763,0,0,1-.08789.46875.308.308,0,0,1-.01465-.249,3.467,3.467,0,0,0,.08789-.77637.2907.2907,0,0,1,.0293-.13183.09689.09689,0,0,0,.01465-.08789q0-.01466-.0586-.04395t-.01465-.08789a.93629.93629,0,0,0,.13184-.08789.25567.25567,0,0,0,.05859-.14649,1.38431,1.38431,0,0,0,.0293-.32226q.01465-.01466-.0293-.04395-.08789-.07323,0-.16113a.224.224,0,0,0,.07325-.16113,2.45977,2.45977,0,0,1,.05859-.42481,1.0524,1.0524,0,0,0,.0293-.41015q-.02931-.19044.21972-.27832a.68328.68328,0,0,0-.04394.4541.22424.22424,0,0,1-.01465.13183,1.47721,1.47721,0,0,0-.14649.77637,3.15513,3.15513,0,0,1-.04394.35156.23955.23955,0,0,1-.01465.0586.24.24,0,0,0-.01465.05859q-.01464.07325.07324.10254a.013.013,0,0,1,.01465.01465q.0293.044-.02929.249-.04395.21973-.08789.249-.07324.05859-.0879.07324-.0293.07325-.01464.08789t.05859,0q.04395-.01465.05859,0a.07852.07852,0,0,1-.05859.08789A.29092.29092,0,0,0,1820.918,375.05029Zm.04394,15.9375q.07325.01466.0293.0586a.05969.05969,0,0,1-.04394.01465q-.04395-.01466-.04395-.04395A.05906.05906,0,0,1,1820.96191,390.98779Zm.30762-4.18945a.69062.69062,0,0,0,.05859-.30762,1.08522,1.08522,0,0,1,.0293-.32226.5096.5096,0,0,0-.10254.21972,1.77642,1.77642,0,0,1-.08789.30762v-.07324h-.01465a1.27156,1.27156,0,0,1-.01464-.17578.5365.5365,0,0,0-.0293-.13184,2.12061,2.12061,0,0,0-.17578.67383.74066.74066,0,0,0,.16113-.35156.013.013,0,0,0-.01465-.01465h.0586l.01464.07324.01465-.01465a5.294,5.294,0,0,1-.08789.73242q0,.01466-.14648.80567a1.02916,1.02916,0,0,0,.11718-.33692,2.82312,2.82312,0,0,1,.07325-.35156,1.34912,1.34912,0,0,0,.05859-.36621A.80107.80107,0,0,1,1821.26953,386.79834Zm-.21973-.17578.0293,3.48633.19043-.07325h.01465l.01465.01465-.01465.04395a.77058.77058,0,0,1-.07324.11719q-.01465.02929-.0586.01464a.314.314,0,0,1-.07324-.05859Q1821.03515,390.13819,1821.0791,390.10889Zm.32227-4.16016q.04393-.01466.02929-.11719t-.04394-.07324q-.10254.10254-.17578-.01465l-.0293.0293q-.01464.11718.01465.13184Q1821.34278,385.978,1821.40137,385.94873Zm-.21973,5.24414q.13183-.01464.16113.08789.01466.0293-.02929.04395a.13011.13011,0,0,1-.0586-.01465.11252.11252,0,0,1-.01465-.04395Q1821.18164,391.16357,1821.18164,391.19287Zm.13184-.4541-.01465.0293q-.04395,0-.04395-.01465l.0293-.01465Zm3.16406-7.96875a.1708.1708,0,0,0,.16113-.23438q-.0293-.19043-.13183-.65918a.22405.22405,0,0,0-.04395-.11718.40441.40441,0,0,1-.07324-.26367q-.0293-.58594-.0586-.76172-.11718-.498-.10253-.38086-.02931-.36621-.20508-1.31836-.04395-.249-.08789-.26367-.0586-.02931-.11719-.20508-.13183-.45411-.13184-.43946a1.10413,1.10413,0,0,1-.04394-.19042,3.19134,3.19134,0,0,0-.17578-.61524,1.41811,1.41811,0,0,0-.08789.60059q.0293.19043.04394.41015a.0259.0259,0,0,1-.0293.0293l-.08789-.10254a1.02894,1.02894,0,0,0-.08789.27832q-.14647.76171-.17578.99609-.05859.36622-.17578.95215-.17578.791-.20508.9375-.249,1.28907-.249,1.31836a.44512.44512,0,0,0-.01465.249q.0293.04393.27832.02929a1.1596,1.1596,0,0,0,.19043-.01465q.05859-.01464.21973-.04394.13184-.02929.21972-.04395a1.38049,1.38049,0,0,1,.43946-.01464.39893.39893,0,0,0,.21972-.04395.32975.32975,0,0,1,.20508-.05859A1.03533,1.03533,0,0,0,1824.47754,382.77Zm-.67383-11.35254q-.04395-.13184-.23437-.05859.293.36621.27832.35156A.76967.76967,0,0,0,1823.80371,371.41748Zm1.9043,20.97656q-.10254.30762.14648.41016a.17079.17079,0,0,1-.23437-.16113,1.64624,1.64624,0,0,1,.01465-.4834A.17622.17622,0,0,1,1825.708,392.394Z" fill="#666"/>
      <path d="M1843.23633,371.84229q.07324.14647.02929.20507a.40114.40114,0,0,0-.05859.4541q.07325.11719-.08789.21973a5.81939,5.81939,0,0,1-.57129.33692q-.0293,0-.10254.08789a.93309.93309,0,0,0-.10254.16113.83127.83127,0,0,1-.95215.41016,6.67637,6.67637,0,0,0-1.86035-.01465q-.99609.08789-1.24511.08789-.62989.0293-.45411.58593a2.04143,2.04143,0,0,1,.07325.30762q.0293.17579-.0293.19043-.0293.01466-.10254-.13183l-.0293-.07325q-.04393.01466-.02929.11719-.01466-.0293.07324,1.05469a2.83436,2.83436,0,0,0,.08789.542.26738.26738,0,0,1,.01465.14649,6.14158,6.14158,0,0,0,.01465.68847,16.08256,16.08256,0,0,1-.01465,1.86035,2.63993,2.63993,0,0,0,0,.41016,1.42515,1.42515,0,0,1-.04395.39551v.02929a.80533.80533,0,0,1,.07325.4834,1.6702,1.6702,0,0,0-.01465.4834v.04395a.89313.89313,0,0,1-.07325.27832.54639.54639,0,0,0-.02929.293,1.75894,1.75894,0,0,1,.02929.542.81989.81989,0,0,0,0,.21972.62131.62131,0,0,1-.01464.293,4.86679,4.86679,0,0,0-.0586.9668q0,.08788-.01465.249t-.01464.23438a3.01011,3.01011,0,0,1,.04394.68847,4.81776,4.81776,0,0,1-.04394.64454q-.02931.4248-.0293.43945-.01465-.17578,0,1.9043a8.30685,8.30685,0,0,0,.04394.95214,9.54554,9.54554,0,0,1,.01465,1.0254,1.03809,1.03809,0,0,1-.16113.51269q-.05859.13184.0293.19043.05859.04395-.0293.13184a.55729.55729,0,0,0-.19043.4248,1.501,1.501,0,0,1-.32227.67383q-.0293.044-.05859.0293l-.0293-.0293a.3347.3347,0,0,0-.20507-.08789.20907.20907,0,0,1-.19043-.11719q.01464.05859-.13184-.11719a.25523.25523,0,0,1-.07324-.13183,1.50655,1.50655,0,0,1-.0586-.21973q0-.044-.02929-.4541a.94882.94882,0,0,0-.16114.32226q-.04394.11719-.17578.04395a.94668.94668,0,0,0-.35156,0q.01465,0-.07324.07324-.044.02929-.0586.01465-.04393-.01464-.04394-.04394v-.42481a4.04963,4.04963,0,0,0-.01465-.4248.90961.90961,0,0,0-.01465-.17579q0-.0293-.04394-.04394-.05861,0-.0586.04394.01466.10254.0293.21973a3.5606,3.5606,0,0,1,.01465.58594.30441.30441,0,0,1-.11719.23437,1.111,1.111,0,0,1-.11719-.43945q-.0293-.17578-.17578-.14648-.07325,0-.08789-.10254a.52828.52828,0,0,1-.0293-.20508,6.21127,6.21127,0,0,0-.04394-.71777,1.66279,1.66279,0,0,1,0-.46875.23128.23128,0,0,0-.01465-.13184q-.04395-.13184.10254-.20508a.24439.24439,0,0,0,.14648-.27832.81136.81136,0,0,1-.01464-.249.197.197,0,0,0-.14649-.21973q-.17578-.07324-.0293-.19043a.47837.47837,0,0,0,.14649-.39551.20951.20951,0,0,1,.08789-.16113.13007.13007,0,0,1,.05859-.01465q.0586.01466.04395.04395,0,.04394-.0293.65918a3.693,3.693,0,0,0,.0586.835,3.20112,3.20112,0,0,1,.11718.67383q-.01464.10254.07325.11718t.10253-.11718l.0293-.13184q.249-.4248.21973-.35156a.40309.40309,0,0,0-.01465-.17578.26409.26409,0,0,1,0-.17578.22851.22851,0,0,0-.0293-.21973.21941.21941,0,0,1-.01465-.20508q.02931-.05859.01465-.07324a.38358.38358,0,0,1-.05859-.27832.87027.87027,0,0,0-.0293-.27832.4501.4501,0,0,1,.0293-.35156q-.044.10254.08789-.16114a.19593.19593,0,0,0-.07324-.293.18768.18768,0,0,1-.11719-.17578,1.22277,1.22277,0,0,1,.05859-.3955,1.87207,1.87207,0,0,0,.0586-.293,1.28994,1.28994,0,0,1,.07324-.30762q.11718-.20508.07324-.20508a.4794.4794,0,0,1,.32227.07324q.05859.01465.05859.11719,0,.08788.04395.08789.07323,0,.08789-.10254a.5867.5867,0,0,0-.07324-.35156q-.0879-.13184-.19043-.05859a.151.151,0,0,1-.0586.02929.17917.17917,0,0,0-.16113-.04394.33785.33785,0,0,1-.16113.01465.0712.0712,0,0,1-.04395-.08789q-.0293.11718.0293-.10254a.73032.73032,0,0,0-.10254-.67383q-.044-.01466-.07324.04394a.25583.25583,0,0,1-.293.14649q-.10254-.01466-.11719-.07324,0-.07324.10254-.07325.08788,0,.08789-.05859a.98561.98561,0,0,1,.07324-.30762.35556.35556,0,0,1,.20508-.23437.14476.14476,0,0,0,.07324-.21973q-.07324-.14649.10254-.27832a.2213.2213,0,0,1,.30762.01465,2.19436,2.19436,0,0,0,.20508.249q.0293-.01464.05859-.249a2.25747,2.25747,0,0,0,.0293-.39551.07769.07769,0,0,0-.08789-.08789q-.0879-.01464-.10254.0293-.0293.16113-.20508.07324.07324.04395-.19043.01465-.21972-.0293-.11719-.21973a.44439.44439,0,0,0,.0293-.35156q0-.01466.0293-.293a.17031.17031,0,0,0-.16114-.21973q.0586.01466-.16113-.01464-.07325-.01466-.05859-.07325.01464-.04394.04394-.04394a1.2524,1.2524,0,0,1,.14649-.0293q.249-.044.20507-.27832-.01464,0-.05859-.13184-.249.13185-.26367.14649-.21973.08789-.19043-.14649a.72314.72314,0,0,1,.04394-.21972q.02931-.16113.17579-.13184a.57919.57919,0,0,0,.26367-.02929q.20508-.10254.08789-.27832l-.17578-.17579a.48114.48114,0,0,0,.249-.43945.09858.09858,0,0,0-.04395-.08789.17591.17591,0,0,0-.11718.01465.34067.34067,0,0,0-.17578.26367.4482.4482,0,0,1-.08789.23438.11932.11932,0,0,1-.13184.02929q-.05859-.02929-.0293-.10254a.48416.48416,0,0,0-.01465-.58593.57627.57627,0,0,1-.10253-.30762q-.01465-.10254.01464-.13184.19044-.16113-.01464-.32226-.02931-.01466-.01465-.13184a3.72178,3.72178,0,0,1,.05859-.542.31876.31876,0,0,0-.04394-.26367.38468.38468,0,0,1-.01465-.293.39818.39818,0,0,0-.0293-.30762.14119.14119,0,0,1,0-.20508.17889.17889,0,0,0,.0293-.23437.71722.71722,0,0,0-.04395-.07324.45307.45307,0,0,0-.0293-.08789.45722.45722,0,0,1-.05859-.35157,1.213,1.213,0,0,0,.01465-.21972v-.21973a.84659.84659,0,0,0-.08789-.55664.62452.62452,0,0,1-.0586-.32227,2.17,2.17,0,0,1-.01464-.30761q-.01466-.20508-.01465-.32227a.20446.20446,0,0,0-.10254-.17578q-.10254-.05859-.23438.05859l-.13183.11719q-.45411-.20508-.41016-.14648a.16726.16726,0,0,0-.19043-.07325.87639.87639,0,0,1-.11719.0293,1.91549,1.91549,0,0,0-.8496.19043q.07323-.0293-.33692.21973-.07325-.249-.13183-.27832a.5347.5347,0,0,0-.293.04394,3.3065,3.3065,0,0,1-.76172.13184.22566.22566,0,0,0-.23438.23437q-.01464.13183-.11718.07325a.58708.58708,0,0,1-.36622-.46875.24113.24113,0,0,0-.01464-.07325l-.0293-.01465a.54577.54577,0,0,1-.293.36622.22612.22612,0,0,1-.33691-.13184.44574.44574,0,0,0-.249-.249q-.17577-.07324-.01465-.19043.01465-.01466.46875-.30762.16114-.10254.14649-.20508-.0293-.19043.14648-.17578a.114.114,0,0,0,.10254-.04395,2.9049,2.9049,0,0,1,.68848-.48339,10.19135,10.19135,0,0,1,1.02539-.42481,7.44082,7.44082,0,0,0,.9375-.293,8.81236,8.81236,0,0,1,.89355-.27832.18682.18682,0,0,1,.17579,0q.0293.01466.02929.0293,0,.05859-.01465.05859a.42694.42694,0,0,1-.20507.07325,3.20449,3.20449,0,0,0-.62989.249l.23438.01465q.05859,0,.05859.01465.044.05859-.0293.08789a.1802.1802,0,0,1-.07324.02929.159.159,0,0,0-.05859.0293q-.04395.0293-.04395.05859.01466.05861.0586.04395.19042-.01465.21972-.01465.19044-.05859.73243-.20508.46875-.13184.73242-.20508a1.7559,1.7559,0,0,1,.23437-.05859h.01465v-.04394l-.01465-.01465v-.0293a.90811.90811,0,0,1-.249,0,.14725.14725,0,0,1-.16113-.11719.22.22,0,0,1,.04394-.20508.51063.51063,0,0,1,.26367-.14648.10487.10487,0,0,1,.11719.05859.08112.08112,0,0,1-.01465.11719l-.08789.07324.01465.04395q.01466.01464.04395,0,.73242-.16113.89355-.21973a2.62865,2.62865,0,0,0,.26367-.13183.47782.47782,0,0,1,.39551-.20508.31846.31846,0,0,1-.13184.11719.24786.24786,0,0,0-.10254.10253h.0293q.10254.01466.11719.0879,0,.04393-.05859.07324-.0879.0293-.42481.14648a2.09643,2.09643,0,0,0,.92285.11719q0-.01466-.07324-.05859-.10254-.05861-.0293-.11719a.579.579,0,0,1,.52735-.13184.60055.60055,0,0,0,.32226,0q-.05859.01466.58594-.13183a1.31437,1.31437,0,0,0,.4834-.17579.21234.21234,0,0,1,.30762,0,.132.132,0,0,0,.14648,0q.791-.32226.62988-.21972a.86755.86755,0,0,1,.39551-.10254.31969.31969,0,0,0,.293-.11719q.04395-.04395.27832-.01465.16113.01465.20508-.05859.16113-.27832.65918-.19043.01464,0,.33691.08789a1.25357,1.25357,0,0,1,0,.4834q-.05859.11718.08789.26367a1.6279,1.6279,0,0,0,.26367.13184A.75235.75235,0,0,1,1843.23633,371.84229Zm-11.11817,2.68066.01465.01465v.04394a.62764.62764,0,0,1-.26367.17578.15094.15094,0,0,1-.05859-.02929.01831.01831,0,0,1,0-.0293A.439.439,0,0,1,1832.11816,374.523Zm2.44629-.0293a.08443.08443,0,0,1,.0586.0293.224.224,0,0,1,.07324.16113q-.01466.13184-.17578.11719-.05859-.01466-.0293-.04395a.30308.30308,0,0,0,.0293-.20507A.05745.05745,0,0,1,1834.56445,374.49365Zm.13184-2.87109a.111.111,0,0,1-.14649.07324.04094.04094,0,0,1-.02929-.05859q.05859-.10254.14648-.07325A.041.041,0,0,1,1834.69629,371.62256Zm.27832,10.00488q.0293,0,.04394.04395.02931.07323-.04394.07324l-.04395-.0293Q1834.90137,381.64208,1834.97461,381.62744Zm.0293,1.40625q0-.05859.07324-.07324a1.25253,1.25253,0,0,1,.13183-.01465q.0879,0,.10254.04395.01466.05859-.08789.08789-.01464,0-.13183.01465Q1835.0039,383.07764,1835.00391,383.03369Zm.21972-.57129q-.0293.07325-.07324.0586t-.04394-.04395a.066.066,0,0,1,.08789-.05859Zm.04395,2.8711a.07875.07875,0,0,1-.07324-.10254q.01464-.02929.07324-.23438.10254.0293.16113.20508.0293.07324-.05859.11719A.12326.12326,0,0,1,1835.26758,385.3335Zm.08789-3.3545a.0579.0579,0,0,1-.08789.0293q-.0293-.01464-.01465-.05859.01465-.0586.07324-.0293Q1835.34082,381.92041,1835.35547,381.979Zm.80566-10.66406q-.05859.01466-.05859-.0293a.07851.07851,0,0,1,.08789-.05859.041.041,0,0,1,.0293.05859A.15889.15889,0,0,1,1836.16113,371.31494Zm1.80176,10.47363a.04224.04224,0,0,1,.0293.01465q.05859.02929.01465.21973-.02931.10254-.07325.11719a.19932.19932,0,0,1-.02929-.13184Q1837.91894,381.81787,1837.96289,381.78857Zm.14649-10.97168a.18215.18215,0,0,1-.10254,0q-.07325,0-.01465-.05859a.36934.36934,0,0,1,.08789-.04394q.05859,0,.07324.02929Q1838.18262,370.7876,1838.10938,370.81689Z" fill="#666"/>
      <path d="M1843.9043,378.46338q.08789,0,.08789.10254-.04395.05859-.0586.05859-.17577.044-.10254-.11719A.08611.08611,0,0,1,1843.9043,378.46338Zm5.93261,10.51758a.5897.5897,0,0,1,.26368.10254.12172.12172,0,0,1,.04394.11718q-.0293.10254-.10254.08789a1.36936,1.36936,0,0,1-.82031-.30761.23457.23457,0,0,0-.249-.11719q-.0879.0293-.10254.07324-.01466.0293.07324.08789.19043.10254.0293.21973-.17578.13184-.14649.10254-.01464.01464-.11719.14648a1.88074,1.88074,0,0,1-.19043.0586q-.16113.08788-.01464.14648a5.72584,5.72584,0,0,0,.57129.23438q.293.05859.43945.498.08788.21973-.14649.19043-.08789-.01464-.23437-.04394-.16113-.01465-.23438-.0293-.14648-.01466-.16113.07324-.0293.26367-.293.17578a.2108.2108,0,0,0-.27832.14649.21352.21352,0,0,0-.02929.08789.45469.45469,0,0,1-.0293.08789.48531.48531,0,0,1-.30762.27832,2.512,2.512,0,0,0-.35156.13184.66131.66131,0,0,1-.67383-.01465.59857.59857,0,0,0-.27832-.07325.47768.47768,0,0,1-.26367-.10253.35121.35121,0,0,1-.11719-.249.8342.8342,0,0,0-.07324-.27832q-.23437-.38085.13183-1.11328-.05859.10254.19043-.26367a.36447.36447,0,0,0,.0586-.41016.19179.19179,0,0,1,.04394-.249,1.09636,1.09636,0,0,0,.293-.4834.44123.44123,0,0,1,.38086-.30762,2.35291,2.35291,0,0,1,.23438-.02929q.20508-.0293.19043-.01465a.42407.42407,0,0,0,.16113-.11719.12251.12251,0,0,1,.16113-.04394,1.86072,1.86072,0,0,0,.293.14648q.13183.07324.11719-.10254a.93654.93654,0,0,1-.0293-.14648.44423.44423,0,0,0-.01465-.13184q0-.05859.08789-.0293a.193.193,0,0,1,.10254.14649A1.95521,1.95521,0,0,0,1849.83691,388.981Zm4.10157-16.21582q-.01466.14648-.20508.11718-.19043-.01464-.19043.14649a1.79729,1.79729,0,0,1-.07324.57129,9.12037,9.12037,0,0,1-.65918,1.74316,1.7144,1.7144,0,0,1-.14649.23438,2.1824,2.1824,0,0,0-.4541.77636q-.23437.6299-.21973.58594a.65828.65828,0,0,1-.4248.42481,4.28888,4.28888,0,0,0-.82031.61523q-.14649.10254-1.3916,1.50879a3.32911,3.32911,0,0,0-.61524,1.333q.0293-.11719-.16113.791a1.23463,1.23463,0,0,0-.01465.42481q.10254.9375.10254,1.14258a.66348.66348,0,0,1-.20508.62988.60433.60433,0,0,0-.14648.21973.78383.78383,0,0,1-.14649.26367q-.07324.07325,0,.26367a1.19261,1.19261,0,0,1-.23437.92285q-.044.08788-.10254.08789-.98145-.07324-.80567-.0293-.17577-.04393-.19043-.17578-.14648-.8789-.14648-.84961-.01465-.13183-.0293-.48339a4.27925,4.27925,0,0,0-.04394-.46875,1.25849,1.25849,0,0,1,.02929-.33692q.10254-.61524.16114-.98144a.98555.98555,0,0,1,.14648-.39551,3.48329,3.48329,0,0,0,.38086-.92285,1.79777,1.79777,0,0,1,.30762-.64453,1.43711,1.43711,0,0,0,.35156-.80567q.01466-.0293.35156-.60058a7.5454,7.5454,0,0,1,.92285-1.21583q.57129-.62988,1.25977-1.377-.13183.14649.35156-.32226.17578-.16115.16114-.27832a.33838.33838,0,0,1,.19043-.35157,1.04425,1.04425,0,0,1,.17578-.16113.58349.58349,0,0,0,.20508-.60059,3.474,3.474,0,0,0-.38086-1.11328.92557.92557,0,0,0-.42481-.36621,3.50254,3.50254,0,0,0-.89355-.16113q-.249-.02929-.27832.19043a.306.306,0,0,1-.26368.249q-.3076.0586-.68847.60059a.35015.35015,0,0,0-.0293.36621.55475.55475,0,0,1-.16113.60059,2.00942,2.00942,0,0,1-.20508.20507q-.13184.13184-.23438-.05859a.3197.3197,0,0,1-.04394-.23438.648.648,0,0,0-.11719-.48339l-.08789.01464-.26367.10254q-.10254-.05859-.05859-.30761a3.58424,3.58424,0,0,1,.30761-.95215,1.03527,1.03527,0,0,0,.13184-.35156,2.17752,2.17752,0,0,1,.14648-.43946,1.04567,1.04567,0,0,0,.10254-.46875.73494.73494,0,0,1,.20508-.36621,3.89648,3.89648,0,0,1,.4834-.52734,4.19854,4.19854,0,0,0,.65918-.62988.44994.44994,0,0,1,.23437-.13184.89774.89774,0,0,1-.07324.11719q-.04395.11718.0586.10254.77635-.16115.60058-.14649a8.98255,8.98255,0,0,1,1.18652-.07324,1.9522,1.9522,0,0,1,1.46485.60059.725.725,0,0,1,.19043.32226,1.12279,1.12279,0,0,0,.39551.68848.2827.2827,0,0,1,.07324.38086q-.10254.19043.14648.17578Q1853.98243,372.47217,1853.93848,372.76514Zm-5.09766,16.88965a.08607.08607,0,0,1-.07324-.04395.5769.5769,0,0,1-.0586-.11719,1.21394,1.21394,0,0,0,.13184.0293.09311.09311,0,0,1,.05859.07324Q1848.89941,389.64014,1848.84082,389.65479Zm.20508-2.06543q-.10254-.16115,0-.249.01464-.01464.20508-.13183.11718.01464.10254.08789a.82427.82427,0,0,1-.0586.23437q-.044.14649-.14648.14649Q1849.08985,387.67725,1849.0459,387.58936Zm.05859.4248a.07876.07876,0,0,1,.10254-.07324q.13184.04394.05859.23437-.02929.0879-.10253.0293A.14266.14266,0,0,1,1849.10449,388.01416Zm.14649-3.73535a.07768.07768,0,0,1-.08789-.08789q0-.07325.08789-.07324t.08789.07324Q1849.32422,384.27881,1849.251,384.27881Zm.05859-.5127-.07324.04395q-.07324,0-.04395-.08789.0293-.05859.07324-.0586Q1849.33887,383.67823,1849.30957,383.76611Zm.70313-13.74023a2.92127,2.92127,0,0,0-.26368.26367q-.01464-.32226.20508-.36621a.111.111,0,0,1,.10254.01465Q1850.11523,369.99658,1850.0127,370.02588Zm-.19043,20.63965q.10253-.02929.10253.05859a.05179.05179,0,0,1-.05859.05859q-.08788.01466-.08789-.05859Zm.542-19.59961q.0293,0,.61523-.26367a1.46516,1.46516,0,0,0-.9375-.01465q-.16113.05859-.01465.19043A.26557.26557,0,0,0,1850.36426,371.06592Zm1.3916.13183q.11718-.26367-.10254-.35156a.37182.37182,0,0,0-.46875.08789,2.3181,2.3181,0,0,1-.30762.21973,4.68845,4.68845,0,0,1,.80567.21973A.73875.73875,0,0,1,1851.75586,371.19775Zm1.24512.20508q.04393-.04394,0-.13183a.57871.57871,0,0,0-.4834-.36621q.27831.39551.32226.4541Q1852.92774,371.47607,1853.001,371.40283Zm1.18652,1.81641a.87248.87248,0,0,1,.07324.32226q-.01464.16115-.11719.17579-.249.04393-.32226-.14649a.2916.2916,0,0,1,.20508-.41016A.11531.11531,0,0,1,1854.1875,373.21924Zm-.14648.791a.128.128,0,0,1,.08789.14649q-.02929.08788-.08789.21972a.05937.05937,0,0,1-.07325.0293.09315.09315,0,0,1-.05859-.07324v-.17578Q1853.92384,373.95166,1854.041,374.01025Z" fill="#666"/>
      <path d="M1860.56836,373.146a1.28788,1.28788,0,0,1,.27832,1.06933,3.19179,3.19179,0,0,0-.542-.35156q-.01465.01466-.14649.52734a4.06967,4.06967,0,0,0-.10254.498.93516.93516,0,0,1-.17578.52734,1.05848,1.05848,0,0,0-.21972.61524,11.76174,11.76174,0,0,1-.46875,1.94824,2.14716,2.14716,0,0,1-.17579.38086q-.08788.13184-.19042,0a1.67769,1.67769,0,0,1-.41016-.9668q0-.64452-.07324-2.62207a3.94174,3.94174,0,0,0-.07325-.65918.375.375,0,0,0-.38085-.35156l-.30762.0293q-.61524.04394-.67383.04394a.57041.57041,0,0,1-.4541-.20508.51464.51464,0,0,1-.10254-.48339,2.75611,2.75611,0,0,1,.26367-.55664.67692.67692,0,0,1,.46875-.36622q.20508-.04393.13184-.21972a1.62823,1.62823,0,0,1,.19043-.9375.23188.23188,0,0,1,.26367-.13184,2.95922,2.95922,0,0,1,1.50879.42481.84781.84781,0,0,0,.19043.07324,1.14536,1.14536,0,0,1,.58593.55664,3.62909,3.62909,0,0,1,.32227,1.18652Q1860.49513,373.04346,1860.56836,373.146Zm-3.63281.99609q.11718-.01466.14648.11719,0,.11718-.13183.11718-.21974.01466-.17579-.13183Q1856.80372,374.15675,1856.93555,374.14209Zm3.86718,1.21582.07325-.05859.04394.08789-.08789.43945A.55978.55978,0,0,1,1860.80273,375.35791Zm5.6543-1.93359a.45434.45434,0,0,1-.14648.4248.59357.59357,0,0,0-.21973.43945q-.02929.249-.10254.64454-.08789.48339-.11719.62988a.89823.89823,0,0,1-.13183.38086.20814.20814,0,0,0-.04395.19043,1.04746,1.04746,0,0,1-.23437.92285,3.3584,3.3584,0,0,0-.41016.98144,3.1118,3.1118,0,0,1-.16113.4834q-.07325.11719-.17578.08789a.17394.17394,0,0,1-.08789-.10254,2.04833,2.04833,0,0,1-.0586-.96679q.01466-.07325-.02929-.08789-.07325-.02929-.10254.07324.05859-.21973-.0293.20508-.10254.62988-.14648.82031a1.00985,1.00985,0,0,1-.10254.21973.04693.04693,0,0,1-.04395.02929.33753.33753,0,0,1-.08789-.04394,3.226,3.226,0,0,1-.04394-.42481,15.67785,15.67785,0,0,0,.08789-1.83105,2.37509,2.37509,0,0,0-.14649-1.01074,2.508,2.508,0,0,0-.14648-.60059,1.54929,1.54929,0,0,0-.11719-.33691.21393.21393,0,0,0-.293-.13184,2.342,2.342,0,0,1-1.49414-.20508q-.791-.30762-.14648-.98144.65918-.68848.46875-.58594.05859-.02929.04394-.14649a1.01535,1.01535,0,0,1,.0293-.20507,1.01534,1.01534,0,0,0,.0293-.20508,1.59334,1.59334,0,0,1,.51269-1.02539q.08789-.10254.07324-.07324a8.35721,8.35721,0,0,1,.76172-.43946.06228.06228,0,0,1,.05859,0q.791.20508.87891.23438.77637.38085.64453.32226-.04394-.01464.13184.07325a1.44746,1.44746,0,0,1,.9668,1.23046Q1866.29589,372.1499,1866.457,373.42432Z" fill="#666"/>
    </g>
  </g>
</svg>
