<svg id="P20" xmlns="http://www.w3.org/2000/svg" viewBox="0 0 1920 1080">
  <title>P20_2</title>
  <g id="_2" data-name="2">
    <g>
      <path d="M282.70605,529.5q-.64452,0-1.29638-.95947a3.85418,3.85418,0,0,1-.65186-2.21924,6.42473,6.42473,0,0,1,1.04-3.31787q1.04-1.72119,2.03613-1.72119v.62988q-1.06934.62988-1.27441,2.7832a2.36322,2.36322,0,0,0,1.88965,2.3584v.61524Zm5.1709,0q-.64452,0-1.29638-.95947a3.85418,3.85418,0,0,1-.65186-2.21924,6.42473,6.42473,0,0,1,1.04-3.31787q1.04-1.72119,2.03613-1.72119v.62988q-1.06934.62988-1.27441,2.7832a2.36322,2.36322,0,0,0,1.88965,2.3584v.61524Z" fill="#e6e6e6"/>
      <path d="M293.93555,540.36914a1.06069,1.06069,0,0,1-.249,0l-.07324-.01465.01465-.01465a.40086.40086,0,0,0,.08789-.01464h.10254a.30575.30575,0,0,1,.19043,0Q294.06738,540.3545,293.93555,540.36914Zm-.16114-2.69531-.04394-.01465.08789-.01465q.0293.01465.0293.0293Zm0-.08789-.02929-.0293h.07324a.04221.04221,0,0,1,.0293.01465A.24088.24088,0,0,0,293.77441,537.58594Zm.07325-.10254q-.10254,0-.08789-.01465.01464-.04395.08789-.04395l.05859.0293Zm8.81836,5.49316a.31285.31285,0,0,1,.19043.07324.11936.11936,0,0,1-.0879.0293H302.666q-.13185.04395-.13184.07324-.02929.10254-.19043.10254-.16113.01465-.4248.01465-.33691.01465-.43946.01465h-.05859a.11584.11584,0,0,0-.07324.01465h-.11719q-.21974-.05859-.19043-.07324a.33941.33941,0,0,1-.07324.04394.5688.5688,0,0,0-.07325.0293,2.00858,2.00858,0,0,1-.38085.02929,2.96463,2.96463,0,0,0-.39551.01465h-.4834a1.524,1.524,0,0,0-.46875.0586.23818.23818,0,0,1-.11719,0,4.0489,4.0489,0,0,0-.835.04394q-.20508.0293-.23437.0293-.17579,0-.77637.04394h-.26367q-.13184-.01464-.16114.13184a.4502.4502,0,0,0-.30761-.10254q-.27833.01466-.71778.0293a.29556.29556,0,0,0-.19043.05859q-.01464.01465,0,.04395l.0293.02929h.0293q.10254,0,.33691-.01464a1.04528,1.04528,0,0,1,.35156,0,1.06643,1.06643,0,0,1,.46875-.04395v0q.044.05859.07325.04395a.40725.40725,0,0,1,.26367-.0586,1.20184,1.20184,0,0,0,.249-.04394,2.008,2.008,0,0,1,.30762-.0293h.43945q.26367,0,.42481-.01465a4.06539,4.06539,0,0,1,.65918-.0293.44314.44314,0,0,1,.14648.04395.10519.10519,0,0,1,.04395.07324q.01464.04395-.01465.0586a.11937.11937,0,0,1-.08789.02929q-.70312.04395-1.04.08789h-.16114a1.56005,1.56005,0,0,0-.16113-.01464q-.14647.01464-.52734.04394-.33691.0293-.52735.0293-.02929,0-.82031.01465-.57129.01464-.498.01464a.13932.13932,0,0,0-.16114.08789.15481.15481,0,0,1-.19043.0879.17054.17054,0,0,1-.04394-.0293q-.01466-.04395.02929-.04395.01466,0,.11719-.01465a.51111.51111,0,0,0-.23437-.07324q-.498-.02929-.38086-.02929a.54488.54488,0,0,1-.13184-.01465.16584.16584,0,0,1-.05859-.0586q-.05861-.11718-.10254-.11718a.96818.96818,0,0,1-.49805-.04395.17029.17029,0,0,1-.04394-.0293.01294.01294,0,0,1-.01465-.01464v-.04395q.14647-.10254.19043-.13184.14647-.05859.16113-.10254,0-.04394.04395-.01464.05859.05859.19043,0a.99362.99362,0,0,1,.27832-.08789.6307.6307,0,0,0,.11718-.01465.336.336,0,0,1,.10254-.0293q.14649-.01464.21973-.27832-.27833.0293-.293.0293-.04395,0-.01465.05859a.08483.08483,0,0,0,.0586.01465.08481.08481,0,0,1,.05859.01465q0,.04394-.05859.05859a2.83752,2.83752,0,0,0-.36622.10254l-.13183.01465q-.07324,0-.249-.01465a.909.909,0,0,0-.23437,0q-.05859.01465-.10254-.07324-.044-.07324-.01465-.10254a.18078.18078,0,0,1,.10254-.04395q.61524-.11718.68848-.13183a.88745.88745,0,0,0,.36621-.10254.20159.20159,0,0,1,.21973-.01465.31843.31843,0,0,0,.17578.01465q.45409-.05859,1.01074-.11719a.18233.18233,0,0,1,.10254,0,.27056.27056,0,0,0,.19043-.0293q.01464,0,.11719-.01464h.07324l-.04395-.0586a.04691.04691,0,0,0-.04394-.02929q-.20508-.05861-.0586-.16114a.37257.37257,0,0,0,.08789-.08789l-.01464-.01465a.55319.55319,0,0,0-.0586-.19043.5611.5611,0,0,1-.04394-.17578l-.04395-.01465q-.05859-.04393.0293-.04394l.01465-.01465a.05969.05969,0,0,1,.01464-.04394q-.13184-.01465-.07324-.04395a.34971.34971,0,0,0,.08789-.17578.36314.36314,0,0,1,.04395-.10254l-.0293-.26367h-.01465q-.04393,0-.04394-.01465h.04394v-.04395a.04217.04217,0,0,0-.01465-.02929q-.249-.01465-.10253-.0586.05859-.01464.05859-.04394a.041.041,0,0,1,.0293-.0586v-.04394q-.05861-.04395.01464-.05859a.46343.46343,0,0,0,0-.39551,1.36252,1.36252,0,0,1,.0293-.73242.45008.45008,0,0,0,.01465-.249q-.04395-.07325-.0293-.10254a.79273.79273,0,0,0,.04395-.27832q-.249-.05859-.07324-.14648.08788-.04395-.0293-.08789-.249-.0879-.20508-.23438.01466-.04393,0-.05859a2.964,2.964,0,0,0-.10254-.41016.53607.53607,0,0,1,0-.249.91681.91681,0,0,0,.0293-.249v-.249q.0293-.21972.0293-.23437h0q0-.0293.05859-.04395.07325-.0293.07324-.04394.01466-.01466-.04394-.04395t-.0293-.04394l.0293-.01465a.279.279,0,0,1,.20507-.01465q.0879.01465.10254-.01465.01466-.044-.10254-.07324-.14648-.02929-.16113-.08789-.01464-.07324.10254-.0586a.6469.6469,0,0,1,.11719.04395.1522.1522,0,0,0,.11719.01465.19465.19465,0,0,0,.10253-.01465l.01465-.01465q0-.01464-.02929-.01465-.19044,0-.16114-.20508a6.27248,6.27248,0,0,1,.14649-.67382.22208.22208,0,0,0-.07324-.27832q-.0879-.05861-.0293-.13184.13184-.19042.13183-.13184a.11994.11994,0,0,0-.04394-.07324q-.05859-.05859-.05859-.08789a1.15556,1.15556,0,0,1-.01465-.33691.13129.13129,0,0,1,.08789-.08789q-.05859.02929.11719,0,.05859-.01466.04394-.08789a.48132.48132,0,0,0-.11719-.01465.40294.40294,0,0,1-.16113,0q-.07325-.04395.05859-.07324h.19043a.14387.14387,0,0,0-.13183-.07325q-.0879,0-.10254-.10254-.02929-.27831-.0293-.30761,0,.05859.01465-.11719-.05859-.0293-.04394-.01465a.19091.19091,0,0,1-.14649-.16113q-.01464-.02929.08789-.04395.14649-.01464.01465-.04394t-.13184-.07324l-.01464-.01465a2.43032,2.43032,0,0,1-.01465.293,2.46355,2.46355,0,0,0,0,.38086.44186.44186,0,0,1-.10254.32226.52809.52809,0,0,1-.08789-.26367q0-.13184-.01465-.43945-.01466-.27832-.01465-.43946v-.07324q-.0293-.01465,0-.01465V532.957q-.16113-.01464-.04394-.04394.07323-.02931-.0293-.04395-.13184-.0293-.11719-.07324.04395-.14649.07324-.249.01466-.044.11719-.07325V532.415a.11235.11235,0,0,0,.01465-.04395.04217.04217,0,0,1-.01465-.02929.151.151,0,0,1,.0293-.0586.14235.14235,0,0,0,.02929-.07324v-.01465a1.53589,1.53589,0,0,0-.02929-.26367,2.06724,2.06724,0,0,1-.0293-.26367.40809.40809,0,0,0-.08789-.0293h.04395q-.02931-.68847-.04395-.86426,0-.10254.01465-.46875.02929-.60059.0293-.52734a2.85334,2.85334,0,0,1,.05859-.68848q.05859-.01464.07324.01465l.0293.07324q.04395.02931.0293.01465.05859.0293.05859-.02929.01464-.23437-.08789-.27832a.29525.29525,0,0,1-.14649-.293q-.01464-.293-.01464-.38086v-.14649q-.01466-.8496-.04395-.76172a.89943.89943,0,0,0,.0293-.35156.95927.95927,0,0,1,.02929-.36621.24113.24113,0,0,0-.01464-.07324,3.00944,3.00944,0,0,1,.04394-1.04.7009.7009,0,0,0,0-.41016l.30762-.30761a1.32087,1.32087,0,0,1,.23437-.33692q-.11718,0-.26367.01465a1.213,1.213,0,0,1-.21973.01465h-.23437q-.14649.01464-1.61133-.08789a.43067.43067,0,0,1-.35156-.249q-.0879-.13185,0-.13184a3.40592,3.40592,0,0,1,.39551.01465.80537.80537,0,0,0,.21972,0,1.17508,1.17508,0,0,1,.26367,0,2.58513,2.58513,0,0,0-.30761-.10254q-.0879-.02929-.293-.08789-.20508-.04395-.30762-.07324a.09437.09437,0,0,1-.04394-.0586q-.0293-.04395,0-.05859a.35983.35983,0,0,1,.13183-.0293,6.76567,6.76567,0,0,1,1.53809-.0293,7.17889,7.17889,0,0,0,1.11328-.04394,2.06733,2.06733,0,0,0,.49805-.08789h.01465a1.67579,1.67579,0,0,0,.58593-.01465,1.04835,1.04835,0,0,0-.58593.01465h-.01465a.39623.39623,0,0,0-.27832-.04395.85922.85922,0,0,1-.293-.02929.23761.23761,0,0,1,.20508-.10254.82132.82132,0,0,0,.27832-.04395q.07323-.01464.08789-.11719.04393-.23437.27832-.02929l.04394.04394q.02929.0293.04395.0293.10254.08789.05859-.05859-.05859-.19044.044-.14649a4.2577,4.2577,0,0,0,.542.01465q.11718,0,.32226-.01465.23438-.01464.32227-.01465a.1791.1791,0,0,1,.16113.10254q.07324.13183.01465.10254a.16768.16768,0,0,0,.19043,0v-.0293a.54972.54972,0,0,1,0-.19043q.01466-.0293.08789-.01464a1.16008,1.16008,0,0,0,.35156-.0293.75742.75742,0,0,1,.35157-.04395.15754.15754,0,0,0,.08789-.02929.64679.64679,0,0,1,.36621-.04395.65574.65574,0,0,0,.19043-.01465q.20508-.17577.58594.0586l-.23438.36621q-.0293-.01465.41016.11719.05859.0293.02929-.0586a.15311.15311,0,0,1,.0293-.16113.06222.06222,0,0,1,.05859,0q.044.01464.0586.08789.07324.293-.08789.38086a1.90671,1.90671,0,0,1-.27832.08789.34979.34979,0,0,0-.17578.08789h-.01465q-.11719-.044-.16114.04395.0586-.01466.16114-.04395l.01465.01465v-.01465a.31377.31377,0,0,0,.21972.01465q.10254-.01465.27832-.0293a.09857.09857,0,0,1,.08789.04395.0841.0841,0,0,1-.01465.10254.601.601,0,0,1-.11718.11718q-.38086.19044-.58594.27832-.41016.17579-.35156.14649a1.68264,1.68264,0,0,1-.41016.05859,1.749,1.749,0,0,0-.4248.0586l-.14649-.01465h-.20508a4.89994,4.89994,0,0,1-.70312.02929q.01464.07324.0293.13184.19043.0293.14648.10254-.02929.05859-.05859.13184a5.07271,5.07271,0,0,1,.04394.51269q0,.08788.01465.249v.249l.0293.05859q.14648.4834.17578.60059a.505.505,0,0,1-.01465.32226.64831.64831,0,0,0-.07324.26367q-.01466.10254-.0586.32227a1.21182,1.21182,0,0,0-.01464.16113.59857.59857,0,0,0,0,.26368,7.45819,7.45819,0,0,1-.0879,1.333,6.07123,6.07123,0,0,0-.07324.95215q0,.07324-.05859.64453a4.24693,4.24693,0,0,0-.01465.92285,3.0322,3.0322,0,0,1,0,.73243q.01466.0293,0,.04394a.4004.4004,0,0,1-.01465.08789q0,.05859-.01465.0586h.01465q.0879,0,.10254.02929.01466.05859,0,.0586.10254.07323,0,.11718a.20394.20394,0,0,1-.08789.01465.1124.1124,0,0,1-.04395-.01465q-.0293.16115-.04394.27832.05859.01465.13184.0293.10254.01466.04394.11719l-.07324-.01465a.80435.80435,0,0,0-.10254-.04395,1.36711,1.36711,0,0,0,.01465.45411,1.49688,1.49688,0,0,0-.07324.542,1.84484,1.84484,0,0,1-.0586.542.21706.21706,0,0,0,0,.19043.31129.31129,0,0,1,0,.26367.41848.41848,0,0,0-.01465.293.3554.3554,0,0,1,0,.14649,4.49022,4.49022,0,0,0-.08789.82031v.51269a.25049.25049,0,0,0,.11719-.04394.93943.93943,0,0,1,.30762-.04395.14121.14121,0,0,1,.07324.0586.18571.18571,0,0,0,.08789.04394q.19042.05859-.05859.11719a.22406.22406,0,0,1-.11719-.04395A.23071.23071,0,0,0,298.88672,537a.16708.16708,0,0,0-.0586.08789.08484.08484,0,0,1-.01464.05859q-.05861.05861.10254.10254.01464,0,.11718.01465-.05859.07324-.04394.10254.04393.08789-.0586.14649-.05859.0293-.04394.04394a.21157.21157,0,0,1,.07324.17578.25447.25447,0,0,0,.08789.17578.16633.16633,0,0,1,.04395.21973.78083.78083,0,0,0-.07325.46875.11237.11237,0,0,1,.01465.04394,1.98452,1.98452,0,0,0-.07324.32227.95391.95391,0,0,0,0,.33691.08331.08331,0,0,1-.05859.10254q-.05861.01466-.0586.04395a.50678.50678,0,0,1-.05859.249.35935.35935,0,0,0-.01465.26367q.05859.10254-.10254.17579a.225.225,0,0,1-.16113,0l-.07324-.01465q-.07324.01464-.04395.02929a.33007.33007,0,0,0,.11719.0586q.27833.08789.13184.20508l-.249.16113a.17054.17054,0,0,1-.04394.0293l.01465.08789a.15845.15845,0,0,0,.07324.05859q.26367.11718.17578.249-.0293.0293,0,.07325a.18567.18567,0,0,1,0,.17578.06635.06635,0,0,0,.01465.07324.16821.16821,0,0,1-.0293.20508q-.10254.17577-.08789.19043l-.07324.04394a3.55424,3.55424,0,0,1,.17578.43946.37748.37748,0,0,1,0,.293q.30762-.01464.542-.02929.249,0,.62988.02929.39552.02931.45411.0293.0293,0,.05859.04395.01464.04393-.01465.05859a.63229.63229,0,0,1-.21973.01465,6.56329,6.56329,0,0,1-.89355-.01465,3.73064,3.73064,0,0,0-.42481.0293.56334.56334,0,0,1-.19043.01465.27668.27668,0,0,0-.08789.01464l-.05859.0293a.0638.0638,0,0,0,.01465.08789.426.426,0,0,0,.20508.16113.104.104,0,0,0,.08789-.01464q.0293-.01466.01465-.11719-.01466-.04395,0-.0586a.04222.04222,0,0,1,.02929.01465.41112.41112,0,0,0,.36621.14649,1.21265,1.21265,0,0,0,.27832-.0293h.0586a1.24421,1.24421,0,0,0,.68847-.04394,3.51294,3.51294,0,0,1,.55664-.07325.40534.40534,0,0,0,.16114-.04394.60573.60573,0,0,1,.35156-.04395q.04395,0,.11719.08789.10254.14649.17578.16114a1.47056,1.47056,0,0,0,.4248.04394Q302.50488,542.97657,302.666,542.97656Zm-8.14454,1.01074a.16125.16125,0,0,1,.19043.04395q-.14648.01465-.16113.01465a.04692.04692,0,0,1-.04394-.0293Q294.49219,543.98731,294.52148,543.9873Zm.39551.17579q.04395-.04395.0586-.01465.04394.05859-.0293.08789a.73949.73949,0,0,1-.17578.08789q-.02929.01464-.0586-.0293a.06381.06381,0,0,1,.01465-.08789l.0293-.01465Q294.94629,544.14845,294.917,544.16309Zm-.10254-20.85938q-.04393.01466-.08789-.04394a.029.029,0,0,1,.01465-.04395q.04395-.01466.08789.04395Zm.65918,19.70215q.01466-.01465,0-.04395a.02589.02589,0,0,0-.02929-.02929h-.10254l-.04395.02929v.01465q.01466.044.0293.04395Q295.42969,543.06445,295.47363,543.00586Zm.17578,1.18652a.41771.41771,0,0,1,.14649-.02929.88791.88791,0,0,0,.07324.05859.23048.23048,0,0,1,.05859.08789.5142.5142,0,0,1-.21972.08789q-.27832.0293-.249.01465-.05859.01465-.11718-.08789-.04395-.0879.01465-.08789a.24088.24088,0,0,1,.07324.01465Q295.59082,544.28027,295.64941,544.19238Zm.41016-.20508q.01466,0,.04395.0293.01464.02929,0,.04395a.08151.08151,0,0,1-.07325.08789q-.02929,0-.23437.01465-.1172-.13184-.11719-.11719a.13008.13008,0,0,1-.01465-.0586q0-.01464.0293-.01464a.11248.11248,0,0,1,.04394.01464.21923.21923,0,0,0,.26368,0Q296.01562,543.97266,296.05957,543.9873Zm-.0293-3.208a.11593.11593,0,0,1-.07324-.01465q-.07324-.02929.044-.0586h.13183l.01465.0293q-.0293.04395-.04394.04395A.09444.09444,0,0,1,296.03027,540.7793Zm.08789-17.37305q-.01464,0-.04394-.04395-.01466-.04394.01465-.05859a.50657.50657,0,0,1,.27832.01465l.05859.04394-.0293.04395Zm.17579,16.34766q.08788,0,.07324.01464a.10519.10519,0,0,1-.04395.07325q-.10254-.0293-.07324-.07325Q296.25,539.75391,296.294,539.75391Zm.08789,2.7539q-.05861,0-.01465-.01465a.44455.44455,0,0,1,.13183-.01464q.07325.01464.01465.02929A.29924.29924,0,0,1,296.38184,542.50781Zm2.68066,1.4502a.15908.15908,0,0,0,.05859.02929.08807.08807,0,0,1,.0586.0586q0,.044-.0586.04394h-.249a1.32874,1.32874,0,0,0-.32227.01465q-.23437.01465-.96679.0586a2.74708,2.74708,0,0,1-.32227.01464q-.11718,0-.14648.07325-.04395.07323-.17578.04394a1.72438,1.72438,0,0,1-.32227-.10254q-.0293-.02929-.04394.0293-.02931.10254-.10254.01465l-.11719-.16113q0-.07324.0293-.0586-.044-.01464.36621-.04394a9.25081,9.25081,0,0,1,.96679-.0586q.10254,0,.11719.0293a.16338.16338,0,0,0,.21973.0293q.04393-.044.13183,0,.21974.08789.32227-.0586.0293-.05859.08789-.01465a.12523.12523,0,0,0,.16113,0,.20828.20828,0,0,1,.11719-.02929A.17734.17734,0,0,1,299.0625,543.958Zm-2.59277-8.48145q-.05861-.02929-.0586-.13183a.1632.1632,0,0,1,.04395-.16114h.04394a.15726.15726,0,0,1,.07325.14649.13286.13286,0,0,1-.0586.14648Q296.499,535.49122,296.46973,535.47656Zm0-.62988q-.05861,0-.044-.04395,0-.04393.0293-.249a.17445.17445,0,0,1,.07324.249A.05744.05744,0,0,1,296.46973,534.84668Zm-.01465-.293q-.044-.01464-.01465,0Q296.45509,534.53907,296.45508,534.55371Zm.20508-2.24121a.32442.32442,0,0,0,.10254.01465l-.04395-.08789h-.01465q-.07324-.01465-.05859-.0586l.04394-.01464h.01465l.01465-.16114a1.99515,1.99515,0,0,0-.05859-.68847.51852.51852,0,0,1,.01464-.36621.4016.4016,0,0,0,0-.33692.10492.10492,0,0,0-.10253-.05859q-.07325-.01466-.08789.07324a5.41983,5.41983,0,0,0-.01465.64453q.01464.13184.01465.498a1.58516,1.58516,0,0,0,.05859.4834l.01465.02929A.25483.25483,0,0,0,296.66016,532.3125Zm-.08789-2.18262a.05745.05745,0,0,0-.04395.0586q-.01466.07323.07324.07324a.06474.06474,0,0,0,.07324-.07324A.08332.08332,0,0,0,296.57227,530.12988Zm.11718,2.28516q.05861-.0293-.04394-.0293h-.0586l.0293.04395A.24113.24113,0,0,0,296.68945,532.415Zm.04395,10.40039q-.01466,0,.23437-.04395h.0293q-.01466.01466,0-.01464-.044.0293-.01465.01464h-.01465q-.21972-.04393-.249-.04394a.05965.05965,0,0,0-.01465.04394A.17037.17037,0,0,0,296.7334,542.81543Zm.19043-.5127h0Zm.19043.21973q.04393-.01464-.07324.0293-.04395.01464.14648,0l-.0293-.0293Zm.14648.26367v-.02929q-.04393.0293-.04394.01464Zm.39551-6.63574a1.01349,1.01349,0,0,0,.11719-.0293q.0293-.33691.01465-.249-.23437-.044-.14649-.10254a.31226.31226,0,0,1,.16113-.0293V535.667q-.14648-.0293-.16113-.07324a1.32462,1.32462,0,0,0-.01465-.16113q0-.04395.07325-.07324.21972-.044.01464-.11719a.95824.95824,0,0,1-.10254-.0586,4.30266,4.30266,0,0,0-.02929.49805q0,.27832-.01465.46875Zm-.04395,6.63574a.013.013,0,0,0,.01465-.01465.0422.0422,0,0,1-.02929-.01464Q297.59766,542.78614,297.6123,542.78613Zm.04395-7.749q.01466-.0293,0,.0293h.07324q.05859,0,.04395-.0293a.255.255,0,0,0-.10254-.0293A.04219.04219,0,0,1,297.65625,535.03711Zm.04395,7.48535q.51269-.01464.46875-.01465l-.04395-.13183a.174.174,0,0,0-.10254-.08789,1.105,1.105,0,0,1-.32226.21972Zm.43945.249.05859-.02929v-.0293a.23951.23951,0,0,1-.05859.01465l-.01465.0293Zm.74707-9.14062q-.05859-.01465-.044-.04395a.194.194,0,0,0,0-.20507q0-.01465.07325-.01465H298.96q.01466.14647.0293.21972Q298.98926,533.66016,298.88672,533.63086Zm.16113,3.63281h0Zm.20508.0293a.12291.12291,0,0,1-.11719,0,.40828.40828,0,0,1-.08789-.0293q.044-.04394.04395-.05859h.07324a.09433.09433,0,0,1,.07324,0Q299.29687,537.249,299.25293,537.293Zm.14648.55664a.403.403,0,0,1-.16113-.41016.61438.61438,0,0,1,.23438.17578.26236.26236,0,0,1,.07324.16114Q299.53125,537.835,299.39941,537.84961Zm-.10253-12.1875-.0293-.08789.05859-.08789q.044.01464.0293.11719Q299.35547,525.67675,299.29688,525.66211Zm.05859-.46875q-.01466.0293-.0293-.01465a.33914.33914,0,0,1-.04394-.07324.3255.3255,0,0,1,.04394-.10254q.044-.0293.07324,0a.10173.10173,0,0,1,.0293.10254Q299.42871,525.12011,299.35547,525.19336Zm.39551,18.33984q.04393,0,.07324.07325a.07416.07416,0,0,1-.0293.08789l-.04394.01464-.10254.01465a.14837.14837,0,0,1-.13184-.10254q-.04395-.10254.07324-.10254A1.32474,1.32474,0,0,0,299.751,543.5332Zm-.01465-19.95117q-.11719-.01464-.14649.05859l.01465.0293.01465.01465a.15252.15252,0,0,0,.08789.01465l.05859-.04395q.02931-.01464-.01464-.05859Zm.30762,19.98047a.05745.05745,0,0,1,.04394.05859l-.0293.04395H300.044l-.0293.01465a.09314.09314,0,0,1-.07324-.0586q-.044-.07323.04394-.07324A.23955.23955,0,0,1,300.044,543.5625Zm.13183-20.02441a.06228.06228,0,0,0,0,.05859.04694.04694,0,0,0,.044.0293.11248.11248,0,0,0,.04394.01464q.13184-.04394.13184-.08789,0-.08789-.17578-.02929Zm.4541-.0586q-.0293,0-.01465.04395l.04395.02929q.044,0,.01465-.04394A.17054.17054,0,0,0,300.62988,523.47949Zm.07324,20.06836a.44008.44008,0,0,0,.07325.01465q0,.01465.02929.04395a.01294.01294,0,0,1-.01464.01464.0874.0874,0,0,1-.0879.01465.04691.04691,0,0,1-.02929-.04394Zm.16114-1.01074a.09938.09938,0,0,1,.07324.0293q.01466.0293,0,.02929a.11235.11235,0,0,1-.04395.01465.03884.03884,0,0,1-.04394-.04394Zm.835-19.99512q-.20508.23438-.249.23438a.37747.37747,0,0,1-.04395-.293q.07325-.14649.17578-.13184a.21736.21736,0,0,1,.10254.0586Q301.74316,522.498,301.69922,522.542Zm-.249.23438.52734,20.03906q-.02929.0293-.07324-.0293a.02894.02894,0,0,1,.01465-.04394q.0293-.01466.07324.02929Z" fill="#e6e6e6"/>
      <path d="M309.04688,525.22266a1.92809,1.92809,0,0,1,.10253.89355.19488.19488,0,0,1-.01464.10254.72878.72878,0,0,0-.19043.33691.954.954,0,0,1-.17579.35157.45456.45456,0,0,0-.08789.32226,1.0775,1.0775,0,0,1-.14648.52735q-.05859.10254-.16113.33691-.10254.21972-.16114.33691a.72123.72123,0,0,0-.08789.293.50657.50657,0,0,1-.293.39551.66405.66405,0,0,0-.21972.17578,1.64278,1.64278,0,0,1-.20508.21973q-.26367.19043-.13184.19043a.12358.12358,0,0,1-.10253-.07324.87211.87211,0,0,0-.0879-.11719.33231.33231,0,0,1-.14648-.293,3.10117,3.10117,0,0,1-.0293-.9375.04219.04219,0,0,0,.01465-.0293,3.83714,3.83714,0,0,1-.04394-.64453q.01464-.5127.01464-.64453a1.0817,1.0817,0,0,0-.51269-.791q-.11719-.08788-.19043.07325-.05859.14647-.14648.16113a.29758.29758,0,0,1-.21973-.04395q-.21974-.17577-.43945-.38085-.07325-.07324.01464-.14649a.33064.33064,0,0,1,.14649-.05859q.11718-.01466.11719-.11719l.01464-.27832a.09066.09066,0,0,1,.0293-.10254q.14649-.07324.08789-.41016,0-.0293-.04394-.30761.07323-.04395.11718-.4834a.3604.3604,0,0,1,.14649-.17578.49823.49823,0,0,0,.17578-.293.22327.22327,0,0,1,.26367-.19043l.14649.01465a.3284.3284,0,0,0,.38086-.14649q.0293-.05859.13183-.05859.4248,0,.542.14648a.34712.34712,0,0,0,.26368.13184q.08788.01464.05859.08789-.04395.08789.07324.19043l.16113.16113A3.0464,3.0464,0,0,1,309.04688,525.22266Z" fill="#e6e6e6"/>
      <path d="M325.47656,541.21875a1.34256,1.34256,0,0,1-.04394,1.01074,2.68813,2.68813,0,0,0-.17578,1.23047v.16113a.44315.44315,0,0,1-.07325.33692q-.07323.08789-.20507-.04395a.71831.71831,0,0,0-.04395-.07324.43513.43513,0,0,0-.04395-.05859q-.17577-.19044-.23437.14648-.04395.20508-.11719.23438-.08788.0293-.16113-.16114-.05859-.14647-.11719-.27832-.08788-.20508-.20508-.13183a.57471.57471,0,0,1-.17578.01465q-.17577-.01465-.13183-.293a.82567.82567,0,0,0-.0586-.35157q.02929.05861-.32226-1.05468a1.159,1.159,0,0,1-.0293-.27832q.08788.19042.17578.36621a2.82743,2.82743,0,0,1,0-.77637q-.07324.0293-.16113-.10254-.08788-.11718-.16113-.05859a.38381.38381,0,0,1-.0293-.26367.6322.6322,0,0,0,0-.27833q-.02929-.10253.07324-.10253.044,0,.0586.05859a2.71664,2.71664,0,0,1,.07324.293q.16113-.05859.08789-.35156-.21974-1.01075-.30762-1.4209-.05859-.21974-.10254-.23438a3.26313,3.26313,0,0,1-.05859.9375,7.85277,7.85277,0,0,0-.249-1.20117,11.71244,11.71244,0,0,0-.14648-1.65527.38631.38631,0,0,1,.01465-.23438,4.23549,4.23549,0,0,1,.16113.791q.0879.52734.14649.791l-.13184-1.14257q-.11719-1.12794-.13184-1.20118a.42994.42994,0,0,0-.02929.23438.57861.57861,0,0,1,0,.19043,1.06756,1.06756,0,0,1-.04395-.62988q.05859-.20508-.05859-.20508-.13184-.01465-.01465-.11719a.92918.92918,0,0,0,.05859-.49805,3.12393,3.12393,0,0,1-.02929-.41015q-.01466-.01465-.08789.07324-.044.07325-.04395-.10254-.044-.76171-.04394-.835-.01466-.13184.04394-.10254.01466,0,.0293.04395.0293.04394.04394.04394-.04393-.80566-.04394-.87891a.24245.24245,0,0,0-.01465-.11718,1.12409,1.12409,0,0,1-.08789-.60059q0-.14649-.07324-1.15723a.267.267,0,0,0-.0293-.16113,5.54968,5.54968,0,0,1-.30762-1.56738,4.80239,4.80239,0,0,0-.27832-1.28906,7.51954,7.51954,0,0,0-.35156,1.27441q0,.13184-.01465.11719a1.47363,1.47363,0,0,1-.01465.70312.61707.61707,0,0,1-.19043.43946q-.11718.07323-.05859.27832a.39384.39384,0,0,1,.01465.23437q-.02929.01466-.08789-.08789-.07324-.11718-.08789.0293a.85121.85121,0,0,0,.01464.4834q.11719.21972-.04394.20507-.08788-.01464-.05859.08789a.60683.60683,0,0,1-.0293.36622,1.49664,1.49664,0,0,0-.07324.33691q-.01466.13184-.249.26367a.21729.21729,0,0,0,.0586.16113q.13184.16115,0,.27832a.81738.81738,0,0,0-.13184.74707.92773.92773,0,0,1-.17578-.60058,3.7773,3.7773,0,0,1,.14648-1.01074.55168.55168,0,0,0,.04395-.32227,27.51764,27.51764,0,0,0-1.02539,4.32129h.0293v.0293h-.0586a.93041.93041,0,0,0-.08789.68847q.0293.04395-.05859.19043a.89915.89915,0,0,0-.04395.73242q-.19043-.17577-.30761.19043-.10254.33691-.293.19043v.04395a1.10988,1.10988,0,0,1,.02929.41016q-.04393.07323-.05859.05859a.6876.6876,0,0,1-.13184-.39551q-.02929-.14648.16114-.19043a.22864.22864,0,0,0-.13184-.19043.33466.33466,0,0,1-.13184-.16113q-.07323.07324-.08789.07324a.73789.73789,0,0,0-.14648.43946q.20508-.17578.17578-.17579a.68827.68827,0,0,0,.11719.52735,2.47851,2.47851,0,0,1,.04394.68847q-.14648-.07323-.38086-.791,0-.01466-.04394.43945a1.09832,1.09832,0,0,1-.249-.51269q-.43945-1.86036-.36622-1.59668-.07323-.27832-.26367-.90821-.65918-2.21191-.62988-2.09472-.4248-1.49415-.4834-1.59668-.01464-.04395-.04394-.19043a.90868.90868,0,0,0-.0586-.20508q-.13184-.21972-.16113.05859-.02929.293-.10254.35157-.044.04393,0,.23437a1.13069,1.13069,0,0,1,0,.57129q-.044.17579-.08789.16113-.10254-.04393-.07324.10254.01464.11719,0,.11719-.13184.044-.07324.46875a.5347.5347,0,0,1-.0879.43945.41706.41706,0,0,0,0,.4541l.0293-.05859q.07324-.27832.04395-.27832.08789-.01466.08789.293a1.35313,1.35313,0,0,1-.0293.293,3.49963,3.49963,0,0,0-.05859.9082.75331.75331,0,0,1-.17578.60059q-.38087.4248-.293.36621-.0879.04393-.0586.27832.02929.17578.13184.11719.08789-.05861.21973.05859.07323.07325.02929.293-.01464.14647-.10254.04394-.04393-.05859-.07324.08789-.01464.04395-.08789.33692.07325.05859.11719-.0586.07324-.13184.13183-.05859a.27056.27056,0,0,1,.0293.19043q-.01464.19042-.08789.17578a.60124.60124,0,0,0-.30762.07324q-.11718.05861-.04394.11719a.23049.23049,0,0,1,.05859.23438.8128.8128,0,0,0-.01465.249.114.114,0,0,0,.10254.04394.114.114,0,0,1,.10254.04395.63.63,0,0,1,.11719.35156q-.01466.249-.10254.249a.53882.53882,0,0,0-.10254.19043.41575.41575,0,0,0,.04395.43945q.11718.16113.07324.10254.11718.19042,0,.293-.16113.13184-.07324.498a7.66087,7.66087,0,0,1,.14648,1.18653q.01466.19043-.04394.23437-.02931.01466-.11719-.10254a.37067.37067,0,0,1-.0586-.39551q-.04394-.0293-.11718.0586a.52184.52184,0,0,0,.01464.74707q0,.01464.0879.07324a.3199.3199,0,0,1,.07324.35156q-.02929.14649-.19043.0586-.20508-.0879-.20508-.57129-.30762.21972-.39551.04394-.07324.249-.07324.26368-.08788.19043-.17578,0a.43024.43024,0,0,0-.19043-.20508,1.01722,1.01722,0,0,1-.21973-.13184q-.05859-.05859-.08789.0293-.10254.17579-.19043.04394-.05859-.10254-.08789.07325a.167.167,0,0,0,.0293.14648.17029.17029,0,0,0,.04394.0293l.0293.02929q.21972.19044.01465.45411l-.14649.17578q-.04394-.01465-.08789-.16114t-.11718-.10254a.17716.17716,0,0,0-.08789.17579q0,.13184.01464.33691a.33153.33153,0,0,1-.10254.30762q-.13184.10254-.08789-.0586a.91482.91482,0,0,0-.07324-.27832,3.91164,3.91164,0,0,1-.17578-.62988,2.95255,2.95255,0,0,0-.11719-.64453.19046.19046,0,0,1,0-.14649,5.25345,5.25345,0,0,0,.07325-1.24511q-.01466-1.27442.02929-1.64063-.01464.1172.01465-1.04.01466-1.06934.16113-3.06152.0879-1.30371.32227-3.501.07325-.70312.20508-1.8164.17578-1.4502.21972-1.81641.044-.39551.08789-1.27441a7.48122,7.48122,0,0,1,.27832-1.56739,2.00613,2.00613,0,0,0,.0586-.33691,1.12241,1.12241,0,0,1,.07324-.32227,1.267,1.267,0,0,1,.13184-.249,2.0094,2.0094,0,0,0,.14648-.23437q.17579-.43945.41016-.43946a.20053.20053,0,0,0,.11718-.07324q.16114-.16113.249.13184l.04394.04394a1.35073,1.35073,0,0,0,.0586-.4248q0-.21974.10254-.17578.05859.0293.01465.23437l.01464.07324q-.10254-.07323.17578-.10254.293-.04393.32227-.51269.01466-.293.08789-.27832.14649,0,.11719.293a.132.132,0,0,0,0,.08789,4.71149,4.71149,0,0,1,.14648.74707,3.85783,3.85783,0,0,0,.16114.73242,1.9341,1.9341,0,0,1,.08789.84961,7.25079,7.25079,0,0,0,.05859,1.626,10.04929,10.04929,0,0,0,.4248,1.71386,1.435,1.435,0,0,1,.04395.293,1.5594,1.5594,0,0,0,.14648.5127.50653.50653,0,0,1,0,.57129.534.534,0,0,0,0,.4248q.0879.293.13184.4834.08788.43945.249.249.044-.04393.08789.0586a1.82222,1.82222,0,0,1,.23438.65918q0-.01466.11719.64453a.49662.49662,0,0,1,.01465.26367l-.19043-.04395a7.40229,7.40229,0,0,1,.33691.87891,1.79645,1.79645,0,0,1,.05859.43945,1.18356,1.18356,0,0,0,.14649.4541,2.46849,2.46849,0,0,1,.14648-.65917.988.988,0,0,0,0-.249.447.447,0,0,1,.0586-.249l.11718-.498q.14649-.74708.11719-.55664a6.6546,6.6546,0,0,0,.14649-.9082.073.073,0,0,1,.01464-.07324,1.62835,1.62835,0,0,0,.19043-.58594,4.82084,4.82084,0,0,1,.16114-.62988q-.01466.04394.11718-.55665a1.32144,1.32144,0,0,1,.20508-.542.26925.26925,0,0,0,.08789-.27832.29716.29716,0,0,1,.11719-.32226.11827.11827,0,0,0,.05859-.13184,1.80791,1.80791,0,0,1,.14649-.65918,4.63515,4.63515,0,0,0,.17578-.58594q.01464-.16113.07324-.17578-.04395.01465.20508-.41015a6.22316,6.22316,0,0,0,.293-.71778,3.076,3.076,0,0,1,.32226-.68847q.044-.07325.13184-.249a6.00285,6.00285,0,0,0,.39551-.9375.97176.97176,0,0,0,.14648-.4834l.01465-.10254a1.69526,1.69526,0,0,0,.32227-.65917.70937.70937,0,0,1,.3955-.41016q.10254-.04395.17579.10254a.74446.74446,0,0,1,.05859.36621.36167.36167,0,0,0,.04394.26367q.0586.04395.0586.21973a10.2691,10.2691,0,0,0,.21972,1.05468q.01466.05861.01465.04395a.06924.06924,0,0,0,.07325.05859.08152.08152,0,0,1,.08789.07325.1792.1792,0,0,1-.04395.16113q-.05859.05859-.05859.08789a.20117.20117,0,0,0,.04394.17578.50635.50635,0,0,1,.14649.498q.01464-.11719.05859.21972.02929.11719.11719.39551a1.37667,1.37667,0,0,1,.08789.4541,14.85936,14.85936,0,0,0,.20508,1.9336,12.77483,12.77483,0,0,1,.13183,1.27441q.0879,1.0254.13184,1.74317a4.86837,4.86837,0,0,1-.0293.96679q-.02929.21974.08789.20508t.0586.14648a.22126.22126,0,0,0,.02929.249.544.544,0,0,1,.07324.41015,10.11209,10.11209,0,0,0,.01465,1.4502q0,.10254.0293.11719a2.43852,2.43852,0,0,1,.16113.9082q.01466.32226.10254.36621l.0293.0293a.36746.36746,0,0,1,.0293.26367.43169.43169,0,0,0,0,.23438,1.00534,1.00534,0,0,1,.11718.41015q-.07323.32227.08789.36621-.04394-.01464.0293.10254a.2194.2194,0,0,1,.0293.17578.27062.27062,0,0,0,.02929.19043.63028.63028,0,0,1-.02929.30762.5962.5962,0,0,0,.05859.32227q.0879.23438.13184.21972.16113-.0293.17578.30762a1.40707,1.40707,0,0,0,.10254.46875,4.25073,4.25073,0,0,1,.13183.4541Q325.19825,540.3838,325.47656,541.21875Zm-12.59765-2.73926q.05859-.11718.01464-.17578-.0293-.05859-.11718.05859a.25961.25961,0,0,0-.0586.21973.79742.79742,0,0,1-.11718.39551.57818.57818,0,0,0-.08789.293q-.02931.249.08789.23437.04394,0,.02929.19043,0,.01466-.11718.30762a.3126.3126,0,0,0-.01465.16113q.0293.0879.08789.07324a.21292.21292,0,0,0,.13183-.26367,2.356,2.356,0,0,1,.044-.65918,3.13015,3.13015,0,0,0,.05859-.65918A.81574.81574,0,0,1,312.87891,538.47949Zm.07324-1.875a5.93159,5.93159,0,0,1,.249-.60058q-.17578-.07325-.23437.20507-.07324.32227-.27832.33692a.14509.14509,0,0,0-.11719.11719.21944.21944,0,0,0,.0293.19043,2.16663,2.16663,0,0,1,.17578.542A3.1384,3.1384,0,0,1,312.95215,536.60449Zm.65918,3.2666q-.01466-.07323-.16113-.10254-.16115-.04394-.0879.11719a1.52286,1.52286,0,0,1,0,.542q-.0293.20508.0293.23438.13184.04395.16113-.13184a3.23057,3.23057,0,0,0,.0586-.48339Zm6.123-2.959a1.26747,1.26747,0,0,0-.35157-.43945.55529.55529,0,0,1-.08789-.41016q.11719-.01465.13184-.01465.17578,0,.07324.20508a.15194.15194,0,0,0,0,.13184q.04395.04393.07324.02929t.01465-.14648a1.42977,1.42977,0,0,1,.05859-.64453,5.24819,5.24819,0,0,1,.17579,1.18652q.01464.08789-.0293.10254Q319.749,536.94141,319.73438,536.91211Z" fill="#e6e6e6"/>
      <path d="M350.46973,524.60742q.07323.14649.02929.20508a.40112.40112,0,0,0-.05859.4541q.07325.11719-.08789.21973a5.81772,5.81772,0,0,1-.57129.33691q-.02929,0-.10254.08789a.93334.93334,0,0,0-.10254.16114.83126.83126,0,0,1-.95215.41015,6.67716,6.67716,0,0,0-1.86035-.01465q-.99609.0879-1.24512.08789-.62988.02931-.4541.58594a2.04235,2.04235,0,0,1,.07325.30762q.0293.17579-.0293.19043-.0293.01464-.10254-.13184l-.0293-.07324q-.04393.01466-.02929.11719-.01466-.02929.07324,1.05469a2.83367,2.83367,0,0,0,.08789.542.26736.26736,0,0,1,.01465.14648,6.13875,6.13875,0,0,0,.01465.68848,16.0826,16.0826,0,0,1-.01465,1.86035,2.63987,2.63987,0,0,0,0,.41016,1.42508,1.42508,0,0,1-.04395.3955v.0293a.80526.80526,0,0,1,.07324.4834,1.67007,1.67007,0,0,0-.01464.4834v.04394a.893.893,0,0,1-.07325.27832.54629.54629,0,0,0-.02929.293,1.75927,1.75927,0,0,1,.02929.542.82.82,0,0,0,0,.21973.62135.62135,0,0,1-.01465.293,4.86732,4.86732,0,0,0-.05859.9668q0,.08788-.01465.249t-.01465.23437a3.01011,3.01011,0,0,1,.04395.68848,4.81885,4.81885,0,0,1-.04395.64453q-.02929.42482-.02929.43946-.01466-.17579,0,1.90429a8.30693,8.30693,0,0,0,.04394.95215,9.5481,9.5481,0,0,1,.01465,1.02539,1.03812,1.03812,0,0,1-.16113.5127q-.05859.13183.0293.19043.05859.04393-.0293.13183a.55727.55727,0,0,0-.19043.42481,1.501,1.501,0,0,1-.32227.67383q-.0293.04393-.05859.02929l-.0293-.02929a.3347.3347,0,0,0-.20508-.0879.20907.20907,0,0,1-.19043-.11718q.01466.05859-.13183-.11719a.25526.25526,0,0,1-.07324-.13184,1.50647,1.50647,0,0,1-.0586-.21972q0-.044-.02929-.4541a.94872.94872,0,0,0-.16114.32226q-.04393.11719-.17578.04395a.94668.94668,0,0,0-.35156,0q.01464,0-.07324.07324-.04395.0293-.0586.01465-.04393-.01466-.04394-.04395v-.4248a4.05,4.05,0,0,0-.01465-.42481.9095.9095,0,0,0-.01465-.17578q0-.0293-.04394-.04394-.0586,0-.0586.04394.01466.10254.0293.21973a3.56056,3.56056,0,0,1,.01465.58594.30442.30442,0,0,1-.11719.23437,1.111,1.111,0,0,1-.11719-.43945q-.02929-.17579-.17578-.14649-.07325,0-.08789-.10254a.52823.52823,0,0,1-.0293-.20507,6.21139,6.21139,0,0,0-.04394-.71778,1.66283,1.66283,0,0,1,0-.46875.23135.23135,0,0,0-.01465-.13183q-.04395-.13184.10254-.20508a.24441.24441,0,0,0,.14648-.27832.81205.81205,0,0,1-.01465-.249.197.197,0,0,0-.14648-.21972q-.17579-.07324-.0293-.19043a.47838.47838,0,0,0,.14649-.39551.20948.20948,0,0,1,.08789-.16113.12994.12994,0,0,1,.05859-.01465q.05859.01465.04395.04394,0,.04395-.0293.65918a3.69373,3.69373,0,0,0,.05859.835,3.20134,3.20134,0,0,1,.11719.67382q-.01464.10254.07324.11719t.10254-.11719l.0293-.13183q.249-.42482.21973-.35157a.40309.40309,0,0,0-.01465-.17578.26409.26409,0,0,1,0-.17578.22849.22849,0,0,0-.0293-.21972.21941.21941,0,0,1-.01465-.20508q.02929-.05859.01465-.07324a.38359.38359,0,0,1-.05859-.27832.87023.87023,0,0,0-.0293-.27832.45008.45008,0,0,1,.0293-.35157q-.04395.10254.08789-.16113a.19593.19593,0,0,0-.07324-.293.18769.18769,0,0,1-.11719-.17578,1.22262,1.22262,0,0,1,.05859-.39551,1.87419,1.87419,0,0,0,.0586-.293,1.28984,1.28984,0,0,1,.07324-.30761q.11718-.20508.07324-.20508a.4794.4794,0,0,1,.32227.07324q.05859.01465.05859.11719,0,.08789.04394.08789.07325,0,.0879-.10254a.58662.58662,0,0,0-.07325-.35156q-.08788-.13184-.19043-.0586a.151.151,0,0,1-.05859.0293.1792.1792,0,0,0-.16113-.04395.33762.33762,0,0,1-.16114.01465.07119.07119,0,0,1-.04394-.08789q-.02929.11719.0293-.10254a.73033.73033,0,0,0-.10254-.67383q-.04395-.01464-.07325.04395a.25581.25581,0,0,1-.293.14648q-.10254-.01464-.11719-.07324,0-.07324.10254-.07324.08788,0,.08789-.05859a.98561.98561,0,0,1,.07324-.30762.35558.35558,0,0,1,.20508-.23438.14475.14475,0,0,0,.07324-.21972q-.07325-.14649.10254-.27832a.22129.22129,0,0,1,.30762.01465,2.19481,2.19481,0,0,0,.20507.249q.02931-.01465.0586-.249a2.25755,2.25755,0,0,0,.0293-.39551.07769.07769,0,0,0-.0879-.08789q-.08789-.01466-.10253.02929-.02931.16115-.20508.07325.07324.04393-.19043.01465-.21974-.02931-.11719-.21973a.44443.44443,0,0,0,.0293-.35156q0-.01465.02929-.293a.17029.17029,0,0,0-.16113-.21973q.05859.01465-.16113-.01465-.07324-.01464-.0586-.07324.01466-.04395.04395-.04395a1.25412,1.25412,0,0,1,.14648-.02929q.249-.04395.20508-.27832-.01464,0-.05859-.13184-.249.13184-.26367.14649-.21973.08788-.19043-.14649a.72314.72314,0,0,1,.04394-.21972q.02929-.16115.17578-.13184a.57922.57922,0,0,0,.26368-.0293q.20506-.10254.08789-.27832l-.17578-.17578a.48117.48117,0,0,0,.249-.43945.09857.09857,0,0,0-.044-.08789.17585.17585,0,0,0-.11718.01465.3407.3407,0,0,0-.17579.26367.448.448,0,0,1-.08789.23437.11931.11931,0,0,1-.13183.0293q-.05859-.0293-.0293-.10254a.48419.48419,0,0,0-.01465-.58594.57629.57629,0,0,1-.10254-.30761q-.01464-.10254.01465-.13184.19044-.16113-.01465-.32227-.02929-.01464-.01464-.13183a3.72158,3.72158,0,0,1,.05859-.542.31875.31875,0,0,0-.04395-.26368.38472.38472,0,0,1-.01464-.293.39815.39815,0,0,0-.0293-.30761.14117.14117,0,0,1,0-.20508.17891.17891,0,0,0,.0293-.23438.71831.71831,0,0,0-.04395-.07324.454.454,0,0,0-.0293-.08789.45715.45715,0,0,1-.05859-.35156,1.214,1.214,0,0,0,.01465-.21973v-.21972a.84665.84665,0,0,0-.08789-.55664.62444.62444,0,0,1-.0586-.32227,2.17012,2.17012,0,0,1-.01464-.30762q-.01466-.20508-.01465-.32226a.20444.20444,0,0,0-.10254-.17578q-.10254-.05861-.23438.05859l-.13183.11719q-.45411-.20508-.41016-.14649a.16725.16725,0,0,0-.19043-.07324.87819.87819,0,0,1-.11719.0293,1.91555,1.91555,0,0,0-.84961.19043q.07325-.0293-.33691.21972-.07325-.249-.13184-.27832a.53471.53471,0,0,0-.293.04395,3.30661,3.30661,0,0,1-.76172.13183.22567.22567,0,0,0-.23438.23438q-.01464.13184-.11719.07324a.58706.58706,0,0,1-.36621-.46875.24088.24088,0,0,0-.01465-.07324l-.02929-.01465a.54575.54575,0,0,1-.293.36621.22612.22612,0,0,1-.33692-.13183.44574.44574,0,0,0-.249-.249q-.17578-.07324-.01465-.19043.01466-.01464.46875-.30761.16113-.10254.14649-.20508-.02929-.19044.14648-.17578a.114.114,0,0,0,.10254-.04395,2.9048,2.9048,0,0,1,.68848-.4834,10.19094,10.19094,0,0,1,1.02539-.4248,7.44467,7.44467,0,0,0,.9375-.293,8.80723,8.80723,0,0,1,.89355-.27832.18675.18675,0,0,1,.17578,0q.02931.01464.0293.0293,0,.05859-.01465.05859a.42686.42686,0,0,1-.20508.07324,3.20531,3.20531,0,0,0-.62988.249l.23438.01464q.05859,0,.05859.01465.04395.05859-.0293.08789a.18017.18017,0,0,1-.07324.0293.15889.15889,0,0,0-.05859.0293q-.04395.02929-.04395.05859.01466.05859.0586.04395.19043-.01466.21972-.01465.19044-.05861.73242-.20508.46875-.13184.73243-.20508a1.7555,1.7555,0,0,1,.23437-.05859h.01465v-.04395l-.01465-.01465v-.02929a.909.909,0,0,1-.249,0,.14727.14727,0,0,1-.16114-.11719.22.22,0,0,1,.04395-.20508.51063.51063,0,0,1,.26367-.14648.10486.10486,0,0,1,.11719.05859.08112.08112,0,0,1-.01465.11719l-.08789.07324.01465.04395q.01464.01464.04394,0,.73244-.16115.89356-.21973a2.63166,2.63166,0,0,0,.26367-.13184.47787.47787,0,0,1,.39551-.20508.31833.31833,0,0,1-.13184.11719.24781.24781,0,0,0-.10254.10254h.0293q.10254.01465.11719.08789,0,.04395-.0586.07324-.08788.02931-.4248.14649a2.09657,2.09657,0,0,0,.92285.11719q0-.01465-.07324-.0586-.10254-.05859-.0293-.11719a.57906.57906,0,0,1,.52735-.13183.60055.60055,0,0,0,.32226,0q-.05859.01464.58594-.13184a1.31423,1.31423,0,0,0,.4834-.17578.21232.21232,0,0,1,.30761,0,.132.132,0,0,0,.14649,0q.791-.32226.62988-.21973a.86764.86764,0,0,1,.39551-.10253.31973.31973,0,0,0,.293-.11719q.04393-.04395.27832-.01465.16113.01465.20508-.05859.16113-.27833.65918-.19043.01464,0,.33691.08789a1.25357,1.25357,0,0,1,0,.4834q-.05859.11718.08789.26367a1.62676,1.62676,0,0,0,.26367.13183A.75241.75241,0,0,1,350.46973,524.60742Zm-11.11817,2.68067.01465.01464v.04395a.62774.62774,0,0,1-.26367.17578.1508.1508,0,0,1-.05859-.0293.0183.0183,0,0,1,0-.02929A.439.439,0,0,1,339.35156,527.28809Zm2.44629-.0293a.08441.08441,0,0,1,.0586.0293.224.224,0,0,1,.07324.16113q-.01466.13184-.17578.11719-.05861-.01466-.0293-.04395a.3031.3031,0,0,0,.0293-.20508A.05743.05743,0,0,1,341.79785,527.25879Zm.13184-2.87109a.11106.11106,0,0,1-.14649.07324.041.041,0,0,1-.02929-.0586q.05859-.10254.14648-.07324A.041.041,0,0,1,341.92969,524.3877Zm.27832,10.00488q.02929,0,.04394.04394.02929.07325-.04394.07325l-.04395-.0293Q342.13476,534.40723,342.208,534.39258Zm.02929,1.40625q0-.05859.07325-.07324a1.25253,1.25253,0,0,1,.13183-.01465q.0879,0,.10254.04394.01466.05861-.08789.08789-.01464,0-.13183.01465Q342.2373,535.84278,342.2373,535.79883Zm.21973-.57129q-.02929.07325-.07324.05859t-.04395-.04394a.066.066,0,0,1,.08789-.0586Zm.044,2.87109a.07876.07876,0,0,1-.07325-.10254q.01466-.0293.07325-.23437.10254.0293.16113.20508.0293.07323-.05859.11718A.12319.12319,0,0,1,342.501,538.09863Zm.08789-3.35449a.05791.05791,0,0,1-.08789.0293q-.0293-.01466-.01465-.0586.01464-.05859.07324-.02929Q342.57423,534.68555,342.58887,534.74414Zm.80566-10.66406q-.05859.01464-.05859-.0293a.07851.07851,0,0,1,.08789-.05859.04094.04094,0,0,1,.02929.05859A.15889.15889,0,0,1,343.39453,524.08008Zm1.80176,10.47363a.04221.04221,0,0,1,.0293.01465q.05859.0293.01464.21973-.02929.10254-.07324.11718a.19929.19929,0,0,1-.02929-.13183Q345.15234,534.583,345.19629,534.55371Zm.14648-10.97168a.18215.18215,0,0,1-.10254,0q-.07323,0-.01464-.05859a.36977.36977,0,0,1,.08789-.04395q.05859,0,.07324.0293Q345.416,523.55274,345.34277,523.582Z" fill="#e6e6e6"/>
      <path d="M353.20312,540.36914a1.0606,1.0606,0,0,1-.249,0l-.07324-.01465.01465-.01465a.40086.40086,0,0,0,.08789-.01464h.10254a.30575.30575,0,0,1,.19043,0Q353.335,540.3545,353.20312,540.36914Zm-.16113-2.69531-.04394-.01465.08789-.01465q.0293.01465.02929.0293Zm0-.08789-.02929-.0293h.07324a.04217.04217,0,0,1,.02929.01465A.24088.24088,0,0,0,353.042,537.58594Zm.07324-.10254q-.10253,0-.08789-.01465.01466-.04395.08789-.04395l.0586.0293Zm8.81836,5.49316a.31282.31282,0,0,1,.19043.07324.11932.11932,0,0,1-.08789.0293h-.10254q-.13183.04395-.13183.07324-.02929.10254-.19043.10254-.16113.01465-.42481.01465-.33691.01465-.43945.01465h-.05859a.11588.11588,0,0,0-.07325.01465h-.11718q-.21973-.05859-.19043-.07324a.33941.33941,0,0,1-.07324.04394.56822.56822,0,0,0-.07325.0293,2.0087,2.0087,0,0,1-.38086.02929,2.96444,2.96444,0,0,0-.3955.01465h-.4834a1.52386,1.52386,0,0,0-.46875.0586.23818.23818,0,0,1-.11719,0,4.04888,4.04888,0,0,0-.835.04394q-.20508.0293-.23438.0293-.17577,0-.77636.04394h-.26368q-.13184-.01464-.16113.13184a.45021.45021,0,0,0-.30762-.10254q-.27831.01466-.71777.0293a.29556.29556,0,0,0-.19043.05859q-.01464.01465,0,.04395l.0293.02929h.0293q.10253,0,.33691-.01464a1.04529,1.04529,0,0,1,.35156,0,1.06643,1.06643,0,0,1,.46875-.04395v0q.044.05859.07324.04395a.4073.4073,0,0,1,.26368-.0586,1.20194,1.20194,0,0,0,.249-.04394,2.008,2.008,0,0,1,.30762-.0293h.43945q.26367,0,.4248-.01465a4.06557,4.06557,0,0,1,.65918-.0293.44311.44311,0,0,1,.14649.04395.10515.10515,0,0,1,.04394.07324q.01466.04395-.01464.0586a.1194.1194,0,0,1-.0879.02929q-.70312.04395-1.04.08789h-.16114a1.56005,1.56005,0,0,0-.16113-.01464q-.14649.01464-.52734.04394-.33692.0293-.52735.0293-.0293,0-.82031.01465-.57129.01464-.498.01464a.13932.13932,0,0,0-.16113.08789.15481.15481,0,0,1-.19043.0879.17054.17054,0,0,1-.04394-.0293q-.01466-.04395.02929-.04395.01466,0,.11719-.01465a.51111.51111,0,0,0-.23438-.07324q-.498-.02929-.38085-.02929a.54488.54488,0,0,1-.13184-.01465.16584.16584,0,0,1-.05859-.0586q-.0586-.11718-.10254-.11718a.96818.96818,0,0,1-.49805-.04395.17054.17054,0,0,1-.04395-.0293.01294.01294,0,0,1-.01464-.01464v-.04395q.14648-.10254.19043-.13184.14648-.05859.16113-.10254,0-.04394.04394-.01464.05861.05859.19043,0a.99382.99382,0,0,1,.27832-.08789.63069.63069,0,0,0,.11719-.01465.336.336,0,0,1,.10254-.0293q.14649-.01464.21973-.27832-.27832.0293-.293.0293-.044,0-.01465.05859a.08481.08481,0,0,0,.05859.01465.08483.08483,0,0,1,.0586.01465q0,.04394-.0586.05859a2.83763,2.83763,0,0,0-.36621.10254l-.13183.01465q-.07325,0-.249-.01465a.909.909,0,0,0-.23437,0q-.05859.01465-.10254-.07324-.04395-.07324-.01465-.10254a.18078.18078,0,0,1,.10254-.04395q.61524-.11718.68848-.13183a.88745.88745,0,0,0,.36621-.10254.20158.20158,0,0,1,.21972-.01465.31848.31848,0,0,0,.17579.01465q.45409-.05859,1.01074-.11719a.18233.18233,0,0,1,.10254,0,.27058.27058,0,0,0,.19043-.0293q.01464,0,.11718-.01464h.07325l-.04395-.0586a.04692.04692,0,0,0-.04395-.02929q-.20506-.05861-.05859-.16114a.37276.37276,0,0,0,.08789-.08789l-.01465-.01465a.5531.5531,0,0,0-.05859-.19043.56118.56118,0,0,1-.04395-.17578l-.04394-.01465q-.05859-.04393.0293-.04394l.01464-.01465a.05969.05969,0,0,1,.01465-.04394q-.13184-.01465-.07324-.04395a.34979.34979,0,0,0,.08789-.17578.36314.36314,0,0,1,.044-.10254l-.0293-.26367H355.957q-.04395,0-.04394-.01465h.04394v-.04395a.04217.04217,0,0,0-.01465-.02929q-.249-.01465-.10254-.0586.05861-.01464.0586-.04394a.041.041,0,0,1,.02929-.0586v-.04394q-.05859-.04395.01465-.05859a.46343.46343,0,0,0,0-.39551,1.36242,1.36242,0,0,1,.0293-.73242.45008.45008,0,0,0,.01465-.249q-.044-.07325-.0293-.10254a.79273.79273,0,0,0,.044-.27832q-.249-.05859-.07325-.14648.0879-.04395-.02929-.08789-.249-.0879-.20508-.23438.01464-.04393,0-.05859a2.966,2.966,0,0,0-.10254-.41016.53607.53607,0,0,1,0-.249.91681.91681,0,0,0,.0293-.249v-.249q.0293-.21972.02929-.23437h0q0-.0293.0586-.04395.07324-.0293.07324-.04394.01466-.01466-.04395-.04395t-.02929-.04394q.08788-.044.02929-.01465a.27905.27905,0,0,1,.20508-.01465q.0879.01465.10254-.01465.01466-.044-.10254-.07324-.14647-.02929-.16113-.08789-.01466-.07324.10254-.0586a.64719.64719,0,0,1,.11719.04395.15218.15218,0,0,0,.11718.01465.19467.19467,0,0,0,.10254-.01465l.01465-.01465q0-.01464-.0293-.01465-.19043,0-.16113-.20508a6.27248,6.27248,0,0,1,.14649-.67382.22208.22208,0,0,0-.07325-.27832q-.08788-.05861-.02929-.13184.13184-.19042.13183-.13184a.12.12,0,0,0-.04394-.07324q-.05859-.05859-.0586-.08789a1.156,1.156,0,0,1-.01464-.33691.13129.13129,0,0,1,.08789-.08789q-.05861.02929.11718,0,.05861-.01466.04395-.08789a.48138.48138,0,0,0-.11719-.01465.40294.40294,0,0,1-.16113,0q-.07324-.04395.05859-.07324h.19043a.14387.14387,0,0,0-.13183-.07325q-.0879,0-.10254-.10254-.02929-.27831-.0293-.30761,0,.05859.01465-.11719-.05859-.0293-.044-.01465a.1909.1909,0,0,1-.14648-.16113q-.01466-.02929.08789-.04395.14649-.01464.01465-.04394t-.13184-.07324l-.01465-.01465a2.43058,2.43058,0,0,1-.01464.293,2.46355,2.46355,0,0,0,0,.38086.44186.44186,0,0,1-.10254.32226.52809.52809,0,0,1-.08789-.26367q0-.13184-.01465-.43945-.01466-.27832-.01465-.43946v-.07324q-.0293-.01465,0-.01465V532.957q-.16113-.01464-.044-.04394.07325-.02931-.02929-.04395-.13184-.0293-.11719-.07324.044-.14649.07324-.249.01466-.044.11719-.07325V532.415a.11252.11252,0,0,0,.01465-.04395.04217.04217,0,0,1-.01465-.02929.15088.15088,0,0,1,.0293-.0586.14235.14235,0,0,0,.02929-.07324v-.01465a1.53589,1.53589,0,0,0-.02929-.26367,2.06533,2.06533,0,0,1-.0293-.26367.40828.40828,0,0,0-.08789-.0293h.04394q-.02929-.68847-.04394-.86426,0-.10254.01465-.46875.02929-.60059.02929-.52734a2.85388,2.85388,0,0,1,.0586-.68848q.05859-.01464.07324.01465l.0293.07324q.04394.02931.02929.01465.05861.0293.0586-.02929.01464-.23437-.08789-.27832a.29525.29525,0,0,1-.14649-.293q-.01464-.293-.01465-.38086v-.14649q-.01464-.8496-.04394-.76172a.89943.89943,0,0,0,.0293-.35156.95927.95927,0,0,1,.02929-.36621.24088.24088,0,0,0-.01465-.07324,3.00949,3.00949,0,0,1,.044-1.04.7009.7009,0,0,0,0-.41016l.30762-.30761a1.32061,1.32061,0,0,1,.23437-.33692q-.11718,0-.26367.01465a1.213,1.213,0,0,1-.21973.01465h-.23437q-.14649.01464-1.61133-.08789a.43067.43067,0,0,1-.35156-.249q-.0879-.13185,0-.13184a3.40559,3.40559,0,0,1,.3955.01465.80545.80545,0,0,0,.21973,0,1.17509,1.17509,0,0,1,.26367,0,2.58513,2.58513,0,0,0-.30761-.10254q-.0879-.02929-.293-.08789-.20508-.04395-.30762-.07324a.09441.09441,0,0,1-.04395-.0586q-.0293-.04395,0-.05859a.35992.35992,0,0,1,.13184-.0293,6.76566,6.76566,0,0,1,1.53809-.0293,7.17889,7.17889,0,0,0,1.11328-.04394,2.06708,2.06708,0,0,0,.498-.08789h.01465a1.67585,1.67585,0,0,0,.58594-.01465,1.04839,1.04839,0,0,0-.58594.01465h-.01465a.39623.39623,0,0,0-.27832-.04395.85916.85916,0,0,1-.293-.02929.23759.23759,0,0,1,.20507-.10254.82129.82129,0,0,0,.27832-.04395q.07325-.01464.08789-.11719.04395-.23437.27832-.02929l.04395.04394q.02929.0293.04395.0293.10254.08789.05859-.05859-.05859-.19044.04394-.14649a4.25806,4.25806,0,0,0,.542.01465q.11718,0,.32226-.01465.23438-.01464.32227-.01465a.1791.1791,0,0,1,.16113.10254q.07324.13183.01465.10254a.16768.16768,0,0,0,.19043,0v-.0293a.54917.54917,0,0,1,0-.19043q.01464-.0293.08789-.01464a1.1601,1.1601,0,0,0,.35156-.0293.75739.75739,0,0,1,.35156-.04395.15754.15754,0,0,0,.0879-.02929.64676.64676,0,0,1,.36621-.04395.65579.65579,0,0,0,.19043-.01465q.20506-.17577.58593.0586l-.23437.36621q-.0293-.01465.41015.11719.0586.0293.0293-.0586a.15311.15311,0,0,1,.0293-.16113.06222.06222,0,0,1,.05859,0q.04395.01464.0586.08789.07323.293-.08789.38086a1.9065,1.9065,0,0,1-.27833.08789.34989.34989,0,0,0-.17578.08789h-.01464q-.11719-.044-.16114.04395.05859-.01466.16114-.04395l.01464.01465v-.01465a.3138.3138,0,0,0,.21973.01465q.10254-.01465.27832-.0293a.09858.09858,0,0,1,.08789.04395.0841.0841,0,0,1-.01465.10254.601.601,0,0,1-.11718.11718q-.38087.19044-.58594.27832-.41016.17579-.35156.14649a1.68272,1.68272,0,0,1-.41016.05859,1.74914,1.74914,0,0,0-.42481.0586l-.14648-.01465h-.20508a4.89994,4.89994,0,0,1-.70312.02929q.01464.07324.02929.13184.19044.0293.14649.10254-.0293.05859-.0586.13184a5.06733,5.06733,0,0,1,.04395.51269q0,.08788.01465.249v.249l.0293.05859q.14648.4834.17578.60059a.505.505,0,0,1-.01465.32226.64831.64831,0,0,0-.07324.26367q-.01466.10254-.0586.32227a1.21215,1.21215,0,0,0-.01465.16113.59887.59887,0,0,0,0,.26368,7.458,7.458,0,0,1-.08789,1.333,6.07,6.07,0,0,0-.07324.95215q0,.07324-.05859.64453a4.2463,4.2463,0,0,0-.01465.92285,3.0322,3.0322,0,0,1,0,.73243q.01464.0293,0,.04394a.4004.4004,0,0,1-.01465.08789q0,.05859-.01465.0586h.01465q.08788,0,.10254.02929.01464.05859,0,.0586.10254.07323,0,.11718a.20394.20394,0,0,1-.08789.01465.11235.11235,0,0,1-.04395-.01465q-.0293.16115-.04394.27832.05859.01465.13183.0293.10254.01466.04395.11719l-.07324-.01465a.80557.80557,0,0,0-.10254-.04395,1.36711,1.36711,0,0,0,.01465.45411,1.49684,1.49684,0,0,0-.07325.542,1.84491,1.84491,0,0,1-.05859.542.217.217,0,0,0,0,.19043.31129.31129,0,0,1,0,.26367.41842.41842,0,0,0-.01465.293.3554.3554,0,0,1,0,.14649,4.48921,4.48921,0,0,0-.08789.82031v.51269a.25049.25049,0,0,0,.11719-.04394.93937.93937,0,0,1,.30762-.04395.14121.14121,0,0,1,.07324.0586.18571.18571,0,0,0,.08789.04394q.19042.05859-.05859.11719a.22406.22406,0,0,1-.11719-.04395A.23079.23079,0,0,0,358.1543,537a.167.167,0,0,0-.0586.08789.08478.08478,0,0,1-.01465.05859q-.05859.05861.10254.10254.01466,0,.11719.01465-.05859.07324-.04394.10254.04394.08789-.0586.14649-.05859.0293-.04394.04394a.2116.2116,0,0,1,.07324.17578.25443.25443,0,0,0,.08789.17578.16633.16633,0,0,1,.04395.21973.78083.78083,0,0,0-.07325.46875.11237.11237,0,0,1,.01465.04394,1.98452,1.98452,0,0,0-.07324.32227.95391.95391,0,0,0,0,.33691.08332.08332,0,0,1-.05859.10254q-.0586.01466-.0586.04395a.50678.50678,0,0,1-.05859.249.35935.35935,0,0,0-.01465.26367q.05859.10254-.10254.17579a.225.225,0,0,1-.16113,0l-.07324-.01465q-.07325.01464-.04395.02929a.33007.33007,0,0,0,.11719.0586q.27831.08789.13183.20508l-.249.16113a.17062.17062,0,0,1-.04395.0293l.01465.08789a.15855.15855,0,0,0,.07325.05859q.26367.11718.17578.249-.0293.0293,0,.07325a.18573.18573,0,0,1,0,.17578.06635.06635,0,0,0,.01464.07324.16819.16819,0,0,1-.02929.20508q-.10254.17577-.08789.19043l-.07324.04394a3.55424,3.55424,0,0,1,.17578.43946.37748.37748,0,0,1,0,.293q.3076-.01464.542-.02929.249,0,.62988.02929.39551.02931.4541.0293.02929,0,.0586.04395.01464.04393-.01465.05859a.63229.63229,0,0,1-.21973.01465,6.56329,6.56329,0,0,1-.89355-.01465,3.73064,3.73064,0,0,0-.42481.0293.56334.56334,0,0,1-.19043.01465.27668.27668,0,0,0-.08789.01464l-.05859.0293a.0638.0638,0,0,0,.01465.08789.426.426,0,0,0,.20507.16113.104.104,0,0,0,.0879-.01464q.02929-.01466.01464-.11719-.01464-.04395,0-.0586a.04222.04222,0,0,1,.0293.01465.41112.41112,0,0,0,.36621.14649,1.21275,1.21275,0,0,0,.27832-.0293h.0586a1.24422,1.24422,0,0,0,.68847-.04394,3.51294,3.51294,0,0,1,.55664-.07325.40534.40534,0,0,0,.16114-.04394.60571.60571,0,0,1,.35156-.04395q.04395,0,.11719.08789.10254.14649.17578.16114a1.47056,1.47056,0,0,0,.4248.04394Q361.77246,542.97657,361.93359,542.97656Zm-8.14453,1.01074a.16125.16125,0,0,1,.19043.04395q-.14647.01465-.16113.01465a.04694.04694,0,0,1-.04395-.0293Q353.75977,543.98731,353.78906,543.9873Zm.39551.17579q.04395-.04395.05859-.01465.044.05859-.02929.08789a.73967.73967,0,0,1-.17578.08789q-.02931.01464-.0586-.0293a.0638.0638,0,0,1,.01465-.08789l.0293-.01465Q354.21387,544.14845,354.18457,544.16309Zm-.10254-20.85938q-.04395.01466-.08789-.04394a.029.029,0,0,1,.01465-.04395q.044-.01466.08789.04395Zm.65918,19.70215q.01466-.01465,0-.04395a.02589.02589,0,0,0-.0293-.02929h-.10253l-.04395.02929v.01465q.01466.044.0293.04395Q354.69727,543.06445,354.74121,543.00586Zm.17578,1.18652a.41771.41771,0,0,1,.14649-.02929.88791.88791,0,0,0,.07324.05859.23048.23048,0,0,1,.05859.08789.51425.51425,0,0,1-.21972.08789q-.27833.0293-.249.01465-.05859.01465-.11718-.08789-.04395-.0879.01464-.08789a.24094.24094,0,0,1,.07325.01465Q354.8584,544.28027,354.917,544.19238Zm.41016-.20508q.01464,0,.04394.0293.01466.02929,0,.04395a.08151.08151,0,0,1-.07324.08789q-.02929,0-.23437.01465-.1172-.13184-.11719-.11719a.13.13,0,0,1-.01465-.0586q0-.01464.0293-.01464a.11248.11248,0,0,1,.04394.01464.21922.21922,0,0,0,.26367,0Q355.28321,543.97266,355.32715,543.9873Zm-.0293-3.208a.11593.11593,0,0,1-.07324-.01465q-.07325-.02929.04394-.0586h.13184l.01465.0293q-.02929.04395-.04395.04395A.09441.09441,0,0,1,355.29785,540.7793Zm.08789-17.37305q-.01464,0-.04394-.04395-.01466-.04394.01465-.05859a.50657.50657,0,0,1,.27832.01465l.05859.04394-.0293.04395Zm.17578,16.34766q.0879,0,.07325.01464a.10519.10519,0,0,1-.04395.07325q-.10254-.0293-.07324-.07325Q355.51758,539.75391,355.56152,539.75391Zm.08789,2.7539q-.05859,0-.01464-.01465a.44455.44455,0,0,1,.13183-.01464q.07324.01464.01465.02929A.29929.29929,0,0,1,355.64941,542.50781Zm2.68067,1.4502a.159.159,0,0,0,.05859.02929.08807.08807,0,0,1,.0586.0586q0,.044-.0586.04394h-.249a1.32873,1.32873,0,0,0-.32227.01465q-.23437.01465-.96679.0586a2.74708,2.74708,0,0,1-.32227.01464q-.11718,0-.14648.07325-.044.07323-.17579.04394a1.72444,1.72444,0,0,1-.32226-.10254q-.02929-.02929-.04395.0293-.02929.10254-.10254.01465l-.11718-.16113q0-.07324.02929-.0586-.04394-.01464.36621-.04394a9.25107,9.25107,0,0,1,.9668-.0586q.10254,0,.11719.0293a.16338.16338,0,0,0,.21973.0293q.04394-.044.13183,0,.21974.08789.32227-.0586.0293-.05859.08789-.01465a.12523.12523,0,0,0,.16113,0,.20828.20828,0,0,1,.11719-.02929A.17734.17734,0,0,1,358.33008,543.958Zm-2.59278-8.48145q-.05859-.02929-.05859-.13183a.16317.16317,0,0,1,.04395-.16114h.04394a.15725.15725,0,0,1,.07324.14649.13284.13284,0,0,1-.05859.14648Q355.7666,535.49122,355.7373,535.47656Zm0-.62988q-.05859,0-.04394-.04395,0-.04393.0293-.249a.17445.17445,0,0,1,.07324.249A.05745.05745,0,0,1,355.7373,534.84668Zm-.01464-.293q-.044-.01464-.01465,0Q355.72265,534.53907,355.72266,534.55371Zm.20507-2.24121a.32451.32451,0,0,0,.10254.01465l-.04394-.08789h-.01465q-.07325-.01465-.05859-.0586l.04394-.01464h.01465l.01465-.16114a1.99491,1.99491,0,0,0-.0586-.68847.51852.51852,0,0,1,.01465-.36621.4016.4016,0,0,0,0-.33692.10492.10492,0,0,0-.10254-.05859q-.07323-.01466-.08789.07324a5.4248,5.4248,0,0,0-.01465.64453q.01466.13184.01465.498a1.5848,1.5848,0,0,0,.0586.4834l.01465.02929A.25482.25482,0,0,0,355.92773,532.3125Zm-.08789-2.18262a.05745.05745,0,0,0-.04394.0586q-.01466.07323.07324.07324a.06474.06474,0,0,0,.07324-.07324A.08332.08332,0,0,0,355.83984,530.12988Zm.11719,2.28516q.05859-.0293-.04394-.0293h-.0586l.0293.04395A.24119.24119,0,0,0,355.957,532.415Zm.044,10.40039q-.01466,0,.23437-.04395h.0293q-.01466.01466,0-.01464-.044.0293-.01465.01464h-.01465q-.21972-.04393-.249-.04394a.05965.05965,0,0,0-.01465.04394A.17037.17037,0,0,0,356.001,542.81543Zm.19043-.5127h0Zm.19043.21973q.04394-.01464-.07325.0293-.04394.01464.14649,0l-.0293-.0293Zm.14648.26367v-.02929q-.044.0293-.04394.01464Zm.39551-6.63574a1.01349,1.01349,0,0,0,.11719-.0293q.02929-.33691.01464-.249-.23437-.044-.14648-.10254a.31226.31226,0,0,1,.16113-.0293V535.667q-.14647-.0293-.16113-.07324a1.32833,1.32833,0,0,0-.01465-.16113q0-.04395.07324-.07324.21974-.044.01465-.11719a.95824.95824,0,0,1-.10254-.0586,4.30266,4.30266,0,0,0-.02929.49805q0,.27832-.01465.46875Zm-.04395,6.63574a.013.013,0,0,0,.01465-.01465.04224.04224,0,0,1-.0293-.01464Q356.86523,542.78614,356.87988,542.78613Zm.04395-7.749q.01464-.0293,0,.0293h.07324q.05859,0,.04395-.0293a.255.255,0,0,0-.10254-.0293A.04224.04224,0,0,1,356.92383,535.03711Zm.04394,7.48535q.5127-.01464.46875-.01465l-.04394-.13183a.174.174,0,0,0-.10254-.08789,1.10491,1.10491,0,0,1-.32227.21972Zm.43946.249.05859-.02929v-.0293a.23962.23962,0,0,1-.05859.01465l-.01465.0293Zm.74707-9.14062q-.05861-.01465-.04395-.04395a.19409.19409,0,0,0,0-.20507q0-.01465.07324-.01465h.04395q.01464.14647.0293.21972Q358.25684,533.66016,358.1543,533.63086Zm.16113,3.63281h0Zm.20508.0293a.12291.12291,0,0,1-.11719,0,.40809.40809,0,0,1-.08789-.0293q.044-.04394.04395-.05859h.07324a.09433.09433,0,0,1,.07324,0Q358.56445,537.249,358.52051,537.293Zm.14648.55664a.403.403,0,0,1-.16113-.41016.61436.61436,0,0,1,.23437.17578.26232.26232,0,0,1,.07325.16114Q358.79883,537.835,358.667,537.84961Zm-.10254-12.1875-.02929-.08789.05859-.08789q.04395.01464.0293.11719Q358.62305,525.67675,358.56445,525.66211Zm.0586-.46875q-.01466.0293-.0293-.01465a.339.339,0,0,1-.04395-.07324.32574.32574,0,0,1,.04395-.10254q.04395-.0293.07324,0a.10175.10175,0,0,1,.0293.10254Q358.69629,525.12011,358.62305,525.19336Zm.3955,18.33984q.04395,0,.07325.07325a.07416.07416,0,0,1-.0293.08789l-.04395.01464-.10253.01465a.14837.14837,0,0,1-.13184-.10254q-.04395-.10254.07324-.10254A1.32462,1.32462,0,0,0,359.01855,543.5332Zm-.01464-19.95117q-.1172-.01464-.14649.05859l.01465.0293.01465.01465a.15249.15249,0,0,0,.08789.01465l.05859-.04395q.02929-.01464-.01465-.05859Zm.30761,19.98047a.05744.05744,0,0,1,.044.05859l-.0293.04395h-.01465l-.02929.01465a.09316.09316,0,0,1-.07325-.0586q-.04394-.07323.04395-.07324A.23941.23941,0,0,1,359.31152,543.5625Zm.13184-20.02441a.06222.06222,0,0,0,0,.05859.04692.04692,0,0,0,.04394.0293.11251.11251,0,0,0,.04395.01464q.13184-.04394.13184-.08789,0-.08789-.17579-.02929Zm.4541-.0586q-.0293,0-.01465.04395l.04395.02929q.04393,0,.01465-.04394A.17054.17054,0,0,0,359.89746,523.47949Zm.07324,20.06836a.44008.44008,0,0,0,.07325.01465q0,.01465.02929.04395a.01294.01294,0,0,1-.01465.01464.08738.08738,0,0,1-.08789.01465.04691.04691,0,0,1-.02929-.04394Zm.16114-1.01074a.09938.09938,0,0,1,.07324.0293q.01464.0293,0,.02929a.11235.11235,0,0,1-.04395.01465.03884.03884,0,0,1-.04394-.04394Zm.835-19.99512q-.20508.23438-.249.23438a.3775.3775,0,0,1-.04394-.293q.07324-.14649.17578-.13184a.21736.21736,0,0,1,.10254.0586Q361.01074,522.498,360.9668,522.542Zm-.249.23438.52735,20.03906q-.02929.0293-.07324-.0293a.02894.02894,0,0,1,.01464-.04394q.0293-.01466.07325.02929Z" fill="#e6e6e6"/>
      <path d="M374.07129,545.584h.04394q.04395.01466-.02929.0586a.073.073,0,0,1-.07324.01465l-.04395-.0293-.0293-.0293q.02929.0293-.02929-.04394l-.0586-.10254a1.63518,1.63518,0,0,1-.13183-.21973,2.21144,2.21144,0,0,1-.19043-.4248q-.05861-.14649-.32227-.68848.01466.0293-.11719-.4248a2.06434,2.06434,0,0,0-.26367-.57129q-.04393-.05861-.02929-.0586a.37935.37935,0,0,0-.0586-.26367,1.53028,1.53028,0,0,1-.07324-.30762l-.04395-.11718q-.01464,0-.05859.08789a.19772.19772,0,0,1-.13184.08789.06767.06767,0,0,1-.07324-.04395.029.029,0,0,1,.01465-.04394.743.743,0,0,0,.19043-.26367q.04395-.1172-.08789-.19043a.11744.11744,0,0,1-.04395-.17579.15515.15515,0,0,0,0-.13183q-.05859-.14649-.05859-.11719-.0293-.10254-.11719-.08789-.07324-.20508-.05859-.21973.044-.07323-.04395-.07324-.08788.01466-.10254-.10254v-.11718q-.01464-.10254-.02929-.10254-.0879-.01465-.0586-.10254,0-.044-.08789-.01465t-.11718-.0293a2.92539,2.92539,0,0,1-.13184-.30762.22846.22846,0,0,1,.16113,0,.04693.04693,0,0,0,.04395-.02929.05973.05973,0,0,0,.01465-.04395q-.01466-.07325-.20508-.13183-.0879-.02931-.11719,0a.08123.08123,0,0,0-.01465.10254l.0586.10253q-.044.16115-.01465.19043t-.0293.19043q-.05859.14649.0293.19043.04393.04395.01465.16114a.11359.11359,0,0,0,.02929.13183q.07324.07324.23438,0,.07324-.04394.08789.01465.01464.04395-.044.10254-.07323.044,0,.07324a.65865.65865,0,0,1,.13184.16113q.044.07324.08789.16114.01466.02929.07324.16113a2.49222,2.49222,0,0,0,.11719.32227q.0293.04393-.04395.07324a.05937.05937,0,0,1-.07324-.0293l-.04394-.04394h-.0293a.04217.04217,0,0,0-.01465.02929.11582.11582,0,0,0,.01465.07324q.5127,1.20119.55664,1.28907.07325.13183.0293.19043a.17994.17994,0,0,0,.02929.26367.35646.35646,0,0,1,.10254.21973,2.03616,2.03616,0,0,0,.13184.3955q.07325.20508.0293.26368-.05861-.01465-.14649-.21973-.14647-.32227-.58594-1.34766a2.28409,2.28409,0,0,0-.16113-.293.869.869,0,0,1-.10254-.249,1.93854,1.93854,0,0,0-.08789-.26367q-.02929-.07324-.07324-.20508a1.84041,1.84041,0,0,1-.05859-.20508,1.7033,1.7033,0,0,1-.08789-.21972l-.0293-.11719-.0293-.10254a.04094.04094,0,0,0-.05859-.0293.04694.04694,0,0,0-.0293.04395.18374.18374,0,0,0,.01465.13183q.0293.0293-.0293.0586a.13211.13211,0,0,1-.08789,0q-.01464,0-.07324-.0586a.20828.20828,0,0,0-.11719-.02929q-.05859,0,0-.0586.10254-.14647-.04394-.19043-.0879-.02929-.04395-.11718.044-.07324.01465-.0879a.96447.96447,0,0,1-.08789-.27832,3.61614,3.61614,0,0,0-.13184-.38085q-.02929-.07324-.14648-.0293l-.08789.04394q-.07324.05861-.10254,0a.11584.11584,0,0,1-.01465-.07324.18038.18038,0,0,1,.07324-.0293.088.088,0,0,0,.0586-.05859.56675.56675,0,0,0-.07325-.4541q-.04394-.05859-.11718.01465-.01466,0-.08789.07324-.044-.01465-.01465-.08789.02929-.10254,0-.13184-.044-.04393,0-.07324a.07416.07416,0,0,1,.08789.0293q.02929.0293.04394.0293a.24.24,0,0,0,.0586-.01465.04219.04219,0,0,1,.01465-.0293q.01464-.05859-.0586-.08789l-.14648-.05859q-.13184-.02931-.0586-.13184l-.13183.07324q-.05859.04395-.07324.0293-.044,0-.01465-.04395.11718-.14647.10254-.20508-.01466-.0293.02929-.05859a.23543.23543,0,0,0,.0586-.30762.6911.6911,0,0,1-.08789-.36621q.01464-.07323-.08789-.04394-.16115.04394-.07325.02929-.11718.02931-.08789-.07324,0-.04393.01465-.04394l.0586-.08789a.37432.37432,0,0,1-.16114,0q-.07324,0-.05859-.0586a.13346.13346,0,0,1,.07324-.07324.05973.05973,0,0,1,.044-.01465.11254.11254,0,0,1,.04394-.01465q.05859-.0293.0586-.07324a.523.523,0,0,0-.04395-.13183.059.059,0,0,0-.05859-.0293.08805.08805,0,0,0-.0586.05859q-.0293.05859-.07324.0586a.05937.05937,0,0,1-.07324-.0293.27612.27612,0,0,1-.01465-.16113q.01466-.05861.16113-.08789-.26367-.5127-.17578-.39551a.36972.36972,0,0,1-.04394-.08789q-.16115-.61524-.11719-.4541a.25709.25709,0,0,0-.0293-.07325.01294.01294,0,0,0-.01465-.01464.19306.19306,0,0,1-.10254-.14649q-.02929-.13184-.08789-.16113a.49612.49612,0,0,1-.13183-.35156.11936.11936,0,0,0-.0293-.08789.373.373,0,0,1-.08789-.0879.11237.11237,0,0,0-.01465-.04394l-.01465-.0293-.01464-.02929a1.036,1.036,0,0,1-.04395-.17579.68027.68027,0,0,0-.26367-.43945.303.303,0,0,1-.0293-.11719.18882.18882,0,0,0-.17578-.17578.12671.12671,0,0,1-.10254-.05859.14054.14054,0,0,0-.10254-.04395q-.10254.01466-.05859-.07324a.08439.08439,0,0,0,.02929-.05859q0-.01465-.05859-.0293-.044-.01466-.0293-.04395.05861-.20506.07325-.14648a.17123.17123,0,0,0-.10254-.11719.21079.21079,0,0,1-.14649-.27832q.01466-.07324-.07324-.07324a.26409.26409,0,0,1-.17578,0,.22962.22962,0,0,1-.05859-.04394q.02929.0293-.04395-.0586l-.0293-.0293-.01465-.01464-.01464-.01465v-.01465q-.044-.08788-.16114-.04395-.08788.02931-.05859-.05859a.13579.13579,0,0,0-.10254-.17578.35126.35126,0,0,1-.17578-.11719l-.0293-.0293q.05861-.01464-.26367.11719-.10254.04395-.23437.10254-.01466.542-.0293.70313.01464-.07325-.11719.835-.05859.4248-.08789.65918a2.08136,2.08136,0,0,0,0,.35156,1.02927,1.02927,0,0,1-.0293.35156.90841.90841,0,0,0-.02929.21973,9.62418,9.62418,0,0,1-.04395.98144.49078.49078,0,0,0,.04395.30762.15084.15084,0,0,1-.01465.21973q-.044.04393-.01465.16113a3.99215,3.99215,0,0,0,.08789.43945.32089.32089,0,0,1-.0293.30762.10113.10113,0,0,0,.01465.16113.486.486,0,0,1,.14649.38086q-.02929.68849,0,.55664a.27632.27632,0,0,0,.01465.08789q-.01466-.04393.17578,1.83106a1.78108,1.78108,0,0,1-.0293.55664,4.04921,4.04921,0,0,0,.04394.82031v.08789h-.4248l-.0293-.04394a.151.151,0,0,0-.05859-.0293.08441.08441,0,0,0-.05859.0293l-.0293.04394h-.21973q.01466,0-.02929-.10254-.0879-.20508-.23438-.10254a.65011.65011,0,0,0-.13184.11719l-.08789.08789h-.01464l-.08789-.07324-.10254-.4834q-.044-.20508-.08789-.23437-.02931.01464-.01465.16113.0293.26367.02929.36621a.21517.21517,0,0,0-.16113-.04394.98671.98671,0,0,1-.16113.01464,1.17366,1.17366,0,0,1-.07324-.3955q0-.02931-.0586-.60059a.70093.70093,0,0,1,.0586-.43945q.01464-.044.05859-.41016a.53136.53136,0,0,0-.0293-.32227.95431.95431,0,0,1-.04394-.4248q.01464-.23437.01465-.21973,0-.10254.13183-.02929l.0293-.01465a2.97758,2.97758,0,0,0-.044-.35156q0-.07325-.04394-.07325-.16113-.01464-.10254-.21972a.42777.42777,0,0,0-.04395-.27832.11743.11743,0,0,1,.04395-.17578q.10254-.05861.01465-.11719a.24125.24125,0,0,1-.08789-.16113,1.98684,1.98684,0,0,0-.01465-.30762q-.0293-.43945-.04395-.498a.13007.13007,0,0,1-.01465-.05859,3.31881,3.31881,0,0,0,.01465-.58594,3.94246,3.94246,0,0,1,.0293-.55664,1.09122,1.09122,0,0,0,.0293-.33691,2.19426,2.19426,0,0,1-.0293-.52735q0,.04395.0293-.51269a2.00236,2.00236,0,0,1,.08789-.55664.938.938,0,0,0,.01465-.32227,5.76968,5.76968,0,0,1,.04394-1.23047,1.09873,1.09873,0,0,0,0-.26367,6.19977,6.19977,0,0,1,.05859-1.02539.85163.85163,0,0,0,.01465-.26367,3.86321,3.86321,0,0,0,.0293-.791.70254.70254,0,0,1,.04395-.20508.70279.70279,0,0,0,.04394-.20508q.01466-.46875,0-.38085.01466-.07324.10254-1.01075.01466-.17577.20508-1.47949.04395-.26367.05859-.4248.044-.20508.0586-.249a1.88385,1.88385,0,0,0,.14648-.41015,2.23347,2.23347,0,0,1,.13184-.42481.15094.15094,0,0,0,.02929-.05859q.10254-1.0254.10254-.9961a.38245.38245,0,0,1,.04395-.249.49647.49647,0,0,0,.07324-.16113,1.84419,1.84419,0,0,0-.43945.20508.37389.37389,0,0,1-.21973.08789.74479.74479,0,0,0-.14648.01465.56892.56892,0,0,1-.07325.02929l-.05859.0293a4.78408,4.78408,0,0,0-1.28906.835q-.13183.11719-.32227.26367-.27832.20508-.33691.249a3.50772,3.50772,0,0,0-.68848.55664l-.11719.11718q-.01464.0293-.04394,0a.04784.04784,0,0,1-.01465-.05859.52582.52582,0,0,1,.11719-.19043,2.30707,2.30707,0,0,1,.43945-.41016q.17579-.14648.21973-.17578.01464-.01464.20507-.17578a8.73827,8.73827,0,0,1,.87891-.71777,10.97973,10.97973,0,0,1,1.01074-.64453.59073.59073,0,0,0-.21972.01465,1.28608,1.28608,0,0,1-.19043.02929.08483.08483,0,0,1-.0586-.01465q-.01464-.0293.0293-.07324l.19043-.16113q.0293.05859-.26367.10254a.12114.12114,0,0,0-.11719.10254l.0293.08789a.12.12,0,0,1-.04395.07324q-.01464.0293-.05859.01465-.044-.02929-.01465-.08789-.01466.02929.01465-.04395,0-.0293-.01465-.02929-.10254-.04395-.10254-.0586,0,.13184-.11719.13184a1.08218,1.08218,0,0,0-.4248.17578q-.07324.04395-.32227.16113a1.28125,1.28125,0,0,0-.293.17578q-.04394-.07324.04395-.16113a4.41934,4.41934,0,0,1,.99609-.74707l.293-.14648a2.58245,2.58245,0,0,1,.27832-.13184l.26367-.13184q.10254-.04393.26368-.13183a.26554.26554,0,0,0,.17578-.16114v-.05859a.04787.04787,0,0,0-.0586-.01465q-.04393.01466-.11718.04395-.10254.04394-.13184.05859-.10254.04395-.13184-.0293t.07325-.10253q-.044.01464.13183-.10254.293-.20508.4541.04394.05861.0879.10254.08789a.27009.27009,0,0,0,.17578-.14648.30785.30785,0,0,0,.0293-.16113q-.07325-.16115.10254-.20508a1.87848,1.87848,0,0,1,.19043-.0586V523.626a.05969.05969,0,0,1,.01465-.04395q.01464-.16113.14648-.82031.02929-.10254.08789-.43945l.07325-.43946q.01464-.05859.04394-.16113.01466-.0293.05859,0a.04691.04691,0,0,1,.0293.04394,1.0038,1.0038,0,0,1-.01465.19043q-.04393.26369-.07324.57129,0,.02931-.05859.57129-.04395.30762-.08789.67383-.044.01466.07324-.04394a1.04772,1.04772,0,0,0,.20508-.14649.37351.37351,0,0,1,.20507-.11719q.01466,0,.0586.04395a.14242.14242,0,0,0,.07324.0293q.3955-.01465.42481-.23438a.04224.04224,0,0,1,.01464-.0293.0422.0422,0,0,0,.0293-.01464.27637.27637,0,0,1,.08789-.01465q.07324,0,.07324.02929-.01464-.07323.01465.11719.01466.07324.14649.07324.01464,0,.21972-.01464a1.008,1.008,0,0,0,.21973-.0293q.0293-.02929,0-.17578l-.01465-.0586q0-.05859.07324-.05859a.1805.1805,0,0,1,.10254.0293q.04395.02929.01465.14648-.01464.10254.14648.13184a.35989.35989,0,0,0,.13184.02929,1.351,1.351,0,0,0,.32227.01465,1.25733,1.25733,0,0,0,.33691.04395,2.85988,2.85988,0,0,1,.32227.04394.23337.23337,0,0,0,.249-.05859.31644.31644,0,0,1,.39551-.04395,3.17655,3.17655,0,0,0,.58594.21973.5096.5096,0,0,1,.21972.10254q.07324.04395.41016.26367a2.20251,2.20251,0,0,1,.36621.30762q.08788.08789.41015.35156a1.44824,1.44824,0,0,1,.55665.80566q.01464.01466.14648.293a2.7468,2.7468,0,0,1,.30762,1.06934,2.05948,2.05948,0,0,1-.0586.58594,3.33472,3.33472,0,0,1-.17578.52734,3.66585,3.66585,0,0,1-.41015.67383q-.21974.293-.249.33691a.89365.89365,0,0,1-.27832.293,1.07116,1.07116,0,0,0-.19043.17578,3.95167,3.95167,0,0,1-.84961.65918q-.16113.10254-.14648.10254a.17054.17054,0,0,1-.044.0293l-.01464.01465h0a.12994.12994,0,0,0-.01465.05859l.01465.01465a.04219.04219,0,0,0-.01465.0293.09582.09582,0,0,1-.044.04394.15216.15216,0,0,1-.11719.01465q-.04394,0-.13183.08789-.23437.27832-.293.35156a.3206.3206,0,0,1-.249.16114.10358.10358,0,0,0-.11719.11718.46937.46937,0,0,1-.20508.33692q-.48341.3955-.39551.35156a.14124.14124,0,0,0-.07324.05859,7.44732,7.44732,0,0,1-.55664.65918l-.13184.13184a.013.013,0,0,0,.01465.01465l.01465.01465a.40529.40529,0,0,1,.13184.10254.52777.52777,0,0,0,.16113.17578q0,.01464.0293.01464l.02929.01465a.01831.01831,0,0,0,.0293,0h.01465l.08789-.01465-.10254-.01464-.08789-.01465h.01465l.05859.02929a1.57272,1.57272,0,0,1,.293.20508q.02929.0293.19043.17578a1.17229,1.17229,0,0,1,.19043.17579q.23438.293.19043.43945-.01466.05859.07324.08789a.23516.23516,0,0,1,.14649.20508.66.66,0,0,0,.11718.23437.974.974,0,0,1,.21973.58594v.05859a.355.355,0,0,1,.11719.27832.04218.04218,0,0,0,.01465.0293h.04394a.37.37,0,0,1,.04395.08789,1.196,1.196,0,0,1,.02929.20508q.04395.27833.04395.17578a.07851.07851,0,0,0,.05859.08789.24982.24982,0,0,1,.16114.21973.97237.97237,0,0,0,.07324.17578.86111.86111,0,0,1,.14648.39551q0,.05859.0293.05859a.20994.20994,0,0,1,.10254.293.06972.06972,0,0,0,.04394.10254.18372.18372,0,0,1,.10254.13183q.01466.04395.08789.20508a1.27735,1.27735,0,0,1,.01465.26367q0,.04395.07324.0879a.35218.35218,0,0,1,.08789.08789.62313.62313,0,0,1-.01464.48339q.21972.01466.249.11719-.01466-.05859.293.73242a1.26763,1.26763,0,0,1,.11718.60059.37263.37263,0,0,0,.11719.21973q.07324.08789-.04394.17578a.26625.26625,0,0,0-.10254.35156.09437.09437,0,0,0,.04394-.05859.05906.05906,0,0,1,.0293-.0586.47719.47719,0,0,1,.13184-.04394q.07323,0,.02929.08789a.18369.18369,0,0,0,0,.14648q0,.07324-.08789.10254-.10254.02929-.07324.10254v.0293q.05859.17577.32227.13183a.12291.12291,0,0,1,0,.11719.15216.15216,0,0,0,.01464.11719q.01466.0293-.05859.04394a.12337.12337,0,0,0-.08789.16114,1.19949,1.19949,0,0,0,.11719.26367.89592.89592,0,0,1,.05859.19043.90731.90731,0,0,0,.0586.17578l.17578.43945q.498,1.30371.46875,1.24512a1.12814,1.12814,0,0,0,.19043.32226q.02929.01466.02929.0879a.08608.08608,0,0,0,.04395.07324q-.01466-.01465.01465.14648a1.14649,1.14649,0,0,0,.13183.35156,1.59455,1.59455,0,0,1,.19043.42481q.05859.13184,0,.19043-.02929.01464,0,.0293Q374.042,545.584,374.07129,545.584ZM363.99316,525.7207a.04668.04668,0,0,1-.07324.01465q-.04395-.0293.01465-.07324.02929-.0293.04395-.01465Q364.03711,525.66212,363.99316,525.7207Zm.4834,18.01758q.02929-.17579.16114-.13183.05859.01464.16113.02929.05859.14649.10254.23438l.01465.04394h-.42481Q364.44726,543.91406,364.47656,543.73828Zm.26367-3.16406-.02929-.04395.02929-.04394q.0586,0,.04395.05859Q364.78418,540.58887,364.74023,540.57422Zm.35157-15.61524a.536.536,0,0,1,.13183-.02929.15427.15427,0,0,0,.13184-.0586l.0293-.04394-.0293-.04395a1.65974,1.65974,0,0,0-.26367.13184.013.013,0,0,0-.01465.01465Q365.07715,524.959,365.0918,524.959Zm.05859,18.72071q-.0293-.0293.14649.13183l.01464.0293v.0293h-.21972l.01465-.0586a.82348.82348,0,0,0,.01464-.16113Zm.14649-18.53028a.46876.46876,0,1,0,.05859-.10253Q365.26758,525.09082,365.29688,525.14941Zm.77636,2.88575q-.02929-.044-.04394.01464a.06635.06635,0,0,0,.01465.07325q.04394-.01466.04394-.0293A.12994.12994,0,0,0,366.07324,528.03516Zm.10254-.65918q-.05859,0-.08789.07324a.45435.45435,0,0,0,0,.32226.40084.40084,0,0,1,.13184-.33691q.02929-.01466,0-.04395A.05973.05973,0,0,0,366.17578,527.376Zm-.01465-.67383q-.0293-.02929-.04394.01465l-.01465.07324v.05859q0,.04395.0293.0293Q366.26368,526.81934,366.16113,526.70215Zm.0293-.95215a1.53461,1.53461,0,0,0-.05859.62988,1.60658,1.60658,0,0,0,.11718-.542Q366.249,525.75,366.19043,525.75Zm.16113-.60059a.477.477,0,0,0-.13183.04395.24088.24088,0,0,0-.01465.07324v.16113a1.04509,1.04509,0,0,0,.10254-.19043Q366.33692,525.14942,366.35156,525.14941Zm-.02929-.48339a.08483.08483,0,0,0-.0586-.01465v.07324l.04395-.01465Q366.33692,524.68067,366.32227,524.666Zm.14648,1.01074a.302.302,0,0,1-.05859.11719.2531.2531,0,0,0-.01465.14648l.02929.04395h.0586a2.43032,2.43032,0,0,0,.01465-.293q.01464-.01466-.01465-.0293A.013.013,0,0,0,366.46875,525.67676Zm.13184-.41016a.59613.59613,0,0,1,.02929-.14648.74563.74563,0,0,1-.14648.01465.23962.23962,0,0,1-.01465.05859v.05859a.09021.09021,0,0,0,.07324.10254Q366.58594,525.35449,366.60059,525.2666Zm.41015-1.80176q-.01464.01466-.11719,0a.55432.55432,0,0,0-.20507.0586,1.06879,1.06879,0,0,1-.20508.07324.73922.73922,0,0,1,.498-.17578q.04394,0,.07324.05859A.029.029,0,0,0,367.01074,523.46484Zm-.26367,7.33887q.01466-.08789-.04395-.10254a.05937.05937,0,0,0-.07324.0293.44312.44312,0,0,0-.02929.20508v.01465a.133.133,0,0,0,0,.14648q.02929.0293.04394.0293.044.01464.01465-.04395-.01466-.0293-.05859-.13183v-.01465q0-.01466.05859-.0586A.13733.13733,0,0,0,366.74707,530.80371Zm.498-5.72754a1.45478,1.45478,0,0,0-.293,0q-.0293.0879-.0293.07324l-.01465.14649q0-.01466-.01465.14648-.01464.0879-.05859.57129a.25963.25963,0,0,0,.05859.21973.04694.04694,0,0,0,.04395.0293.03885.03885,0,0,0,.04395-.04395.89943.89943,0,0,1,.01464-.11719.88073.88073,0,0,0,.01465-.13183q.02929-.10254.10254-.08789.05859.01464.044.10254.01464-.02931.02929.16113.044.32226-.26367.35156-.10254,0-.11719.04395a.20825.20825,0,0,0,.04395.20507q.10254.0879.13184.08789.16113,0,.13183.17579-.04395.26367-.20508.249-.07323-.01466-.05859.11719l.01465.4248a1.79448,1.79448,0,0,1,.05859-.17578q.0293-.13184.04395-.19043a.74535.74535,0,0,1,.02929.49805.088.088,0,0,1-.05859.05859q-.04395,0-.04395-.07324a.06226.06226,0,1,0-.05859,0q-.13184.35155.16113.46875.05861.01464.0293.08789-.0293.0293-.04394.0293h-.11719a.094.094,0,0,0-.10254.08789.87235.87235,0,0,0-.01465.19043q-.01466.17577.01465.19043.02929.0293.17578.01464h.04395a.05179.05179,0,0,1,.05859.0586.11938.11938,0,0,1-.0293.08789q-.02929.0293-.14648.01465-.10254-.0293-.14649.10254-.01464.07323-.02929.13183a1.06243,1.06243,0,0,0,0,.27832q-.01466-.02929-.01465.30762a2.668,2.668,0,0,1-.01465.293.22492.22492,0,0,0,.11719.21973.2516.2516,0,0,1,.11718.30761,1.29081,1.29081,0,0,0-.01464.5127.41123.41123,0,0,1-.01465.19043q.01464-.044,0,.05859a.80269.80269,0,0,1,.10254-.04394q.08789-.02931.10254-.01465a.11254.11254,0,0,0,.04394.01465h.0293l.01465-.01465.04394-.0293a.58222.58222,0,0,1,.08789-.07324.49539.49539,0,0,0,.21973-.249.90655.90655,0,0,1,.293-.33691q.20508-.14649.19043-.13183.08788-.07324.10254.07324l.02929.01465.13184-.13184a1.27049,1.27049,0,0,0,.11719-.13184q.05859-.04393.02929-.07324-.08788-.14648.11719-.23437a.4366.4366,0,0,0,.19043-.20508q.05859-.11719.16113-.07324t.08789-.07325a.20949.20949,0,0,1,.0879-.16113q.16113-.14649.21972-.20508a4.37142,4.37142,0,0,0,.35156-.33691l.04395-.04395.11719-.08789.05859-.02929.08789-.07325a.89894.89894,0,0,1,.11719-.07324l.0293-.02929.02929-.01465a.58133.58133,0,0,0,.08789-.07325,1.79937,1.79937,0,0,1,.38086-.249.40427.40427,0,0,0,.19043-.16113,3.70475,3.70475,0,0,1,.249-.32227q.17577-.20508.23437-.27832a1.037,1.037,0,0,1,.21973-.26367.22732.22732,0,0,0,.04394-.16113,1.50305,1.50305,0,0,1-.02929-.249,1.159,1.159,0,0,0-.0293-.27832,1.13019,1.13019,0,0,0-.0586-.13183,4.32465,4.32465,0,0,1-.43945-.55664.59528.59528,0,0,0-.14648-.13184,1.97156,1.97156,0,0,1-.249-.16113,1.46755,1.46755,0,0,0-.26367-.16113l-.10254-.10254a.35549.35549,0,0,0-.11718-.08789.59557.59557,0,0,0-.14649-.0293.574.574,0,0,1-.13183-.05859,2.742,2.742,0,0,0-.77637-.21973,5.75719,5.75719,0,0,0-.61524-.10254q-.14648-.01466-.30761-.01465h-.14649l-.02929-.01465a.08488.08488,0,0,0-.0586.01465,3.65877,3.65877,0,0,0-.38086.0586Q367.27441,525.07618,367.24512,525.07617Zm-.498-.70312a.06222.06222,0,0,0,0,.05859l.0293.0293q.01464-.044.02929-.10254-.05859-.02929-.01464,0A.029.029,0,0,0,366.74707,524.37305Zm.13184,5.78613a.08609.08609,0,0,1,.07324.04394.11532.11532,0,0,1-.0586.16114q-.01464.01464-.04394-.01465a.114.114,0,0,1-.04395-.10254A.10033.10033,0,0,1,366.87891,530.15918Zm.04394-.76172.04395.04395a.184.184,0,0,1-.04395.07324q-.04395.044-.07324-.01465a.04784.04784,0,0,1,.01465-.05859Zm.14649-4.96582a.26154.26154,0,0,0,.07324-.07324.57006.57006,0,0,1-.07324.0293v.04394Zm.33691-.14648q-.02929.04393.01465.04394a.06767.06767,0,0,0,.07324-.04394l-.04394-.0293A.04691.04691,0,0,0,367.40625,524.28516Zm.82031,6.25488q-.0293.0293-.04394-.01465l.01465-.05859h.05859Q368.28516,530.51073,368.22656,530.54Zm.19043,4.86328q.07324-.0293.10254.0293a.08437.08437,0,0,1-.0293.05859q-.08788.04395-.11718-.01465Q368.3584,535.43263,368.417,535.40332Zm.26367.17578.01465.01465a.167.167,0,0,1-.08789.05859q-.05859,0-.05859-.01464a.04218.04218,0,0,1,.01465-.0293A.135.135,0,0,1,368.68066,535.5791Zm.0293.61524q.01466-.01465.04395,0,.02929.0293,0,.07324-.044.0293-.07325,0A.05937.05937,0,0,1,368.71,536.19434Zm.13184-12.89063a.04786.04786,0,0,1-.0586-.01465l-.05859-.05859.04394-.0293a.45414.45414,0,0,1,.0879.0293Q368.90039,523.27442,368.8418,523.30371Zm.68847,14.37012q.044-.02929.0586-.01465.05859.0293-.0293.08789a.073.073,0,0,1-.07324.01465Q369.44238,537.73243,369.53027,537.67383Zm.16114-14.25293q-.0879-.01466-.08789-.07324a.06924.06924,0,0,1,.05859-.07325.13551.13551,0,0,1,.17578.07325.04784.04784,0,0,1-.01465.05859A.12128.12128,0,0,1,369.69141,523.4209Zm.07324,15.293q.05859.01464.04394.08789l-.02929.04394h-.0586q-.05859-.02929-.01465-.10254A.041.041,0,0,1,369.76465,538.71387Zm.38086.32226q.16113.20508-.16113.35157h-.0586q-.02929-.13185-.0293-.14649a.05743.05743,0,0,1,.04395-.05859.74911.74911,0,0,0,.13184-.13184Q370.11621,539.00683,370.14551,539.03613Zm.05859.38086q-.05859.01465-.04394-.01465a.05743.05743,0,0,1,.05859-.04394l.04395.01465A.09437.09437,0,0,1,370.2041,539.417Zm-.0293-15.791q-.01464.02929.0293.07324.0293.04395.21973.08789v.01465h.01465a.17473.17473,0,0,0,.14648.04394q.05859-.01464.05859-.02929.02931-.0293-.04394-.0293a.98568.98568,0,0,0-.16113.01465h-.01465v-.01465a.45043.45043,0,0,0-.11719-.17578Q370.21876,523.56738,370.1748,523.626Zm.73243,17.46093a.1124.1124,0,0,0-.01465.04395.08123.08123,0,0,1-.10254-.01465q-.02929-.0293.0293-.04394A.08738.08738,0,0,1,370.90723,541.08691Zm.01465.21973q.04394-.01464.05859.05859l-.044.01465a.05905.05905,0,0,1-.05859-.02929Q370.87793,541.32128,370.92188,541.30664Zm.11718-2.76855q.05859-.04395.04395-.08789-.01466-.0879-.14649,0-.05859.0293-.02929.07324Q370.93652,538.582,371.03906,538.53809Zm.08789.58593q.02929.04395.10254.01465a.04094.04094,0,0,0,.0293-.05859q-.01466-.05859-.08789-.0293A.05339.05339,0,0,0,371.127,539.124Zm.46875.82032q.05861-.07325-.01465-.10254a.19644.19644,0,0,1-.14648-.23438q0-.10254-.04395-.13183-.10253-.1172-.11718-.11719-.01466-.02929-.07324,0-.04395.01464-.01465.04394a3.36041,3.36041,0,0,1,.16113.55664q.0293.14649.07324.13184Q371.44922,540.09082,371.5957,539.94434Zm-.27832,1.12793.01465-.01465a.10916.10916,0,0,0-.04394-.11719.15187.15187,0,0,0,0,.13184Zm.11719.30761q.01466-.01464-.01465-.08789,0-.05859-.05859-.02929a.04784.04784,0,0,0-.01465.05859A.09385.09385,0,0,0,371.43457,541.37988Zm.05859.23438v.04394a.06224.06224,0,0,0,.0586,0q.02929-.01464.02929-.02929Q371.56641,541.55566,371.49316,541.61426Zm.33692-.70313a.04222.04222,0,0,1,.0293-.01465l.04394.01465a.09685.09685,0,0,1-.01465.08789q-.01464.0293-.02929.0293a.05967.05967,0,0,1-.04395-.01465Q371.77148,540.98438,371.83008,540.91113Zm-.0293.77637v.0293l.044.05859a.44.44,0,0,1-.01465-.07324Zm.07324-1.05469v-.04394l-.04394-.01465a.03662.03662,0,0,0,0,.05859Zm.16114,3.31055q.02929-.01465.02929.01465.01466.04394-.04394.05859-.01466.01466-.01465,0Q371.99121,543.98731,372.03516,543.94336Zm.17578.27832a.94977.94977,0,0,0,.05859.14648q.08789.20508,0,.17579-.04395,0-.11719-.16114a.34472.34472,0,0,1-.04394-.13183q-.01466-.05861.0293-.07325T372.21094,544.22168Zm-.0293,1.97754.0293.0293v.02929a.03663.03663,0,0,1-.0586,0l-.02929-.02929q-.01466-.02931.01465-.0293Q372.15234,546.18457,372.18164,546.19922Zm.55664.21973q.05859.05859.13184.14648.01464.044-.01465.05859a.06635.06635,0,0,1-.07324-.01464,3.13494,3.13494,0,0,0-.249-.30762v-.04395h.0293a.05973.05973,0,0,1,.04395.01465Q372.63575,546.30176,372.73828,546.419Zm.01465-4.6875q.01466,0-.0293-.11719a.13129.13129,0,0,1,.08789.08789l-.01464.04394Zm-.0293,3.09082a.13109.13109,0,0,1,.08789.07324q0,.0293-.01464.02929-.04395.02931-.0586-.01464Q372.75294,544.93946,372.72363,544.82227Zm.27832.51269a1.69877,1.69877,0,0,0,.21973.16113.05906.05906,0,0,1-.0293.0586.13007.13007,0,0,1-.05859-.01465A.24846.24846,0,0,1,373.002,545.335Zm.16114,1.66992q.04394-.01464.07324.0586l-.01465.02929q-.05859.0293-.07324-.05859Q373.14844,547.00488,373.16309,547.00488Zm.07324-2.13867q.04393-.044.07324.04395l-.01465.04394q-.05859.01466-.07324-.0293A.04784.04784,0,0,1,373.23633,544.86621Zm.4541,1.31836.0293.04395v.04394a.04786.04786,0,0,1-.0586-.01465.09575.09575,0,0,1-.04394-.04394q0-.01465.02929-.0293Q373.66114,546.16991,373.69043,546.18457Zm.64453.293a1.07475,1.07475,0,0,1,.14649.19043q.0293.04395-.01465.05859-.05861.01466-.07325-.01465-.13184-.19043-.293-.3955l.01464-.0293.0293-.01465q.044.01466.044.0293A2.206,2.206,0,0,1,374.335,546.47754Zm.4834.70312q.044,0,.07324.08789-.02929.02931-.0293.04395-.07323.0293-.07324-.08789A.04694.04694,0,0,1,374.81836,547.18066Z" fill="#e6e6e6"/>
      <path d="M385.81348,524.124a.62457.62457,0,0,1,.05859.32227.759.759,0,0,1-.05859.35156.18077.18077,0,0,1-.13184.08789q-.249.05859-.249.26367v.14649a1.21044,1.21044,0,0,0-.01465.16113.24409.24409,0,0,0,.17578.21973l.04395.04394a.26289.26289,0,0,1-.21973.13184.24706.24706,0,0,0-.19043.27832,6.31649,6.31649,0,0,0-.11719.68848.39731.39731,0,0,1-.19043.27832.38966.38966,0,0,1-.32226.05859,3.19324,3.19324,0,0,0-.76172-.10254q-.05859-.01464-.89356.04395-.20508.01464-.19043.01464a11.1481,11.1481,0,0,0-1.49414.16114,1.15807,1.15807,0,0,1-.26367,0,1.17509,1.17509,0,0,0-.26367,0,3.28234,3.28234,0,0,0-.84961.27832.44378.44378,0,0,1-.27832.10254,1.60422,1.60422,0,0,0-.68848.23437.25.25,0,0,0-.13183.21973q-.044.45409-.13184,1.15722-.07325.76173-.08789.791a.59873.59873,0,0,0-.0293.19043q0-.10254-.21972,1.83105-.05861.48341-.0586.45411-.01464.20508.16114.19043a15.1728,15.1728,0,0,0,1.64062-.293,1.745,1.745,0,0,1,.70313-.07324,1.54126,1.54126,0,0,1,.4248-.04395q.13184-.01465.14648.04395t-.08789.14648q-.05859.0293-.05859.07324.21972.0879.11719.38086a1.90589,1.90589,0,0,0-.07324.20508q-.01466.11718.01464.13184.10254.05859.10254.33691a.29326.29326,0,0,0,.0293.19043.18933.18933,0,0,1-.01465.19043.29.29,0,0,0-.04394.33691.23925.23925,0,0,0,.27832.11719q.08788-.01466.11718.04395a1.86,1.86,0,0,1-.36621.16113q-.11718.044-.41015.19043a2.12711,2.12711,0,0,1-.41016.17578,10.40856,10.40856,0,0,0-1.01074.41016,2.92231,2.92231,0,0,1-.5127.19043.73552.73552,0,0,0-.23437.07324.71523.71523,0,0,1-.42481.14648q-.19042.02929-.20507.26367-.11719,1.4795-.11719,1.55274-.01466.21972,0,.67383v.67382q-.01466.293-.0586.82032-.01464.21972.10254.249.07324.01466.04395.07324-.0879.13184.08789.35156a.276.276,0,0,0,.30762.11719,14.37965,14.37965,0,0,0,2.50488-.74707.46252.46252,0,0,1,.33691-.05859.15772.15772,0,0,0,.14649-.01465,1.27135,1.27135,0,0,1,.64453-.23438q.07324-.01464.33691-.07324a1.89106,1.89106,0,0,1,.35157-.04394.10033.10033,0,0,1-.07325.08789.15856.15856,0,0,0-.07324.05859l.0293.04395a2.46207,2.46207,0,0,1,.65918-.17578.79516.79516,0,0,0,.14648-.08789.12746.12746,0,0,0-.13183-.01465.1833.1833,0,0,1-.11719.01465q-.0293-.02931,0-.0879.04395-.07323-.01465-.10253.04395.0293-.16113.05859a.83084.83084,0,0,1,.19043-.42481q.0293-.04394.07324,0,.07325.0879.13184-.01464a.40309.40309,0,0,1,.38085-.17579q.02931-.3076.11719-.36621.07324-.04393.30762.10254,0,.01466-.14649.01465-.13184,0-.16113.07324a.4443.4443,0,0,0,.33692.16114l.19043.13183a.19742.19742,0,0,1,.07324.23438q-.02929.11718.10254.08789a5.06556,5.06556,0,0,1,.70312.08789q.21974.0293.13184.30762-.01466.04393-.0586.21972a.70253.70253,0,0,1-.07324.20508q-.07324.16113-.13183.01465a.53328.53328,0,0,0-.17579-.23438,2.13218,2.13218,0,0,1-.14648.26368l.01465.04394a.64719.64719,0,0,1,.11719.04395q.05859.01464.04394.08789a1.26208,1.26208,0,0,0-.17578.10254.1258.1258,0,0,0,.13184.04394.44416.44416,0,0,1,.13183.01465.15919.15919,0,0,1-.17578.13184,1.56005,1.56005,0,0,0-.16113.01464,1.21044,1.21044,0,0,1-.16113.01465.47277.47277,0,0,0-.32227.10254.21661.21661,0,0,1-.19043.0586q-.16113-.01466-.14648.08789a.05179.05179,0,0,0,.05859.05859q0-.01465.0293-.01465a.11254.11254,0,0,1,.04394-.01465.211.211,0,0,1,.16113.0293,3.15672,3.15672,0,0,1-.791.249.10491.10491,0,0,1,.01465-.11718.104.104,0,0,0,.01465-.08789q-.20508-.07324-.27832-.0293-.02931.01464-.65918.17578-.77637.20508-1.02539.293a.44311.44311,0,0,1-.14649-.04395.10753.10753,0,0,0-.14648.0293.52166.52166,0,0,1-.30762.14648q-.14649.02931-.32227.07325a1.07294,1.07294,0,0,1-.27832.05859,1.20183,1.20183,0,0,0-.4248.13184q-.45411.20506-.65918.05859-.0879-.05859-.11719.08789-.04395.17578-.19043.08789-.13183-.08788-.26367.07324-.14649.17579-.249.13184.01464.01464-.10254.05859-.39551.21974-.41016.21973-.044-.01466-.10254.07324t.0293.10254a.48171.48171,0,0,0,.14648-.0293.3393.3393,0,0,1,.07325-.04394.5686.5686,0,0,0,.07324-.0293q.14647-.04395.17578.01465,0,.044-.13184.11719a.93381.93381,0,0,0-.38086.32226q-.08788.20508-.21972.23438-.11719.0293-.13184.20508a.40788.40788,0,0,0,.23438-.07325.32227.32227,0,0,1,.249-.05859l-.01465.04395a1.89027,1.89027,0,0,0-.57129.46875.01294.01294,0,0,1-.01465.01464.04217.04217,0,0,1-.02929.01465,5.67121,5.67121,0,0,1-.80567.52735.52044.52044,0,0,1-.35156.11718.69611.69611,0,0,1-.19043-.08789q-.08788-.14647-.20508-.05859a.09889.09889,0,0,1-.14648.01465.222.222,0,0,1-.0293-.20508,1.90631,1.90631,0,0,1,.08789-.27832.18245.18245,0,0,0,0-.17578q.044-.04395-.293.36621,0,.01464.0586-.01465t.05859.0293a.57348.57348,0,0,1-.04395.19043q-.04394.14647-.08789.14648a.809.809,0,0,1-.30761-.07324q0,.0293.08789-.21973a.20985.20985,0,0,0-.0293-.23437q-.0293,0-.10254.11719a.40553.40553,0,0,1-.23437.19043q-.16113.04394-.11719-.16114a.38154.38154,0,0,1,.05859-.10254.41686.41686,0,0,0,.07325-.08789.364.364,0,0,0-.13184-.01465q-.07325,0-.08789-.08789a.44334.44334,0,0,1,.05859-.36621.322.322,0,0,0,.08789-.23437.1267.1267,0,0,1,.0586-.10254.24463.24463,0,0,0,.10254-.07324l-.01465-.0293q-.02929-.0293-.11719,0a.066.066,0,0,1-.08789-.05859.53208.53208,0,0,1,.08789-.33692,1.4236,1.4236,0,0,1,.39551-.39551.30861.30861,0,0,0,.19043-.23437,1.64877,1.64877,0,0,0,.23437-.92285q0-.0879.01465-.23438.01466-.16113.01465-.21972,0-.26369-.08789-.33692t.01465-.30762q.01464-.0293.05859-.10253l.04395-.0879q.05859-.13184-.07325-.08789-.02929.01466-.02929-.05859a.20394.20394,0,0,1,.01465-.08789.77029.77029,0,0,0,.11718-.57129q-.01464-.21972,0-.80566.01466-.32228.08789-.92285.07325-.6299.08789-.9375a.66238.66238,0,0,0-.17578-.55665l-.19043-.38085q-.07323-.13185.11719-.17579a.48778.48778,0,0,0,.26367-.10254l-.16113-.08789q-.27832-.13184-.07324-.38085a.50546.50546,0,0,0,.10254-.16114q0-.04394-.11719-.16113l-.0293-.07324q0-.0293.17578-.13184a.06973.06973,0,0,0,.04395-.10254q-.07324-.13184.08789-.21972.14649-.05861.16113-.30762a8.8417,8.8417,0,0,1,.13184-1.17188,4.506,4.506,0,0,0,.11719-.76172,5.25805,5.25805,0,0,1,.10253-.74707.42407.42407,0,0,0,0-.16113,1.92528,1.92528,0,0,1,.04395-.4541,7.98084,7.98084,0,0,0,.21973-1.34766q0-.08789.01465-.26367.01464-.19043.02929-.27832a.21816.21816,0,0,0-.14648-.249.57172.57172,0,0,0-.35156-.0293,3.65177,3.65177,0,0,1-.74708-.0293q-.11718,0-.17578-.16113a.47265.47265,0,0,1-.01464-.30762.32534.32534,0,0,1,.04394-.10253,2.3869,2.3869,0,0,0,.26367-1.0254,1.3047,1.3047,0,0,1,.498-.86425,1.40549,1.40549,0,0,1,.36621-.19043q.27832-.1172.38086-.16114a1.23512,1.23512,0,0,0,.23437-.17578.38257.38257,0,0,1,.23438-.04394q.16113,0,.10254-.17578a.26928.26928,0,0,1,0-.17578.33789.33789,0,0,0,.01465-.16114q.04393-.02929.08789.0293a.11992.11992,0,0,0,.07324.04394.28218.28218,0,0,1,.17578-.249.83461.83461,0,0,0,.23438-.13183q.04394-.02931.08789.04394.07324.10254.08789.10254.05859-.0293.05859-.17578.01466-.14649.10254-.10254.04395.0293.10254-.04395.05859-.05859.10254-.01464a.224.224,0,0,1,.04394.11718.22406.22406,0,0,0,.04395.11719.17029.17029,0,0,0,.0293.04395q.04394.01464.07324.16113.04395.11718.11719.13183.01464,0,.30761-.05859,1.9629-.38086,2.3291-.46875.46875-.08789,1.88965-.27832a10.207,10.207,0,0,1,1.20117-.11719.86475.86475,0,0,1,.542.13184A3.81791,3.81791,0,0,1,385.81348,524.124Zm-10.53223,17.62207q.08788-.0293.11719.04395a1.76917,1.76917,0,0,0-.39551.293.2298.2298,0,0,1-.23438.05859A1.12575,1.12575,0,0,1,375.28125,541.74609Zm.80566-1.78711q.044-.05859-.02929-.08789-.05861-.0293-.0586.07325v.70312a1.192,1.192,0,0,0,.07325-.33691A.46842.46842,0,0,1,376.08691,539.959Zm.04395-.8789q.07325-.3955-.10254-.542a3.88893,3.88893,0,0,1,0,.835v.249Zm.4248-6.18164a6.65048,6.65048,0,0,0,.20508-2.124q-.21972,1.52345-.249,1.77247A.56546.56546,0,0,0,376.55566,532.89844Zm.52735-4.11621q.01464-.1172-.07324-.13184-.13184,1.40625-.23438,1.9043a.27784.27784,0,0,0,.11719-.20508Q376.98047,529.69044,377.083,528.78223Zm5.39062,12.832q-.0293.04394.39551-.14649a.22335.22335,0,0,1-.17578.16114h-.11719A.6168.6168,0,0,0,382.47363,541.61426Zm2.05078-.73242a.13243.13243,0,0,1,.11719.07324.61987.61987,0,0,1-.32226.11719.52693.52693,0,0,0-.33692.10253.35289.35289,0,0,0,.17578.0293.21775.21775,0,0,1,.16114.0586l-.01465.04394a2.15421,2.15421,0,0,1-.77637.14648q-.08788,0-.08789-.07324t.08789-.08789a.23618.23618,0,0,0,.19043-.08789.33941.33941,0,0,0-.07324-.04394q-.04395-.01466-.04395-.04395,0-.07325.0586-.07324.11718-.01465.43945-.08789A1.67441,1.67441,0,0,1,384.52441,540.88184Zm-.4248-1.77246a3.84484,3.84484,0,0,1-.43945-.249.17426.17426,0,0,0,.08789.11719q.07324.05859.07324.10254a.45424.45424,0,0,0,.04394.13183q.02931.01465.08789-.02929Q384.11426,539.09472,384.09961,539.10938Z" fill="#e6e6e6"/>
      <path d="M401.24707,525.94043a2.582,2.582,0,0,1,.32227,1.46484q-.01466.13184-.01465.14649-.04395.14648-.14649.61523a3.96817,3.96817,0,0,1-.16113.60059,2.12584,2.12584,0,0,0-.14648.68847,2.48372,2.48372,0,0,1-.13184.5127l-.38086,1.04a2.42759,2.42759,0,0,0-.21973.49805,4.80133,4.80133,0,0,1-.41015.77636q-.10254.19044-.26367.4834-.20508.36621-.26368.46875-.04394.07324-.02929.0586a2.87759,2.87759,0,0,0-.27832.3955,2.87513,2.87513,0,0,1-.26367.42481q-.17579.21972-.80567,1.23047-.5127.791-.64453.95215-.35157.43944-.84961,1.20117a4.60728,4.60728,0,0,1-.27832.3955q-.20508.249-.293.38086-.30762.45411-.4541.64454-.58594.80565-.9082,1.17187.02929-.0293-.0586.08789-.27831.64453-.60058,1.52344a6.44046,6.44046,0,0,0-.17578.67383q-.01466.02929.07324.04394l.01465.11719a.17477.17477,0,0,1-.04395.14648.53622.53622,0,0,0-.08789.10254.22419.22419,0,0,0,.01465.13184.881.881,0,0,1,.0293.14648.12582.12582,0,0,1-.04395.13184.97647.97647,0,0,0-.21973.542l.10254.04395a.111.111,0,0,1,.07324.14648.89943.89943,0,0,1-.01464.11719.4871.4871,0,0,1-.0293.11719.03884.03884,0,0,1-.04395.04394.06635.06635,0,0,1-.07324-.01465.2601.2601,0,0,1-.11719-.17578q0-.01464.01465-.21972a.13391.13391,0,0,1-.08789-.10254.842.842,0,0,0-.07324-.32227.23555.23555,0,0,0-.17578.26367A.85891.85891,0,0,1,393,544.0166a.24034.24034,0,0,0-.0293.27832q.04395.07324-.01465.08789a.10172.10172,0,0,1-.10253-.02929.53716.53716,0,0,1-.23438-.32227q-.01464-.08788-.10254-.43945a2.77611,2.77611,0,0,1-.08789-.4541.90564.90564,0,0,0-.07324-.23438q-.293.10254-.41016-.249-.0293,0-.19043.16113-.05859.05859.0293.14648a.26148.26148,0,0,1,.0293.293,1.14063,1.14063,0,0,0-.20508-.27832.46132.46132,0,0,1-.14649-.293.18027.18027,0,0,0-.02929-.07324q-.14649-.08789-.11719-.20508a.771.771,0,0,1,.08789-.21972,1.52084,1.52084,0,0,0,.05859-.19043q.02931-.10254.0586-.11719.11718-.0293.27832-.35156.17578-.35157.32226-.39551-.02929,0,.0586-.20508-.13184-.04395,0-.19043a.94581.94581,0,0,0,.23437-.82031q-.14647-.98145-.23437-1.9043a3.91841,3.91841,0,0,0-.08789-.57129q-.10254-.48339-.11719-.57129-.10254-.60059-.19043-1.64062-.07325-.86425-.07324-.92285a.24742.24742,0,0,0-.11719-.249.62458.62458,0,0,1-.19043-.41015q-.0293-.33691-.10254-1.02539a.21793.21793,0,0,0-.10254-.19043.364.364,0,0,0-.01465.30761.80441.80441,0,0,1-.05859.62989q-.02929-.21974-.08789-1.36231-.01466-.30762-.01465-1.4209,0-1.12792.01465-1.40625.05859-.95214.07324-1.37695-.07324-.0293-.05859-.0293-.62988.43945-.68848.4834a3.71637,3.71637,0,0,1-.542.43946.50214.50214,0,0,1-.36621.13183.82728.82728,0,0,0-.4834.10254q-.14649.10254-.13184-.10254.01466-.11718-.05859-.14648-.13184-.05861-.0293-.21973l.11719-.21973q.01466-.23437-.01465-.20507.02929-.02931-.04394-.04395-.11719-.01464-.0293-.11719l.27832-.27832a3.25472,3.25472,0,0,1,1.01074-.9375q.14649-.11718.39551-.32226.293-.23437.39551-.32227.11718-.08789.01465-.16113a.61573.61573,0,0,1-.14649-.20508.21405.21405,0,0,1,.0586-.27832q.13184-.11718.14648-.10254.17579.10254.14648.21973.01466-.02929-.02929.10254-.02929.16113.01465.17578a.17831.17831,0,0,0,.20507-.01465,1.03282,1.03282,0,0,0,.10254-.07324q.1172-.10254-.04394-.17578-.0879-.0293-.08789-.07325a.09155.09155,0,0,1,.08789-.11718q.23438-.0293.4834-.43946a.68464.68464,0,0,1,.19043-.23437.74672.74672,0,0,0,.30761-.36621.10516.10516,0,0,1,.044-.07324,1.09061,1.09061,0,0,0,.33691-.33692,1.51879,1.51879,0,0,1,.293-.36621q-.01464,0,.11719.05859.293.11719.249-.20507-.01464-.10254.07324-.11719.14649-.01465.11719.10254a1.08,1.08,0,0,0,0,.43945.97457.97457,0,0,1,.01465.43945q-.044.20508.17578.14649a2.852,2.852,0,0,0,.5127-.17578,9.23964,9.23964,0,0,1,1.3916-.41016,10.72779,10.72779,0,0,1,1.14258-.14648,1.48077,1.48077,0,0,1,.84961.13183,1.30386,1.30386,0,0,0,.58593.07324h.14649a5.2654,5.2654,0,0,0,.68847.30762,4.50019,4.50019,0,0,1,.791.36621q.07325.04395.26367.14649.16113.08788.249.14648A3.87358,3.87358,0,0,1,401.24707,525.94043Zm-1.4209,2.65137a.44334.44334,0,0,0-.05859-.36621q-.17578.26367-.11719.23437a.47909.47909,0,0,1,.01465-.19043,3.94723,3.94723,0,0,0,.0293-1.25976.96022.96022,0,0,0-.27832-.45411q-.07325-.07323-.10254-.02929-.0293.08788-.08789.01465a.33877.33877,0,0,1-.04395-.07325.15891.15891,0,0,0-.0293-.05859q-.21972-.26367-.41015-.19043-.11719.05859-.11719-.04395t-.08789-.07324q-.11719.044-.11719-.04394-.01464-.16113-.23437-.17578a1.01534,1.01534,0,0,1-.20508-.0293,1.01534,1.01534,0,0,0-.20508-.0293,1.63491,1.63491,0,0,1-.38086-.07324,1.49267,1.49267,0,0,0-.39551-.07324,2.38754,2.38754,0,0,1-.30761-.0293q-.23437-.01464-.32227-.01465a6.7071,6.7071,0,0,0-1.80176.35157,4.33516,4.33516,0,0,0-.55664.20507q-.61522.23438-.51269.249-.0879-.01465-.07325.11718,0,.05861.10254.08789.01466,0,.13184.01465a.32611.32611,0,0,1,.14648.0293,3.23538,3.23538,0,0,0-.35156.20508q-.11718.07325-.11719.16113a3.09467,3.09467,0,0,1-.02929.33691,1.13274,1.13274,0,0,0-.0293.33692,8.158,8.158,0,0,1-.01465.82031q-.04393.67383-.05859.82031a4.39839,4.39839,0,0,0,.0293.86426,1.6463,1.6463,0,0,1,.01464.42481,8.34783,8.34783,0,0,0-.04394.98144q.02929,1.14258.01465,1.24512a4.44289,4.44289,0,0,0,0,.51269q.02929.41016.02929.52735.01466.07325.10254,1.40625a.3661.3661,0,0,1,0,.14648,8.23948,8.23948,0,0,0,.0293,1.53809q.01464.17579.07324.64453a4.58753,4.58753,0,0,1,.0586.64453,1.468,1.468,0,0,0,.07324.57129v.01465a.8354.8354,0,0,1,.26367-.13184.49685.49685,0,0,1-.10254.293q-.07325.1172-.14648.249.01464.05861.01464.01465a2.16942,2.16942,0,0,0,.43946-.51269q.58593-.89356,1.04-1.47949a5.83386,5.83386,0,0,1,.4541-.542,1.7033,1.7033,0,0,0,.26367-.3955,2.51482,2.51482,0,0,1,.26367-.41016v-.0293a1.41191,1.41191,0,0,1,.27832-.51269q.07324-.1172.20508-.32227.14649-.21972.21973-.30762a4.30333,4.30333,0,0,0,.23437-.4248,2.20471,2.20471,0,0,1,.23438-.42481q.17577-.249.98144-1.61132a19.17726,19.17726,0,0,0,1.06934-2.10938A6.90682,6.90682,0,0,0,399.82617,528.5918Zm-6.48926,14.10644q.044-.01464.0586-.10254A.31452.31452,0,0,0,393.33691,542.69824Zm.61524-1.72851a1.33824,1.33824,0,0,0-.16113.3955Q393.86425,541.16017,393.95215,540.96973Z" fill="#e6e6e6"/>
      <path d="M408.4043,542.00977a.1394.1394,0,0,1,.04394.13183q-.02929.0879-.10254.07324a1.23635,1.23635,0,0,1-.77636-.30761.22435.22435,0,0,0-.23438-.10254q-.10254.02929-.11719.07324-.01464.0293.08789.07324.16115.10254.01465.21973-.17578.13184-.14648.10254a.6349.6349,0,0,1-.10254.13183l-.17578.0586q-.16113.08788-.01465.14648.48339.20508.542.21973.27833.05859.42481.4834.07323.20508-.14649.17578-.07324-.01465-.23437-.04395-.14649-.01464-.21973-.02929-.13184-.01466-.14648.07324-.02931.249-.293.16113-.16113-.05859-.249.13184a.45387.45387,0,0,0-.02929.08789.454.454,0,0,1-.0293.08789.43809.43809,0,0,1-.293.26367q-.23437.08789-.33691.13184a.63583.63583,0,0,1-.65918-.01465.797.797,0,0,0-.26367-.07325.55741.55741,0,0,1-.249-.08789.37511.37511,0,0,1-.10254-.23437,1.39054,1.39054,0,0,0-.07324-.26367,1.09545,1.09545,0,0,1,.11719-1.06934q-.044.0879.19043-.26367a.35326.35326,0,0,0,.05859-.38086.19178.19178,0,0,1,.04395-.249,1.06386,1.06386,0,0,0,.27832-.4541.3864.3864,0,0,1,.36621-.293q-.01466,0,.21973-.0293l.19042-.0293a.304.304,0,0,0,.14649-.08789.14146.14146,0,0,1,.16113-.05859q-.07324-.02929.27832.14648.11719.05861.10254-.10254a.88073.88073,0,0,0-.01465-.13183.88218.88218,0,0,1-.01465-.13184q0-.05859.07325-.0293a.19306.19306,0,0,1,.10254.14649,1.83114,1.83114,0,0,0,1.333,1.24512A.9964.9964,0,0,1,408.4043,542.00977Zm-1.333.41015v0Zm.13183.14649a.08608.08608,0,0,1-.07324-.04395.57162.57162,0,0,1-.05859-.10254q.10254.01465.11719.01465a.14124.14124,0,0,1,.05859.07324Q407.26173,542.55176,407.20312,542.56641Zm.27833-1.9043q-.04395,0-.0879-.07324-.10253-.14649,0-.23438.01466-.01464.19043-.13183.11719.01464.10254.08789a1.45723,1.45723,0,0,1-.04394.21972Q407.584,540.67676,407.48145,540.66211Zm-.0293.32227q.01464-.07324.10254-.0586.11718.02929.05859.21973-.02929.08789-.10254.02929A.14264.14264,0,0,1,407.45215,540.98438Zm.68847,2.53417q.0879-.01464.0879.07325a.05744.05744,0,0,1-.04395.05859q-.08788,0-.08789-.07324Z" fill="#e6e6e6"/>
      <path d="M415.06348,525.91113a1.28793,1.28793,0,0,1,.27832,1.06934,3.19173,3.19173,0,0,0-.542-.35156q-.01464.01464-.14648.52734a4.06929,4.06929,0,0,0-.10254.49805.93522.93522,0,0,1-.17578.52734,1.05843,1.05843,0,0,0-.21973.61524,11.75961,11.75961,0,0,1-.46875,1.94824,2.14667,2.14667,0,0,1-.17578.38086q-.08788.13184-.19043,0a1.67776,1.67776,0,0,1-.41015-.9668q0-.64453-.07325-2.62207a3.94144,3.94144,0,0,0-.07324-.65918.375.375,0,0,0-.38086-.35156l-.30761.02929q-.61524.04395-.67383.04395a.57039.57039,0,0,1-.4541-.20508.51466.51466,0,0,1-.10254-.4834,2.75582,2.75582,0,0,1,.26367-.55664.67693.67693,0,0,1,.46875-.36621q.20508-.04395.13183-.21973a1.6284,1.6284,0,0,1,.19043-.9375.23189.23189,0,0,1,.26368-.13183,2.95913,2.95913,0,0,1,1.50879.4248.84774.84774,0,0,0,.19042.07325,1.14534,1.14534,0,0,1,.58594.55664,3.62927,3.62927,0,0,1,.32227,1.18652Q414.99023,525.8086,415.06348,525.91113Zm-3.63282.9961q.11719-.01465.14649.11718,0,.1172-.13184.11719-.21972.01466-.17578-.13183Q411.29883,526.92187,411.43066,526.90723Zm3.86719,1.21582.07324-.0586.04395.08789-.08789.43946A.55975.55975,0,0,1,415.29785,528.12305Zm5.6543-1.9336a.45433.45433,0,0,1-.14649.42481.59354.59354,0,0,0-.21972.43945q-.02929.249-.10254.64453-.0879.4834-.11719.62988a.89826.89826,0,0,1-.13183.38086.20814.20814,0,0,0-.04395.19043,1.04746,1.04746,0,0,1-.23438.92286,3.3586,3.3586,0,0,0-.41015.98144,3.11416,3.11416,0,0,1-.16113.4834q-.07325.11718-.17579.08789a.17407.17407,0,0,1-.08789-.10254,2.04849,2.04849,0,0,1-.05859-.9668q.01466-.07323-.0293-.08789-.07323-.02929-.10254.07325.05861-.21974-.02929.20507-.10254.6299-.14649.82032a1.00966,1.00966,0,0,1-.10254.21972.04692.04692,0,0,1-.04394.0293.33691.33691,0,0,1-.08789-.04395,3.22452,3.22452,0,0,1-.04395-.4248,15.67576,15.67576,0,0,0,.08789-1.83106,2.375,2.375,0,0,0-.14648-1.01074,2.50807,2.50807,0,0,0-.14649-.60058,1.54944,1.54944,0,0,0-.11718-.33692.21393.21393,0,0,0-.293-.13183,2.342,2.342,0,0,1-1.49414-.20508q-.791-.30762-.14649-.98145.65919-.68847.46875-.58593.05861-.02931.04395-.14649a1.01461,1.01461,0,0,1,.0293-.20508,1.01519,1.01519,0,0,0,.02929-.20507,1.5934,1.5934,0,0,1,.5127-1.0254q.08788-.10253.07324-.07324a8.36192,8.36192,0,0,1,.76172-.43945.06222.06222,0,0,1,.05859,0q.791.20508.87891.23437.77637.38086.64453.32227-.04395-.01465.13184.07324a1.44746,1.44746,0,0,1,.96679,1.23047Q420.791,524.915,420.95215,526.18945Z" fill="#e6e6e6"/>
    </g>
  </g>
</svg>
