<svg id="P19" xmlns="http://www.w3.org/2000/svg" viewBox="0 0 1920 1080">
  <title>P19_1</title>
  <g id="_1" data-name="1">
    <g>
      <path d="M296.644,296.69287q-.64452,0-1.29638-.95947a3.85418,3.85418,0,0,1-.65186-2.21924,6.42473,6.42473,0,0,1,1.04-3.31787q1.04-1.72119,2.03613-1.72119v.62988q-1.06934.62988-1.27441,2.7832a2.36321,2.36321,0,0,0,1.88965,2.3584v.61524Zm5.1709,0q-.64454,0-1.29639-.95947a3.85417,3.85417,0,0,1-.65185-2.21924,6.42473,6.42473,0,0,1,1.04-3.31787q1.04-1.72119,2.03613-1.72119v.62988q-1.06934.62988-1.27441,2.7832a2.36321,2.36321,0,0,0,1.88965,2.3584v.61524Z" fill="#e6e6e6"/>
      <path d="M323.97217,290.21826a.62874.62874,0,0,1,.02929.36621.50838.50838,0,0,0-.01464.20508,6.15072,6.15072,0,0,1-.0293.73242,1.02351,1.02351,0,0,0,.01465.41016.58647.58647,0,0,1-.0293.43945.6324.6324,0,0,0-.05859.43946.12323.12323,0,0,1-.01465.10253,1.0798,1.0798,0,0,0-.07324.5127,5.26381,5.26381,0,0,1-.19043,1.47949,1.27753,1.27753,0,0,1-.21973.542.17653.17653,0,0,0-.04394.19043.60953.60953,0,0,1-.07325.49805.46131.46131,0,0,0-.04394.17578q.04394.26367-.17578.32227-.10254.0293-.04395.14648a.22777.22777,0,0,1-.0293.30762.22178.22178,0,0,0-.04394.32226.51438.51438,0,0,1,.01465.46875,1.29958,1.29958,0,0,1-.249.4834.07415.07415,0,0,0-.02929.08789.469.469,0,0,1,0,.23438,1.58335,1.58335,0,0,0-.0293.20508.83714.83714,0,0,1-.13184.4541.74718.74718,0,0,0-.11718.43945.65192.65192,0,0,1-.10254.39551.86922.86922,0,0,0-.10254.26367,1.37546,1.37546,0,0,1-.10254.249.09791.09791,0,0,0,.01465.13184.28676.28676,0,0,1-.04395.35156.53424.53424,0,0,0-.13183.293.37069.37069,0,0,1-.0586.17578.37289.37289,0,0,0-.08789.16114.25985.25985,0,0,1-.11719.07324q-.13184.02929-.07324.14648.01466.01466.08789.11719a.19479.19479,0,0,1-.04394.249.29556.29556,0,0,0-.0586.19043.65172.65172,0,0,1-.13183.4834.52687.52687,0,0,0-.10254.293,1.02775,1.02775,0,0,1-.20508.57129.37927.37927,0,0,0-.01465.52734.10439.10439,0,0,1-.04394.16114q-.0879.02929-.08789.04394-.04395-.08789-.13184.249a1.58738,1.58738,0,0,1-.07324.293q-.05859.20508-.07324.293a.37648.37648,0,0,0,.01464.23438q.07324.14648.0586.19043,0,.11718-.14649.10254-.02929,0-.04394.08789-.02929.14647-.07324.41015a6.17023,6.17023,0,0,0-.11719.68848.31914.31914,0,0,1-.17578.249.34616.34616,0,0,0-.20508.36621,3.665,3.665,0,0,1-.07324.41016q-.01466.08788-.0293.30762-.01464.14648-.05859.16113-.11719.04395-.13184.293a1.60379,1.60379,0,0,1-.0293.17578.22891.22891,0,0,1-.20507.20508l-.10254.01465q-.19044.19042-.57129-.01465a.49616.49616,0,0,0-.33692-.08789.33179.33179,0,0,1-.33691-.16114.30586.30586,0,0,0-.36621-.13183.54488.54488,0,0,1-.13184.01465.38785.38785,0,0,1-.36621-.17578q-.07325-.14649-.17578-.16114-.14649,0-.23437-.21972a4.99592,4.99592,0,0,1-.249-.835q-.08788-.41016-.36621-1.31836a.13667.13667,0,0,0-.10254-.10254q-.45409,1.04-.4834,1.17187a.34784.34784,0,0,1-.05859.16113.578.578,0,0,0-.13184.45411,1.23123,1.23123,0,0,1-.04394.23437.75219.75219,0,0,0-.01465.249.86006.86006,0,0,1-.07324.19043q-.05859.0879-.04395.13184a.58907.58907,0,0,1-.05859.46875.1586.1586,0,0,0-.0293.13184.1393.1393,0,0,1-.08789.16113.191.191,0,0,0-.08789.14648q0,.05861-.11719.10254a.27231.27231,0,0,0-.21972.32227q.07325.61523.07324.55664a1.51517,1.51517,0,0,1-.26367.74707.44259.44259,0,0,1-.27832.14648q-.249.0293-.249-.20507v-.0293q0-.27833-.05859-.32227a.58438.58438,0,0,0-.30762-.04394,3.01356,3.01356,0,0,0-.39551.04394.49284.49284,0,0,0-.27832.13184.26679.26679,0,0,1-.293.07324.53743.53743,0,0,1-.249-.11719,2.68433,2.68433,0,0,1-.41015-.46875,4.4639,4.4639,0,0,0-.60059-.82031q-.01466-.01464-.21973-.35156l-.05859-.11719-.07324.01465q-.11719.10254-.17578,0a1.89433,1.89433,0,0,1-.16114-.27832q-.02929-.10254-.13183-.498-.02929-.08788.04394-.11719a.21205.21205,0,0,0,.17578-.23437.24549.24549,0,0,0-.21972-.23438.11237.11237,0,0,1,.01465-.04394v-.0293a.04222.04222,0,0,0,.01464.0293.11237.11237,0,0,1,.01465.04394h-.02929v.0293a.04219.04219,0,0,0-.01465.0293.675.675,0,0,1,0,.21973q-.13184.11718-.19043-.16114-.23437-1.09863-.249-1.31836-.01464-.10254.11719-.14648,0-.044.01465.07324-.01466-.11718-.01465-.07324.04395-.21974.0586-.26367a.17531.17531,0,0,0,0-.10254,2.31246,2.31246,0,0,1-.13184-.38086,2.26252,2.26252,0,0,0-.11719-.38086q.07325-.01465-.02929.16113a.437.437,0,0,1-.04395.0586.059.059,0,0,1-.05859-.0293.12662.12662,0,0,1-.04395-.08789q-.0293-.23437-.05859-.55664a.111.111,0,0,1,.01465-.10254.14612.14612,0,0,0-.0586-.249q-.20508-.10253,0-.36621l.0293-.02929.04394-.04395q.11719-.14648-.05859-.14648a.15778.15778,0,0,1-.17578-.16114q-.11719-.71777-.20508-1.12793-.01464-.04393-.249-.80566a1.56963,1.56963,0,0,1-.08789-.46875.21425.21425,0,0,0-.04395-.13184,1.429,1.429,0,0,1-.16113-.4248,1.34664,1.34664,0,0,0-.19043-.41016q0,.02931-.16113-.498-.45411-1.40625-.52735-1.626-.21972-.64453-.30761-.95215a1.71261,1.71261,0,0,1-.07325-.52734,1.26037,1.26037,0,0,0-.02929-.23438.81134.81134,0,0,1,.07324-.64453,1.50919,1.50919,0,0,0,.08789-.32226q.044-.16115.16113-.14649.07325,0,.08789-.10254.10254-.35156.13184-.498.01464-.0879-.16113-.21973a.11933.11933,0,0,1-.0293-.08789q.01464-.05859.04394-.04395.11719.01466.26368-.14648a.01294.01294,0,0,1,.01464-.01465q.16115-.07324.19043-.04394a.21438.21438,0,0,1,.08789.21972q-.0293.07325-.07324.19043a1.90817,1.90817,0,0,0-.07324.20508q-.044.10254.05859.13184.11719.02929.16114-.04395a.66909.66909,0,0,0,.10254-.55664.443.443,0,0,1-.0293-.20508.47444.47444,0,0,1,.16113-.43945q.01466-.01466.36621-.33692a1.14052,1.14052,0,0,0,.35157.30762.29434.29434,0,0,1,.17578.21973q.0293.11718-.0586.13183-.14648.044-.17578.10254a.41651.41651,0,0,0,0,.30762.04219.04219,0,0,0,.01465.0293.04094.04094,0,0,0,.05859-.0293q-.02929.05859,0-.05859.044-.14649.16114-.11719.20508.05859.11718.19043t.04395.46875a2.21,2.21,0,0,1,.16113.60058,5.79721,5.79721,0,0,0,.41016,1.65528q.71776,1.69921.8789,2.10937.45411,1.20117.65918,1.97754.39552,1.56738.4834,1.86035a8.99335,8.99335,0,0,1,.41016,1.65528q.01464.16113.01465.14648a3.38942,3.38942,0,0,0,.16113.77637.62079.62079,0,0,0,.0293.14648.937.937,0,0,0,.02929.14649,1.82063,1.82063,0,0,0,.08789.23437.08483.08483,0,0,0,.0586.01465q.02929,0,.0293-.01465a1.85122,1.85122,0,0,1,.17578-.74707q-.01465.04395.07324-.293a1.03718,1.03718,0,0,1,.04394-.17578,2.773,2.773,0,0,0,.38086-.92285q-.02929.13183.30762-.62988a1.662,1.662,0,0,0,.05859-.33692.61987.61987,0,0,1,.11719-.32226.21965.21965,0,0,0,.04395-.17578.25276.25276,0,0,1,.19043-.293q.05859-.01466.07324-.11719l.01465-.16113a7.2,7.2,0,0,0,.57129-1.46485,2.51453,2.51453,0,0,1,.17578-.293.6954.6954,0,0,1,.791-.33692.2242.2242,0,0,0,.13184.01465.39033.39033,0,0,1,.36621.04395.56675.56675,0,0,1,.07324-.10254q.13184-.19044.17578-.19043.30762.04393.35157.27832a.58889.58889,0,0,1-.01465.35156.57279.57279,0,0,0,.02929.46875,3.38009,3.38009,0,0,1,.249.68848.04786.04786,0,0,1-.01465.05859q-.04395.0293-.08789-.0293a.77651.77651,0,0,0-.10254-.14648q-.04395.02929,0,.14648.08788.20508.46875,1.31836.20508.60059.293.89356a.55251.55251,0,0,0,.05859.19043q.04395,0,.14649-.17578a.22046.22046,0,0,0,0-.21973.24232.24232,0,0,1,.04394-.32227,1.25138,1.25138,0,0,0,.32227-.86425.7973.7973,0,0,1,.11719-.39551q.05859-.10254.14648-.27832a.35193.35193,0,0,0,.0293-.23438.61563.61563,0,0,1,.13183-.4834,2.50854,2.50854,0,0,0,.36621-.92285,2.55421,2.55421,0,0,1,.07325-.30762.91028.91028,0,0,0,.07324-.30761q0-.02929.10254-.13184a.232.232,0,0,0,.02929-.32226.26566.26566,0,0,1,.07325-.39551.42822.42822,0,0,0,.21972-.41016.19635.19635,0,0,1,.0586-.16113q.11718-.13183,0-.23438-.0293-.01464-.0293-.16113.0293-.57129.05859-.43945-.01464-.044.04395-.07324.07324-.044.11719-.01465.11718.05859.13183-.07324a.2923.2923,0,0,0-.04394-.20508.30622.30622,0,0,1-.0586-.32227.43015.43015,0,0,0,.01465-.10254.47111.47111,0,0,1,.27832-.57129q.07325-.02929.0293-.11718l-.07324-.11719a.18163.18163,0,0,1,.07324-.21973q.11718-.08788,0-.17578-.0879-.08789-.0586-.10254a4.74364,4.74364,0,0,0,.14649-.4541.51053.51053,0,0,1,.14648-.26367.19768.19768,0,0,0,.08789-.13184.30305.30305,0,0,1,.08789-.13183.29452.29452,0,0,1-.23437-.33692.211.211,0,0,0-.0293-.16113q-.13184-.14649.0293-.30762l.0293-.02929a1.2308,1.2308,0,0,0,.41015-.95215,1.03952,1.03952,0,0,1,.08789-.36621.345.345,0,0,0,.04395-.13184.93509.93509,0,0,1,.0293-.14648,3.36278,3.36278,0,0,0,.20507-.82032,4.81709,4.81709,0,0,0,.14649-.61523,1.36666,1.36666,0,0,1,.10254-.21973q.05859-.10254.14648-.01465t.21973,0a.3683.3683,0,0,1,.39551-.02929h.10254a.44233.44233,0,0,1,.41015.36621q0,.02929.01465.02929a.4361.4361,0,0,0,.04395.0586.05339.05339,0,0,0,.07324-.04395,2.639,2.639,0,0,1,.43945-.498Q323.94287,290.10108,323.97217,290.21826ZM310.0415,305.98l.0293.01465a.24647.24647,0,0,1,.0293.20508q-.02929.04394-.04395.04394-.01464.01466-.01465-.01465a1.84539,1.84539,0,0,1-.05859-.20507Q309.98291,306.00928,310.0415,305.98Zm.249,1.02539v.0293a.11254.11254,0,0,1,.01465.04394.11254.11254,0,0,0-.01465-.04394Zm.02929,1.75781q-.08788-.07323.11719.23438a1.37761,1.37761,0,0,1,.14649.26367A.49341.49341,0,0,1,310.31982,308.76318Zm.0293-1.42089q-.01464-.07324.0293.11718Q310.33447,307.269,310.34912,307.34229Zm.20508.65917q-.05859-.17577-.11719-.32226Q310.4956,307.82569,310.5542,308.00146Zm.01465-.17578q.01464-.04393.01465-.02929Q310.5835,307.78174,310.56885,307.82568Zm7.33886-6.09375q-.11718-.01464-.14648-.249l.01465-.0293h.0293A.29979.29979,0,0,1,317.90771,301.73193Zm.74708,2.3877q.04393.01464.05859-.05859Q318.69873,304.13427,318.65479,304.11963Zm.17578,5.63965q.07323.01464.05859.13183-.01466.07324-.05859.0586-.0879-.02929-.07325-.14649A.05339.05339,0,0,1,318.83057,309.75928Zm1.94824-6.76758q.08788-.30762.08789-.32227l-.04395-.04394-.05859.0293a.49454.49454,0,0,0-.04395.32226q0,.01466.0293.0293A.04224.04224,0,0,0,320.77881,302.9917Zm2.50488-11.543a.43985.43985,0,0,1,.01465-.07324v-.0293l-.01465-.0293q-.04395-.01464-.0293.04395v.08789Zm.32227.30762a.13008.13008,0,0,0,.01465-.0586v-.10254q-.01466-.04393-.04395-.04394-.04395,0-.04395.07324a.1575.1575,0,0,0,.0293.08789Q323.562,291.72706,323.606,291.75635Zm-.01465-.4834a.48473.48473,0,0,0-.0293-.41016A1.50487,1.50487,0,0,1,323.59131,291.273Z" fill="#e6e6e6"/>
      <path d="M336.53467,291.31689a.62457.62457,0,0,1,.05859.32227.759.759,0,0,1-.05859.35156.18075.18075,0,0,1-.13184.08789q-.249.0586-.249.26368v.14648a1.21044,1.21044,0,0,0-.01465.16113.2441.2441,0,0,0,.17578.21973l.04395.04394a.26289.26289,0,0,1-.21973.13184.24706.24706,0,0,0-.19043.27832,6.31649,6.31649,0,0,0-.11719.68848.39728.39728,0,0,1-.19043.27832.38966.38966,0,0,1-.32226.05859,3.19324,3.19324,0,0,0-.76172-.10254q-.05859-.01464-.89356.04395-.20506.01464-.19043.01465a11.14763,11.14763,0,0,0-1.49414.16113,1.15807,1.15807,0,0,1-.26367,0,1.17509,1.17509,0,0,0-.26367,0,3.28234,3.28234,0,0,0-.84961.27832.44378.44378,0,0,1-.27832.10254,1.60422,1.60422,0,0,0-.68848.23437.25.25,0,0,0-.13183.21973q-.04395.45409-.13184,1.15723-.07325.76172-.08789.791a.59878.59878,0,0,0-.0293.19043q0-.10254-.21972,1.83106-.05859.48339-.0586.4541-.01464.20508.16114.19043a15.1728,15.1728,0,0,0,1.64062-.293,1.745,1.745,0,0,1,.70313-.07324,1.54126,1.54126,0,0,1,.4248-.04395q.13184-.01464.14649.04395t-.08789.14648q-.05861.02929-.0586.07324.21974.0879.11719.38086a1.90589,1.90589,0,0,0-.07324.20508q-.01466.11719.01465.13184.10253.05859.10253.33691a.29325.29325,0,0,0,.0293.19043.18931.18931,0,0,1-.01465.19043.29.29,0,0,0-.04394.33691.23926.23926,0,0,0,.27832.11719q.08788-.01464.11719.04395a1.86036,1.86036,0,0,1-.36622.16113q-.11718.044-.41015.19043a2.12711,2.12711,0,0,1-.41016.17578,10.41142,10.41142,0,0,0-1.01074.41016,2.922,2.922,0,0,1-.5127.19043.73552.73552,0,0,0-.23437.07324.71521.71521,0,0,1-.42481.14648q-.19043.02929-.20507.26367-.11719,1.47949-.11719,1.55274-.01466.21972,0,.67383v.67383q-.01466.293-.05859.82031-.01466.21972.10253.249.07324.01466.04395.07324-.08788.13184.08789.35157a.27606.27606,0,0,0,.30762.11718,14.37965,14.37965,0,0,0,2.50488-.74707.46252.46252,0,0,1,.33691-.05859.15772.15772,0,0,0,.14649-.01465,1.27126,1.27126,0,0,1,.64453-.23437q.07324-.01466.33691-.07325a1.89116,1.89116,0,0,1,.35157-.04394.10033.10033,0,0,1-.07325.08789.15856.15856,0,0,0-.07324.05859l.0293.04395a2.46207,2.46207,0,0,1,.65918-.17578.79516.79516,0,0,0,.14648-.08789.12745.12745,0,0,0-.13183-.01465.1833.1833,0,0,1-.11719.01465q-.02929-.0293,0-.08789.04395-.07324-.01465-.10254.044.0293-.16113.05859a.83082.83082,0,0,1,.19043-.4248q.02929-.044.07324,0,.07324.08788.13184-.01465a.40307.40307,0,0,1,.38086-.17578q.02929-.30762.11718-.36621.07324-.04395.30762.10253,0,.01466-.14648.01465-.13184,0-.16114.07324a.4443.4443,0,0,0,.33692.16114l.19043.13183a.1974.1974,0,0,1,.07324.23438q-.02929.11718.10254.08789a5.06538,5.06538,0,0,1,.70312.08789q.21973.0293.13184.30762-.01466.04394-.05859.21972a.7028.7028,0,0,1-.07325.20508q-.07323.16113-.13183.01465a.53324.53324,0,0,0-.17578-.23437,2.13356,2.13356,0,0,1-.14649.26367l.01465.04394a.6469.6469,0,0,1,.11719.04395q.05859.01464.04394.08789a1.26208,1.26208,0,0,0-.17578.10254.1258.1258,0,0,0,.13184.04394.44449.44449,0,0,1,.13183.01465.15919.15919,0,0,1-.17578.13184,1.55827,1.55827,0,0,0-.16113.01465,1.21182,1.21182,0,0,1-.16113.01464.47279.47279,0,0,0-.32227.10254.2166.2166,0,0,1-.19043.0586q-.16113-.01465-.14648.08789a.05179.05179,0,0,0,.05859.05859q0-.01464.0293-.01465a.11254.11254,0,0,1,.04394-.01465.21105.21105,0,0,1,.16114.0293,3.157,3.157,0,0,1-.791.249.10491.10491,0,0,1,.01465-.11718.104.104,0,0,0,.01465-.08789q-.20508-.07324-.27832-.0293-.02929.01466-.65918.17578-.77637.20508-1.02539.293a.44311.44311,0,0,1-.14649-.04395.10753.10753,0,0,0-.14648.0293.52165.52165,0,0,1-.30762.14649q-.14649.02929-.32227.07324a1.07243,1.07243,0,0,1-.27832.05859,1.20183,1.20183,0,0,0-.4248.13184q-.45409.20508-.65918.05859-.08788-.05859-.11719.08789-.04394.17579-.19043.08789-.13184-.08788-.26367.07324-.14649.17578-.249.13184.01464.01466-.10254.05859-.39551.21974-.41016.21973-.04394-.01464-.10254.07324t.0293.10254a.482.482,0,0,0,.14648-.02929.33877.33877,0,0,1,.07325-.04395.5686.5686,0,0,0,.07324-.0293q.14649-.04394.17578.01465,0,.044-.13184.11719a.93381.93381,0,0,0-.38086.32226q-.08788.20508-.21972.23438-.11719.0293-.13184.20508a.40791.40791,0,0,0,.23438-.07324.32224.32224,0,0,1,.249-.0586l-.01465.04395a1.89027,1.89027,0,0,0-.57129.46875.013.013,0,0,1-.01465.01465.0422.0422,0,0,1-.02929.01464,5.67121,5.67121,0,0,1-.80567.52735.52052.52052,0,0,1-.35156.11719.696.696,0,0,1-.19043-.0879q-.08788-.14647-.20508-.05859a.09889.09889,0,0,1-.14648.01465.222.222,0,0,1-.0293-.20508,1.90754,1.90754,0,0,1,.08789-.27832.18245.18245,0,0,0,0-.17578q.04395-.04395-.293.36621,0,.01466.0586-.01465t.05859.0293a.57368.57368,0,0,1-.04394.19043q-.044.14648-.08789.14648a.809.809,0,0,1-.30762-.07324q0,.02929.08789-.21973a.20983.20983,0,0,0-.0293-.23437q-.02929,0-.10254.11719a.40553.40553,0,0,1-.23437.19043q-.16113.04393-.11719-.16114a.38154.38154,0,0,1,.05859-.10254.41661.41661,0,0,0,.07325-.08789.364.364,0,0,0-.13184-.01464q-.07324,0-.08789-.0879a.44334.44334,0,0,1,.05859-.36621.322.322,0,0,0,.08789-.23437.12673.12673,0,0,1,.0586-.10254.24463.24463,0,0,0,.10254-.07324l-.01465-.0293q-.02929-.0293-.11719,0a.066.066,0,0,1-.08789-.05859.53214.53214,0,0,1,.08789-.33692,1.42336,1.42336,0,0,1,.39551-.3955.30864.30864,0,0,0,.19043-.23438,1.64869,1.64869,0,0,0,.23437-.92285q0-.0879.01465-.23438.01466-.16113.01465-.21972,0-.26367-.08789-.33692t.01465-.30761q.01464-.02931.05859-.10254l.04395-.08789q.05859-.13184-.07324-.08789-.02931.01464-.0293-.0586a.20394.20394,0,0,1,.01465-.08789.77024.77024,0,0,0,.11718-.57129q-.01464-.21972,0-.80566.01466-.32227.0879-.92285.07323-.6299.08789-.9375a.66237.66237,0,0,0-.17579-.55664l-.19043-.38086q-.07323-.13184.11719-.17578a.488.488,0,0,0,.26367-.10254l-.16113-.08789q-.27832-.13185-.07324-.38086a.50534.50534,0,0,0,.10254-.16114q0-.04394-.11719-.16113l-.0293-.07324q0-.0293.17579-.13184a.06973.06973,0,0,0,.04394-.10254q-.07324-.13184.08789-.21972.14649-.0586.16113-.30762a8.8417,8.8417,0,0,1,.13184-1.17188,4.506,4.506,0,0,0,.11719-.76171,5.256,5.256,0,0,1,.10254-.74707.42456.42456,0,0,0,0-.16114,1.9254,1.9254,0,0,1,.04394-.4541,7.98084,7.98084,0,0,0,.21973-1.34766q0-.08788.01465-.26367.01464-.19043.02929-.27832a.21816.21816,0,0,0-.14648-.249.5718.5718,0,0,0-.35156-.0293,3.65208,3.65208,0,0,1-.74707-.02929q-.1172,0-.17578-.16114a.47256.47256,0,0,1-.01465-.30761.3253.3253,0,0,1,.04394-.10254,2.38689,2.38689,0,0,0,.26367-1.02539,1.3047,1.3047,0,0,1,.49805-.86426,1.40549,1.40549,0,0,1,.36621-.19043q.27833-.11719.38086-.16113a1.23519,1.23519,0,0,0,.23438-.17579.38252.38252,0,0,1,.23437-.04394q.16113,0,.10254-.17578a.26928.26928,0,0,1,0-.17578.33789.33789,0,0,0,.01465-.16114q.04395-.02929.08789.0293a.12.12,0,0,0,.07324.04395.28218.28218,0,0,1,.17578-.249.83461.83461,0,0,0,.23438-.13183q.04394-.0293.08789.04394.07325.10254.08789.10254.05859-.0293.05859-.17578.01466-.14649.10254-.10254.044.02929.10254-.04394.05859-.05861.10254-.01465a.22405.22405,0,0,1,.04395.11718.224.224,0,0,0,.04394.11719.17054.17054,0,0,0,.0293.04395q.04394.01464.07324.16113.044.11718.11719.13184.01464,0,.30761-.0586,1.9629-.38085,2.32911-.46875.46875-.08788,1.88964-.27832a10.20692,10.20692,0,0,1,1.20118-.11719.86473.86473,0,0,1,.542.13184A3.81791,3.81791,0,0,1,336.53467,291.31689ZM326.00244,308.939q.0879-.0293.11719.04395a1.76939,1.76939,0,0,0-.39551.293.22978.22978,0,0,1-.23437.05859A1.12574,1.12574,0,0,1,326.00244,308.939Zm.80567-1.7871q.04393-.05861-.0293-.0879-.05859-.0293-.0586.07325v.70312a1.192,1.192,0,0,0,.07325-.33691A.46833.46833,0,0,1,326.80811,307.15186Zm.04394-.87891q.07324-.39551-.10254-.542a3.88893,3.88893,0,0,1,0,.835v.249Zm.42481-6.18164a6.65062,6.65062,0,0,0,.20507-2.124q-.21972,1.52343-.249,1.77246A.56538.56538,0,0,0,327.27686,300.09131Zm.52734-4.11621q.01464-.11719-.07324-.13184-.13183,1.40625-.23438,1.9043a.27784.27784,0,0,0,.11719-.20508Q327.70166,296.8833,327.8042,295.9751Zm5.39062,12.832q-.02929.044.39551-.14649a.22333.22333,0,0,1-.17578.16114h-.11719A.61653.61653,0,0,0,333.19482,308.80713Zm2.05079-.73242a.13241.13241,0,0,1,.11718.07324.61979.61979,0,0,1-.32226.11719.52686.52686,0,0,0-.33692.10254.353.353,0,0,0,.17578.02929.21775.21775,0,0,1,.16114.0586l-.01465.04394a2.15441,2.15441,0,0,1-.77637.14649q-.08788,0-.08789-.07325t.08789-.08789a.23618.23618,0,0,0,.19043-.08789.33914.33914,0,0,0-.07324-.04394q-.04395-.01466-.04395-.04395,0-.07325.0586-.07324.11718-.01466.43945-.08789A1.6744,1.6744,0,0,1,335.24561,308.07471Zm-.42481-1.77246a3.84484,3.84484,0,0,1-.43945-.249.17426.17426,0,0,0,.08789.11719q.07325.05859.07324.10254a.454.454,0,0,0,.04395.13184q.02929.01464.08789-.0293Q334.83545,306.28759,334.8208,306.30225Z" fill="#e6e6e6"/>
      <path d="M352.02686,300.41357a.20446.20446,0,0,1,.17578.10254,2.91694,2.91694,0,0,1-1.12793.57129q-.07325.02929-.08789,0a.26484.26484,0,0,0-.23438-.21972q-.23437-.05861-.27832-.19043a4.97182,4.97182,0,0,1-.04394.89355.13274.13274,0,0,1-.11719-.13184.37454.37454,0,0,0-.07324-.17578q-.41016.43946-.32227.39551-.13184.05859-.04394.16113a2.09875,2.09875,0,0,1-.10254.42481q-.0879,0,.3955-.17578a1.36451,1.36451,0,0,1-.20507.542.4401.4401,0,0,1-.55664.19043q-.0879-.02929-.0293-.11719,0-.01464.11719-.11719,0,.01466-.13184-.02929-.16113-.05859-.04395-.19043a.159.159,0,0,1,.0586-.0293.08478.08478,0,0,0,.05859-.01465q.21974-.19043.0586-.38086-.14649-.17577-.33692.0586-.07325.10254-.01465.02929,0,.01466-.04394.04395.07325.01464-.11719-.21973-.08789-.10254-.14648-.05859-.05861.0293-.01465.13183.14648.33691-.23438.62989a.61872.61872,0,0,0-.293.60058q.01466.13184-.17578.21973a.74259.74259,0,0,0-.01465-.20508q-.07323-.05859-.16113.07324a1.197,1.197,0,0,1-.36621.42481q-.05859.0293-.04394.23437-.33691-.04393-.65918.38086a.5899.5899,0,0,0-.0586.17578.13919.13919,0,0,0,.0586.11719q.05859.04395.10253-.04394.02931-.04395.10254-.14649.05861-.10254.08789-.14648.0879-.11719.26368-.0293.16113.08788.13183.20508-.04394.293-.11719.26367.07324.02929-.36621.13184-.23437.04394-.02929.20508.08789.05859,0,.16113-.35157.4248-.60059.30762a.93285.93285,0,0,1-.46875.71777q-.249.17579-.27832.26367a.1373.1373,0,0,1-.07324.08789.85783.85783,0,0,0-.49805.38086,3.89521,3.89521,0,0,1-.39551.498q-.05859.04394-.08789.26367-.04394.23438-.11718.27832a.21936.21936,0,0,1-.0293-.17578.90912.90912,0,0,0,0-.249.33519.33519,0,0,0-.13184-.05859.1484.1484,0,0,1-.10254-.13183q-.01464-.10254-.14648.08789a.76928.76928,0,0,1-.36621.30761q-.26367.0879-.14649.38086-.17577.01466-.21972.11719-.07325.21972.05859.249.23438.04395.08789.35157-.27832-.044-.17578-.10254-.13184.08789-.04394.19043.05859.05859,0,.08789a1.8926,1.8926,0,0,0-.35157.86425q-.04394.20508-.02929.14649-.05861.19043-.21973.10254-.21973-.13184-.20508-.14649a.48613.48613,0,0,0-.23437.27832.9153.9153,0,0,0-.07325.16114,1.88275,1.88275,0,0,1-.21972-.23438.88322.88322,0,0,0-.249-.19043.80288.80288,0,0,0-.21972.92285q-.0879.0879-.21973,0a.64076.64076,0,0,0-.38086-.05859q-.17579,0-.16113.17578.01464.13184.17578.07324.04395-.01464.04395.04395.01464-.13183-.14649.21973-.08789.20506-.13184.20507t-.17578-.17578a3.969,3.969,0,0,1-.35156-.57129q.05859.13183-.39551-.46875a.87646.87646,0,0,1-.19043-.71777q0,.01466.0293-1.17188.01466-.26367,0-.92285,0-.60059.01465-.92285.01464-.249.0293-.64453.01464-.46875.02929-.62988a4.664,4.664,0,0,0-.04394-.52735,3.5242,3.5242,0,0,1-.0586-.52734v-.20508q-.01464.0293,0-1.52344a2.50251,2.50251,0,0,1,.0293-.57128.18215.18215,0,0,0,0-.10254q-.044-.16115-.10254-1.64063-.07324-1.80175-.0293-2.46094-.01464.27833-.05859-1.05468-.01464-.65919.0293-2.05078.01464-.71778.08789-1.626a18.05017,18.05017,0,0,1,.27832-2.3584q.04395-.26367.11719-.76172.07323-.52734.13183-.77637a3.2338,3.2338,0,0,1,.4834-1.34765,5.94746,5.94746,0,0,1,1.25977-1.21582,1.72727,1.72727,0,0,1,.60058-.21973.34467.34467,0,0,1,.39551.16113,1.25064,1.25064,0,0,0,.27832.27832l.08789-.38086q.17578-.27831.30762,0a.823.823,0,0,1,.05859.498q-.16113,1.15724-.21972,1.43555a4.69892,4.69892,0,0,0-.07325.58594q-.0293.39551-.05859.57129.0293-.20508-.16113,1.15722.01464-.08788-.42481,4.01367-.11718,1.0254-.11719,1.05469a.54709.54709,0,0,0-.01464.23438,2.50664,2.50664,0,0,1,.02929.26367.13211.13211,0,0,0,0,.08789.4004.4004,0,0,1,.01465.08789q.01465.10254-.13183.07324-.11719-.01464-.0293.0586.10254.07323.04394.249a.34982.34982,0,0,0,0,.249q-.01464-.02929.0586,0,.19043.07325.04394.13184t-.21972.41015a2.69645,2.69645,0,0,0-.13184.26368q-.01466-.02931-.08789-.46875a.428.428,0,0,0-.10254.4541.24822.24822,0,0,1,0,.23437.80558.80558,0,0,0-.04394.32227q0,.293-.19043.30762-.05861,0-.10254.16113-.044.14648-.17578.08789-.0879-.02929-.10254-.07324-.044-.10254.08789-.21973-.04395.04395.10254-.07324.21972-.19044.21972-.11719,0-.08789-.05859-.49805,0-.02929-.04395-.02929-.05859-.01465-.07324.05859,0,.01466-.01465.17578,0,.17579-.07324.16113-.07324,0-.07324-.17578t-.13184-.14648q-.04394.01464-.05859-.14649-.044-.70312-.0586-.76171a.5861.5861,0,0,1,.11719-.45411,1.79176,1.79176,0,0,0,.11719-.77636q0-.04395-.19043-.21973a6.60262,6.60262,0,0,0-.08789,1.66992,5.1628,5.1628,0,0,1,0,.80567.80435.80435,0,0,0-.01465.249,6.02829,6.02829,0,0,1-.01465.92285,9.07187,9.07187,0,0,0-.02929.92285q.02929,1.01075.04394,1.06934a.40335.40335,0,0,0,.05859.41016q.07324.11718-.07324.16113-.05859.01464-.07324-.11719a10.54689,10.54689,0,0,1-.0293-1.59668q0-.16113-.01464-.4248-.01466-.30762-.01465-.42481.01464-1.90429.02929-2.72461.01466-.8496-.02929-.74707a1.20564,1.20564,0,0,0-.14649.70313q.04395,1.084.04395.99609-.01466,1.14258,0,1.01074a8.98069,8.98069,0,0,1-.04395,1.56739,1.18917,1.18917,0,0,0,.08789.62988q.04395.04395.01465.249a9.15682,9.15682,0,0,0-.04394,1.084q0,.39551.20507.36621.05861,0,.0586.11718-.01466.16115.08789.20508-.05859.26367-.0586.27832a1.13267,1.13267,0,0,0-.01464.498q.02929.21972.19043.16113a.17055.17055,0,0,1,.02929.04395,2.53265,2.53265,0,0,0-.249.41015.246.246,0,0,1-.10254-.16113.428.428,0,0,0-.05859-.20508,3.16236,3.16236,0,0,0-.0293.68848q.0293.0293.13184-.0293.17577-.10254.14648.10254a1.20011,1.20011,0,0,0,.01465.33692.36862.36862,0,0,0,.16113-.27832.41075.41075,0,0,1,.14649-.293q.39551-.04395.23437.14648.02929-.04395.08789.07324.20508.39552.17578.293.11719-.16113.0586-.20508-.14649-.10254-.07325-.23437a4.033,4.033,0,0,0,.26368-.86426q.02929-.16113.10254-.14648.10253.01464.05859.20508.0293-.14649-.08789.20507-.0879.27832.08789.33692.05859.01464.04394.08789-.13184.95214-.13183.96679-.0879.16114-.20508.04395-.19043-.19043-.27832,0-.17578.35157.14648.41016a.52809.52809,0,0,1,.26368.08789l.02929-.0586q.04395-.27831.14649-.27832.08789,0,.16113.30762a1.18813,1.18813,0,0,1-.01465.14648.22507.22507,0,0,0,0,.16114,2.34684,2.34684,0,0,0,.39551-.33692q.16113-.14648.249-.08789.10254.07325.19043-.11718a1.07812,1.07812,0,0,1,.5127-.52735.33667.33667,0,0,0,.11719-.11719,6.74315,6.74315,0,0,1,.77636-.80566,4.6986,4.6986,0,0,0,.74707-.82031,1.1467,1.1467,0,0,1,.30762-.30762,4.67414,4.67414,0,0,0,.58594-.61523,10.85838,10.85838,0,0,1,1.3916-1.34766,5.24361,5.24361,0,0,0,.791-.73242,7.74976,7.74976,0,0,1,1.06934-.86426,2.09964,2.09964,0,0,1,.84961-.39551.531.531,0,0,0,.293-.17578.99168.99168,0,0,1,.27832-.20508,2.87491,2.87491,0,0,0,.68848-.02929.26577.26577,0,0,1,.27832.17578.44612.44612,0,0,1-.26368.01465.39608.39608,0,0,0-.26367,0,.66317.66317,0,0,1,.17578.65918.44049.44049,0,0,0-.01464.07324,1.0419,1.0419,0,0,1,.10253.71777Q351.83643,300.38428,352.02686,300.41357Zm-12.30469-5.083a.07876.07876,0,0,0,.07324.10254q.11719.01464.08789-.11719a6.54439,6.54439,0,0,1,0-.65918q-.07324-.01466-.11719.07324A2.328,2.328,0,0,1,339.72217,295.33057Zm.11719,2.94433q-.11719.01466-.0879.20508a2.52429,2.52429,0,0,1,.01465.498,2.581,2.581,0,0,0,.01465.51269.39138.39138,0,0,0,.0586.16114q.07323-.02931.07324-.17579.01464-.76172.01465-1.01074Q339.9126,298.26025,339.83936,298.2749Zm-.0586,2.09473a.61948.61948,0,0,1,.01465.293l.05859,1.11328a1.3383,1.3383,0,0,0,.08789-.60059q0-.17577-.02929-1.23047,0-.07323-.0586-.07324-.07323-.02929-.07324.07324A1.03,1.03,0,0,0,339.78076,300.36963Zm.08789,2.68066a.797.797,0,0,0-.01465-.84961Q339.83936,302.27392,339.86865,303.05029Zm1.43555-1.626q-.08788.04393-.14649-.11719a.32119.32119,0,0,0,.04395-.08789,5.4787,5.4787,0,0,0,.26367-1.30371q.01466-.16113.13184-.14649-.05859-.249-.17578-.04394-.0879.16113-.14649.08789-.13184-.10254.01465-.20508.43945-.33691.293-.30762a.14726.14726,0,0,0,.11719-.16113q0,.01466.4541-.4834.05859-.05859.11719.01465a.11361.11361,0,0,1-.0293.13184.3082.3082,0,0,1-.13184.08789.25.25,0,0,0-.13183.21972.89683.89683,0,0,1-.07324.293,1.47865,1.47865,0,0,0-.0879.293q-.01464.10254-.20507.08789-.01466-.11718-.0586.38086a1.12585,1.12585,0,0,0-.01465.293.46212.46212,0,0,1-.08789.51269.68022.68022,0,0,0,.293-.05859.25268.25268,0,0,1,.27832.04395.65074.65074,0,0,1-.10254.20507.34549.34549,0,0,0-.10254.21973,2.02,2.02,0,0,1-.02929.542.61664.61664,0,0,0-.21973-.249.43932.43932,0,0,1-.19043-.26367Q341.37744,301.395,341.3042,301.42432Zm.04394,1.53808q0-.20508-.13183-.19043a1.00372,1.00372,0,0,1,.05859-.4541q.13184-.26367.20508,0,.05859.19042.57129.52734a.35535.35535,0,0,0,.14648,0,.123.123,0,0,1,.14649.04395q-.21974.46875-.46875.4541-.27833-.01464-.30762.35156a.60612.60612,0,0,1-.05859.23438q.04394,0-.14649-.17578a.17055.17055,0,0,0-.02929-.04395Q341.3335,303.21142,341.34814,302.9624Zm.542-6.73828a3.955,3.955,0,0,1-.07325.99609q.33691-.04393.33692-.249-.0293-.835-.0293-.77637-.02929-.16113-.14648-.16113Q341.89013,296.03369,341.89014,296.22412Zm1.80175,12.12891q-.17577.01464-.14648-.07324.05859-.23437.05859-.16114.19044-.17579.17579-.13183.04393-.13184.14648-.0586.10254.0879.05859.17578a.266.266,0,0,0-.02929.26368.09665.09665,0,0,1,0,.10253q-.044.04395-.11719-.01464A.776.776,0,0,0,343.69189,308.353Zm3.95508-4.39453a1.7627,1.7627,0,0,1,.4541-.60059q.01466.27832.33692.17578a.71545.71545,0,0,0-.13184.62988q.10254.01466-.30761-.32226A3.70019,3.70019,0,0,1,347.647,303.9585Zm.4541-.60059h0Zm.87891-.84961q-.05859.38086.26367.38086-.41016.68847-.33691.5127-.07325.17577-.23438-.0293-.11718-.13184.04395-.20508.20508-.10254.04394-.21973.01466-.05859.07325-.21972a1.50761,1.50761,0,0,0,.05859-.21973Z" fill="#e6e6e6"/>
      <path d="M367.13818,300.41357a.20444.20444,0,0,1,.17578.10254,2.91686,2.91686,0,0,1-1.12792.57129q-.07324.02929-.0879,0a.26483.26483,0,0,0-.23437-.21972q-.23437-.05861-.27832-.19043a4.9713,4.9713,0,0,1-.04395.89355.13274.13274,0,0,1-.11718-.13184.37442.37442,0,0,0-.07325-.17578q-.41014.43946-.32226.39551-.13184.05859-.04395.16113a2.097,2.097,0,0,1-.10254.42481q-.08788,0,.39551-.17578a1.36465,1.36465,0,0,1-.20508.542.44009.44009,0,0,1-.55664.19043q-.08789-.02929-.02929-.11719,0-.01464.11718-.11719,0,.01466-.13183-.02929-.16113-.05859-.04395-.19043a.159.159,0,0,1,.0586-.0293.08481.08481,0,0,0,.05859-.01465q.21972-.19043.05859-.38086-.14647-.17577-.33691.0586-.07324.10254-.01465.02929,0,.01466-.04394.04395.07323.01464-.11719-.21973-.0879-.10254-.14649-.05859-.05859.0293-.01464.13183.14647.33691-.23438.62989a.61872.61872,0,0,0-.293.60058q.01466.13184-.17578.21973a.74259.74259,0,0,0-.01465-.20508q-.07325-.05859-.16113.07324a1.19713,1.19713,0,0,1-.36621.42481q-.05859.0293-.04395.23437-.33692-.04393-.65918.38086a.59026.59026,0,0,0-.05859.17578.1392.1392,0,0,0,.05859.11719q.05861.04395.10254-.04394.02929-.04395.10254-.14649.05859-.10254.08789-.14648.0879-.11719.26367-.0293.16115.08788.13184.20508-.04395.293-.11719.26367.07325.02929-.36621.13184-.23437.04394-.0293.20508.0879.05859,0,.16113-.35156.4248-.60058.30762a.93285.93285,0,0,1-.46875.71777q-.249.17579-.27832.26367a.13733.13733,0,0,1-.07324.08789.85783.85783,0,0,0-.49805.38086,3.89521,3.89521,0,0,1-.39551.498q-.05859.04394-.08789.26367-.044.23438-.11719.27832a.21941.21941,0,0,1-.02929-.17578.90912.90912,0,0,0,0-.249.33519.33519,0,0,0-.13184-.05859.1484.1484,0,0,1-.10254-.13183q-.01464-.10254-.14648.08789a.76928.76928,0,0,1-.36621.30761q-.26367.0879-.14649.38086-.17579.01466-.21972.11719-.07324.21972.05859.249.23438.04395.08789.35157-.27832-.044-.17578-.10254-.13184.08789-.04395.19043.0586.05859,0,.08789a1.89263,1.89263,0,0,0-.35156.86425q-.044.20508-.0293.14649-.05859.19043-.21972.10254-.21973-.13184-.20508-.14649a.48619.48619,0,0,0-.23438.27832.91569.91569,0,0,0-.07324.16114,1.88275,1.88275,0,0,1-.21972-.23438.88322.88322,0,0,0-.249-.19043.80286.80286,0,0,0-.21972.92285q-.0879.0879-.21973,0a.64076.64076,0,0,0-.38086-.05859q-.17578,0-.16113.17578.01464.13184.17578.07324.04394-.01464.04394.04395.01465-.13183-.14648.21973-.08788.20506-.13184.20507t-.17578-.17578a3.969,3.969,0,0,1-.35156-.57129q.05859.13183-.39551-.46875a.87643.87643,0,0,1-.19043-.71777q0,.01466.0293-1.17188.01464-.26367,0-.92285,0-.60059.01465-.92285.01464-.249.02929-.64453.01466-.46875.0293-.62988a4.664,4.664,0,0,0-.04394-.52735,3.5242,3.5242,0,0,1-.0586-.52734v-.20508q-.01464.0293,0-1.52344a2.50251,2.50251,0,0,1,.0293-.57128.18233.18233,0,0,0,0-.10254q-.044-.16115-.10254-1.64063-.07324-1.80175-.0293-2.46094-.01464.27833-.05859-1.05468-.01465-.65919.0293-2.05078.01464-.71778.08789-1.626a18.04844,18.04844,0,0,1,.27832-2.3584q.04394-.26367.11718-.76172.07324-.52734.13184-.77637a3.2338,3.2338,0,0,1,.4834-1.34765,5.94765,5.94765,0,0,1,1.25976-1.21582,1.72742,1.72742,0,0,1,.60059-.21973.34467.34467,0,0,1,.39551.16113,1.25064,1.25064,0,0,0,.27832.27832l.08789-.38086q.17579-.27831.30762,0a.823.823,0,0,1,.05859.498q-.16113,1.15724-.21973,1.43555a4.70119,4.70119,0,0,0-.07324.58594q-.0293.39551-.05859.57129.0293-.20508-.16114,1.15722.01466-.08788-.4248,4.01367-.11719,1.0254-.11719,1.05469a.54722.54722,0,0,0-.01465.23438,2.50486,2.50486,0,0,1,.0293.26367.13211.13211,0,0,0,0,.08789.4004.4004,0,0,1,.01465.08789q.01464.10254-.13184.07324-.11718-.01464-.02929.0586.10254.07323.04394.249a.34971.34971,0,0,0,0,.249q-.01464-.02929.0586,0,.19043.07325.04394.13184t-.21973.41015a2.69794,2.69794,0,0,0-.13183.26368q-.01466-.02931-.08789-.46875a.42792.42792,0,0,0-.10254.4541.24822.24822,0,0,1,0,.23437.80553.80553,0,0,0-.04395.32227q0,.293-.19043.30762-.05859,0-.10254.16113-.04393.14648-.17578.08789-.08789-.02929-.10254-.07324-.04393-.10254.08789-.21973-.04393.04395.10254-.07324.21974-.19044.21973-.11719,0-.08789-.05859-.49805,0-.02929-.04395-.02929-.05859-.01465-.07324.05859,0,.01466-.01465.17578,0,.17579-.07324.16113-.07325,0-.07324-.17578t-.13184-.14648q-.044.01464-.05859-.14649-.04395-.70312-.0586-.76171a.5861.5861,0,0,1,.11719-.45411,1.79176,1.79176,0,0,0,.11719-.77636q0-.04395-.19043-.21973a6.60262,6.60262,0,0,0-.08789,1.66992,5.1628,5.1628,0,0,1,0,.80567.804.804,0,0,0-.01465.249,6.02829,6.02829,0,0,1-.01465.92285,9.07289,9.07289,0,0,0-.0293.92285q.02931,1.01075.04395,1.06934a.40335.40335,0,0,0,.05859.41016q.07325.11718-.07324.16113-.05859.01464-.07324-.11719a10.54558,10.54558,0,0,1-.0293-1.59668q0-.16113-.01465-.4248-.01464-.30762-.01465-.42481.01466-1.90429.0293-2.72461.01466-.8496-.0293-.74707a1.20572,1.20572,0,0,0-.14648.70313q.04395,1.084.04395.99609-.01466,1.14258,0,1.01074a8.98259,8.98259,0,0,1-.04395,1.56739,1.18906,1.18906,0,0,0,.08789.62988q.04395.04395.01465.249a9.15624,9.15624,0,0,0-.04395,1.084q0,.39551.20508.36621.05859,0,.0586.11718-.01466.16115.08789.20508-.0586.26367-.0586.27832a1.13279,1.13279,0,0,0-.01465.498q.02931.21972.19043.16113a.17029.17029,0,0,1,.0293.04395,2.53265,2.53265,0,0,0-.249.41015.246.246,0,0,1-.10254-.16113.42784.42784,0,0,0-.0586-.20508,3.16321,3.16321,0,0,0-.02929.68848q.02929.0293.13183-.0293.17578-.10254.14649.10254a1.20011,1.20011,0,0,0,.01465.33692.36862.36862,0,0,0,.16113-.27832.41075.41075,0,0,1,.14648-.293q.39552-.04395.23438.14648.0293-.04395.08789.07324.20508.39552.17578.293.11719-.16113.05859-.20508-.14647-.10254-.07324-.23437a4.03261,4.03261,0,0,0,.26367-.86426q.02931-.16113.10254-.14648.10254.01464.0586.20508.0293-.14649-.08789.20507-.0879.27832.08789.33692.05859.01464.04394.08789-.13184.95214-.13183.96679-.0879.16114-.20508.04395-.19043-.19043-.27832,0-.17579.35157.14648.41016a.52809.52809,0,0,1,.26367.08789l.0293-.0586q.04395-.27831.14649-.27832.08788,0,.16113.30762a1.18813,1.18813,0,0,1-.01465.14648.22507.22507,0,0,0,0,.16114,2.34727,2.34727,0,0,0,.39551-.33692q.16113-.14648.249-.08789.10254.07325.19043-.11718a1.07812,1.07812,0,0,1,.5127-.52735.33664.33664,0,0,0,.11718-.11719,6.74424,6.74424,0,0,1,.77637-.80566,4.699,4.699,0,0,0,.74707-.82031,1.1467,1.1467,0,0,1,.30762-.30762,4.67483,4.67483,0,0,0,.58594-.61523,10.85838,10.85838,0,0,1,1.3916-1.34766,5.24413,5.24413,0,0,0,.791-.73242,7.74906,7.74906,0,0,1,1.06934-.86426,2.09964,2.09964,0,0,1,.84961-.39551.531.531,0,0,0,.293-.17578.99154.99154,0,0,1,.27832-.20508,2.87483,2.87483,0,0,0,.68847-.02929.26575.26575,0,0,1,.27832.17578.44608.44608,0,0,1-.26367.01465.39607.39607,0,0,0-.26367,0,.66317.66317,0,0,1,.17578.65918.441.441,0,0,0-.01465.07324,1.04183,1.04183,0,0,1,.10254.71777Q366.94776,300.38428,367.13818,300.41357Zm-12.30468-5.083a.07875.07875,0,0,0,.07324.10254q.11718.01464.08789-.11719a6.5377,6.5377,0,0,1,0-.65918q-.07324-.01466-.11719.07324A2.32872,2.32872,0,0,1,354.8335,295.33057Zm.11718,2.94433q-.11718.01466-.08789.20508a2.52507,2.52507,0,0,1,.01465.498,2.581,2.581,0,0,0,.01465.51269.39157.39157,0,0,0,.05859.16114q.07324-.02931.07325-.17579.01464-.76172.01464-1.01074Q355.02393,298.26025,354.95068,298.2749Zm-.05859,2.09473a.61948.61948,0,0,1,.01465.293l.05859,1.11328a1.3383,1.3383,0,0,0,.08789-.60059q0-.17577-.02929-1.23047,0-.07323-.0586-.07324-.07325-.02929-.07324.07324A1.03,1.03,0,0,0,354.89209,300.36963Zm.08789,2.68066a.797.797,0,0,0-.01465-.84961Q354.95069,302.27392,354.98,303.05029Zm1.43555-1.626q-.0879.04393-.14649-.11719a.32119.32119,0,0,0,.04395-.08789,5.4803,5.4803,0,0,0,.26367-1.30371q.01466-.16113.13184-.14649-.05861-.249-.17579-.04394-.08788.16113-.14648.08789-.13184-.10254.01465-.20508.43946-.33691.293-.30762a.14726.14726,0,0,0,.11719-.16113q0,.01466.4541-.4834.05859-.05859.11718.01465a.11359.11359,0,0,1-.02929.13184.30826.30826,0,0,1-.13184.08789.25.25,0,0,0-.13183.21972.89664.89664,0,0,1-.07325.293,1.47916,1.47916,0,0,0-.08789.293q-.01464.10254-.20508.08789-.01464-.11718-.05859.38086a1.12585,1.12585,0,0,0-.01465.293.46212.46212,0,0,1-.08789.51269.68022.68022,0,0,0,.293-.05859.25268.25268,0,0,1,.27832.04395.65074.65074,0,0,1-.10254.20507.34549.34549,0,0,0-.10254.21973,2.02,2.02,0,0,1-.02929.542.61664.61664,0,0,0-.21973-.249.43932.43932,0,0,1-.19043-.26367Q356.48877,301.395,356.41553,301.42432Zm.04394,1.53808q0-.20508-.13183-.19043a1.00372,1.00372,0,0,1,.05859-.4541q.13184-.26367.20508,0,.05859.19042.57129.52734a.35534.35534,0,0,0,.14648,0,.123.123,0,0,1,.14649.04395q-.21974.46875-.46875.4541-.27833-.01464-.30762.35156a.60612.60612,0,0,1-.05859.23438q.04393,0-.14649-.17578a.17029.17029,0,0,0-.0293-.04395Q356.44482,303.21142,356.45947,302.9624Zm.542-6.73828a3.95522,3.95522,0,0,1-.07324.99609q.33691-.04393.33692-.249-.02929-.835-.0293-.77637-.02929-.16113-.14648-.16113Q357.00146,296.03369,357.00146,296.22412Zm1.80176,12.12891q-.17577.01464-.14648-.07324.05859-.23437.05859-.16114.19044-.17579.17578-.13183.04395-.13184.14649-.0586.10254.0879.05859.17578a.26605.26605,0,0,0-.0293.26368.0966.0966,0,0,1,0,.10253q-.04393.04395-.11718-.01464A.776.776,0,0,0,358.80322,308.353Zm3.95508-4.39453a1.7627,1.7627,0,0,1,.4541-.60059q.01466.27832.33692.17578a.71545.71545,0,0,0-.13184.62988q.10254.01466-.30762-.32226A3.69913,3.69913,0,0,1,362.7583,303.9585Zm.4541-.60059h0Zm.87891-.84961q-.05859.38086.26367.38086-.41016.68847-.33691.5127-.07324.17577-.23438-.0293-.11718-.13184.04395-.20508.20508-.10254.04394-.21973.01466-.05859.07324-.21972a1.50655,1.50655,0,0,0,.0586-.21973Z" fill="#e6e6e6"/>
      <path d="M374.09033,309.20264a.13943.13943,0,0,1,.04395.13183q-.02929.0879-.10254.07324a1.23636,1.23636,0,0,1-.77637-.30761.22433.22433,0,0,0-.23437-.10254q-.10254.02929-.11719.07324-.01466.02929.08789.07324.16113.10254.01465.21973-.17579.13184-.14649.10254a.6349.6349,0,0,1-.10254.13183l-.17578.0586q-.16113.08788-.01465.14648.48341.20508.542.21973.27831.05859.4248.4834.07325.20508-.14648.17578-.07325-.01465-.23438-.04395-.14648-.01464-.21972-.02929-.13185-.01465-.14649.07324-.0293.249-.293.16113-.16113-.05859-.249.13184a.454.454,0,0,0-.0293.08789.45411.45411,0,0,1-.02929.08789.43811.43811,0,0,1-.293.26367q-.23437.08788-.33692.13184a.63584.63584,0,0,1-.65918-.01465.79675.79675,0,0,0-.26367-.07324.5576.5576,0,0,1-.249-.08789.37517.37517,0,0,1-.10254-.23438,1.39133,1.39133,0,0,0-.07324-.26367,1.09547,1.09547,0,0,1,.11718-1.06934q-.04393.0879.19043-.26367a.35326.35326,0,0,0,.0586-.38086.19179.19179,0,0,1,.04394-.249,1.06386,1.06386,0,0,0,.27832-.4541.38641.38641,0,0,1,.36621-.293q-.01464,0,.21973-.0293l.19043-.0293a.304.304,0,0,0,.14648-.08789.14147.14147,0,0,1,.16114-.05859q-.07325-.02929.27832.14648.11718.05861.10254-.10254a.88208.88208,0,0,0-.01465-.13183.8807.8807,0,0,1-.01465-.13184q0-.05859.07324-.02929a.193.193,0,0,1,.10254.14648,1.83114,1.83114,0,0,0,1.333,1.24512A.99728.99728,0,0,1,374.09033,309.20264Zm-1.333.41015v0Zm.13184.14649a.08607.08607,0,0,1-.07324-.04395.57071.57071,0,0,1-.0586-.10254q.10254.01466.11719.01465a.14121.14121,0,0,1,.0586.07324Q372.94775,309.74463,372.88916,309.75928Zm.27832-1.9043q-.044,0-.08789-.07324-.10254-.14649,0-.23438.01466-.01464.19043-.13183.11718.01464.10254.08789a1.4582,1.4582,0,0,1-.04395.21972Q373.27,307.86963,373.16748,307.855Zm-.0293.32227q.01466-.07324.10254-.0586.11719.02929.0586.21973-.0293.08789-.10254.0293A.14267.14267,0,0,1,373.13818,308.17725Zm.68848,2.53418q.08788-.01466.08789.07324a.05744.05744,0,0,1-.04394.05859q-.0879,0-.0879-.07324Z" fill="#e6e6e6"/>
      <path d="M381.24756,309.20264a.1394.1394,0,0,1,.04394.13183q-.02929.0879-.10254.07324a1.23629,1.23629,0,0,1-.77636-.30761.22435.22435,0,0,0-.23438-.10254q-.10254.02929-.11718.07324-.01466.02929.08789.07324.16113.10254.01464.21973-.17577.13184-.14648.10254a.6349.6349,0,0,1-.10254.13183l-.17578.0586q-.16113.08788-.01465.14648.4834.20508.542.21973.27832.05859.42481.4834.07325.20508-.14649.17578-.07323-.01465-.23437-.04395-.14649-.01464-.21973-.02929-.13184-.01465-.14648.07324-.02929.249-.293.16113-.16113-.05859-.249.13184a.45331.45331,0,0,0-.0293.08789.454.454,0,0,1-.0293.08789.43809.43809,0,0,1-.293.26367q-.23437.08788-.33691.13184a.63583.63583,0,0,1-.65918-.01465.79675.79675,0,0,0-.26367-.07324.55765.55765,0,0,1-.249-.08789.37528.37528,0,0,1-.10254-.23438,1.39054,1.39054,0,0,0-.07324-.26367,1.09548,1.09548,0,0,1,.11719-1.06934q-.04395.0879.19043-.26367a.35324.35324,0,0,0,.05859-.38086.19179.19179,0,0,1,.04395-.249,1.06386,1.06386,0,0,0,.27832-.4541.3864.3864,0,0,1,.36621-.293q-.01466,0,.21973-.0293l.19043-.0293a.304.304,0,0,0,.14648-.08789.14146.14146,0,0,1,.16113-.05859q-.07323-.02929.27832.14648.11719.05861.10254-.10254a.88073.88073,0,0,0-.01465-.13183.88173.88173,0,0,1-.01464-.13184q0-.05859.07324-.02929a.193.193,0,0,1,.10254.14648,1.83114,1.83114,0,0,0,1.333,1.24512A.99728.99728,0,0,1,381.24756,309.20264Zm-1.333.41015v0Zm.13184.14649a.0861.0861,0,0,1-.07325-.04395.57162.57162,0,0,1-.05859-.10254q.10254.01466.11719.01465a.14114.14114,0,0,1,.05859.07324Q380.105,309.74463,380.04639,309.75928Zm.27832-1.9043q-.04395,0-.08789-.07324-.10254-.14649,0-.23438.01464-.01464.19043-.13183.11718.01464.10254.08789a1.4582,1.4582,0,0,1-.04395.21972Q380.42725,307.86963,380.32471,307.855Zm-.0293.32227q.01466-.07324.10254-.0586.11718.02929.05859.21973-.0293.08789-.10254.0293A.14265.14265,0,0,1,380.29541,308.17725Zm.68848,2.53418q.08789-.01466.08789.07324a.05744.05744,0,0,1-.04395.05859q-.08788,0-.08789-.07324Z" fill="#e6e6e6"/>
      <path d="M388.40479,309.20264a.1394.1394,0,0,1,.04394.13183q-.0293.0879-.10254.07324a1.23636,1.23636,0,0,1-.77637-.30761.22433.22433,0,0,0-.23437-.10254q-.10254.02929-.11719.07324-.01464.02929.08789.07324.16113.10254.01465.21973-.17578.13184-.14648.10254a.6349.6349,0,0,1-.10254.13183l-.17578.0586q-.16115.08788-.01465.14648.48339.20508.542.21973.27832.05859.4248.4834.07324.20508-.14648.17578-.07324-.01465-.23437-.04395-.14649-.01464-.21973-.02929-.13184-.01465-.14649.07324-.02929.249-.293.16113-.16115-.05859-.249.13184a.45411.45411,0,0,0-.02929.08789.45469.45469,0,0,1-.0293.08789.43811.43811,0,0,1-.293.26367q-.23437.08788-.33691.13184a.63583.63583,0,0,1-.65918-.01465.79675.79675,0,0,0-.26368-.07324.55765.55765,0,0,1-.249-.08789.37517.37517,0,0,1-.10254-.23438,1.39133,1.39133,0,0,0-.07324-.26367,1.09545,1.09545,0,0,1,.11719-1.06934q-.04395.0879.19043-.26367a.35328.35328,0,0,0,.05859-.38086.19178.19178,0,0,1,.04395-.249,1.064,1.064,0,0,0,.27832-.4541.3864.3864,0,0,1,.36621-.293q-.01465,0,.21972-.0293l.19043-.0293a.304.304,0,0,0,.14649-.08789.14146.14146,0,0,1,.16113-.05859q-.07324-.02929.27832.14648.11719.05861.10254-.10254a.88073.88073,0,0,0-.01465-.13183.882.882,0,0,1-.01465-.13184q0-.05859.07324-.02929a.193.193,0,0,1,.10254.14648,1.83116,1.83116,0,0,0,1.333,1.24512A.99744.99744,0,0,1,388.40479,309.20264Zm-1.333.41015v0Zm.13183.14649a.08608.08608,0,0,1-.07324-.04395.571.571,0,0,1-.05859-.10254q.10254.01466.11718.01465a.14121.14121,0,0,1,.0586.07324Q387.2622,309.74463,387.20361,309.75928Zm.27832-1.9043q-.04393,0-.08789-.07324-.10254-.14649,0-.23438.01466-.01464.19043-.13183.11719.01464.10254.08789a1.457,1.457,0,0,1-.04394.21972Q387.58447,307.86963,387.48193,307.855Zm-.02929.32227q.01464-.07324.10254-.0586.11718.02929.05859.21973-.02929.08789-.10254.0293A.14265.14265,0,0,1,387.45264,308.17725Zm.68847,2.53418q.0879-.01466.08789.07324a.05743.05743,0,0,1-.04394.05859q-.0879,0-.08789-.07324Z" fill="#e6e6e6"/>
      <path d="M395.064,293.104a1.28791,1.28791,0,0,1,.27833,1.06934,3.19173,3.19173,0,0,0-.542-.35156q-.01464.01464-.14648.52734a4.0677,4.0677,0,0,0-.10254.498.93529.93529,0,0,1-.17578.52734,1.05843,1.05843,0,0,0-.21973.61524,11.76174,11.76174,0,0,1-.46875,1.94824,2.14635,2.14635,0,0,1-.17578.38086q-.08789.13184-.19043,0a1.67771,1.67771,0,0,1-.41016-.9668q0-.64453-.07324-2.62207a3.94144,3.94144,0,0,0-.07324-.65918.375.375,0,0,0-.38086-.35156l-.30762.0293q-.61522.04393-.67382.04394a.57043.57043,0,0,1-.45411-.20508.51471.51471,0,0,1-.10254-.4834,2.75593,2.75593,0,0,1,.26368-.55664.67693.67693,0,0,1,.46875-.36621q.20508-.04394.13183-.21972a1.6284,1.6284,0,0,1,.19043-.9375.23187.23187,0,0,1,.26367-.13184,2.95923,2.95923,0,0,1,1.50879.4248.84759.84759,0,0,0,.19043.07325,1.14534,1.14534,0,0,1,.58594.55664,3.62934,3.62934,0,0,1,.32227,1.18652Q394.99072,293.00147,395.064,293.104Zm-3.63281.9961q.11719-.01466.14649.11719,0,.11718-.13184.11718-.21972.01466-.17578-.13183Q391.29932,294.11474,391.43115,294.1001Zm3.86719,1.21582.07324-.0586.04395.08789-.08789.43946A.55975.55975,0,0,1,395.29834,295.31592Zm5.6543-1.9336a.45433.45433,0,0,1-.14649.42481.59351.59351,0,0,0-.21972.43945q-.02931.249-.10254.64453-.0879.4834-.11719.62989a.89822.89822,0,0,1-.13184.38086.20815.20815,0,0,0-.04394.19043,1.04748,1.04748,0,0,1-.23438.92285,3.35832,3.35832,0,0,0-.41015.98144,3.11249,3.11249,0,0,1-.16114.4834q-.07323.11719-.17578.08789a.174.174,0,0,1-.08789-.10254,2.04832,2.04832,0,0,1-.05859-.96679q.01464-.07324-.0293-.0879-.07324-.02929-.10254.07325.05859-.21973-.02929.20507-.10254.62989-.14649.82032a1.00966,1.00966,0,0,1-.10254.21972.0469.0469,0,0,1-.04394.0293.33734.33734,0,0,1-.08789-.04394,3.2251,3.2251,0,0,1-.04395-.42481,15.67551,15.67551,0,0,0,.08789-1.83105,2.375,2.375,0,0,0-.14648-1.01075,2.50891,2.50891,0,0,0-.14649-.60058,1.54944,1.54944,0,0,0-.11718-.33692.21394.21394,0,0,0-.293-.13183,2.342,2.342,0,0,1-1.49414-.20508q-.791-.30762-.14649-.98145.65918-.68847.46875-.58593.05859-.02929.04395-.14649a1.01527,1.01527,0,0,1,.02929-.20508,1.01535,1.01535,0,0,0,.0293-.20507,1.59336,1.59336,0,0,1,.5127-1.02539q.08788-.10254.07324-.07325a8.36012,8.36012,0,0,1,.76172-.43945.06222.06222,0,0,1,.05859,0q.791.20508.87891.23438.77636.38085.64453.32226-.04395-.01464.13183.07324a1.44747,1.44747,0,0,1,.9668,1.23047Q400.79151,292.10791,400.95264,293.38232Z" fill="#e6e6e6"/>
    </g>
  </g>
</svg>
