<svg id="p3" xmlns="http://www.w3.org/2000/svg" viewBox="0 0 1920 1080">
  <title>P3_1</title>
  <g id="_1" data-name="1">
    <g>
      <path d="M1562.83984,263q-.64452,0-1.29687-.96a3.853,3.853,0,0,1-.65235-2.21875,6.42811,6.42811,0,0,1,1.041-3.31836q1.04-1.72119,2.03516-1.7207v.62988q-1.06933.62988-1.27344,2.7832a2.36233,2.36233,0,0,0,1.88867,2.3584v.61524Zm5.16993,0q-.64453,0-1.2959-.96a3.85227,3.85227,0,0,1-.65137-2.21875,6.42454,6.42454,0,0,1,1.03906-3.31836q1.04-1.72119,2.03711-1.7207v.62988q-1.06933.62988-1.27539,2.7832a2.36412,2.36412,0,0,0,1.89063,2.3584v.61524Z" fill="#666"/>
      <path d="M1572.92578,277.04785q0,.044-.05859.04395l-.10157.01465c-.06835.02929-.15234-.00489-.25-.10254a.32.32,0,0,0,.25-.07325.17476.17476,0,0,1,.14649-.04394.21857.21857,0,0,0,.14648-.0293l.08789-.04394.01368.01464q.01464.01466,0,.01465a.25957.25957,0,0,1-.13086.08789A.14219.14219,0,0,0,1572.92578,277.04785Zm9.78516.70313a2.25157,2.25157,0,0,1,.07422.542q.0293.35155-.14649-.13184a.6408.6408,0,0,0-.13281.52735c.00976.02929.03516.19531.07422.498.00976.07813.01367.12207.01367.13184,0,.13672-.07227.18066-.21875.13184q-.01465.04394.21875,1.25976a2.97308,2.97308,0,0,1,.11719,1.25977c-.07813-.11719-.13086-.18067-.16016-.19043q-.01464-.01466-.23437-1.084-.21973-1.05468-.293-.99609c-.00977.01953-.02539.00488-.04492-.044a.23592.23592,0,0,1-.0293-.10254,2.07014,2.07014,0,0,0-.08789-.51269,3.5857,3.5857,0,0,1-.11719-.5127,3.09426,3.09426,0,0,0-.11719-.38086,1.232,1.232,0,0,0,.04493.61524,3.83,3.83,0,0,1,.11718.498q.0879.35156.11719.48339c.03906.11719.0625.19043.07227.21973a13.84613,13.84613,0,0,1,.36718,1.52344,7.71922,7.71922,0,0,1,.26368,1.52344,7.65611,7.65611,0,0,1-.43946-1.49415q.17578.58594.23438.80567a7.76871,7.76871,0,0,0-.38086-1.4209,5.67,5.67,0,0,0-.20508-.73242,6.11821,6.11821,0,0,0,.20508.73242c.01953.05859.043.15625.07226.293s.05469.24414.07422.32226q-.64453-2.15331-.86523-2.71c-.10742.24414-.11133.42481-.01367.542a.85883.85883,0,0,1,.11718.23437,1.39041,1.39041,0,0,0,.10157.249.21237.21237,0,0,1-.248-.07324.996.996,0,0,1-.07422-.17578,2.92618,2.92618,0,0,0-.11719-.4834,2.68539,2.68539,0,0,1-.10156-.4834c-.00977-.08789-.02539-.13671-.04492-.14648a.63771.63771,0,0,1-.18945-.39551q-.01466-.11718-.0879-.4541c-.02929-.18555-.05468-.33691-.07421-.4541a2.01179,2.01179,0,0,1-.0293-.26367,1.23256,1.23256,0,0,0-.0293-.293V276.96c0,.08789.00586.19531.01563.32227a.80151.80151,0,0,1-.0293.17578,1.60847,1.60847,0,0,0-.01562.17578,1.22209,1.22209,0,0,1-.01368.32226,1.02864,1.02864,0,0,1-.13281.32227.98124.98124,0,0,1-.07227-.32227q-.01464-.16113-.14648-.13183-.07324.02929-.08789-.10254v-.30762c-.01953-.30273-.03516-.47363-.04492-.51269a.38909.38909,0,0,1,.11719.27832.79056.79056,0,0,0,.05859.30761.09931.09931,0,0,0,.04492-.08789c-.00976-.04882-.00586-.07812.01367-.08789q.04395.01466.0586.10254c0,.0586.01562.09278.04492.10254a.57745.57745,0,0,0,.01367-.35156,1.65159,1.65159,0,0,1-.0293-.20508,1.60956,1.60956,0,0,0-.02929-.19043c-.00977-.06836-.00391-.10742.01562-.11719q.11719-.08788,0-.19043a.20128.20128,0,0,1-.04492-.17578.97554.97554,0,0,0,0-.33691q.0293-.05859.05859-.0293.04395.044.0586.01465c.04883-.05859.07422-.07812.07422-.05859q-.0586-.19044-.0293-.14649a.5494.5494,0,0,1-.05859-.249,5.69511,5.69511,0,0,0-.0879-.86426c-.07812-.41992-.123-.708-.13281-.86426a1.423,1.423,0,0,0-.05859-.33691c-.03906-.166-.0625-.2832-.07227-.35156a5.69275,5.69275,0,0,0-.10351-.70313.55052.55052,0,0,1-.01367-.23437,1.01811,1.01811,0,0,0,0-.249,1.16178,1.16178,0,0,0-.07422-.33691.99989.99989,0,0,1-.043-.23438.35734.35734,0,0,0-.07422-.21972c-.07813-.10742-.16992-.083-.27734.07324a.29813.29813,0,0,0-.3379-.293c-.03906,0-.21874.01953-.541.05859a10.83258,10.83258,0,0,0-1.59766.249q-.21972.05859-.293.08789c-.11718.05859-.13086.11719-.043.17578.04882.0293.043.04883-.01563.05859-.07812.0293-.12109.10743-.13086.23438a3.75274,3.75274,0,0,1-.04492.58594.45407.45407,0,0,1-.0293-.10254.38482.38482,0,0,0-.01367-.11719,4.08924,4.08924,0,0,0-.14648.64453c-.03907.19531-.09375.47852-.16211.84961-.06836.40039-.1211.68848-.16016.86426q-.30762,1.64063-.32227,1.72851a.47417.47417,0,0,1,.35157-.19043l.02929.0293c.00977.00977.00391.01465-.01562.01465a.247.247,0,0,0-.10156.10254.1592.1592,0,0,1-.0586.0293c-.02929.01953-.04492.03417-.04492.04394.00977.00977.02539.00977.04492,0a.10924.10924,0,0,1,.043-.01465l.01563.01465a.01832.01832,0,0,1,0,.0293.29414.29414,0,0,1-.19141.07324.08461.08461,0,0,1-.07227-.04395q-.04393.27832-.05859.39551a.26006.26006,0,0,1-.01562.0586v.04394a.04386.04386,0,0,1,.01562.0293.0582.0582,0,0,0,.07227.02929.781.781,0,0,0,.17578-.05859l.13281-.04394a.09192.09192,0,0,1,.07227,0q.0293,0,.02929.04394a.05946.05946,0,0,1-.01367.044c-.00976.01953-.04492.03906-.10351.05859a.27668.27668,0,0,0-.16016.08789l-.01563.04395a.24955.24955,0,0,0-.248-.01465,1.84151,1.84151,0,0,1-.10352.38086.22378.22378,0,0,1,.11719,0,1.50646,1.50646,0,0,0,.2207.02929.0844.0844,0,0,1-.02929.0586.03661.03661,0,0,0,0,.05859.22968.22968,0,0,1,.05859.04395l.05859.02929q.01465.01466,0,.04395a.04222.04222,0,0,1-.02929.01465.13.13,0,0,0-.0586-.01465c-.02929-.01953-.09375-.05371-.1914-.10254l.01562-.0293q.01465-.04393,0-.05859c-.0293-.0293-.05469-.0293-.07422,0q.01465-.01466-.02929.04394a.04221.04221,0,0,1-.0293.01465.15906.15906,0,0,0-.0586-.02929.10677.10677,0,0,1-.01367.04394.13168.13168,0,0,1-.01562.0586v.05859a.04217.04217,0,0,1,.02929.01465.08113.08113,0,0,0,.11719.01465c.03907-.0293.06446-.00489.07422.07324.00977.01953.00391.02929-.01562.02929a.36435.36435,0,0,1-.23438-.01464q-.0293.14648-.26367.02929a.64729.64729,0,0,0-.11719-.04394q-.14648.02929-.17578-.13184a.06222.06222,0,0,1-.05859,0l-.0293-.01465a.04222.04222,0,0,1-.0293-.01464l-.043-.01465a1.46118,1.46118,0,0,0-.02929.17578c0-.00977.0039-.00977.01367,0a.01366.01366,0,0,1,.01562.01465c.03907.12695.05274.18554.043.17578l-.01367.02929c-.04883.01954-.084.00977-.10351-.02929a.01831.01831,0,0,1,0-.0293q.0293-.01464.02929-.14648a.583.583,0,0,1-.08789.14648.09264.09264,0,0,1-.10156.04395.151.151,0,0,0-.0293.05859.12259.12259,0,0,1-.04492.07324.20377.20377,0,0,0-.043.07324l.0293-.01464q-.0293,0-.0293-.01465v.01465h-.05859q.01464,0,0-.04395h0v-.0293a.01367.01367,0,0,0-.01563.01465l.01563.0293a.17876.17876,0,0,1-.04492.0293h-.01368v.01464a1.07928,1.07928,0,0,0-.30859-.02929c.0293-.00977-.02344-.00489-.16016.01465a.22307.22307,0,0,1-.04492.11718q-.05859-.01464-.08789-.11718h-.05859c-.00977,0-.01367-.00489-.01367-.01465-.00977-.01953-.00586-.0293.01367-.0293h.04492l-.05859-.20508h-.32227c-.04883-.00976-.05469-.03418-.01562-.07324a1.02987,1.02987,0,0,1,.14648-.10254.06217.06217,0,0,1,.04492.01465.16282.16282,0,0,0,.043.0293q.01465.02929.0293.02929a.04217.04217,0,0,0,.02929.01465.6414.6414,0,0,0-.05859-.11719.24936.24936,0,0,0-.21875.01465.11573.11573,0,0,0-.04492.01465l-.0293-.01465a.21822.21822,0,0,0,0-.16113.02928.02928,0,0,1,.01563-.04395.33758.33758,0,0,1,.11718-.02929c-.05859-.0586-.07421-.07813-.04492-.0586.00977.00977.00586.00977-.01367,0s-.02539-.01464-.01562-.01464a.40194.40194,0,0,0-.20508-.0293q-.01465-.05859.05859-.05859a.2829.2829,0,0,0,.16211-.0879.32367.32367,0,0,1,.07227-.04394c.01953-.03906.06445-.13672.13281-.293a.56657.56657,0,0,1,.0293-.07324.25478.25478,0,0,1-.0293-.10254.64237.64237,0,0,1,.01367-.08789.09433.09433,0,0,0,0-.07324c-.00976-.01954-.00391-.04883.01563-.08789a.38621.38621,0,0,0,.01367-.08789.06662.06662,0,0,1,.01562-.07325.60423.60423,0,0,0,.07227-.30761q0-.04395.02929-.04395a.17856.17856,0,0,0,.10352-.10254.84609.84609,0,0,1,.08789-.11719c.00977-.01953.02344-.01953.043,0q-.01465-.01464.0293.0586a.57412.57412,0,0,1,.05859-.13184.59026.59026,0,0,0,.05859-.17578q.33692-1.84571.3379-1.80176.04393-.27831.14648-.82031a7.80057,7.80057,0,0,0,.14648-.80566.99428.99428,0,0,1,.08789-.27832.23688.23688,0,0,0,.0293-.19043q-.04395-.13184-.14648-.10254c-.498.10742-.709.14648-.63086.11718a4.21153,4.21153,0,0,1-1.09766.04395c-.06836,0-.09375-.03418-.07422-.10254a.87852.87852,0,0,1,.19141-.46875q.07325-.08789.23437-.27832a3.0424,3.0424,0,0,1,.23438-.27832,2.5403,2.5403,0,0,1,.73242-.4248,1.8431,1.8431,0,0,1,.20508-.0586q.36621-.05859.35156-.33691.04395-.02929.05859,0,.044.16113.0879.16113c.06836.00977.12109-.03906.16015-.14648.01953-.08789.04492-.20508.07422-.35157.01953-.18554.0332-.30761.043-.36621a1.65951,1.65951,0,0,1,.05859-.20508.33519.33519,0,0,0,.0293-.249,1.6262,1.6262,0,0,1,.05859-.43945q.01465-.04395-.08789-.20508-.01464-.02929-.05859.01465-.04395.05859-.05859,0v-.21973a.47494.47494,0,0,1,.01562-.17578.11358.11358,0,0,0,.043-.10254.47087.47087,0,0,1,.20508-.38086c.10742-.08789.10351-.14648-.01367-.17578-.03907-.01953-.04493-.04883-.01563-.08789a.21963.21963,0,0,0-.05859-.30762.2388.2388,0,0,1,.08789-.07324q.05859-.0293.05859-.07324c.00977-.08789-.00391-.13184-.043-.13184q-.11718-.01464-.08789-.14648a.80694.80694,0,0,1,.10156-.33692c.10743-.03906.18165-.17578.22071-.41015a1.80732,1.80732,0,0,1,.043-.17578c-.04883.02929-.082.10254-.10157.21972a.59.59,0,0,1-.07422.23438.73281.73281,0,0,1-.11718-.38086q.05859-.0293.08789-.16113a.1202.1202,0,0,1,.13281-.11719.12083.12083,0,0,0-.13281-.0293c-.08789.03906-.14063.0293-.16016-.0293q-.04393-.11718.08789-.14648a.24131.24131,0,0,0,.20508-.17578c0-.01953.00391-.06836.01367-.14649a.93376.93376,0,0,1,.0293-.13183.36077.36077,0,0,0-.10156.17578.22937.22937,0,0,1-.13282.16113,1.43924,1.43924,0,0,1,.04493-.38086q.0293-.05859.08789-.21972a.65359.65359,0,0,1,.08789-.23438q.01464-.01464,0-.08789a.64614.64614,0,0,1-.01563-.11719,10.26029,10.26029,0,0,1,.22071-1.11328.10677.10677,0,0,1,.01367-.04394.11862.11862,0,0,0,.01562-.04395q.0293-.07324-.02929-.10254-.04395-.04393-.11719,0-.11719.05861-.14649.04395a.34552.34552,0,0,1-.01562-.14649.29941.29941,0,0,1,.01562-.11718q.02931-.13184.14649-.07325a.17028.17028,0,0,0,.26367-.10254.822.822,0,0,0,.08789-.33691,2.09682,2.09682,0,0,1,.08789-.52734,2.32031,2.32031,0,0,0,.08789-.58594,2.9953,2.9953,0,0,1,.0586-.498c.03906-.22461.0625-.39062.07226-.498a2.75211,2.75211,0,0,1,.0293-.33692c.01953-.14648.03515-.2539.04492-.32226a.583.583,0,0,0-.16211-.49805c-.09766-.07813-.10156-.17578-.01367-.293a.43382.43382,0,0,0,.01367-.30762q-.10254.01466-.11719.14649-.0293.13184-.11718.41015a2.03506,2.03506,0,0,0-.10157.41016.06.06,0,0,1-.01562.04395c-.00977.05859-.0332.07812-.07227.05859-.03906,0-.05469-.02441-.04492-.07324v-.04395a4.5606,4.5606,0,0,0,.05859-.70312,1.4998,1.4998,0,0,1,.0879-.4541q.13183-.38087.46874-.17579c.09766.0586.15235.10254.16211.13184a.398.398,0,0,1-.05859.20508,2.31747,2.31747,0,0,0-.11719.4834c0,.10742.043.13672.13086.08789a.25646.25646,0,0,0,.16211-.19043.09943.09943,0,0,1,.07227-.08789.06829.06829,0,0,1,.04492.07324c0,.04883.01367.07812.043.08789a.99369.99369,0,0,0,.01562-.19043.79241.79241,0,0,1,.01368-.17578q-.02931,0-.0586.04394a.04783.04783,0,0,1-.05859.01465c-.0293,0-.03321-.01465-.01367-.04394a1.99118,1.99118,0,0,1,.23437-.52735,1.14327,1.14327,0,0,1,.05859.14649q.04395.05859.14649-.01465c.04883-.03906.082-.02441.10156.04394q.05859.17579.11719.19043.05859-.21972.14648-.23437c.03907-.00977.06446-.06348.07422-.16113.00977-.11719.0625-.16114.16016-.13184.07812.01953.13281-.01465.16211-.10254q.01464-.05859.11719-.11719.23436-.13184.23437.13184c0,.04883-.01563.18066-.04492.39551a.2583.2583,0,0,0,.07422.19043,2.70654,2.70654,0,0,0,.043-.4541.54857.54857,0,0,1,.08789-.30762.19639.19639,0,0,0,.04492-.11719q-.01465-.11718.02929-.11719.13185,0,.11719.14649a.21513.21513,0,0,1-.04492.13183,1.48743,1.48743,0,0,0-.043.57129q0,.05861.08789.10254a.62331.62331,0,0,0,.08789.0586.23079.23079,0,0,0,.08789.05859.28175.28175,0,0,1,.17579.23437.94664.94664,0,0,0,.26367.4834q.07325.0879.02929.14649c-.02929.00976-.06445-.00489-.10351-.04395a.16882.16882,0,0,0-.11719-.05859,1.50042,1.50042,0,0,0,.14648.36621.68113.68113,0,0,1,.0879.41016,1.66229,1.66229,0,0,1-.13086-.249.42857.42857,0,0,0-.14649-.20508c.04883.14649.07227.22461.07227.23438a13.19217,13.19217,0,0,1,.51367,1.56738,2.48388,2.48388,0,0,0,.08789.33692q.05859.20506.08789.32226a3.55247,3.55247,0,0,1,.11719.71777.69444.69444,0,0,0,.043.20508.86154.86154,0,0,1,.04492.21973q.05859.57129.05859.43945a.45389.45389,0,0,0,.0293.19043q-.01465-.01464.20508,1.15723.20508,1.20117.30664,1.626a4.03466,4.03466,0,0,1,.05859.4248,4.01575,4.01575,0,0,0,.0586.41016q.04394.20508.293,1.8457a.95415.95415,0,0,0,.20508.55664q.0293.02929,0,.08789a.33145.33145,0,0,0,.14649.46875.578.578,0,0,1,.16211.17578.42871.42871,0,0,1-.11719-.07324q-.07325-.05859-.11719-.04395a.36943.36943,0,0,0,.11719.33692q.10254.05859.0293.16113a.8619.8619,0,0,0-.11719.27832c-.0293.09766.01367.15625.13086.17578a.13143.13143,0,0,1-.07227.07325.08717.08717,0,0,0-.04492.07324.57906.57906,0,0,0,.01562.16113c.09766.41016.16016.65918.18946.74707a.60029.60029,0,0,1,0,.19043.24443.24443,0,0,0,.04492.19043l.01367.07324a.14223.14223,0,0,0,.0586.08789.16719.16719,0,0,1,.05859.23438.24024.24024,0,0,0,0,.20508l.16211.498a.11773.11773,0,0,1,.01367.07324,2.48493,2.48493,0,0,0,.0293.5127q.07325.41016.08789.5127a1.04024,1.04024,0,0,0,.07422.32226c.03906.14649.0625.249.07226.30762q.01465.11718.33789,1.69922.04395.16113.11719.4248a4.13926,4.13926,0,0,1,.11719.41016C1582.64844,277.53125,1582.69141,277.69238,1582.71094,277.751Zm-9.85742-.16114q0-.01464.02929-.01464l.01367.02929a.04217.04217,0,0,1-.02929.01465C1572.84766,277.60938,1572.84375,277.59961,1572.85352,277.58984Zm.26367-1.333c-.04883-.00977-.07422-.0293-.07422-.0586q.10254-.62988.11719-.64453a.93247.93247,0,0,1,.01562.64453Q1573.16114,276.25683,1573.11719,276.25684Zm.18945,1.83105c0,.01953-.01367.03418-.043.04395h-.10351c-.00977,0-.01368-.00489-.01368-.01465q-.01464-.02929,0-.0293c.03907-.0293.082-.06348.13086-.10254.03907-.01953.05469-.00976.04493.0293A.16253.16253,0,0,1,1573.30664,278.08789Zm-.01367.17578c-.0293-.02929-.01563-.04394.043-.04394l.01562.01465c0,.01953-.01562.02929-.04492.02929C1573.29688,278.27344,1573.293,278.27344,1573.293,278.26367Zm.23437-1.66992q.04395-.20508.0293-.14648a.2348.2348,0,0,0-.04492-.0586c-.01953-.00976-.0332-.00976-.043,0a.02928.02928,0,0,0-.01563.04395,1.14723,1.14723,0,0,0,.0293.16113Zm.23438,1.626a.05937.05937,0,0,1,.0293.07324.18591.18591,0,0,1-.19141.10254.325.325,0,0,1,.07422-.17578Q1573.70313,278.17578,1573.76172,278.21973Zm-.11719-.19043q.04395-.01466.0293-.01465A.01366.01366,0,0,0,1573.6582,278Zm.20508-.11719q0-.04395-.0293-.04395t-.02929.04395q-.01465.0293.02929.08789Zm.07227.32227q.02929,0,.02929.04394,0,.01466-.02929.0293c-.01954,0-.03321-.01465-.043-.04395C1573.87891,278.24414,1573.89258,278.23438,1573.92188,278.23438Zm.04492-5.083a2.47844,2.47844,0,0,1,.14648-.80567A2.31563,2.31563,0,0,1,1573.9668,273.15137Zm.11718,5.24414a.04564.04564,0,0,1,.043.02929c.00977.00977.00586.02442-.01367.04395a.0747.0747,0,0,1-.07422.01465l-.01367-.0293Q1574.04,278.39551,1574.084,278.39551Zm.0586-.26367.05859.01464h0a.42023.42023,0,0,0-.04492.0586.05727.05727,0,0,1-.043.01465.26006.26006,0,0,0-.01562-.0586l-.01368-.04394.01368.01465C1574.166,278.1416,1574.18164,278.1416,1574.14258,278.13184Zm.99609-6.53321c-.00976.00977-.02539-.05859-.04492-.20508,0-.05859-.043-.06347-.13086-.01464a.49092.49092,0,0,0-.26367.36621l-.11719.70312q-.08789.65919-.2793,1.46485a.47827.47827,0,0,0,.04493.3955.32166.32166,0,0,1,.01367.38086.10924.10924,0,0,1-.043.01465c-.07813-.08789-.10352-.12695-.07422-.11719a1.461,1.461,0,0,0-.10156.52735.48005.48005,0,0,0,.07226-.13184.2596.2596,0,0,1,.10352-.10254.47149.47149,0,0,1,.0293.249.79962.79962,0,0,0-.01563.249.69872.69872,0,0,0,.04492-.11719q.20508-1.11328.293-1.55273.04395-.21974.11719-.249c.04883-.01953.0625-.04882.043-.08789a2.80326,2.80326,0,0,0,.08789-.791c-.05859-.26367-.01367-.44434.13281-.542a.06355.06355,0,0,0,.01367-.08789A.23158.23158,0,0,1,1575.13867,271.59863Zm-.9082,6.15235v-.0586l-.04492.0293A.04822.04822,0,0,0,1574.23047,277.751Zm.05859.43945a.04693.04693,0,0,1,.0293.04395.17277.17277,0,0,1-.10352.11718q.04395-.11718.0586-.14648A.01366.01366,0,0,1,1574.28906,278.19043Zm.0586-.14648.02929.01464q.0293.044,0,.07325a.01366.01366,0,0,1-.01562.01464.02589.02589,0,0,1-.0293-.02929A.0666.0666,0,0,1,1574.34766,278.044Zm.21875.16113v.08789l-.01368.01465-.01562-.0293v-.05859Zm.46875-9.87305a2.7828,2.7828,0,0,0-.21875.43945.35257.35257,0,0,1-.0586-.30761,2.7202,2.7202,0,0,1,.11719-.33692q.0293-.07324.08789-.05859.05859,0,.08789.08789A.21481.21481,0,0,1,1575.03516,268.332Zm-.0293,9.56543c.01953,0,.03516.01465.04492.04395l-.01562.01464a.04564.04564,0,0,1-.043-.02929C1574.98242,277.89746,1574.98633,277.8877,1575.00586,277.89746Zm.16211-8.18848q.26367-.02929.26367-.21972,0-.14649-.23437-.14649a.42149.42149,0,0,1,.10156.17578C1575.29883,269.54785,1575.25586,269.61133,1575.168,269.709Zm.33594-.55664a.61526.61526,0,0,0,.02929-.33691c-.00976-.19531-.01367-.3125-.01367-.35156a1.9664,1.9664,0,0,0-.10351.542A.11821.11821,0,0,0,1575.50391,269.15234Zm.11718-7.83691a1.66728,1.66728,0,0,1-.08789.46875.30826.30826,0,0,1-.01367-.249,3.46638,3.46638,0,0,0,.08789-.77637.29077.29077,0,0,1,.0293-.13184.0964.0964,0,0,0,.01367-.08789q0-.01464-.05859-.04394c-.03907-.01953-.043-.04883-.01368-.08789a1.0054,1.0054,0,0,0,.13086-.08789.25573.25573,0,0,0,.0586-.14649,1.38511,1.38511,0,0,0,.0293-.32226q.01464-.01466-.0293-.04395-.0879-.07325,0-.16113a.2252.2252,0,0,0,.07422-.16113,2.45953,2.45953,0,0,1,.05859-.42481,1.05244,1.05244,0,0,0,.0293-.41016c-.01953-.12695.05273-.21972.21875-.27832a.68262.68262,0,0,0-.043.45411.22645.22645,0,0,1-.01563.13183,1.4773,1.4773,0,0,0-.14648.77637,3.05789,3.05789,0,0,1-.043.35156.25989.25989,0,0,1-.01562.05859.22229.22229,0,0,0-.01368.0586c-.00976.04883.01368.083.07227.10254a.01366.01366,0,0,1,.01562.01465q.02931.04394-.02929.249-.04395.21972-.08789.249-.07324.05861-.08789.07324c-.01953.04883-.02539.07813-.01563.0879s.0293.00976.0586,0,.04882-.00977.05859,0a.07852.07852,0,0,1-.05859.08789A.29093.29093,0,0,0,1575.62109,261.31543Zm.04493,15.9375q.07323.01466.02929.05859a.06217.06217,0,0,1-.04492.01465c-.0293-.00976-.043-.02441-.043-.04394A.05906.05906,0,0,1,1575.666,277.25293Zm.30664-4.18945a.69065.69065,0,0,0,.05859-.30762,1.08526,1.08526,0,0,1,.0293-.32227.50876.50876,0,0,0-.10157.21973,1.77642,1.77642,0,0,1-.08789.30762v-.07324h-.01562a1.252,1.252,0,0,1-.01367-.17579.53589.53589,0,0,0-.0293-.13183,2.12073,2.12073,0,0,0-.17578.67383.73627.73627,0,0,0,.16016-.35157c0-.00976-.00391-.01464-.01368-.01464h.0586l.01367.07324.01562-.01465a5.294,5.294,0,0,1-.08789.73242q0,.01466-.14648.80567a1.02938,1.02938,0,0,0,.11719-.33692,2.88046,2.88046,0,0,1,.07226-.35156,1.34919,1.34919,0,0,0,.0586-.36621A.80091.80091,0,0,1,1575.97266,273.06348Zm-.21875-.17578.02929,3.48632.18946-.07324h.01562l.01367.01465-.01367.04395a.778.778,0,0,1-.07422.11718q-.01464.02929-.05859.01465a.3135.3135,0,0,1-.07227-.05859Q1575.73926,276.40333,1575.7832,276.374Zm.32227-4.16015q.04395-.01466.0293-.11719c-.00977-.06836-.02539-.09277-.04493-.07324q-.10254.10254-.17578-.01465l-.02929.0293c-.00977.07812-.00391.12207.01562.13183Q1576.04688,272.24316,1576.10547,272.21387Zm-.2207,5.24414c.08789-.00977.14257.01953.16211.08789q.01464.02929-.0293.04394a.13013.13013,0,0,1-.0586-.01464.11868.11868,0,0,1-.01562-.04395Q1575.88477,277.42871,1575.88477,277.458Zm.13281-.4541-.01563.02929c-.02929,0-.043-.00488-.043-.01465l.0293-.01464Zm3.16406-7.96875a.1703.1703,0,0,0,.16016-.23438c-.01953-.12695-.0625-.34668-.13086-.65918a.22323.22323,0,0,0-.04492-.11719.40447.40447,0,0,1-.07227-.26367q-.0293-.58593-.05859-.76172c-.07813-.332-.11328-.459-.10352-.38086q-.0293-.36621-.20508-1.31836-.04394-.249-.08789-.26367-.05859-.0293-.11719-.20508c-.08789-.30273-.13086-.44921-.13086-.43945a1.06308,1.06308,0,0,1-.04492-.19043,3.19018,3.19018,0,0,0-.17578-.61523,1.41823,1.41823,0,0,0-.08789.60058c.01953.127.03516.26368.04492.41016a.02589.02589,0,0,1-.02929.0293l-.08789-.10254a1.02821,1.02821,0,0,0-.08789.27832q-.14649.76172-.17579.99609-.05859.36621-.17578.95215-.17579.791-.20508.9375-.249,1.28907-.25,1.31836a.44084.44084,0,0,0-.01367.249c.01953.0293.11133.03907.27735.0293a1.17176,1.17176,0,0,0,.1914-.01465c.03907-.00976.11133-.02441.21875-.04394.08789-.01954.16211-.03418.22071-.04395a1.38054,1.38054,0,0,1,.43945-.01465.39573.39573,0,0,0,.21875-.04394.32984.32984,0,0,1,.20508-.0586A1.041,1.041,0,0,0,1579.18164,269.03516Zm-.67383-11.35254q-.04394-.13183-.23437-.0586c.19531.24414.28711.36133.27734.35157A.77235.77235,0,0,0,1578.50781,257.68262Zm1.9043,20.97656q-.10254.30762.14648.41016a.17081.17081,0,0,1-.23437-.16114,1.6426,1.6426,0,0,1,.01367-.4834A.17659.17659,0,0,1,1580.41211,278.65918Z" fill="#666"/>
      <path d="M1611.2207,256.52539a.62877.62877,0,0,1,.0293.36621.51055.51055,0,0,0-.01562.20508,6.15077,6.15077,0,0,1-.0293.73242,1.01887,1.01887,0,0,0,.01562.41016.58646.58646,0,0,1-.02929.43945.63239.63239,0,0,0-.0586.43945.12337.12337,0,0,1-.01562.10254,1.084,1.084,0,0,0-.07227.5127,5.26585,5.26585,0,0,1-.1914,1.47949,1.28126,1.28126,0,0,1-.21875.542.17668.17668,0,0,0-.04493.19043.60905.60905,0,0,1-.07226.498.46493.46493,0,0,0-.04492.17578q.04394.26367-.17578.32227c-.06836.01953-.082.06836-.043.14648a.22777.22777,0,0,1-.0293.30762.22191.22191,0,0,0-.04492.32226.514.514,0,0,1,.01562.46875,1.29507,1.29507,0,0,1-.25.4834.07415.07415,0,0,0-.02929.08789.469.469,0,0,1,0,.23438,1.58146,1.58146,0,0,0-.0293.20508.835.835,0,0,1-.13086.4541.74726.74726,0,0,0-.11719.43945.65281.65281,0,0,1-.10351.39551.87135.87135,0,0,0-.10157.26367,1.36173,1.36173,0,0,1-.10351.249.098.098,0,0,0,.01562.13184.28706.28706,0,0,1-.04492.35156.53143.53143,0,0,0-.13086.293.37077.37077,0,0,1-.05859.17578.37281.37281,0,0,0-.08789.16113.25981.25981,0,0,1-.11719.07325c-.08789.01953-.11328.06836-.07422.14648q.01465.01466.08789.11719a.19444.19444,0,0,1-.043.249.29556.29556,0,0,0-.05859.19043.65182.65182,0,0,1-.13281.4834.52778.52778,0,0,0-.10157.293,1.02784,1.02784,0,0,1-.20507.57129.37925.37925,0,0,0-.01563.52734.10413.10413,0,0,1-.043.16113q-.08789.02931-.08789.04395c-.0293-.05859-.07422.02441-.13281.249a1.57355,1.57355,0,0,1-.07227.293c-.03906.13672-.06445.23438-.07422.293a.37614.37614,0,0,0,.01563.23438q.07325.14648.05859.19043,0,.11718-.14648.10253c-.01953,0-.03516.0293-.04492.0879-.01953.09765-.043.23437-.07227.41015a6.18446,6.18446,0,0,0-.11719.68848.31912.31912,0,0,1-.17578.249.34618.34618,0,0,0-.20508.36621,3.798,3.798,0,0,1-.07421.41016q-.01465.08788-.0293.30762-.01465.14648-.05859.16113c-.07813.0293-.1211.12695-.13086.293a1.60871,1.60871,0,0,1-.0293.17578.22891.22891,0,0,1-.20508.20508l-.10351.01465c-.127.127-.31641.12207-.57032-.01465a.49848.49848,0,0,0-.33789-.08789.3304.3304,0,0,1-.33594-.16114.30714.30714,0,0,0-.36718-.13183.53657.53657,0,0,1-.13086.01465.3895.3895,0,0,1-.36719-.17579q-.07324-.14648-.17578-.16113-.14649,0-.23438-.21972a5.01568,5.01568,0,0,1-.248-.835q-.0879-.41015-.36719-1.31835a.13559.13559,0,0,0-.10156-.10254q-.45411,1.04-.48438,1.17187a.34784.34784,0,0,1-.05859.16113.57784.57784,0,0,0-.13086.45411,1.263,1.263,0,0,1-.04492.23437.74864.74864,0,0,0-.01367.249.892.892,0,0,1-.07422.19043c-.03907.0586-.05274.10254-.043.13184a.58907.58907,0,0,1-.0586.46875.1586.1586,0,0,0-.02929.13184.13931.13931,0,0,1-.08789.16113.191.191,0,0,0-.08789.14648q0,.05861-.11719.10254a.273.273,0,0,0-.2207.32227c.04882.41015.07421.5957.07421.55664a1.515,1.515,0,0,1-.26367.74707.44544.44544,0,0,1-.27929.14648c-.166.01953-.248-.04883-.248-.20508v-.02929q0-.27832-.05859-.32227a.5891.5891,0,0,0-.3086-.04394,2.99546,2.99546,0,0,0-.39453.04394.49622.49622,0,0,0-.2793.13184.2668.2668,0,0,1-.293.07324.5331.5331,0,0,1-.248-.11719,2.6841,2.6841,0,0,1-.41016-.46875,4.46458,4.46458,0,0,0-.60156-.82031c-.00977-.00977-.082-.127-.21875-.35156l-.05859-.11719-.07422.01465q-.11719.10254-.17578,0a1.87,1.87,0,0,1-.16016-.27832c-.01953-.06836-.06445-.23438-.13281-.49805-.01953-.05859-.00391-.09765.04492-.11719a.21206.21206,0,0,0,.17578-.23437.24644.24644,0,0,0-.2207-.23438.11865.11865,0,0,1,.01562-.04394v-.0293a.04072.04072,0,0,0,.01367.0293.11853.11853,0,0,1,.01563.04394h-.0293v.0293a.04386.04386,0,0,0-.01562.0293.67491.67491,0,0,1,0,.21972c-.08789.07813-.15039.02442-.18946-.16113q-.23437-1.09863-.25-1.31836-.01464-.10254.11719-.14648c0-.0293.00586-.00489.01563.07324-.00977-.07813-.01563-.10254-.01563-.07324q.04395-.21973.05859-.26367a.17514.17514,0,0,0,0-.10254,2.33124,2.33124,0,0,1-.13085-.38086,2.26345,2.26345,0,0,0-.11719-.38086q.07325-.01466-.0293.16113a.41933.41933,0,0,1-.04492.05859.059.059,0,0,1-.05859-.02929.12507.12507,0,0,1-.043-.08789q-.02929-.23437-.0586-.55664a.11137.11137,0,0,1,.01367-.10254.14611.14611,0,0,0-.05859-.249q-.20508-.10254,0-.36621l.0293-.02929.04492-.04395q.11718-.14649-.05859-.14648a.15779.15779,0,0,1-.17579-.16114q-.11718-.71776-.20507-1.12793c-.00977-.02929-.09375-.29785-.25-.80566a1.56963,1.56963,0,0,1-.08789-.46875.2134.2134,0,0,0-.043-.13184,1.42525,1.42525,0,0,1-.16211-.4248,1.34874,1.34874,0,0,0-.18946-.41016,5.00255,5.00255,0,0,1-.16211-.498q-.45409-1.40625-.52734-1.626-.21972-.64454-.30664-.95215a1.71973,1.71973,0,0,1-.07422-.52734,1.25967,1.25967,0,0,0-.0293-.23438.81109.81109,0,0,1,.07422-.64453,1.50768,1.50768,0,0,0,.08789-.32226c.0293-.10743.082-.15625.16016-.14649q.07324,0,.08789-.10254c.06836-.23437.11328-.40039.13281-.498.00977-.0586-.04492-.13184-.16211-.21973a.11937.11937,0,0,1-.02929-.08789c.00976-.03906.02539-.05371.04492-.04395q.11718.01466.26367-.14648c0-.00977.00391-.01465.01367-.01465.10743-.04883.17188-.06348.19141-.04395a.21444.21444,0,0,1,.08789.21973c-.01953.04883-.04492.11231-.07422.19043a1.83582,1.83582,0,0,0-.07226.20508q-.04395.10254.05859.13183c.07812.01954.13086.00489.16016-.04394a.67036.67036,0,0,0,.10351-.55664.4431.4431,0,0,1-.0293-.20508.47391.47391,0,0,1,.16016-.43945c.00977-.00977.13281-.12207.36719-.33692a1.1406,1.1406,0,0,0,.35156.30762.2943.2943,0,0,1,.17578.21973q.0293.11718-.05859.13183-.14649.04395-.17578.10254a.41641.41641,0,0,0,0,.30762.03614.03614,0,1,0,.07226,0q-.0293.05859,0-.05859c.0293-.09766.084-.13672.16211-.11719q.20508.05859.11719.19043c-.05859.08789-.04492.24414.043.46875a2.21437,2.21437,0,0,1,.16211.60058,5.7972,5.7972,0,0,0,.41015,1.65528q.71778,1.69922.87891,2.10937.4541,1.20117.6582,1.97754.3955,1.56738.48438,1.86035a8.99384,8.99384,0,0,1,.41015,1.65528c.00977.10742.01368.15625.01368.14648a3.41816,3.41816,0,0,0,.16211.77637.62072.62072,0,0,0,.02929.14648.93672.93672,0,0,0,.0293.14649,1.81914,1.81914,0,0,0,.08789.23437.08481.08481,0,0,0,.05859.01465q.02931,0,.0293-.01465a1.8514,1.8514,0,0,1,.17578-.74707c-.00976.0293.01367-.06836.07227-.293a.99649.99649,0,0,1,.04492-.17578,2.7733,2.7733,0,0,0,.38086-.92285q-.0293.13184.30664-.62988a1.66219,1.66219,0,0,0,.05859-.33692.61979.61979,0,0,1,.11719-.32226.22.22,0,0,0,.04492-.17578.25214.25214,0,0,1,.18946-.293c.03906-.00977.06445-.04883.07421-.11719l.01368-.16113a7.11334,7.11334,0,0,0,.57226-1.46485,2.51676,2.51676,0,0,1,.17578-.293.69542.69542,0,0,1,.791-.33691.22117.22117,0,0,0,.13086.01465.39227.39227,0,0,1,.36719.04394.57348.57348,0,0,1,.07226-.10254q.13184-.19043.17578-.19042.30762.04394.35157.27832a.58985.58985,0,0,1-.01368.35156.57284.57284,0,0,0,.0293.46875q.32226.835.248.68847a.04743.04743,0,0,1-.01367.0586q-.044.02929-.0879-.0293a.81535.81535,0,0,0-.10351-.14648q-.04395.0293,0,.14648.08789.20508.46875,1.31836.20508.60058.293.89356a.55224.55224,0,0,0,.05859.19043q.04395,0,.14649-.17579a.22044.22044,0,0,0,0-.21972.24249.24249,0,0,1,.04492-.32227,1.25133,1.25133,0,0,0,.32226-.86426.79737.79737,0,0,1,.11719-.3955q.05859-.10254.14648-.27832a.35188.35188,0,0,0,.0293-.23438.61416.61416,0,0,1,.13086-.4834,2.51576,2.51576,0,0,0,.36719-.92285,2.50641,2.50641,0,0,1,.07226-.30762.91572.91572,0,0,0,.07422-.30761c0-.01953.03321-.06348.10157-.13184a.232.232,0,0,0,.02929-.32227.26587.26587,0,0,1,.07422-.3955.42726.42726,0,0,0,.21875-.41016.19635.19635,0,0,1,.0586-.16113q.11718-.13184,0-.23438-.02931-.01464-.0293-.16113.0293-.57129.05859-.43945c-.00976-.0293.00586-.05371.04492-.07325q.07325-.04394.11719-.01464c.07813.03906.1211.01464.13086-.07325a.29194.29194,0,0,0-.043-.20507.30624.30624,0,0,1-.05859-.32227.42434.42434,0,0,0,.01367-.10254.47159.47159,0,0,1,.2793-.57129q.07325-.0293.02929-.11718l-.07422-.11719a.18211.18211,0,0,1,.07422-.21973q.11719-.08789,0-.17578-.08789-.08788-.05859-.10254a4.74576,4.74576,0,0,0,.14648-.4541.51035.51035,0,0,1,.14649-.26367.19772.19772,0,0,0,.08789-.13184.303.303,0,0,1,.08789-.13183.29453.29453,0,0,1-.23438-.33692.211.211,0,0,0-.02929-.16113q-.13183-.14649.02929-.30762l.0293-.0293a1.23072,1.23072,0,0,0,.41016-.95214,1.0394,1.0394,0,0,1,.08789-.36621.34644.34644,0,0,0,.043-.13184.937.937,0,0,1,.02929-.14649,3.36224,3.36224,0,0,0,.20508-.82031,4.81823,4.81823,0,0,0,.14649-.61523,1.38465,1.38465,0,0,1,.10351-.21973q.05861-.10254.14649-.01465c.05859.0586.13086.0586.21875,0a.37.37,0,0,1,.39648-.02929h.10156a.44233.44233,0,0,1,.41016.36621c0,.01953.00586.02929.01563.02929a.45691.45691,0,0,0,.043.0586.05423.05423,0,0,0,.07422-.04395,2.63922,2.63922,0,0,1,.43946-.498Q1611.19141,256.4082,1611.2207,256.52539Zm-13.93164,15.76172.0293.01465a.24647.24647,0,0,1,.0293.20508c-.01954.02929-.03321.04394-.043.04394-.00977.00977-.01563.00488-.01563-.01465a1.84261,1.84261,0,0,1-.05859-.20508Q1597.23047,272.31641,1597.28906,272.28711Zm.25,1.02539v.0293a.10677.10677,0,0,1,.01367.04394.10677.10677,0,0,0-.01367-.04394Zm.0293,1.75781q-.08789-.07324.11719.23438a1.37868,1.37868,0,0,1,.14648.26367A.49341.49341,0,0,1,1597.56836,275.07031Zm.0293-1.4209q-.01465-.07323.02929.11719Q1597.583,273.57618,1597.59766,273.64941Zm.20507.65918q-.05859-.17577-.11718-.32226Q1597.74414,274.1328,1597.80273,274.30859Zm.01368-.17578c.00976-.02929.01562-.03906.01562-.02929C1597.832,274.09375,1597.82617,274.10352,1597.81641,274.13281Zm7.33984-6.09375q-.1172-.01464-.14648-.249l.01367-.0293h.02929A.30066.30066,0,0,1,1605.15625,268.03906Zm.74609,2.3877q.04395.01464.0586-.0586Q1605.94629,270.44141,1605.90234,270.42676Zm.17578,5.63965q.07325.01464.0586.13183-.01465.07324-.0586.0586c-.05859-.01954-.082-.06836-.07226-.14649A.05254.05254,0,0,1,1606.07812,276.06641Zm1.94922-6.76758q.0879-.30762.08789-.32227l-.04492-.04394-.05859.02929a.49471.49471,0,0,0-.043.32227q0,.01466.0293.0293A.04222.04222,0,0,0,1608.02734,269.29883Zm2.50391-11.543a.49266.49266,0,0,1,.01563-.07324v-.0293l-.01563-.0293q-.04395-.01464-.0293.044v.08789Zm.32227.30762a.13164.13164,0,0,0,.01562-.0586v-.10254c-.00976-.02929-.02539-.04394-.04492-.04394-.0293,0-.043.02441-.043.07324a.15753.15753,0,0,0,.0293.08789C1610.81055,258.0293,1610.82422,258.044,1610.85352,258.06348Zm-.01368-.4834a.48473.48473,0,0,0-.02929-.41016A1.50482,1.50482,0,0,1,1610.83984,257.58008Z" fill="#666"/>
      <path d="M1612.69336,277.04785q0,.044-.05859.04395l-.10157.01465c-.06836.02929-.15234-.00489-.25-.10254a.32.32,0,0,0,.25-.07325.17476.17476,0,0,1,.14649-.04394.21857.21857,0,0,0,.14648-.0293l.08789-.04394.01367.01464q.01465.01466,0,.01465a.2595.2595,0,0,1-.13085.08789A.14218.14218,0,0,0,1612.69336,277.04785Zm9.78516.70313a2.25114,2.25114,0,0,1,.07421.542q.02931.35155-.14648-.13184a.6408.6408,0,0,0-.13281.52735c.00976.02929.03515.19531.07422.498.00976.07813.01367.12207.01367.13184,0,.13672-.07227.18066-.21875.13184q-.01465.04394.21875,1.25976a2.97308,2.97308,0,0,1,.11719,1.25977c-.07813-.11719-.13086-.18067-.16016-.19043q-.01465-.01466-.23438-1.084-.21972-1.05468-.293-.99609c-.00977.01953-.0254.00488-.04493-.044a.236.236,0,0,1-.02929-.10254,2.07014,2.07014,0,0,0-.08789-.51269,3.58427,3.58427,0,0,1-.11719-.5127,3.09614,3.09614,0,0,0-.11719-.38086,1.232,1.232,0,0,0,.04492.61524,3.82811,3.82811,0,0,1,.11719.498q.08789.35156.11719.48339c.03906.11719.0625.19043.07226.21973a13.84206,13.84206,0,0,1,.36719,1.52344,7.71779,7.71779,0,0,1,.26367,1.52344,7.65663,7.65663,0,0,1-.43945-1.49415q.17578.58594.23438.80567a7.76871,7.76871,0,0,0-.38086-1.4209,5.67,5.67,0,0,0-.20508-.73242,6.11821,6.11821,0,0,0,.20508.73242c.01953.05859.043.15625.07226.293s.05469.24414.07422.32226q-.64453-2.15331-.86523-2.71c-.10743.24414-.11133.42481-.01368.542a.85852.85852,0,0,1,.11719.23437,1.39056,1.39056,0,0,0,.10156.249.21236.21236,0,0,1-.248-.07324.99446.99446,0,0,1-.07422-.17578,2.92618,2.92618,0,0,0-.11719-.4834,2.68451,2.68451,0,0,1-.10156-.4834c-.00977-.08789-.02539-.13671-.04492-.14648a.63776.63776,0,0,1-.18946-.39551q-.01464-.11718-.08789-.4541c-.02929-.18555-.05468-.33691-.07422-.4541a2.0143,2.0143,0,0,1-.02929-.26367,1.23256,1.23256,0,0,0-.0293-.293V276.96c0,.08789.00586.19531.01563.32227a.80151.80151,0,0,1-.0293.17578,1.60906,1.60906,0,0,0-.01563.17578,1.22164,1.22164,0,0,1-.01367.32226,1.02864,1.02864,0,0,1-.13281.32227.98124.98124,0,0,1-.07227-.32227q-.01464-.16113-.14648-.13183-.07325.02929-.08789-.10254v-.30762c-.01953-.30273-.03516-.47363-.04492-.51269a.389.389,0,0,1,.11718.27832.7907.7907,0,0,0,.0586.30761.09934.09934,0,0,0,.04492-.08789c-.00977-.04882-.00586-.07812.01367-.08789q.04395.01466.0586.10254c0,.0586.01562.09278.04492.10254a.57745.57745,0,0,0,.01367-.35156,1.65159,1.65159,0,0,1-.0293-.20508,1.60956,1.60956,0,0,0-.02929-.19043c-.00977-.06836-.00391-.10742.01562-.11719q.11718-.08788,0-.19043a.20128.20128,0,0,1-.04492-.17578.97554.97554,0,0,0,0-.33691q.0293-.05859.05859-.0293.04395.044.0586.01465c.04882-.05859.07421-.07812.07421-.05859q-.05859-.19044-.02929-.14649a.54928.54928,0,0,1-.0586-.249,5.69487,5.69487,0,0,0-.08789-.86426c-.07812-.41992-.123-.708-.13281-.86426a1.423,1.423,0,0,0-.05859-.33691c-.03907-.166-.0625-.2832-.07227-.35156a5.69275,5.69275,0,0,0-.10351-.70313.55048.55048,0,0,1-.01368-.23437,1.01708,1.01708,0,0,0,0-.249,1.1611,1.1611,0,0,0-.07422-.33691,1.00027,1.00027,0,0,1-.043-.23438.35734.35734,0,0,0-.07422-.21972c-.07813-.10742-.16992-.083-.27735.07324a.29811.29811,0,0,0-.33789-.293c-.03906,0-.21875.01953-.541.05859a10.83235,10.83235,0,0,0-1.59766.249q-.21972.05859-.293.08789c-.11718.05859-.13086.11719-.043.17578.04883.0293.043.04883-.01562.05859-.07813.0293-.12109.10743-.13086.23438a3.754,3.754,0,0,1-.04492.58594.45407.45407,0,0,1-.0293-.10254.38514.38514,0,0,0-.01367-.11719,4.08867,4.08867,0,0,0-.14649.64453c-.03906.19531-.09375.47852-.16211.84961-.06835.40039-.12109.68848-.16015.86426q-.30762,1.64063-.32227,1.72851a.47415.47415,0,0,1,.35157-.19043l.02929.0293c.00977.00977.00391.01465-.01562.01465a.247.247,0,0,0-.10156.10254.1592.1592,0,0,1-.0586.0293c-.0293.01953-.04492.03417-.04492.04394.00976.00977.02539.00977.04492,0a.10919.10919,0,0,1,.043-.01465l.01563.01465a.01832.01832,0,0,1,0,.0293.29414.29414,0,0,1-.19141.07324.08459.08459,0,0,1-.07227-.04395q-.04394.27832-.05859.39551a.25971.25971,0,0,1-.01563.0586v.04394a.04383.04383,0,0,1,.01563.0293.0582.0582,0,0,0,.07227.02929.781.781,0,0,0,.17578-.05859l.13281-.04394a.0919.0919,0,0,1,.07226,0q.02931,0,.0293.04394a.0595.0595,0,0,1-.01367.044c-.00977.01953-.04492.03906-.10352.05859a.27665.27665,0,0,0-.16015.08789l-.01563.04395a.24955.24955,0,0,0-.248-.01465,1.84214,1.84214,0,0,1-.10352.38086.22378.22378,0,0,1,.11719,0,1.50646,1.50646,0,0,0,.2207.02929.08441.08441,0,0,1-.0293.0586.03662.03662,0,0,0,0,.05859.22971.22971,0,0,1,.0586.04395l.05859.02929q.01465.01466,0,.04395a.04222.04222,0,0,1-.0293.01465.12994.12994,0,0,0-.05859-.01465c-.0293-.01953-.09375-.05371-.19141-.10254l.01563-.0293q.01466-.04393,0-.05859c-.0293-.0293-.05469-.0293-.07422,0q.01465-.01466-.0293.04394a.04217.04217,0,0,1-.02929.01465.15906.15906,0,0,0-.0586-.02929.10677.10677,0,0,1-.01367.04394.13168.13168,0,0,1-.01562.0586v.05859a.04217.04217,0,0,1,.02929.01465.08113.08113,0,0,0,.11719.01465c.03906-.0293.06445-.00489.07422.07324.00977.01953.00391.02929-.01563.02929a.36433.36433,0,0,1-.23437-.01464q-.0293.14648-.26367.02929a.64729.64729,0,0,0-.11719-.04394q-.14649.02929-.17578-.13184a.06222.06222,0,0,1-.05859,0l-.0293-.01465a.04222.04222,0,0,1-.0293-.01464l-.043-.01465a1.46118,1.46118,0,0,0-.02929.17578c0-.00977.0039-.00977.01367,0a.01366.01366,0,0,1,.01562.01465c.03907.12695.05274.18554.043.17578l-.01367.02929c-.04883.01954-.084.00977-.10352-.02929a.01832.01832,0,0,1,0-.0293q.02929-.01464.0293-.14648a.583.583,0,0,1-.08789.14648.09264.09264,0,0,1-.10156.04395.151.151,0,0,0-.0293.05859.12259.12259,0,0,1-.04492.07324.20377.20377,0,0,0-.043.07324l.0293-.01464q-.0293,0-.0293-.01465v.01465h-.05859q.01464,0,0-.04395h0v-.0293a.01367.01367,0,0,0-.01563.01465l.01563.0293a.17866.17866,0,0,1-.04493.0293h-.01367v.01464a1.07928,1.07928,0,0,0-.30859-.02929c.0293-.00977-.02344-.00489-.16016.01465a.22307.22307,0,0,1-.04492.11718q-.05859-.01464-.08789-.11718h-.05859c-.00977,0-.01368-.00489-.01368-.01465-.00976-.01953-.00585-.0293.01368-.0293h.04492l-.0586-.20508h-.32226c-.04883-.00976-.05469-.03418-.01563-.07324a1.03083,1.03083,0,0,1,.14649-.10254.06219.06219,0,0,1,.04492.01465.16282.16282,0,0,0,.043.0293q.01464.02929.0293.02929a.04217.04217,0,0,0,.02929.01465.6414.6414,0,0,0-.05859-.11719.24936.24936,0,0,0-.21875.01465.11573.11573,0,0,0-.04492.01465l-.0293-.01465a.21822.21822,0,0,0,0-.16113.02927.02927,0,0,1,.01563-.04395.33758.33758,0,0,1,.11718-.02929c-.05859-.0586-.07422-.07813-.04492-.0586.00977.00977.00586.00977-.01367,0s-.02539-.01464-.01563-.01464a.40189.40189,0,0,0-.20507-.0293q-.01465-.05859.05859-.05859a.28293.28293,0,0,0,.16211-.0879.32351.32351,0,0,1,.07226-.04394c.01954-.03906.06446-.13672.13282-.293a.56813.56813,0,0,1,.02929-.07324.255.255,0,0,1-.02929-.10254.64062.64062,0,0,1,.01367-.08789.09441.09441,0,0,0,0-.07324c-.00977-.01954-.00391-.04883.01562-.08789a.38578.38578,0,0,0,.01368-.08789.06662.06662,0,0,1,.01562-.07325.60423.60423,0,0,0,.07227-.30761q0-.04395.02929-.04395a.17856.17856,0,0,0,.10352-.10254.84521.84521,0,0,1,.08789-.11719c.00977-.01953.02344-.01953.043,0q-.01465-.01464.0293.0586a.57412.57412,0,0,1,.05859-.13184.59026.59026,0,0,0,.05859-.17578q.33691-1.84571.33789-1.80176.04395-.27831.14649-.82031a7.80057,7.80057,0,0,0,.14648-.80566.994.994,0,0,1,.08789-.27832.23688.23688,0,0,0,.0293-.19043q-.04395-.13184-.14649-.10254c-.498.10742-.709.14648-.63085.11718a4.21153,4.21153,0,0,1-1.09766.04395c-.06836,0-.09375-.03418-.07422-.10254a.87845.87845,0,0,1,.19141-.46875q.07323-.08789.23437-.27832a3.04077,3.04077,0,0,1,.23438-.27832,2.5403,2.5403,0,0,1,.73242-.4248,1.8431,1.8431,0,0,1,.20508-.0586q.36621-.05859.35156-.33691.04395-.02929.05859,0,.04395.16113.08789.16113c.06836.00977.1211-.03906.16016-.14648.01953-.08789.04492-.20508.07422-.35157.01953-.18554.0332-.30761.043-.36621a1.65754,1.65754,0,0,1,.05859-.20508.33524.33524,0,0,0,.0293-.249,1.62577,1.62577,0,0,1,.05859-.43945q.01465-.04395-.08789-.20508-.01464-.02929-.05859.01465-.04395.05859-.0586,0v-.21973a.47481.47481,0,0,1,.01563-.17578.11358.11358,0,0,0,.043-.10254.47087.47087,0,0,1,.20508-.38086c.10742-.08789.10351-.14648-.01368-.17578-.03906-.01953-.04492-.04883-.01562-.08789a.21962.21962,0,0,0-.0586-.30762.239.239,0,0,1,.0879-.07324q.05859-.0293.05859-.07324c.00977-.08789-.00391-.13184-.043-.13184q-.11718-.01464-.08789-.14648a.80694.80694,0,0,1,.10156-.33692c.10742-.03906.18164-.17578.22071-.41015.02929-.127.043-.18555.043-.17578-.04882.02929-.082.10254-.10156.21972a.59.59,0,0,1-.07422.23438.73272.73272,0,0,1-.11718-.38086q.05859-.0293.08789-.16113a.12019.12019,0,0,1,.13281-.11719.12083.12083,0,0,0-.13281-.0293c-.08789.03906-.14063.0293-.16016-.0293q-.04395-.11718.08789-.14648a.24131.24131,0,0,0,.20508-.17578c0-.01953.0039-.06836.01367-.14649a.93376.93376,0,0,1,.0293-.13183.36077.36077,0,0,0-.10157.17578.22934.22934,0,0,1-.13281.16113,1.4399,1.4399,0,0,1,.04492-.38086q.02931-.05859.08789-.21972a.65359.65359,0,0,1,.0879-.23438q.01464-.01464,0-.08789a.64614.64614,0,0,1-.01563-.11719,10.26356,10.26356,0,0,1,.2207-1.11328.10683.10683,0,0,1,.01368-.04394.11862.11862,0,0,0,.01562-.04395q.0293-.07324-.0293-.10254-.04394-.04393-.11718,0-.11719.05861-.14649.04395a.34552.34552,0,0,1-.01562-.14649.29941.29941,0,0,1,.01562-.11718q.0293-.13184.14649-.07325a.17028.17028,0,0,0,.26367-.10254.822.822,0,0,0,.08789-.33691,2.09682,2.09682,0,0,1,.08789-.52734,2.32077,2.32077,0,0,0,.08789-.58594,2.99615,2.99615,0,0,1,.05859-.498c.03907-.22461.0625-.39062.07227-.498a2.75211,2.75211,0,0,1,.0293-.33692c.01953-.14648.03515-.2539.04492-.32226a.583.583,0,0,0-.16211-.49805c-.09766-.07813-.10156-.17578-.01367-.293a.43382.43382,0,0,0,.01367-.30762q-.10254.01466-.11719.14649-.0293.13184-.11719.41015a2.03558,2.03558,0,0,0-.10156.41016.06.06,0,0,1-.01562.04395c-.00977.05859-.03321.07812-.07227.05859-.03906,0-.05469-.02441-.04492-.07324v-.04395a4.5606,4.5606,0,0,0,.05859-.70312,1.49981,1.49981,0,0,1,.08789-.4541q.13183-.38087.46875-.17579c.09766.0586.15235.10254.16211.13184a.398.398,0,0,1-.05859.20508,2.31684,2.31684,0,0,0-.11719.4834c0,.10742.043.13672.13086.08789a.25648.25648,0,0,0,.16211-.19043.09943.09943,0,0,1,.07227-.08789.06829.06829,0,0,1,.04492.07324c0,.04883.01367.07812.043.08789a.99369.99369,0,0,0,.01562-.19043.79315.79315,0,0,1,.01367-.17578q-.0293,0-.05859.04394a.04783.04783,0,0,1-.05859.01465c-.0293,0-.03321-.01465-.01368-.04394a1.99139,1.99139,0,0,1,.23438-.52735,1.14327,1.14327,0,0,1,.05859.14649q.04395.05859.14649-.01465c.04883-.03906.082-.02441.10156.04394q.05859.17579.11719.19043.05859-.21972.14648-.23437c.03906-.00977.06445-.06348.07422-.16113.00977-.11719.0625-.16114.16016-.13184.07812.01953.13281-.01465.16211-.10254q.01464-.05859.11718-.11719.23438-.13184.23438.13184c0,.04883-.01563.18066-.04492.39551a.25833.25833,0,0,0,.07421.19043,2.70436,2.70436,0,0,0,.043-.4541.54873.54873,0,0,1,.08789-.30762.19634.19634,0,0,0,.04493-.11719q-.01465-.11718.02929-.11719.13183,0,.11719.14649a.21513.21513,0,0,1-.04492.13183,1.48722,1.48722,0,0,0-.043.57129q0,.05861.08789.10254a.62265.62265,0,0,0,.08789.0586.23079.23079,0,0,0,.08789.05859.28172.28172,0,0,1,.17578.23437.94679.94679,0,0,0,.26367.4834q.07325.0879.0293.14649c-.0293.00976-.06445-.00489-.10351-.04395a.16884.16884,0,0,0-.11719-.05859,1.5,1.5,0,0,0,.14648.36621.68112.68112,0,0,1,.08789.41016,1.66423,1.66423,0,0,1-.13086-.249.42856.42856,0,0,0-.14648-.20508c.04883.14649.07227.22461.07227.23438a13.19407,13.19407,0,0,1,.51367,1.56738,2.48234,2.48234,0,0,0,.08789.33692q.05859.20506.08789.32226a3.55317,3.55317,0,0,1,.11719.71777.69468.69468,0,0,0,.043.20508.86121.86121,0,0,1,.04493.21973q.05859.57129.05859.43945a.45389.45389,0,0,0,.0293.19043q-.01465-.01464.20508,1.15723.20507,1.20117.30664,1.626a4.03466,4.03466,0,0,1,.05859.4248,4.01926,4.01926,0,0,0,.05859.41016q.04395.20508.293,1.8457a.95415.95415,0,0,0,.20508.55664q.0293.02929,0,.08789a.33145.33145,0,0,0,.14649.46875.57791.57791,0,0,1,.1621.17578.42869.42869,0,0,1-.11718-.07324q-.07324-.05859-.11719-.04395a.36941.36941,0,0,0,.11719.33692q.10254.05859.02929.16113a.86217.86217,0,0,0-.11718.27832c-.0293.09766.01367.15625.13086.17578A.13143.13143,0,0,1,1621,270.544a.08717.08717,0,0,0-.04492.07324.57906.57906,0,0,0,.01562.16113c.09766.41016.16016.65918.18946.74707a.60029.60029,0,0,1,0,.19043.24443.24443,0,0,0,.04492.19043l.01367.07324a.14225.14225,0,0,0,.05859.08789.16719.16719,0,0,1,.0586.23438.24024.24024,0,0,0,0,.20508l.16211.498a.11773.11773,0,0,1,.01367.07324,2.48422,2.48422,0,0,0,.0293.5127q.07323.41016.08789.5127a1.04046,1.04046,0,0,0,.07421.32226c.03907.14649.0625.249.07227.30762q.01465.11718.33789,1.69922.04395.16113.11719.4248a4.13926,4.13926,0,0,1,.11719.41016C1622.416,277.53125,1622.459,277.69238,1622.47852,277.751Zm-9.85743-.16114q0-.01464.0293-.01464l.01367.02929a.04217.04217,0,0,1-.02929.01465C1612.61523,277.60938,1612.61133,277.59961,1612.62109,277.58984Zm.26368-1.333c-.04883-.00977-.07422-.0293-.07422-.0586q.10254-.62988.11718-.64453a.9324.9324,0,0,1,.01563.64453Q1612.92871,276.25683,1612.88477,276.25684Zm.18945,1.83105c0,.01953-.01367.03418-.043.04395h-.10352c-.00976,0-.01367-.00489-.01367-.01465q-.01464-.02929,0-.0293c.03906-.0293.082-.06348.13086-.10254.03906-.01953.05469-.00976.04492.0293A.16267.16267,0,0,1,1613.07422,278.08789Zm-.01367.17578c-.0293-.02929-.01563-.04394.043-.04394l.01562.01465c0,.01953-.01562.02929-.04492.02929C1613.06445,278.27344,1613.06055,278.27344,1613.06055,278.26367Zm.23437-1.66992q.04395-.20508.0293-.14648a.235.235,0,0,0-.04492-.0586c-.01953-.00976-.03321-.00976-.043,0a.02928.02928,0,0,0-.01563.04395,1.14723,1.14723,0,0,0,.0293.16113Zm.23438,1.626a.05936.05936,0,0,1,.02929.07324.18589.18589,0,0,1-.1914.10254.325.325,0,0,1,.07422-.17578Q1613.47071,278.17578,1613.5293,278.21973Zm-.11719-.19043q.04395-.01466.0293-.01465a.01366.01366,0,0,0-.01563-.01465Zm.20508-.11719q0-.04395-.0293-.04395t-.0293.04395q-.01464.0293.0293.08789Zm.07226.32227q.0293,0,.0293.04394,0,.01466-.0293.0293c-.01953,0-.0332-.01465-.043-.04395C1613.64648,278.24414,1613.66016,278.23438,1613.68945,278.23438Zm.04493-5.083a2.47815,2.47815,0,0,1,.14648-.80567A2.31563,2.31563,0,0,1,1613.73438,273.15137Zm.11718,5.24414a.04565.04565,0,0,1,.043.02929c.00977.00977.00586.02442-.01367.04395a.0747.0747,0,0,1-.07422.01465l-.01367-.0293Q1613.80761,278.39551,1613.85156,278.39551Zm.0586-.26367.05859.01464h0a.41944.41944,0,0,0-.04492.0586.05727.05727,0,0,1-.043.01465.25971.25971,0,0,0-.01563-.0586l-.01367-.04394.01367.01465C1613.93359,278.1416,1613.94922,278.1416,1613.91016,278.13184Zm.99609-6.53321c-.00977.00977-.02539-.05859-.04492-.20508,0-.05859-.043-.06347-.13086-.01464a.49087.49087,0,0,0-.26367.36621l-.11719.70312q-.08789.65919-.2793,1.46485a.47831.47831,0,0,0,.04492.3955.32166.32166,0,0,1,.01368.38086.10924.10924,0,0,1-.043.01465c-.07813-.08789-.10352-.12695-.07422-.11719a1.46076,1.46076,0,0,0-.10156.52735.48033.48033,0,0,0,.07226-.13184.2596.2596,0,0,1,.10352-.10254.4715.4715,0,0,1,.02929.249.79953.79953,0,0,0-.01562.249.69872.69872,0,0,0,.04492-.11719q.20508-1.11328.293-1.55273.04395-.21974.11719-.249c.04883-.01953.0625-.04882.043-.08789a2.80326,2.80326,0,0,0,.08789-.791c-.0586-.26367-.01367-.44434.13281-.542a.06355.06355,0,0,0,.01367-.08789A.23158.23158,0,0,1,1614.90625,271.59863Zm-.9082,6.15235v-.0586l-.04493.0293A.04824.04824,0,0,0,1613.99805,277.751Zm.05859.43945a.04693.04693,0,0,1,.0293.04395.17277.17277,0,0,1-.10352.11718q.04395-.11718.0586-.14648A.01366.01366,0,0,1,1614.05664,278.19043Zm.05859-.14648.0293.01464q.0293.044,0,.07325a.01366.01366,0,0,1-.01562.01464.02589.02589,0,0,1-.0293-.02929A.0666.0666,0,0,1,1614.11523,278.044Zm.21875.16113v.08789l-.01367.01465-.01562-.0293v-.05859Zm.46875-9.87305a2.7847,2.7847,0,0,0-.21875.43945.35253.35253,0,0,1-.05859-.30761,2.71818,2.71818,0,0,1,.11719-.33692q.0293-.07324.08789-.05859.05859,0,.08789.08789A.21477.21477,0,0,1,1614.80273,268.332Zm-.02929,9.56543c.01953,0,.03515.01465.04492.04395l-.01563.01464a.04564.04564,0,0,1-.043-.02929C1614.75,277.89746,1614.75391,277.8877,1614.77344,277.89746Zm.16211-8.18848q.26367-.02929.26367-.21972,0-.14649-.23438-.14649a.42144.42144,0,0,1,.10157.17578C1615.06641,269.54785,1615.02344,269.61133,1614.93555,269.709Zm.33593-.55664a.61515.61515,0,0,0,.0293-.33691c-.00976-.19531-.01367-.3125-.01367-.35156a1.96667,1.96667,0,0,0-.10352.542A.11822.11822,0,0,0,1615.27148,269.15234Zm.11719-7.83691a1.66728,1.66728,0,0,1-.08789.46875.30826.30826,0,0,1-.01367-.249,3.467,3.467,0,0,0,.08789-.77637.29077.29077,0,0,1,.0293-.13184.09643.09643,0,0,0,.01367-.08789q0-.01464-.05859-.04394c-.03907-.01953-.043-.04883-.01368-.08789a1.0054,1.0054,0,0,0,.13086-.08789.25573.25573,0,0,0,.0586-.14649,1.38453,1.38453,0,0,0,.02929-.32226q.01465-.01466-.02929-.04395-.0879-.07325,0-.16113a.22524.22524,0,0,0,.07422-.16113,2.45953,2.45953,0,0,1,.05859-.42481,1.05244,1.05244,0,0,0,.0293-.41016c-.01954-.12695.05273-.21972.21875-.27832a.68255.68255,0,0,0-.043.45411.22653.22653,0,0,1-.01563.13183,1.4772,1.4772,0,0,0-.14648.77637,3.05789,3.05789,0,0,1-.043.35156.25954.25954,0,0,1-.01563.05859.22256.22256,0,0,0-.01367.0586c-.00976.04883.01367.083.07227.10254a.01366.01366,0,0,1,.01562.01465q.0293.04394-.02929.249-.04395.21972-.08789.249-.07325.05861-.0879.07324c-.01953.04883-.02539.07813-.01562.0879s.0293.00976.05859,0,.04883-.00977.0586,0a.07852.07852,0,0,1-.0586.08789A.29094.29094,0,0,0,1615.38867,261.31543Zm.04492,15.9375q.07325.01466.0293.05859a.06219.06219,0,0,1-.04492.01465c-.0293-.00976-.043-.02441-.043-.04394A.05906.05906,0,0,1,1615.43359,277.25293Zm.30664-4.18945a.6905.6905,0,0,0,.0586-.30762,1.08538,1.08538,0,0,1,.02929-.32227.50874.50874,0,0,0-.10156.21973,1.77642,1.77642,0,0,1-.08789.30762v-.07324h-.01562a1.252,1.252,0,0,1-.01367-.17579.53638.53638,0,0,0-.0293-.13183,2.12046,2.12046,0,0,0-.17578.67383.73623.73623,0,0,0,.16015-.35157c0-.00976-.0039-.01464-.01367-.01464h.0586l.01367.07324.01562-.01465a5.294,5.294,0,0,1-.08789.73242q0,.01466-.14648.80567a1.02939,1.02939,0,0,0,.11718-.33692,2.88184,2.88184,0,0,1,.07227-.35156,1.34887,1.34887,0,0,0,.05859-.36621A.80116.80116,0,0,1,1615.74023,273.06348Zm-.21875-.17578.0293,3.48632.18945-.07324h.01563l.01367.01465-.01367.04395a.778.778,0,0,1-.07422.11718q-.01464.02929-.05859.01465a.3135.3135,0,0,1-.07227-.05859Q1615.50683,276.40333,1615.55078,276.374Zm.32227-4.16015q.04394-.01466.02929-.11719c-.00976-.06836-.02539-.09277-.04492-.07324q-.10254.10254-.17578-.01465l-.0293.0293c-.00976.07812-.0039.12207.01563.13183Q1615.81445,272.24316,1615.87305,272.21387Zm-.22071,5.24414c.08789-.00977.14258.01953.16211.08789q.01465.02929-.02929.04394a.13007.13007,0,0,1-.0586-.01464.11868.11868,0,0,1-.01562-.04395Q1615.65235,277.42871,1615.65234,277.458Zm.13282-.4541-.01563.02929c-.0293,0-.043-.00488-.043-.01465l.0293-.01464Zm3.16406-7.96875a.1703.1703,0,0,0,.16016-.23438c-.01954-.12695-.0625-.34668-.13086-.65918a.22323.22323,0,0,0-.04493-.11719.40453.40453,0,0,1-.07226-.26367q-.0293-.58593-.0586-.76172c-.07812-.332-.11328-.459-.10351-.38086q-.0293-.36621-.20508-1.31836-.04395-.249-.08789-.26367-.05859-.0293-.11719-.20508c-.08789-.30273-.13086-.44921-.13086-.43945a1.06308,1.06308,0,0,1-.04492-.19043,3.19018,3.19018,0,0,0-.17578-.61523,1.41823,1.41823,0,0,0-.08789.60058c.01953.127.03516.26368.04492.41016a.0259.0259,0,0,1-.0293.0293l-.08789-.10254a1.02894,1.02894,0,0,0-.08789.27832q-.14648.76172-.17578.99609-.05859.36621-.17578.95215-.17578.791-.20508.9375-.249,1.28907-.25,1.31836a.44084.44084,0,0,0-.01367.249c.01953.0293.11133.03907.27734.0293a1.17188,1.17188,0,0,0,.19141-.01465c.03906-.00976.11133-.02441.21875-.04394.08789-.01954.16211-.03418.2207-.04395a1.3806,1.3806,0,0,1,.43946-.01465.39573.39573,0,0,0,.21875-.04394.32983.32983,0,0,1,.20507-.0586A1.041,1.041,0,0,0,1618.94922,269.03516Zm-.67383-11.35254q-.04395-.13183-.23437-.0586c.19531.24414.2871.36133.27734.35157A.77235.77235,0,0,0,1618.27539,257.68262Zm1.9043,20.97656q-.10254.30762.14648.41016a.1708.1708,0,0,1-.23437-.16114,1.6426,1.6426,0,0,1,.01367-.4834A.17659.17659,0,0,1,1620.17969,278.65918Z" fill="#666"/>
      <path d="M1634.76367,279.084h.043q.04395.01466-.0293.0586a.07129.07129,0,0,1-.07226.01465l-.04492-.0293-.0293-.0293q.0293.02929-.0293-.04394l-.05859-.10254a1.63017,1.63017,0,0,1-.13086-.21973,2.22194,2.22194,0,0,1-.19141-.4248q-.05859-.14649-.32226-.68848.01464.02929-.11719-.4248a2.06434,2.06434,0,0,0-.26367-.57129q-.04395-.05861-.0293-.0586a.37938.37938,0,0,0-.05859-.26367,1.557,1.557,0,0,1-.07227-.30762l-.04492-.11718q-.01465,0-.05859.08789a.19535.19535,0,0,1-.13086.08789.06892.06892,0,0,1-.07422-.04395.02926.02926,0,0,1,.01562-.04394.74471.74471,0,0,0,.18946-.26367q.04394-.11719-.08789-.19043a.11721.11721,0,0,1-.043-.17579.15522.15522,0,0,0,0-.13183q-.0586-.14649-.0586-.11719-.0293-.10254-.11718-.08789-.07324-.20508-.0586-.21973c.0293-.04882.01367-.07324-.04492-.07324-.05859.00977-.0918-.02441-.10156-.10254v-.11718q-.01465-.10254-.0293-.10254-.08789-.01466-.05859-.10254,0-.04395-.08789-.01465t-.11719-.0293a2.79145,2.79145,0,0,1-.13281-.30762.23116.23116,0,0,1,.16211,0,.04564.04564,0,0,0,.043-.02929.06.06,0,0,0,.01563-.04395q-.01465-.07324-.20508-.13183-.08789-.02931-.11719,0a.08141.08141,0,0,0-.01562.10254l.05859.10253c-.02929.10743-.0332.1709-.01367.19043s.00977.083-.0293.19043q-.05859.14649.0293.19043c.0293.0293.0332.083.01367.16114a.11359.11359,0,0,0,.0293.13183q.07324.07324.23437,0,.07324-.04393.0879.01465c.00976.0293-.00391.06348-.043.10254q-.07325.044,0,.07324a.66317.66317,0,0,1,.13086.16113q.04394.07325.08789.16114c.00976.01953.03515.07324.07422.16113a2.49261,2.49261,0,0,0,.11718.32227c.01953.02929.00391.05371-.04492.07324a.0582.0582,0,0,1-.07226-.0293l-.04493-.04394h-.02929a.04068.04068,0,0,0-.01368.02929c0,.03907.00391.06348.01368.07324q.51269,1.20119.55664,1.28907.07323.13184.02929.19043a.17994.17994,0,0,0,.0293.26367.35763.35763,0,0,1,.10352.21973,1.99633,1.99633,0,0,0,.13086.3955q.07323.20508.02929.26368-.05859-.01466-.14648-.21973-.14649-.32228-.58594-1.34766a2.26668,2.26668,0,0,0-.16016-.293.86722.86722,0,0,1-.10351-.249,1.93854,1.93854,0,0,0-.08789-.26367c-.01953-.04883-.043-.11719-.07227-.20508a1.84261,1.84261,0,0,1-.05859-.20508,1.7033,1.7033,0,0,1-.08789-.21972l-.0293-.11719-.0293-.10254a.04094.04094,0,0,0-.05859-.0293.04694.04694,0,0,0-.0293.04395.18434.18434,0,0,0,.01368.13183q.0293.0293-.0293.0586a.13211.13211,0,0,1-.08789,0c-.00977,0-.03321-.01953-.07227-.0586a.20825.20825,0,0,0-.11718-.02929q-.0586,0,0-.0586c.06835-.09765.05273-.16113-.04493-.19043-.05859-.01953-.07226-.05859-.043-.11718.0293-.04883.03321-.07813.01368-.0879a.96412.96412,0,0,1-.08789-.27832,3.5108,3.5108,0,0,0-.13086-.38085q-.02929-.07325-.14649-.0293l-.08789.04394c-.04883.03907-.084.03907-.10351,0a.11761.11761,0,0,1-.01368-.07324.17415.17415,0,0,1,.07227-.0293.088.088,0,0,0,.05859-.05859.56645.56645,0,0,0-.07226-.4541q-.04395-.05859-.11719.01465-.01465,0-.08789.07324c-.0293-.00977-.03516-.03906-.01563-.08789q.02931-.10254,0-.13184-.04394-.04393,0-.07324a.07415.07415,0,0,1,.08789.0293c.01954.01953.03516.0293.04493.0293a.24011.24011,0,0,0,.05859-.01465.04072.04072,0,0,1,.01367-.0293q.01465-.05859-.05859-.08789l-.14649-.05859q-.13183-.02931-.05859-.13184l-.13086.07324c-.03906.0293-.06445.03906-.07422.0293-.02929,0-.0332-.01465-.01367-.04395.07813-.09765.11133-.166.10156-.20508q-.01464-.0293.0293-.05859a.23541.23541,0,0,0,.05859-.30762.69119.69119,0,0,1-.08789-.36621q.01465-.07323-.08789-.04394c-.10742.02929-.13086.03906-.07226.02929q-.11719.02931-.08789-.07324c0-.02929.0039-.04394.01367-.04394l.05859-.08789a.36891.36891,0,0,1-.16015,0q-.07324,0-.0586-.0586a.13139.13139,0,0,1,.07227-.07324.06221.06221,0,0,1,.04492-.01465.10936.10936,0,0,1,.043-.01465q.05859-.02929.05859-.07324a.522.522,0,0,0-.043-.13183.059.059,0,0,0-.05859-.0293.088.088,0,0,0-.05859.05859c-.01954.03906-.04493.0586-.07422.0586a.05821.05821,0,0,1-.07227-.0293.27518.27518,0,0,1-.01562-.16113c.00976-.03907.06445-.06836.16211-.08789q-.26368-.5127-.17579-.39551a.37507.37507,0,0,1-.04492-.08789q-.16113-.61524-.11719-.4541a.25692.25692,0,0,0-.02929-.07325c0-.00976-.00391-.01464-.01367-.01464a.19381.19381,0,0,1-.10352-.14649q-.0293-.13184-.08789-.16113a.49644.49644,0,0,1-.13086-.35156.11936.11936,0,0,0-.0293-.08789.37319.37319,0,0,1-.08789-.0879.11865.11865,0,0,0-.01562-.04394l-.01367-.0293-.01563-.02929a1.08053,1.08053,0,0,1-.043-.17579.68027.68027,0,0,0-.26367-.43945.30318.30318,0,0,1-.0293-.11719.18882.18882,0,0,0-.17578-.17578.12831.12831,0,0,1-.10351-.05859.13841.13841,0,0,0-.10157-.04395q-.10254.01466-.05859-.07324a.08441.08441,0,0,0,.0293-.05859q0-.01466-.0586-.0293-.04394-.01466-.02929-.04395c.03906-.13671.0625-.18554.07226-.14648a.16964.16964,0,0,0-.10156-.11719.21078.21078,0,0,1-.14648-.27832c.00976-.04883-.01563-.07324-.07422-.07324a.26409.26409,0,0,1-.17578,0,.22949.22949,0,0,1-.0586-.04394c.01953.01953.00586,0-.043-.0586l-.02929-.0293-.01563-.01464-.01367-.01465v-.01465c-.0293-.05859-.084-.07324-.16211-.04395q-.08789.02931-.05859-.05859a.13524.13524,0,0,0-.10157-.17578.35126.35126,0,0,1-.17578-.11719l-.02929-.0293q.05859-.01464-.26368.11719-.10254.04395-.23437.10254-.01465.542-.0293.70313.01465-.07325-.11719.835-.05859.4248-.08789.65918a2.08136,2.08136,0,0,0,0,.35156,1.02952,1.02952,0,0,1-.02929.35156.90844.90844,0,0,0-.0293.21973,9.75689,9.75689,0,0,1-.04492.98144.48911.48911,0,0,0,.04492.30762.15092.15092,0,0,1-.01562.21973c-.0293.02929-.03321.083-.01368.16113a3.99469,3.99469,0,0,0,.08789.43945.32089.32089,0,0,1-.02929.30762.101.101,0,0,0,.01367.16113.486.486,0,0,1,.14648.38086q-.0293.68848,0,.55664a.27785.27785,0,0,0,.01563.08789q-.01465-.04394.17578,1.83106a1.78108,1.78108,0,0,1-.0293.55664,4.01675,4.01675,0,0,0,.043.82031v.08789h-.42383l-.02929-.04394a.151.151,0,0,0-.0586-.0293.08441.08441,0,0,0-.05859.0293l-.0293.04394h-.2207q.01464,0-.0293-.10254-.08789-.20508-.23437-.10254a.662.662,0,0,0-.13086.11719l-.08789.08789h-.01563l-.08789-.07324-.10156-.4834q-.04395-.20508-.08789-.23437c-.01953.00976-.02539.06347-.01563.16113q.0293.26367.0293.36621a.213.213,0,0,0-.16016-.04394.998.998,0,0,1-.16211.01464,1.17179,1.17179,0,0,1-.07226-.3955q0-.02931-.05859-.60059a.70094.70094,0,0,1,.05859-.43945q.01464-.04395.05859-.41016a.53145.53145,0,0,0-.02929-.32227.95069.95069,0,0,1-.04493-.4248c.00977-.15625.01563-.22949.01563-.21973,0-.06836.043-.07812.13086-.02929l.02929-.01465a3.102,3.102,0,0,0-.043-.35156c0-.04883-.01563-.07325-.04493-.07325-.10742-.00976-.14062-.083-.10156-.21972a.429.429,0,0,0-.04492-.27832.11765.11765,0,0,1,.04492-.17578c.06836-.03907.07227-.07813.01367-.11719a.24133.24133,0,0,1-.08789-.16113,2.031,2.031,0,0,0-.01367-.30762c-.01953-.293-.03516-.459-.04492-.49805a.1285.1285,0,0,1-.01367-.05859,3.34653,3.34653,0,0,0,.01367-.58594,3.94093,3.94093,0,0,1,.0293-.55664,1.09117,1.09117,0,0,0,.02929-.33691,2.19482,2.19482,0,0,1-.02929-.52735q0,.044.02929-.51269a2.00236,2.00236,0,0,1,.08789-.55664.92889.92889,0,0,0,.01563-.32227,5.76854,5.76854,0,0,1,.043-1.23047,1.09985,1.09985,0,0,0,0-.26367,6.19977,6.19977,0,0,1,.05859-1.02539.85727.85727,0,0,0,.01563-.26367,3.86451,3.86451,0,0,0,.02929-.791.69444.69444,0,0,1,.043-.20508.71076.71076,0,0,0,.04492-.20508q.01465-.46875,0-.38085c.00977-.04883.043-.38575.10157-1.01075q.01464-.17577.20507-1.47949.04395-.26367.0586-.4248.044-.20508.05859-.249a1.88323,1.88323,0,0,0,.14649-.41015,2.21647,2.21647,0,0,1,.13281-.42481.151.151,0,0,0,.0293-.05859c.06835-.6836.10156-1.01563.10156-.9961a.38206.38206,0,0,1,.04492-.249.49683.49683,0,0,0,.07227-.16113,1.84427,1.84427,0,0,0-.43946.20508.37136.37136,0,0,1-.21875.08789.74487.74487,0,0,0-.14648.01465.58809.58809,0,0,1-.07422.02929l-.05859.0293a4.78428,4.78428,0,0,0-1.28907.835q-.13183.11719-.32226.26367c-.18555.13672-.29688.21973-.33594.249a3.52543,3.52543,0,0,0-.68945.55664l-.11719.11718c-.00977.01953-.02344.01953-.043,0a.0483.0483,0,0,1-.01562-.05859.52581.52581,0,0,1,.11718-.19043,2.30718,2.30718,0,0,1,.43946-.41016c.11718-.09765.1914-.15625.2207-.17578q.01464-.01464.20508-.17578a8.73956,8.73956,0,0,1,.8789-.71777,11.01154,11.01154,0,0,1,1.00977-.64453.58572.58572,0,0,0-.21875.01465,1.29206,1.29206,0,0,1-.19141.02929.08479.08479,0,0,1-.05859-.01465q-.01465-.02929.0293-.07324l.1914-.16113q.0293.05859-.26367.10254a.12114.12114,0,0,0-.11719.10254l.0293.08789a.12262.12262,0,0,1-.04492.07324q-.01465.0293-.0586.01465c-.02929-.01953-.0332-.04883-.01367-.08789-.00976.01953-.00586.00488.01367-.04395,0-.01953-.0039-.02929-.01367-.02929-.06836-.0293-.10351-.04883-.10351-.0586q0,.13184-.11719.13184a1.07921,1.07921,0,0,0-.42383.17578q-.07325.04395-.32226.16113a1.281,1.281,0,0,0-.293.17578c-.0293-.04883-.01563-.10254.043-.16113a4.41934,4.41934,0,0,1,.99609-.74707l.293-.14648a2.61166,2.61166,0,0,1,.2793-.13184l.26367-.13184q.10254-.04393.26367-.13183a.26552.26552,0,0,0,.17578-.16114v-.05859a.04786.04786,0,0,0-.05859-.01465q-.04395.01466-.11719.04395c-.06836.02929-.11328.04883-.13281.05859-.06836.0293-.11133.01953-.13086-.0293s.0039-.083.07226-.10253c-.02929.00976.01563-.02442.13281-.10254.19532-.13672.34571-.12207.45313.04394.03906.0586.07422.08789.10352.08789a.27011.27011,0,0,0,.17578-.14648.30791.30791,0,0,0,.02929-.16113c-.04882-.10743-.01562-.17579.10157-.20508a1.84781,1.84781,0,0,1,.1914-.0586V257.126a.0595.0595,0,0,1,.01367-.044q.01465-.16113.14649-.82031.0293-.10254.08789-.43945l.07422-.43946c.00976-.03906.02344-.09277.043-.16113q.01464-.02929.05859,0a.04693.04693,0,0,1,.0293.04394,1.01613,1.01613,0,0,1-.01367.19043c-.0293.17579-.05469.36622-.07422.57129q0,.02931-.0586.57129-.04394.30762-.08789.67383c-.02929.00977-.0039-.00488.07422-.04394a1.04741,1.04741,0,0,0,.20508-.14649.3735.3735,0,0,1,.20508-.11719q.01464,0,.05859.04395a.13985.13985,0,0,0,.07227.0293c.26367-.00977.40625-.08789.42578-.23438a.0407.0407,0,0,1,.01367-.0293.04222.04222,0,0,0,.0293-.01464.27632.27632,0,0,1,.08789-.01465c.04883,0,.07422.00976.07422.02929-.00977-.04882-.00586-.00976.01367.11719q.01464.07324.14648.07324c.00977,0,.084-.00488.22071-.01464a.99379.99379,0,0,0,.21875-.0293q.0293-.0293,0-.17578l-.01368-.0586c0-.03906.02344-.05859.07227-.05859a.18376.18376,0,0,1,.10352.0293c.02929.01953.0332.06836.01367.14648q-.01465.10254.14648.13184a.3645.3645,0,0,0,.13281.02929,1.351,1.351,0,0,0,.32227.01465,1.2423,1.2423,0,0,0,.33594.04395,2.85969,2.85969,0,0,1,.32226.04394.235.235,0,0,0,.25-.05859.31507.31507,0,0,1,.39453-.04395,3.17682,3.17682,0,0,0,.58594.21973.5136.5136,0,0,1,.2207.10254q.07324.044.41016.26367a2.188,2.188,0,0,1,.36524.30762q.08788.08788.41015.35156a1.44817,1.44817,0,0,1,.55664.80566q.01465.01466.14649.293a2.74936,2.74936,0,0,1,.30859,1.06934,2.05946,2.05946,0,0,1-.05859.58594,3.33676,3.33676,0,0,1-.17578.52734,3.66649,3.66649,0,0,1-.41016.67383c-.14649.19531-.23047.30762-.25.33691a.89135.89135,0,0,1-.27734.293,1.076,1.076,0,0,0-.19141.17578,3.95192,3.95192,0,0,1-.84961.65918q-.16113.10254-.14648.10254a.16282.16282,0,0,1-.043.0293l-.01563.01465h0a.12863.12863,0,0,0-.01367.05859l.01367.01465a.04072.04072,0,0,0-.01367.0293.0979.0979,0,0,1-.04492.04394.15216.15216,0,0,1-.11719.01465c-.0293,0-.07227.0293-.13086.08789q-.23437.27832-.293.35156a.32206.32206,0,0,1-.25.16114.10358.10358,0,0,0-.11719.11718.46932.46932,0,0,1-.20507.33692c-.32227.26367-.45313.38086-.39453.35156a.14328.14328,0,0,0-.07422.05859,7.44906,7.44906,0,0,1-.55664.65918l-.13086.13184c0,.00976.0039.01465.01367.01465l.01562.01465a.39868.39868,0,0,1,.13086.10254.53232.53232,0,0,0,.16211.17578q0,.01464.0293.01464l.0293.01465a.0183.0183,0,0,0,.02929,0h.01367l.0879-.01465-.10157-.01464-.08789-.01465h.01367l.0586.02929a1.57272,1.57272,0,0,1,.293.20508c.01953.01953.084.07813.1914.17578a1.15855,1.15855,0,0,1,.18946.17579c.15625.19531.2207.34179.1914.43945-.00976.03906.01367.06836.07227.08789a.23514.23514,0,0,1,.14648.20508.66007.66007,0,0,0,.11719.23437.97558.97558,0,0,1,.2207.58594v.05859a.355.355,0,0,1,.11719.27832.04071.04071,0,0,0,.01367.0293h.04492a.36437.36437,0,0,1,.043.08789,1.19567,1.19567,0,0,1,.0293.20508c.0293.18555.04492.24414.04492.17578a.07851.07851,0,0,0,.05859.08789.249.249,0,0,1,.16016.21973.99633.99633,0,0,0,.07422.17578.861.861,0,0,1,.14648.39551q0,.05859.0293.05859a.2096.2096,0,0,1,.10156.293.07012.07012,0,0,0,.04493.10254.18276.18276,0,0,1,.10156.13183q.01464.04395.08789.20508a1.24635,1.24635,0,0,1,.01562.26367c0,.0293.02344.0586.07227.0879a.35237.35237,0,0,1,.08789.08789.62359.62359,0,0,1-.01367.48339c.14648.00977.22851.04883.24805.11719q-.01466-.05859.293.73242a1.26766,1.26766,0,0,1,.11719.60059.37258.37258,0,0,0,.11719.21973c.04883.05859.03516.11718-.043.17578a.26661.26661,0,0,0-.10352.35156.09544.09544,0,0,0,.04493-.05859.05906.05906,0,0,1,.02929-.0586.475.475,0,0,1,.13086-.04394q.07325,0,.0293.08789a.18369.18369,0,0,0,0,.14648q0,.07324-.08789.10254c-.06836.01953-.0918.05371-.07227.10254v.0293q.0586.17577.32227.13183a.12291.12291,0,0,1,0,.11719.15241.15241,0,0,0,.01367.11719q.01465.02929-.05859.04394a.12336.12336,0,0,0-.08789.16114,1.19879,1.19879,0,0,0,.11718.26367.89581.89581,0,0,1,.0586.19043.90811.90811,0,0,0,.05859.17578l.17578.43945q.498,1.30371.46875,1.24512a1.12127,1.12127,0,0,0,.19141.32226q.0293.01466.0293.0879a.085.085,0,0,0,.043.07324c-.00976-.00977-.0039.03906.01563.14648a1.14641,1.14641,0,0,0,.13086.35156,1.59257,1.59257,0,0,1,.19141.42481q.05859.13184,0,.19043-.02931.01464,0,.0293Q1634.73438,279.084,1634.76367,279.084Zm-10.07812-19.86328a.04765.04765,0,0,1-.07422.01465c-.0293-.01953-.02344-.04394.01562-.07324.01953-.01953.03321-.02441.043-.01465C1624.709,259.15723,1624.71484,259.18164,1624.68555,259.2207Zm.48242,18.01758c.01953-.11719.07422-.16113.16211-.13183.03906.00976.0918.01953.16015.02929.03907.09766.07422.17578.10352.23438l.01367.04394h-.42383C1625.1543,277.41406,1625.14844,277.35547,1625.168,277.23828Zm.26367-3.16406-.0293-.044.0293-.04394c.03906,0,.05469.01953.04492.05859C1625.47656,274.07422,1625.46094,274.084,1625.43164,274.07422Zm.35156-15.61524a.54812.54812,0,0,1,.13282-.02929.15241.15241,0,0,0,.13086-.0586l.02929-.04394-.02929-.04395a1.66029,1.66029,0,0,0-.26368.13184c-.00976,0-.01367.00488-.01367.01465C1625.76953,258.44922,1625.77344,258.459,1625.7832,258.459Zm.0586,18.72071q-.0293-.02929.14648.13183l.01563.0293v.0293h-.22071l.01563-.0586a.82671.82671,0,0,0,.01367-.16113Zm.14648-18.53028a1.58828,1.58828,0,0,0,.58594-.26367,1.59762,1.59762,0,0,0-.52734.16114Q1625.959,258.59082,1625.98828,258.64941Zm.77734,2.88575c-.01953-.0293-.03515-.02442-.04492.01464a.06664.06664,0,0,0,.01563.07325c.02929-.00977.043-.01953.043-.0293A.12852.12852,0,0,0,1626.76562,261.53516Zm.10157-.65918q-.05861,0-.08789.07324a.45424.45424,0,0,0,0,.32226.40124.40124,0,0,1,.13281-.33691q.0293-.01466,0-.04395A.06223.06223,0,0,0,1626.86719,260.876Zm-.01367-.67383c-.01954-.01953-.03516-.01465-.04493.01465l-.01367.07324v.05859q0,.04395.0293.0293Q1626.95606,260.31934,1626.85352,260.20215Zm.02929-.95215a1.53461,1.53461,0,0,0-.05859.62988,1.60694,1.60694,0,0,0,.11719-.542Q1626.94141,259.25,1626.88281,259.25Zm.16016-.60059a.47475.47475,0,0,0-.13086.04395.24683.24683,0,0,0-.01563.07324v.16113A1.03576,1.03576,0,0,0,1627,258.7373C1627.01953,258.67871,1627.0332,258.64941,1627.043,258.64941Zm-.0293-.48339a.08478.08478,0,0,0-.05859-.01465v.07324L1627,258.21C1627.01953,258.19043,1627.02344,258.17578,1627.01367,258.166Zm.14649,1.01074a.30213.30213,0,0,1-.0586.11719.25271.25271,0,0,0-.01367.14648l.0293.04395h.05859a2.45432,2.45432,0,0,0,.01367-.293c.00977-.00977.00586-.01953-.01367-.0293A.01366.01366,0,0,0,1627.16016,259.17676Zm.13281-.41016a.59545.59545,0,0,1,.0293-.14648.74573.74573,0,0,1-.14649.01465.26016.26016,0,0,1-.01562.05859v.05859a.09087.09087,0,0,0,.07422.10254Q1627.27832,258.85449,1627.293,258.7666Zm.41015-1.80176q-.01464.01466-.11718,0a.55431.55431,0,0,0-.20508.0586,1.06879,1.06879,0,0,1-.20508.07324.73923.73923,0,0,1,.498-.17578c.02929,0,.05273.01953.07226.05859A.028.028,0,0,0,1627.70312,256.96484Zm-.26367,7.33887c.00977-.05859-.00586-.09277-.04492-.10254a.0582.0582,0,0,0-.07226.0293.44294.44294,0,0,0-.0293.20508v.01465a.133.133,0,0,0,0,.14648c.01953.01953.0332.0293.043.0293.02929.00976.03515-.00489.01562-.044q-.01464-.02929-.05859-.13183v-.01465q0-.01466.05859-.0586A.1373.1373,0,0,0,1627.43945,264.30371Zm.498-5.72754a1.45477,1.45477,0,0,0-.293,0q-.0293.0879-.0293.07324l-.01562.14649c0-.00977-.00391.03906-.01367.14648q-.01465.0879-.0586.57129a.25959.25959,0,0,0,.0586.21973.04566.04566,0,0,0,.043.0293.03955.03955,0,0,0,.04492-.04395.83956.83956,0,0,1,.01367-.11719.913.913,0,0,0,.01562-.13183c.01954-.06836.05274-.09766.10157-.08789.03906.00976.05469.04394.04492.10254q.01466-.02931.0293.16113.04394.32226-.26368.35156-.10253,0-.11718.04395a.2081.2081,0,0,0,.043.20507.34523.34523,0,0,0,.13281.08789c.10742,0,.15039.0586.13086.17579q-.04395.26367-.20508.249-.07324-.01466-.05859.11719l.01562.4248a1.8,1.8,0,0,1,.05859-.17578c.01954-.08789.03321-.15137.043-.19043a.74535.74535,0,0,1,.0293.498.08806.08806,0,0,1-.05859.05859c-.0293,0-.043-.02441-.043-.07324a.06226.06226,0,1,0-.0586,0c-.08789.23437-.03515.39062.16016.46875q.05859.01464.0293.08789c-.01953.01953-.03321.0293-.043.0293h-.11719a.0949.0949,0,0,0-.10352.08789.8883.8883,0,0,0-.01367.19043c-.00976.11718-.00586.18066.01367.19043q.02931.02929.17579.01464h.04492a.05179.05179,0,0,1,.05859.0586.11933.11933,0,0,1-.0293.08789q-.02929.0293-.14648.01465-.10254-.02929-.14648.10254-.01465.07323-.0293.13183a1.06243,1.06243,0,0,0,0,.27832c-.00977-.01953-.01563.083-.01563.30762a2.683,2.683,0,0,1-.01367.293.22494.22494,0,0,0,.11719.21973.2516.2516,0,0,1,.11719.30761,1.29087,1.29087,0,0,0-.01563.5127.41129.41129,0,0,1-.01367.19043q.01465-.04395,0,.05859a.79722.79722,0,0,1,.10156-.04394c.0586-.01954.09375-.02442.10352-.01465a.10936.10936,0,0,0,.043.01465h.02929l.01563-.01465.043-.0293a.58172.58172,0,0,1,.08789-.07324.49838.49838,0,0,0,.2207-.249.90655.90655,0,0,1,.293-.33691c.13672-.09766.19922-.1416.18945-.13183.0586-.04883.09375-.02442.10352.07324l.0293.01465c.01953-.01954.0625-.06348.13086-.13184a1.27026,1.27026,0,0,0,.11718-.13184q.0586-.04394.0293-.07324-.08789-.14647.11719-.23437a.43781.43781,0,0,0,.1914-.20508c.03907-.07813.0918-.10254.16016-.07324s.09766.00488.08789-.07325a.20951.20951,0,0,1,.08789-.16113c.10742-.09766.18164-.166.2207-.20508a4.37261,4.37261,0,0,0,.35157-.33691l.043-.04395.11718-.08789.0586-.02929.08789-.07325a.89815.89815,0,0,1,.11719-.07324l.02929-.02929.0293-.01465a.58182.58182,0,0,0,.08789-.07325,1.79911,1.79911,0,0,1,.38086-.249.40748.40748,0,0,0,.1914-.16113,3.667,3.667,0,0,1,.24805-.32227q.17578-.20508.23438-.27832a1.02935,1.02935,0,0,1,.2207-.26367.22765.22765,0,0,0,.043-.16113,1.50257,1.50257,0,0,1-.0293-.249,1.1585,1.1585,0,0,0-.0293-.27832,1.128,1.128,0,0,0-.05859-.13183,4.32465,4.32465,0,0,1-.43945-.55664.59531.59531,0,0,0-.14649-.13184,1.97691,1.97691,0,0,1-.248-.16113,1.46825,1.46825,0,0,0-.26367-.16113c-.01954-.01954-.05469-.05372-.10352-.10254a.3554.3554,0,0,0-.11719-.08789.59545.59545,0,0,0-.14648-.0293.56325.56325,0,0,1-.13086-.05859,2.75142,2.75142,0,0,0-.77735-.21973,5.75663,5.75663,0,0,0-.61523-.10254c-.09766-.00977-.19922-.01465-.30664-.01465h-.14649l-.02929-.01465a.08488.08488,0,0,0-.0586.01465,3.65836,3.65836,0,0,0-.38085.0586Q1627.9668,258.57618,1627.9375,258.57617Zm-.498-.70312a.06228.06228,0,0,0,0,.05859l.0293.0293q.01465-.04395.0293-.10254c-.03907-.01953-.04493-.01953-.01563,0A.028.028,0,0,0,1627.43945,257.87305Zm.13086,5.78613a.08759.08759,0,0,1,.07422.04394.11531.11531,0,0,1-.05859.16114c-.00977.00976-.02539.00488-.04492-.01465a.11358.11358,0,0,1-.043-.10254A.09943.09943,0,0,1,1627.57031,263.65918Zm.04492-.76172.043.04395a.18205.18205,0,0,1-.043.07324c-.02929.0293-.05468.02441-.07421-.01465a.0483.0483,0,0,1,.01562-.05859Zm.14649-4.96582a.258.258,0,0,0,.07226-.07324.54993.54993,0,0,1-.07226.0293v.04394Zm.33594-.14648c-.01954.02929-.01368.04394.01562.04394a.06645.06645,0,0,0,.07227-.04394l-.043-.0293A.0482.0482,0,0,0,1628.09766,257.78516Zm.82031,6.25488c-.01953.01953-.0332.01465-.043-.01465l.01367-.05859h.0586Q1628.97657,264.01073,1628.918,264.04Zm.19141,4.86328c.04882-.01953.082-.00977.10156.0293a.08441.08441,0,0,1-.0293.05859q-.08789.04395-.11719-.01465C1629.05469,268.94727,1629.07031,268.92285,1629.10938,268.90332Zm.26367.17578.01367.01465a.167.167,0,0,1-.08789.05859q-.05859,0-.0586-.01464a.04381.04381,0,0,1,.01563-.0293A.13506.13506,0,0,1,1629.37305,269.0791Zm.02929.61524c.00977-.00977.02344-.00977.043,0q.0293.02929,0,.07324c-.02929.01953-.05273.01953-.07226,0A.05936.05936,0,0,1,1629.40234,269.69434Zm.13086-12.89063a.04784.04784,0,0,1-.05859-.01465l-.05859-.05859.04492-.0293a.454.454,0,0,1,.08789.0293C1629.57812,256.75977,1629.57227,256.78418,1629.5332,256.80371Zm.68946,14.37012q.04394-.0293.05859-.01465.05859.0293-.0293.08789a.07469.07469,0,0,1-.07422.01465C1630.14844,271.24219,1630.16406,271.21289,1630.22266,271.17383Zm.16015-14.25293q-.08789-.01466-.08789-.07324a.06924.06924,0,0,1,.0586-.07325.13551.13551,0,0,1,.17578.07325.04741.04741,0,0,1-.01368.05859A.123.123,0,0,1,1630.38281,256.9209Zm.07422,15.293c.03906.00976.05274.03906.043.08789l-.0293.04394h-.05859c-.03906-.01953-.043-.05371-.01367-.10254A.04094.04094,0,0,1,1630.457,272.21387Zm.38086.32226c.10742.13672.05273.25391-.16211.35157h-.05859q-.0293-.13185-.0293-.14649a.05828.05828,0,0,1,.04492-.05859.75965.75965,0,0,0,.13086-.13184C1630.793,272.52148,1630.81836,272.5166,1630.83789,272.53613Zm.05859.38086c-.03906.00977-.05468.00489-.04492-.01465a.05745.05745,0,0,1,.0586-.04394l.04492.01465A.09437.09437,0,0,1,1630.89648,272.917Zm-.02929-15.791q-.01465.02929.02929.07324c.01954.0293.0918.05859.21875.08789v.01465h.01563a.17475.17475,0,0,0,.14648.04394q.0586-.01464.0586-.02929c.01953-.01953.0039-.0293-.04492-.0293a.97457.97457,0,0,0-.16016.01465h-.01563v-.01465a.45043.45043,0,0,0-.11718-.17578C1630.93945,257.082,1630.89648,257.08691,1630.86719,257.126Zm.73242,17.46093a.11856.11856,0,0,0-.01563.04395.07989.07989,0,0,1-.10156-.01465q-.0293-.0293.0293-.04394A.08738.08738,0,0,1,1631.59961,274.58691Zm.01367.21973q.04395-.01464.0586.05859l-.043.01465a.05906.05906,0,0,1-.0586-.02929C1631.57031,274.83105,1631.584,274.81641,1631.61328,274.80664Zm.11719-2.76855c.03906-.0293.05469-.0586.04492-.08789q-.01466-.0879-.14648,0-.0586.0293-.0293.07324C1631.61914,272.0625,1631.66211,272.06738,1631.73047,272.03809Zm.08789.58593c.01953.0293.05469.03418.10352.01465a.04094.04094,0,0,0,.02929-.05859q-.01464-.05859-.08789-.0293A.05389.05389,0,0,0,1631.81836,272.624Zm.46875.82032c.03906-.04883.03516-.083-.01367-.10254a.19645.19645,0,0,1-.14649-.23438c0-.06836-.01562-.1123-.04492-.13183q-.10254-.11719-.11719-.11719c-.00976-.01953-.0332-.01953-.07226,0-.0293.00976-.03516.02441-.01563.04394a3.31126,3.31126,0,0,1,.16211.55664c.01953.09766.043.14161.07227.13184Q1632.14063,273.59082,1632.28711,273.44434Zm-.27734,1.12793.01367-.01465a.10866.10866,0,0,0-.043-.11719.15194.15194,0,0,0,0,.13184Zm.11718.30761c.00977-.00976.00391-.03906-.01562-.08789q0-.05859-.0586-.02929a.04742.04742,0,0,0-.01367.05859A.09385.09385,0,0,0,1632.127,274.87988Zm.0586.23438v.04394a.06222.06222,0,0,0,.05859,0q.0293-.01464.0293-.02929Q1632.25879,275.05566,1632.18555,275.11426Zm.33593-.70313a.04225.04225,0,0,1,.0293-.01465l.04492.01465a.09733.09733,0,0,1-.01562.08789q-.01465.0293-.0293.0293a.05723.05723,0,0,1-.043-.01465C1632.47852,274.49414,1632.48242,274.46,1632.52148,274.41113Zm-.02929.77637v.0293l.04492.05859a.49292.49292,0,0,1-.01563-.07324Zm.07422-1.05469v-.04394l-.04493-.01465a.03662.03662,0,0,0,0,.05859Zm.16015,3.31055q.0293-.01466.0293.01465c.00976.02929-.00391.04883-.043.05859-.00977.00977-.01562.00977-.01562,0Q1632.68262,277.48731,1632.72656,277.44336Zm.17578.27832a.95049.95049,0,0,0,.0586.14648q.08789.20508,0,.17579-.04395,0-.11719-.16114a.34632.34632,0,0,1-.043-.13183q-.01464-.05861.0293-.07325C1632.85938,277.668,1632.88281,277.68262,1632.90234,277.72168Zm-.02929,1.97754.02929.0293v.02929a.03662.03662,0,0,1-.05859,0l-.0293-.02929c-.00976-.01954-.0039-.0293.01563-.0293C1632.83984,279.68945,1632.85352,279.68945,1632.87305,279.69922Zm.55664.21973c.03906.03906.084.08789.13281.14648.00977.0293.00391.04883-.01562.05859a.0648.0648,0,0,1-.07227-.01464,3.154,3.154,0,0,0-.25-.30762v-.04395h.0293a.06223.06223,0,0,1,.04492.01465C1633.31836,279.792,1633.36133,279.84082,1633.42969,279.919Zm.01562-4.6875q.01465,0-.02929-.11719a.13133.13133,0,0,1,.08789.08789l-.01563.04394Zm-.02929,3.09082a.13111.13111,0,0,1,.08789.07324c0,.01953-.00586.02929-.01563.02929q-.04395.02931-.05859-.01464C1633.43945,278.42969,1633.43555,278.40039,1633.416,278.32227Zm.27734.51269a1.66212,1.66212,0,0,0,.2207.16113.05906.05906,0,0,1-.02929.0586.13008.13008,0,0,1-.0586-.01465A.2497.2497,0,0,1,1633.69336,278.835Zm.16211,1.66992c.0293-.00976.05273.00977.07226.0586l-.01367.02929c-.03906.01953-.06445,0-.07422-.05859C1633.83984,280.51465,1633.8457,280.50488,1633.85547,280.50488Zm.07226-2.13867c.0293-.0293.05469-.01465.07422.04395l-.01562.04394c-.03906.00977-.0625,0-.07227-.0293A.04742.04742,0,0,1,1633.92773,278.36621Zm.45508,1.31836.0293.04395v.04394a.04784.04784,0,0,1-.05859-.01465.09788.09788,0,0,1-.04493-.04394q0-.01466.0293-.0293C1634.34766,279.6748,1634.36328,279.6748,1634.38281,279.68457Zm.64453.293a1.07475,1.07475,0,0,1,.14649.19043c.01953.0293.01367.04883-.01563.05859-.03906.00977-.0625.00489-.07226-.01465q-.13184-.19042-.293-.3955l.01367-.0293.0293-.01465c.02929.00977.04492.01953.04492.0293A2.20373,2.20373,0,0,1,1635.02734,279.97754Zm.48243.70312c.02929,0,.05468.0293.07421.08789q-.0293.02931-.02929.04395c-.04883.01953-.07422-.00977-.07422-.08789A.04692.04692,0,0,1,1635.50977,280.68066Z" fill="#666"/>
      <path d="M1634.49414,264.72852q.08789,0,.08789.10253-.04395.0586-.05859.0586c-.11719.0293-.15235-.00977-.10352-.11719A.08757.08757,0,0,1,1634.49414,264.72852Zm5.93164,10.51757a.58982.58982,0,0,1,.26367.10254.12264.12264,0,0,1,.04493.11719c-.01954.06836-.05469.09766-.10352.08789a1.36935,1.36935,0,0,1-.82031-.30762.23326.23326,0,0,0-.248-.11718c-.05859.01953-.09375.04394-.10352.07324-.00976.01953.01563.04883.07422.08789q.19044.10254.0293.21973-.17578.13184-.14648.10253-.01465.01466-.11719.14649a1.84874,1.84874,0,0,1-.19141.05859c-.10742.0586-.11133.10742-.01367.14649a5.75914,5.75914,0,0,0,.57031.23437q.293.05859.43946.498.08789.21972-.14649.19043-.08789-.01466-.23437-.044-.16114-.01464-.23438-.02929c-.09766-.00977-.15039.01464-.16016.07324q-.02929.26367-.293.17578a.27948.27948,0,0,0-.3086.23438.45435.45435,0,0,1-.02929.08789.48371.48371,0,0,1-.30665.27832,2.51318,2.51318,0,0,0-.35156.13183.66126.66126,0,0,1-.67383-.01465.60327.60327,0,0,0-.27929-.07324.47754.47754,0,0,1-.26367-.10254.35118.35118,0,0,1-.11719-.249.83962.83962,0,0,0-.07227-.27832q-.23437-.38087.13086-1.11328c-.03906.06836.02539-.01953.19141-.26367a.36449.36449,0,0,0,.05859-.41016.19153.19153,0,0,1,.043-.249,1.09645,1.09645,0,0,0,.293-.4834.44121.44121,0,0,1,.38086-.30762,2.34814,2.34814,0,0,1,.23437-.0293c.13672-.01953.20118-.02441.19141-.01465a.42267.42267,0,0,0,.16016-.11718.1237.1237,0,0,1,.16211-.04395,1.856,1.856,0,0,0,.293.14649q.13185.07323.11719-.10254a.937.937,0,0,1-.02929-.14649.43813.43813,0,0,0-.01563-.13183q0-.05861.08789-.0293a.19382.19382,0,0,1,.10352.14648A1.95382,1.95382,0,0,0,1640.42578,275.24609Zm4.10156-16.21582q-.01464.14649-.20507.11719c-.127-.00976-.18946.03906-.18946.14649a1.80016,1.80016,0,0,1-.07422.57128,9.1199,9.1199,0,0,1-.6582,1.74317,1.71268,1.71268,0,0,1-.14648.23437,2.1818,2.1818,0,0,0-.45508.77637c-.15625.41992-.22852.61524-.21875.58594a.65971.65971,0,0,1-.42578.4248,4.28953,4.28953,0,0,0-.82032.61524q-.14648.10254-1.39062,1.50879a3.32906,3.32906,0,0,0-.61524,1.333q.02931-.11718-.1621.791a1.23484,1.23484,0,0,0-.01368.4248q.10254.9375.10157,1.14258a.6635.6635,0,0,1-.20508.62989.60448.60448,0,0,0-.14649.21972.78347.78347,0,0,1-.14648.26367q-.07324.07325,0,.26368a1.19264,1.19264,0,0,1-.23438.92285c-.02929.05859-.0625.08789-.10156.08789q-.98145-.07324-.80664-.0293c-.11719-.0293-.17969-.08789-.18945-.17578q-.14649-.87891-.14649-.84961-.01464-.13184-.02929-.4834a4.2415,4.2415,0,0,0-.04493-.46875,1.2586,1.2586,0,0,1,.0293-.33691c.06836-.41016.123-.73731.16211-.98145a.98581.98581,0,0,1,.14649-.39551,3.48333,3.48333,0,0,0,.38086-.92285,1.7965,1.7965,0,0,1,.30664-.64453,1.43708,1.43708,0,0,0,.35156-.80566q.01464-.02929.35156-.60059a7.55584,7.55584,0,0,1,.92383-1.21582q.57129-.62988,1.25976-1.37695-.13183.14647.35157-.32227c.11718-.10742.16992-.20019.16015-.27832a.33919.33919,0,0,1,.19141-.35156,1.04324,1.04324,0,0,1,.17578-.16113.58346.58346,0,0,0,.20508-.60059,3.47365,3.47365,0,0,0-.38086-1.11328.92728.92728,0,0,0-.42578-.36621,3.493,3.493,0,0,0-.89258-.16113c-.166-.01953-.25977.04394-.2793.19043a.306.306,0,0,1-.26367.249q-.30762.05859-.6875.60059a.35018.35018,0,0,0-.0293.36621.55531.55531,0,0,1-.16211.60058,2.00973,2.00973,0,0,1-.20507.20508q-.13183.13184-.23438-.05859a.31826.31826,0,0,1-.043-.23438.64805.64805,0,0,0-.11718-.4834l-.0879.01465-.26367.10254q-.10254-.05859-.05859-.30762a3.5911,3.5911,0,0,1,.30664-.95214,1.038,1.038,0,0,0,.13281-.35157,2.17842,2.17842,0,0,1,.14649-.43945,1.043,1.043,0,0,0,.10156-.46875.73486.73486,0,0,1,.20508-.36621,3.892,3.892,0,0,1,.48437-.52735,4.17738,4.17738,0,0,0,.65821-.62988.44989.44989,0,0,1,.23437-.13183.948.948,0,0,1-.07227.11718q-.04393.1172.0586.10254c.51758-.10742.7168-.15625.59961-.14648a8.9934,8.9934,0,0,1,1.1875-.07324,1.95217,1.95217,0,0,1,1.46484.60058.7204.7204,0,0,1,.18945.32227,1.12456,1.12456,0,0,0,.39649.68847.28243.28243,0,0,1,.07227.38086q-.10254.19044.14648.17578Q1644.57129,258.7373,1644.52734,259.03027Zm-5.09765,16.88965a.0846.0846,0,0,1-.07227-.04394.57713.57713,0,0,1-.05859-.11719,1.22558,1.22558,0,0,0,.13086.0293.09313.09313,0,0,1,.05859.07324Q1639.48828,275.90527,1639.42969,275.91992Zm.20508-2.06543q-.10254-.16113,0-.249.01464-.01466.20507-.13184c.07813.00977.11328.03907.10352.08789a.82468.82468,0,0,1-.05859.23438q-.04395.14647-.14649.14648C1639.69922,273.94238,1639.66406,273.91309,1639.63477,273.85449Zm.05859.42481a.07956.07956,0,0,1,.10352-.07325q.13183.04395.05859.23438c-.01953.05859-.05469.06836-.10352.0293A.14265.14265,0,0,1,1639.69336,274.2793Zm.14648-3.73535a.07769.07769,0,0,1-.08789-.0879q0-.07323.08789-.07324t.08789.07324Q1639.91309,270.544,1639.83984,270.544Zm.0586-.5127-.07227.04395c-.04883,0-.06445-.0293-.04492-.0879.01953-.03906.04492-.05859.07422-.05859C1639.9043,269.93848,1639.918,269.97266,1639.89844,270.03125Zm.70312-13.74023a2.92332,2.92332,0,0,0-.26367.26367q-.01466-.32228.20508-.36621a.11309.11309,0,0,1,.10351.01464C1640.68555,256.24219,1640.66992,256.27148,1640.60156,256.291Zm-.18945,20.63964c.06836-.01953.10156,0,.10156.0586a.05179.05179,0,0,1-.05859.05859q-.0879.01466-.08789-.05859Zm.541-19.59961q.02931,0,.61524-.26367a1.4653,1.4653,0,0,0-.9375-.01465c-.10742.03907-.11133.10254-.01367.19043A.26429.26429,0,0,0,1640.95312,257.33105Zm1.39258.13184c.07813-.17578.043-.293-.10351-.35156a.37181.37181,0,0,0-.46875.08789,2.2554,2.2554,0,0,1-.30664.21973,4.67806,4.67806,0,0,1,.80468.21972A.79819.79819,0,0,1,1642.3457,257.46289Zm1.24414.20508q.04395-.044,0-.13184a.57738.57738,0,0,0-.48242-.36621q.27832.39551.32227.4541C1643.48828,257.70215,1643.541,257.7168,1643.58984,257.668Zm1.1875,1.81641a.87424.87424,0,0,1,.07227.32226q-.01465.16113-.11719.17578-.249.044-.32226-.14648a.2916.2916,0,0,1,.20507-.41016A.11634.11634,0,0,1,1644.77734,259.48438Zm-.14648.791a.128.128,0,0,1,.08789.14649q-.0293.08789-.08789.21972a.06055.06055,0,0,1-.07422.0293.09313.09313,0,0,1-.05859-.07324v-.17578C1644.50781,260.28516,1644.55273,260.23633,1644.63086,260.27539Z" fill="#666"/>
      <path d="M1650.68945,254.78223q.64453,0,1.2959.959a3.85537,3.85537,0,0,1,.65137,2.21973,6.42136,6.42136,0,0,1-1.03906,3.31738q-1.04,1.72119-2.03711,1.72168v-.62988q1.06933-.62988,1.27539-2.78321a2.3641,2.3641,0,0,0-1.89063-2.35839v-.61524Zm5.16993,0q.64452,0,1.29687.959a3.85605,3.85605,0,0,1,.65234,2.21973,6.42491,6.42491,0,0,1-1.041,3.31738q-1.04,1.72119-2.03516,1.72168v-.62988q1.06933-.62988,1.27344-2.78321a2.36231,2.36231,0,0,0-1.88867-2.35839v-.61524Z" fill="#666"/>
    </g>
  </g>
</svg>
