<svg id="p4" xmlns="http://www.w3.org/2000/svg" viewBox="0 0 1920 1080">
  <title>P4_4</title>
  <g id="_4" data-name="4">
    <g>
      <path d="M1535.29883,827.59668q-.64453,0-1.2959-.96a3.85076,3.85076,0,0,1-.65234-2.21875,6.42909,6.42909,0,0,1,1.04-3.31836q1.04-1.71973,2.03614-1.7207v.62988q-1.06933.62988-1.27442,2.7832a2.36323,2.36323,0,0,0,1.88965,2.3584v.61523Zm5.1709,0q-.64453,0-1.2959-.96a3.85076,3.85076,0,0,1-.65235-2.21875,6.429,6.429,0,0,1,1.04-3.31836q1.04-1.71973,2.03614-1.7207v.62988q-1.06934.62988-1.27442,2.7832a2.36322,2.36322,0,0,0,1.88965,2.3584v.61523Z" fill="#666"/>
      <path d="M1562.627,821.12207a.62877.62877,0,0,1,.0293.36621.50858.50858,0,0,0-.01465.20508,6.14844,6.14844,0,0,1-.0293.73242,1.02371,1.02371,0,0,0,.01465.41016.58646.58646,0,0,1-.02929.43945.63239.63239,0,0,0-.0586.43945.12318.12318,0,0,1-.01465.10254,1.07993,1.07993,0,0,0-.07324.5127,5.26349,5.26349,0,0,1-.19043,1.47949,1.2775,1.2775,0,0,1-.21972.542.17654.17654,0,0,0-.04395.19043.60952.60952,0,0,1-.07324.498.46116.46116,0,0,0-.04395.17578q.044.26367-.17578.32227-.10254.0293-.04394.14648a.22777.22777,0,0,1-.0293.30762.22179.22179,0,0,0-.04395.32226.51435.51435,0,0,1,.01465.46875,1.29979,1.29979,0,0,1-.249.4834.07416.07416,0,0,0-.0293.08789.469.469,0,0,1,0,.23438,1.5826,1.5826,0,0,0-.02929.20508.83723.83723,0,0,1-.13184.4541.74726.74726,0,0,0-.11719.43945.6518.6518,0,0,1-.10254.39551.86922.86922,0,0,0-.10254.26367,1.37546,1.37546,0,0,1-.10254.249.09792.09792,0,0,0,.01465.13184.28677.28677,0,0,1-.04394.35156.53427.53427,0,0,0-.13184.293.37077.37077,0,0,1-.05859.17578.37281.37281,0,0,0-.08789.16113.25981.25981,0,0,1-.11719.07325q-.13184.02929-.07324.14648.01464.01466.08789.11719a.19478.19478,0,0,1-.04395.249.29556.29556,0,0,0-.05859.19043.65168.65168,0,0,1-.13184.4834.527.527,0,0,0-.10254.293,1.02784,1.02784,0,0,1-.20507.57129.37926.37926,0,0,0-.01465.52734.10439.10439,0,0,1-.04395.16113q-.08789.02931-.08789.04395-.04393-.08789-.13183.249a1.58772,1.58772,0,0,1-.07325.293q-.05859.20508-.07324.293a.3764.3764,0,0,0,.01465.23438q.07325.14648.05859.19043,0,.11718-.14648.10253-.0293,0-.04395.08789-.0293.14649-.07324.41016a6.18446,6.18446,0,0,0-.11719.68848.31912.31912,0,0,1-.17578.249.34616.34616,0,0,0-.20507.36621,3.66671,3.66671,0,0,1-.07325.41016q-.01464.08789-.02929.30762-.01466.14648-.0586.16113-.11718.044-.13183.293a1.60624,1.60624,0,0,1-.0293.17578.22891.22891,0,0,1-.20508.20508l-.10254.01465q-.19042.19042-.57129-.01465a.49608.49608,0,0,0-.33691-.08789.33178.33178,0,0,1-.33691-.16114.30586.30586,0,0,0-.36622-.13183.54479.54479,0,0,1-.13183.01465.38784.38784,0,0,1-.36621-.17579q-.07325-.14648-.17578-.16113-.14649,0-.23438-.21972a4.99725,4.99725,0,0,1-.249-.835q-.0879-.41014-.36621-1.31836a.13668.13668,0,0,0-.10254-.10253q-.45411,1.04-.4834,1.17187a.34806.34806,0,0,1-.05859.16113.57794.57794,0,0,0-.13184.4541,1.23146,1.23146,0,0,1-.04395.23438.75215.75215,0,0,0-.01464.249.86056.86056,0,0,1-.07325.19043q-.05859.0879-.04394.13184a.589.589,0,0,1-.0586.46875.1586.1586,0,0,0-.02929.13184.13931.13931,0,0,1-.08789.16113.191.191,0,0,0-.08789.14648q0,.05859-.11719.10254a.27231.27231,0,0,0-.21973.32227q.07324.61522.07324.55664a1.515,1.515,0,0,1-.26367.74707.44259.44259,0,0,1-.27832.14648q-.249.02929-.249-.20508v-.02929q0-.27832-.0586-.32227a.58419.58419,0,0,0-.30761-.04394,3.01335,3.01335,0,0,0-.39551.04394.49274.49274,0,0,0-.27832.13184.2668.2668,0,0,1-.293.07324.53739.53739,0,0,1-.249-.11719,2.6841,2.6841,0,0,1-.41016-.46875,4.46389,4.46389,0,0,0-.60058-.82031q-.01465-.01466-.21973-.35156l-.0586-.11719-.07324.01465q-.11718.10254-.17578,0a1.895,1.895,0,0,1-.16113-.27832q-.0293-.10254-.13184-.498-.0293-.08789.04395-.11719a.21207.21207,0,0,0,.17578-.23437.24551.24551,0,0,0-.21973-.23438.11254.11254,0,0,1,.01465-.04394v-.0293a.04219.04219,0,0,0,.01465.0293.11237.11237,0,0,1,.01465.04394h-.0293v.0293a.04224.04224,0,0,0-.01465.0293.67423.67423,0,0,1,0,.21972q-.13184.11719-.19043-.16113-.23437-1.09863-.249-1.31836-.01466-.10254.11719-.14648,0-.04395.01465.07324-.01465-.1172-.01465-.07324.04393-.21974.05859-.26367a.17514.17514,0,0,0,0-.10254,2.31342,2.31342,0,0,1-.13184-.38086,2.26266,2.26266,0,0,0-.11718-.38086q.07325-.01466-.0293.16113a.43619.43619,0,0,1-.04394.05859.05906.05906,0,0,1-.0586-.02929.12661.12661,0,0,1-.04394-.08789q-.02931-.23437-.0586-.55664a.111.111,0,0,1,.01465-.10254.14612.14612,0,0,0-.05859-.249q-.20508-.10254,0-.36621l.02929-.02929.04395-.04395q.11718-.14649-.05859-.14648a.15779.15779,0,0,1-.17579-.16114q-.11718-.71776-.20507-1.12793-.01465-.04393-.249-.80566a1.57,1.57,0,0,1-.08789-.46875.2143.2143,0,0,0-.04394-.13184,1.42873,1.42873,0,0,1-.16114-.4248,1.34664,1.34664,0,0,0-.19043-.41016q0,.0293-.16113-.498-.45409-1.40625-.52734-1.626-.21974-.64453-.30762-.95215a1.71255,1.71255,0,0,1-.07324-.52734,1.26053,1.26053,0,0,0-.0293-.23438.81138.81138,0,0,1,.07324-.64453,1.50768,1.50768,0,0,0,.08789-.32227q.04395-.16113.16114-.14648.07325,0,.08789-.10254.10254-.35156.13183-.49805.01465-.08788-.16113-.21972a.11938.11938,0,0,1-.0293-.08789q.01466-.05859.04395-.04395.11718.01465.26367-.14648a.013.013,0,0,1,.01465-.01465q.16113-.07324.19043-.04395a.21444.21444,0,0,1,.08789.21973q-.0293.07324-.07324.19043a1.90589,1.90589,0,0,0-.07324.20508q-.04395.10254.05859.13183.11718.02931.16113-.04394a.669.669,0,0,0,.10254-.55664.4431.4431,0,0,1-.0293-.20508.47443.47443,0,0,1,.16114-.43945q.01464-.01465.36621-.33692a1.1406,1.1406,0,0,0,.35156.30762.2943.2943,0,0,1,.17578.21973q.0293.11718-.05859.13183-.14649.04395-.17578.10254a.41641.41641,0,0,0,0,.30762.04221.04221,0,0,0,.01465.0293.041.041,0,0,0,.05859-.0293q-.0293.05859,0-.05859.04395-.14649.16113-.11719.20508.05859.11719.19043t.04394.46875a2.20964,2.20964,0,0,1,.16114.60058,5.7972,5.7972,0,0,0,.41015,1.65528q.71778,1.69921.87891,2.10937.4541,1.20117.65918,1.97754.3955,1.56738.4834,1.86035a8.99384,8.99384,0,0,1,.41015,1.65528q.01465.16113.01465.14648a3.39032,3.39032,0,0,0,.16114.77637.62072.62072,0,0,0,.02929.14648.93672.93672,0,0,0,.0293.14649,1.81914,1.81914,0,0,0,.08789.23437.08481.08481,0,0,0,.05859.01465q.02929,0,.0293-.01465a1.8514,1.8514,0,0,1,.17578-.74707q-.01464.04395.07324-.293a1.03676,1.03676,0,0,1,.04395-.17578,2.7733,2.7733,0,0,0,.38086-.92285q-.0293.13184.30762-.62988a1.66219,1.66219,0,0,0,.05859-.33692.6197.6197,0,0,1,.11719-.32226.21962.21962,0,0,0,.04394-.17578.25276.25276,0,0,1,.19043-.293q.05859-.01466.07324-.11719l.01465-.16113a7.19893,7.19893,0,0,0,.57129-1.46485,2.51676,2.51676,0,0,1,.17578-.293.69541.69541,0,0,1,.791-.33691.22425.22425,0,0,0,.13183.01465.39037.39037,0,0,1,.36622.04394.567.567,0,0,1,.07324-.10254q.13183-.19043.17578-.19042.30762.04394.35156.27832a.58873.58873,0,0,1-.01465.35156.5728.5728,0,0,0,.0293.46875,3.38071,3.38071,0,0,1,.249.68847.04784.04784,0,0,1-.01465.0586q-.04393.0293-.08789-.0293a.77671.77671,0,0,0-.10253-.14648q-.04395.02929,0,.14648.08789.20508.46875,1.31836.20506.60059.293.89356a.552.552,0,0,0,.0586.19042q.04393,0,.14648-.17578a.22044.22044,0,0,0,0-.21972.24231.24231,0,0,1,.04395-.32227,1.25133,1.25133,0,0,0,.32226-.86426.79737.79737,0,0,1,.11719-.3955q.05859-.10254.14649-.27832a.35192.35192,0,0,0,.02929-.23438.61565.61565,0,0,1,.13184-.4834,2.50891,2.50891,0,0,0,.36621-.92285,2.55371,2.55371,0,0,1,.07324-.30762.91.91,0,0,0,.07324-.30761q0-.0293.10254-.13184a.232.232,0,0,0,.0293-.32227.26565.26565,0,0,1,.07324-.3955.42821.42821,0,0,0,.21973-.41016.19631.19631,0,0,1,.05859-.16113q.1172-.13183,0-.23438-.0293-.01464-.0293-.16113.02931-.57129.0586-.43945-.01466-.044.04394-.07325.07325-.04394.11719-.01464.11719.05859.13184-.07325a.29234.29234,0,0,0-.04395-.20507.30624.30624,0,0,1-.05859-.32227.43066.43066,0,0,0,.01465-.10254.4711.4711,0,0,1,.27832-.57129q.07323-.0293.02929-.11719l-.07324-.11718a.18164.18164,0,0,1,.07324-.21973q.11719-.08788,0-.17578-.08789-.08788-.05859-.10254a4.747,4.747,0,0,0,.14648-.4541.51035.51035,0,0,1,.14649-.26367.19772.19772,0,0,0,.08789-.13184.303.303,0,0,1,.08789-.13183.29452.29452,0,0,1-.23437-.33692.211.211,0,0,0-.0293-.16113q-.13183-.14649.0293-.30762l.02929-.0293a1.23072,1.23072,0,0,0,.41016-.95214,1.03953,1.03953,0,0,1,.08789-.36622.34472.34472,0,0,0,.04394-.13183.93792.93792,0,0,1,.0293-.14649,3.36224,3.36224,0,0,0,.20508-.82031,4.81823,4.81823,0,0,0,.14648-.61523,1.36627,1.36627,0,0,1,.10254-.21973q.05859-.10254.14649-.01465t.21972,0a.3683.3683,0,0,1,.39551-.02929h.10254a.44233.44233,0,0,1,.41016.36621q0,.02929.01464.02929a.437.437,0,0,0,.04395.0586.05339.05339,0,0,0,.07324-.04395,2.63945,2.63945,0,0,1,.43946-.49805Q1562.59766,821.00489,1562.627,821.12207Zm-13.93066,15.76172.0293.01465a.24647.24647,0,0,1,.02929.20508q-.0293.04393-.04394.04394-.01465.01466-.01465-.01465a1.84041,1.84041,0,0,1-.05859-.20508Q1548.6377,836.91309,1548.69629,836.88379Zm.249,1.02539v.0293a.11237.11237,0,0,1,.01465.04394.11237.11237,0,0,0-.01465-.04394Zm.0293,1.75781q-.08789-.07325.11719.23438a1.37868,1.37868,0,0,1,.14648.26367A.49341.49341,0,0,1,1548.97461,839.667Zm.0293-1.4209q-.01465-.07323.02929.11719Q1548.98926,838.17285,1549.00391,838.24609Zm.20507.65918q-.05859-.17577-.11718-.32226Q1549.15039,838.72949,1549.209,838.90527Zm.01465-.17578q.01466-.04394.01465-.02929Q1549.23828,838.68555,1549.22363,838.72949Zm7.33887-6.09375q-.11718-.01464-.14648-.249l.01464-.0293h.0293A.29982.29982,0,0,1,1556.5625,832.63574Zm.74707,2.3877q.044.01464.05859-.0586Q1557.35352,835.03809,1557.30957,835.02344Zm.17578,5.63965q.07325.01464.0586.13183-.01465.07324-.0586.0586-.08788-.02931-.07324-.14649A.05338.05338,0,0,1,1557.48535,840.66309Zm1.94824-6.76758q.0879-.30762.08789-.32227l-.04394-.04394-.05859.02929a.49457.49457,0,0,0-.04395.32227q0,.01464.0293.0293A.04222.04222,0,0,0,1559.43359,833.89551Zm2.50489-11.543a.44049.44049,0,0,1,.01464-.07324V822.25l-.01464-.0293q-.04395-.01464-.0293.04395v.08789Zm.32226.30762a.13.13,0,0,0,.01465-.0586V822.499q-.01466-.04393-.04394-.04394-.04395,0-.04395.07324a.15753.15753,0,0,0,.0293.08789Q1562.2168,822.63087,1562.26074,822.66016Zm-.01465-.4834a.48473.48473,0,0,0-.02929-.41016A1.50482,1.50482,0,0,1,1562.24609,822.17676Z" fill="#666"/>
      <path d="M1575.86328,821.60547q-.0293.07325.10254.23437a.22528.22528,0,0,1,.0293.26368,1.26977,1.26977,0,0,1-.01465.57128,3.05927,3.05927,0,0,0-.11719.55665q0-.0879-.19043,1.11328a1.1597,1.1597,0,0,0,0,.4541.64334.64334,0,0,1-.05859.4248,1.41291,1.41291,0,0,0-.11719.43946q-.11718.60059-.17578.791a4.80041,4.80041,0,0,0-.249,1.30371,1.70347,1.70347,0,0,1-.07325.43946,3.901,3.901,0,0,0-.11718.43945,1.439,1.439,0,0,0-.0293.46875.63049.63049,0,0,1-.0293.30762q-.01464.07323-.02929.46875a1.649,1.649,0,0,1-.10254.4541q-.07325.16113.10254.39551a.13173.13173,0,0,1,.01464.13183.80648.80648,0,0,0-.02929.70313.191.191,0,0,1,.01465.16113,5.04849,5.04849,0,0,0-.16114.9082,2.1057,2.1057,0,0,1-.17578.43946q.19043.01464.16113.16113l-.249.89355q0,.0293-.0293.36621a.41019.41019,0,0,0,.13184.35157q.02929.01464,0,.10254-.01466.08788-.17578.20507a.26591.26591,0,0,0-.08789.19043.18211.18211,0,0,0,.13183.14649.15331.15331,0,0,1,.10254.23437l-.05859.16114q-.16113.23438.08789.35156a.89685.89685,0,0,0-.21973.249.51853.51853,0,0,0-.07324.4541.64588.64588,0,0,1,.04395.33692.17475.17475,0,0,0,.04394.14648.2399.2399,0,0,1,.08789.14649,2.33571,2.33571,0,0,1,.04395.52734,2.5522,2.5522,0,0,0,.02929.74707,2.98566,2.98566,0,0,1,.01465.32227q0,.20506-.14648.19043-.16113-.02931-.19043.10253-.01465.14649-.16113.0586-.16115-.0879-.16114.11719a1.327,1.327,0,0,1-.01465.23437.28366.28366,0,0,1-.293.249q-.13184,0-.16114.04395-.0293.0293-.01465.16113a.61363.61363,0,0,0,.13184.39551.13945.13945,0,0,1,.04395.13184q0,.05859-.0293.07324-.05859.04394-.07324-.01465a1.29534,1.29534,0,0,0-.21973-.27832.48328.48328,0,0,1-.14648-.32227.18078.18078,0,0,0-.08789-.13183.18569.18569,0,0,0-.17579,0q-.11718.05859-.23437-.11719a.56162.56162,0,0,1-.05859-.27832,1.87419,1.87419,0,0,0-.0586-.293q-.07325,0-.08789.11719a.609.609,0,0,1-.13183.32226q0-.01464-.0293.08789-.01465.05861-.10254.0293-.19043-.05859-.19043-.17578.01466-.10254.0293-.41016a3.58222,3.58222,0,0,1,.04394-.4248.23163.23163,0,0,1,.08789-.11719.28842.28842,0,0,0,.07324-.10254q-.20507-.08788-.05859-.19043.07324-.07324.05859-.13183-.01464-.07325.20508-.293-.14648-.02929-.14648-.10254a2.6265,2.6265,0,0,1,.27832-1.11328,1.20662,1.20662,0,0,1-.0293.68847,2.29676,2.29676,0,0,0-.05859.52735.67194.67194,0,0,1-.04395.4248.15587.15587,0,0,0,.04395.21973.39641.39641,0,0,0,.10254-.293q.04394-.61524.26367-2.44629a9.75016,9.75016,0,0,0,.11719-1.61133,1.495,1.495,0,0,0-.08789.42481,1.5424,1.5424,0,0,1-.0879.43945,1.58234,1.58234,0,0,0-.07324.43945.84564.84564,0,0,1-.17578.46875.83513.83513,0,0,1,0-.43945.72752.72752,0,0,0,.0293-.26367.88052.88052,0,0,1,.05859-.26367q.0293-.05859-.07324-.23438-.10254-.19043.0293-.293.14648-.11718,0-.41015-.07324-.16113-.01465-.23438t-.01465-.20508a.69492.69492,0,0,1-.11719-.32226q.01465-.07324-.04394-.08789a.12173.12173,0,0,0-.11719.04394.33768.33768,0,0,0-.08789.11719l-.05859.11719q-.1172-.23437-.45411-.13184a1.06176,1.06176,0,0,1-.52734.0586.671.671,0,0,0-.30762.05859,1.04521,1.04521,0,0,0-.249.10254q-.13183.01464-.21973-.14648-.01464-.044-.04394-.01465-.04395.07323-.19043.07324a.288.288,0,0,0-.20508.08789q-.08789.14649-.32227.01465a1.24388,1.24388,0,0,0-.82031,0,1.58841,1.58841,0,0,0-.39551.16113.40812.40812,0,0,0,.0586.10254q.04394.07324-.07324.11719-.01465,0,.01464.08789a.327.327,0,0,1,.01465.16113q-.0293.17578-.04394.17578-.10254.0879-.04395.13184a.15906.15906,0,0,0,.0586.02929.43737.43737,0,0,1,.05859.04395l-.05859.05859q-.19044.07325-.0879.27832a.08483.08483,0,0,1,.01465.0586.18024.18024,0,0,0,.0293.07324q.08789.23438-.10254.30762-.08788.04393-.05859.08789a.24586.24586,0,0,1,0,.20508,1.2345,1.2345,0,0,0-.0293.20507q.0293.0879,0,.10254-.14649.16113.01465.55664a.47653.47653,0,0,1-.0586.45411.40015.40015,0,0,0-.10253.19043q0,.04394.11718.17578.10254.13184-.04394.20507-.26367.14649-.04395.33692.14649.13184.14649.17578a.55366.55366,0,0,1-.10254.21973.77651.77651,0,0,0-.10254.14648q-.0293.08788.07324.16113.0293.01465.0293.16114-.0293.57129-.07324.8789a.88271.88271,0,0,0,0,.23438,1.03985,1.03985,0,0,1,0,.249.05936.05936,0,0,0,.02929.07324q-.11718-.05859.08789.64453.0293.0879-.07324.07325-.20508-.01465-.23437.14648-.07325.32226-.04395.27832-.01464.01465.01465.11719.0293.16113-.11719.08789l-.07324-.04395a.13112.13112,0,0,0-.08789.07325.239.239,0,0,1-.07324.08789q-.0293.02929-.08789-.01465-.0586-.05859-.10254-.0293-.293.16113-.43946-.17578a.61377.61377,0,0,0-.38086-.38086.70969.70969,0,0,1,.04395.43945q-.04395.36621-.04395.43946a.46492.46492,0,0,1-.02929.13183q-.044.13184-.11719.10254t-.0293-.16113a.77294.77294,0,0,0,.01465-.39551.04668.04668,0,0,0-.07324.01465q-.1172.16113-.07324.16113-.11719,0-.11719-.16113a3.78426,3.78426,0,0,0-.0293-.61523,3.583,3.583,0,0,1-.02929-.60059,5.92934,5.92934,0,0,1,.10254-.76172,7.48469,7.48469,0,0,0,.11718-.76172q.044-.293.08789-.9082l.08789-.92285q.249-2.21192.249-2.28516.01464-.07325.11719-.9082.01464-.13183-.04395-.16113a.12826.12826,0,0,0-.19043.05859q-.05859.11718-.10254.05859-.07324-.07324-.293-.04394-.4248.04393-.58594.07324-.11718.01466-.13183.04394a.04691.04691,0,0,0,.0293.04395q.04394,0,.04394.0293t-.07324.05859q-.60059.20508-.61524.20508a.37867.37867,0,0,1-.38086-.0293q-.20506-.13184-.33691-.04394-.08788.05859-.14648-.04395a.14355.14355,0,0,1,.04394-.17578.04219.04219,0,0,1,.0293-.01465q.16113-.0293.17578-.27832a.5021.5021,0,0,0-.13184-.36621.37072.37072,0,0,1,.17579-.05859.75823.75823,0,0,0,.19042-.01465q.19044-.07324.13184-.21973a.29524.29524,0,0,1,.05859-.32226.90464.90464,0,0,0,.20508-.55664q.17578.19042.52735.04394a7.78652,7.78652,0,0,1,1.40625-.4834.39416.39416,0,0,0,.33691-.36621q.0293-.26367.10254-.77637.05859-.51268.08789-.77636.10254-.791.20508-1.94824.0293-.26369.07324-.80567.04395-.5127.07324-.791.1172-1.09865.17578-1.99219.04395-.542.14649-1.31836a2.93487,2.93487,0,0,0,.05859-.65918,1.25464,1.25464,0,0,0,.08789-.26367.85933.85933,0,0,1,.11719-.23438,1.68726,1.68726,0,0,0,.21973-.32226q.11718-.20508.35156.01464.249.23438.26367.249a.36087.36087,0,0,0,.20508.05859q.05859-.01464.10254-.17578.07325-.20508.14648-.23437.19044-.044.19043.13183-.0293.498-.04394.41016a.58085.58085,0,0,0,.14648.43945q.07325.05859.0586.249-.1172,1.50879-.13184,1.75782-.0293.293-.10254.77636-.08788.58595-.11719.77637a7.16341,7.16341,0,0,1-.21972,1.27442,1.14234,1.14234,0,0,0-.04395.77636q.044.1172-.0293.11719h-.07324q-.044-.01465-.05859,0a.26019.26019,0,0,0,.05859.17578q.04395.08788.0293.10254a.44065.44065,0,0,0-.07324.30762.7605.7605,0,0,1,0,.30761q-.0586.16115.01464.23438.07325.10254-.05859.249a.23184.23184,0,0,0,0,.35157q.13184.14648-.01465.20507a.48369.48369,0,0,0-.02929.16114,1.124,1.124,0,0,1-.07325.36621.22726.22726,0,0,0-.01464.17578.14857.14857,0,0,0,.16113.05859h.32226a.69059.69059,0,0,0,.30762-.05859,1.10521,1.10521,0,0,1,.33691-.05859,3.31075,3.31075,0,0,0,.82032-.14649q.16113-.04395.21972,0a.05493.05493,0,0,0,.08789,0,.85157.85157,0,0,1,.82032-.21973,1.81518,1.81518,0,0,0,.30761.01465.89294.89294,0,0,1,.30762.04395.08691.08691,0,0,0,.11719-.04395q.05859-.17578.30762-.17578.4248,0,.48339-.51269.20508-2.32911.30762-3.01758.04395-.33691.19043-1.084.14649-.70312.19043-1.084a7.49686,7.49686,0,0,1,.57129-1.96289.96485.96485,0,0,1,.08789-.14649,2.30413,2.30413,0,0,0,.5127-.80566q.17577.14649.27832,0a.59774.59774,0,0,0,.11718-.30762q.05861,0,.14649.10254A.12843.12843,0,0,0,1575.86328,821.60547Zm-6.15234.9375a.50241.50241,0,0,1,.01465.542A.93032.93032,0,0,1,1569.71094,822.543Zm4.043,2.71q-.01465.07324-.0293.17578a1.0357,1.0357,0,0,1-.0293.17578.45428.45428,0,0,1-.21972.27832q.13184-.542.14648-.61523.0293-.07324.08789-.0586Q1573.76855,825.209,1573.75391,825.25293Z" fill="#666"/>
      <path d="M1577.62988,841.64453q0,.04395-.05859.04395l-.10254.01464q-.10254.044-.249-.10253a.31779.31779,0,0,0,.249-.07325.17475.17475,0,0,1,.14648-.04394.2186.2186,0,0,0,.14649-.0293l.08789-.04394.01465.01464q.01464.01465,0,.01465a.2625.2625,0,0,1-.13184.08789A.14111.14111,0,0,0,1577.62988,841.64453Zm9.78516.70313a2.25924,2.25924,0,0,1,.07324.542q.0293.35156-.14648-.13184a.64.64,0,0,0-.13184.52735q.01466.04393.07324.498.01465.11719.01465.13184,0,.20508-.21973.13184-.01464.04394.21973,1.25976a2.97289,2.97289,0,0,1,.11719,1.25977q-.1172-.17579-.16113-.19043-.01465-.01465-.23438-1.084-.21972-1.05468-.293-.99609-.01464.0293-.04394-.04395a.23606.23606,0,0,1-.0293-.10254,2.07014,2.07014,0,0,0-.08789-.51269,3.5857,3.5857,0,0,1-.11719-.5127,3.09426,3.09426,0,0,0-.11719-.38086,1.23093,1.23093,0,0,0,.04395.61524,3.83143,3.83143,0,0,1,.11719.49805q.08789.35155.11719.48339l.07324.21973a13.97875,13.97875,0,0,1,.36621,1.52344.77873.77873,0,1,1-.17578.02929q.17577.58595.23437.80567a7.76661,7.76661,0,0,0-.38086-1.4209,5.666,5.666,0,0,0-.20508-.73242,6.12375,6.12375,0,0,0,.20508.73242q.0293.08789.07324.293t.07325.32226q-.64453-2.15331-.86426-2.71-.16113.36621-.01465.542a.8588.8588,0,0,1,.11719.23437,1.37546,1.37546,0,0,0,.10254.249.21379.21379,0,0,1-.249-.07324.97357.97357,0,0,1-.07324-.17578,2.9249,2.9249,0,0,0-.11719-.4834,2.70338,2.70338,0,0,1-.10253-.4834q-.01466-.13184-.04395-.14648a.63744.63744,0,0,1-.19043-.39551q-.01465-.11718-.08789-.4541-.04395-.27833-.07324-.4541a2.01364,2.01364,0,0,1-.0293-.26367,1.23256,1.23256,0,0,0-.0293-.293v.35156q0,.13184.01465.32227a.8009.8009,0,0,1-.0293.17578,1.555,1.555,0,0,0-.01464.17578,1.22508,1.22508,0,0,1-.01465.32226,1.031,1.031,0,0,1-.13184.32227.98018.98018,0,0,1-.07324-.32227q-.01465-.16113-.14648-.13183-.07324.0293-.08789-.10254v-.30762q-.02931-.4541-.04395-.51269a.38909.38909,0,0,1,.11719.27832.79056.79056,0,0,0,.05859.30761.09857.09857,0,0,0,.04395-.08789q-.01465-.07323.01464-.08789.04395.01466.0586.10254,0,.0879.04394.10254a.576.576,0,0,0,.01465-.35156,1.65212,1.65212,0,0,1-.02929-.20508,1.61119,1.61119,0,0,0-.0293-.19043q-.01466-.10254.01465-.11719.11718-.08788,0-.19043a.20116.20116,0,0,1-.04395-.17578.97554.97554,0,0,0,0-.33691q.0293-.05859.0586-.0293.04393.04395.05859.01465.07324-.08788.07324-.05859-.05859-.19044-.0293-.14649a.5494.5494,0,0,1-.05859-.249,5.69618,5.69618,0,0,0-.08789-.86426,8.67015,8.67015,0,0,1-.13184-.86426,1.423,1.423,0,0,0-.05859-.33691q-.05859-.249-.07324-.35156a5.80587,5.80587,0,0,0-.10254-.70313.547.547,0,0,1-.01465-.23437,1.01708,1.01708,0,0,0,0-.249,1.16963,1.16963,0,0,0-.07324-.33691,1.01541,1.01541,0,0,1-.04395-.23438.35454.35454,0,0,0-.07324-.21972q-.11718-.16113-.27832.07324a.29729.29729,0,0,0-.33691-.293q-.0586,0-.542.05859a10.81347,10.81347,0,0,0-1.59668.249q-.21972.05859-.293.08789-.17578.08789-.04395.17578.07324.044-.01465.05859-.11718.04395-.13183.23438a3.75525,3.75525,0,0,1-.04395.58594.45477.45477,0,0,1-.0293-.10254.38127.38127,0,0,0-.01464-.11719,4.08867,4.08867,0,0,0-.14649.64453q-.05859.293-.16113.84961-.10254.60059-.16113.86426-.30762,1.64063-.32227,1.72851a.47413.47413,0,0,1,.35156-.19043l.0293.0293q.01466.01465-.01465.01465a.24768.24768,0,0,0-.10254.10254.159.159,0,0,1-.05859.02929q-.04395.02931-.04395.04395.01466.01466.04395,0a.11237.11237,0,0,1,.04394-.01465l.01465.01465a.01831.01831,0,0,1,0,.0293.29165.29165,0,0,1-.19043.07324.08608.08608,0,0,1-.07324-.04395q-.04395.27832-.05859.39551a.24.24,0,0,1-.01465.0586v.04394a.04224.04224,0,0,1,.01465.0293.05936.05936,0,0,0,.07324.02929.781.781,0,0,0,.17578-.05859l.13184-.04394a.09433.09433,0,0,1,.07324,0q.0293,0,.02929.04394a.05973.05973,0,0,1-.01464.04395q-.01465.0293-.10254.05859a.27979.27979,0,0,0-.16114.08789l-.01464.04395a.25141.25141,0,0,0-.249-.01465,1.838,1.838,0,0,1-.10254.38086.22378.22378,0,0,1,.11719,0,1.49855,1.49855,0,0,0,.21973.02929.08443.08443,0,0,1-.0293.0586.03662.03662,0,0,0,0,.05859.22968.22968,0,0,1,.05859.04395l.0586.02929q.01464.01465,0,.04395a.04224.04224,0,0,1-.0293.01465.12994.12994,0,0,0-.05859-.01465q-.04395-.02929-.19043-.10254l.01465-.0293q.01464-.04393,0-.05859-.04395-.04395-.07325,0,.01466-.01466-.02929.04394a.04219.04219,0,0,1-.0293.01465.15908.15908,0,0,0-.05859-.02929.11254.11254,0,0,1-.01465.04394.13.13,0,0,1-.01465.0586v.05859a.04219.04219,0,0,1,.0293.01465.08112.08112,0,0,0,.11718.01465q.05861-.044.07325.07324.01464.0293-.01465.02929a.36436.36436,0,0,1-.23438-.01464q-.0293.14647-.26367.02929a.64729.64729,0,0,0-.11719-.04394q-.14647.0293-.17578-.13184a.06222.06222,0,0,1-.05859,0l-.0293-.01465a.04224.04224,0,0,1-.0293-.01464l-.04394-.01465a1.46222,1.46222,0,0,0-.0293.17578q0-.01465.01465,0a.013.013,0,0,1,.01465.01465q.05859.19042.04394.17578l-.01464.02929q-.07325.02931-.10254-.02929a.01831.01831,0,0,1,0-.0293q.0293-.01464.02929-.14648a.58273.58273,0,0,1-.08789.14648.094.094,0,0,1-.10254.04395.15088.15088,0,0,0-.02929.05859.12.12,0,0,1-.04395.07324.21437.21437,0,0,0-.04394.07324l.02929-.01464q-.0293,0-.02929-.01465v.01465h-.0586q.01465,0,0-.04395h0v-.0293a.013.013,0,0,0-.01465.01465l.01465.0293a.17054.17054,0,0,1-.04394.0293h-.01465v.01464a1.07341,1.07341,0,0,0-.30762-.02929q.044-.01465-.16113.01465a.224.224,0,0,1-.04395.11718q-.05859-.01464-.08789-.11718h-.05859a.013.013,0,0,1-.01465-.01465q-.01464-.0293.01465-.0293h.04395l-.0586-.20508h-.32226q-.07324-.01464-.01465-.07324a1.03051,1.03051,0,0,1,.14648-.10254.05969.05969,0,0,1,.04395.01465.17054.17054,0,0,0,.04394.0293q.01466.0293.0293.02929a.04218.04218,0,0,0,.0293.01465.64223.64223,0,0,0-.0586-.11719.25145.25145,0,0,0-.21972.01465.11252.11252,0,0,0-.04395.01465l-.0293-.01465a.21822.21822,0,0,0,0-.16113.029.029,0,0,1,.01465-.04395.33762.33762,0,0,1,.11719-.02929q-.08789-.0879-.04395-.0586.01466.01466-.01464,0t-.01465-.01464a.40194.40194,0,0,0-.20508-.0293q-.01466-.05859.05859-.0586a.27973.27973,0,0,0,.16114-.08789.33914.33914,0,0,1,.07324-.04394q.0293-.05859.13183-.293a.568.568,0,0,1,.0293-.07324.255.255,0,0,1-.0293-.10254.73224.73224,0,0,1,.01465-.08789.09433.09433,0,0,0,0-.07324.104.104,0,0,1,.01465-.08789.40047.40047,0,0,0,.01465-.0879.06635.06635,0,0,1,.01465-.07324.602.602,0,0,0,.07324-.30761q0-.04395.0293-.04395a.177.177,0,0,0,.10254-.10254.84521.84521,0,0,1,.08789-.11719q.01464-.02929.04394,0-.01464-.01464.0293.0586a.57412.57412,0,0,1,.05859-.13184.59049.59049,0,0,0,.0586-.17578q.33691-1.8457.33691-1.80176.04395-.27831.14648-.82031a7.79844,7.79844,0,0,0,.14649-.80566.99362.99362,0,0,1,.08789-.27832.23692.23692,0,0,0,.0293-.19043q-.04395-.13185-.14649-.10254-.74708.16113-.62988.11718a4.22049,4.22049,0,0,1-1.09863.04395q-.10254,0-.07325-.10254a.87885.87885,0,0,1,.19043-.46875q.07325-.08789.23438-.27832a3.04264,3.04264,0,0,1,.23437-.27832,2.54051,2.54051,0,0,1,.73243-.4248,1.84367,1.84367,0,0,1,.20507-.0586q.36621-.05859.35157-.33691.04394-.0293.05859,0,.04395.16113.08789.16113.10254.01465.16113-.14648.0293-.13185.07325-.35157.0293-.27831.04394-.36621a1.6589,1.6589,0,0,1,.05859-.20508.33519.33519,0,0,0,.0293-.249,1.62636,1.62636,0,0,1,.0586-.43945q.01464-.044-.0879-.20508-.01464-.0293-.05859.01465-.04395.05859-.05859,0v-.21973a.488.488,0,0,1,.01465-.17578.11406.11406,0,0,0,.04394-.10254.47092.47092,0,0,1,.20508-.38086q.16113-.13184-.01465-.17578-.05859-.0293-.01465-.08789a.21963.21963,0,0,0-.05859-.30762.2388.2388,0,0,1,.08789-.07324q.05859-.0293.05859-.07324.01466-.13183-.04394-.13184-.11719-.01464-.08789-.14648a.8.8,0,0,1,.10254-.33692q.16113-.05859.21972-.41015a1.53778,1.53778,0,0,1,.04395-.17578.30723.30723,0,0,0-.10254.21972.59339.59339,0,0,1-.07324.23438.73272.73272,0,0,1-.11719-.38086q.05859-.02929.08789-.16113a.11937.11937,0,0,1,.13184-.11719.11933.11933,0,0,0-.13184-.0293q-.13184.05859-.16113-.0293-.04395-.11718.08789-.14648a.24133.24133,0,0,0,.20508-.17578q0-.02929.01464-.14649a.93519.93519,0,0,1,.0293-.13183.36094.36094,0,0,0-.10254.17578.22839.22839,0,0,1-.13183.16113,1.45932,1.45932,0,0,1,.04394-.38086q.0293-.05859.08789-.21972a.65359.65359,0,0,1,.08789-.23438q.01465-.01464,0-.08789a.63069.63069,0,0,1-.01465-.11719,10.33588,10.33588,0,0,1,.21973-1.11328.11237.11237,0,0,1,.01465-.04394.11252.11252,0,0,0,.01465-.04395q.0293-.07325-.0293-.10254-.04395-.04393-.11719,0-.11718.05861-.14648.04395a.35425.35425,0,0,1-.01465-.14649.30458.30458,0,0,1,.01465-.11718q.0293-.13184.14648-.07325a.17028.17028,0,0,0,.26367-.10254.82191.82191,0,0,0,.0879-.33691,2.09636,2.09636,0,0,1,.08789-.52734,2.32122,2.32122,0,0,0,.08789-.58594,2.99615,2.99615,0,0,1,.05859-.49805q.05859-.33691.07324-.498a2.75211,2.75211,0,0,1,.0293-.33692q.02929-.21972.04395-.32226a.58281.58281,0,0,0-.16114-.49805q-.14647-.11719-.01465-.293a.43248.43248,0,0,0,.01465-.30762q-.10254.01466-.11719.14649-.0293.13183-.11718.41015a2.05034,2.05034,0,0,0-.10254.41016.05969.05969,0,0,1-.01465.04395q-.01466.08788-.07324.05859-.05859,0-.04395-.07324v-.04395a4.56131,4.56131,0,0,0,.0586-.70312,1.49964,1.49964,0,0,1,.08789-.45411q.13183-.38085.46875-.17578.14647.0879.16113.13184a.39818.39818,0,0,1-.05859.20508,2.31684,2.31684,0,0,0-.11719.4834q0,.16113.13183.08789a.255.255,0,0,0,.16114-.19043.10031.10031,0,0,1,.07324-.08789.06766.06766,0,0,1,.04394.07324q0,.07325.04395.08789a1.00395,1.00395,0,0,0,.01465-.19043.7805.7805,0,0,1,.01465-.17578q-.0293,0-.0586.04394a.04784.04784,0,0,1-.05859.01465q-.044,0-.01465-.04394a1.991,1.991,0,0,1,.23438-.52735,1.14624,1.14624,0,0,1,.05859.14649q.04395.05859.14648-.01465.07325-.05859.10254.04394.05861.17579.11719.19043.05859-.21972.14648-.23437.0586-.01466.07325-.16113.01464-.17579.16113-.13184.11718.0293.16113-.10254.01465-.05859.11719-.11719.23438-.13184.23438.13184,0,.07324-.04395.39551a.25761.25761,0,0,0,.07324.19043,2.51665,2.51665,0,0,0,.04395-.4541.54857.54857,0,0,1,.08789-.30762.19484.19484,0,0,0,.04394-.11719q-.01464-.11718.0293-.11719.13184,0,.11719.14649a.2142.2142,0,0,1-.04395.13183,1.479,1.479,0,0,0-.04394.57129q0,.05861.08789.10254a.622.622,0,0,0,.08789.0586.23064.23064,0,0,0,.08789.05859.28172.28172,0,0,1,.17578.23437.94664.94664,0,0,0,.26367.4834q.07324.0879.0293.14649-.04395.01464-.10254-.04395a.16882.16882,0,0,0-.11719-.05859,1.50059,1.50059,0,0,0,.14649.36621.68119.68119,0,0,1,.08789.41016,1.6389,1.6389,0,0,1-.13184-.249.42856.42856,0,0,0-.14648-.20508q.07323.21974.07324.23438a13.24187,13.24187,0,0,1,.51269,1.56738,2.48542,2.48542,0,0,0,.08789.33692q.0586.20506.0879.32226a3.55252,3.55252,0,0,1,.11718.71777.70254.70254,0,0,0,.04395.20508.84942.84942,0,0,1,.04394.21973q.0586.57129.0586.43945a.45392.45392,0,0,0,.02929.19043q-.01464-.01464.20508,1.15723.20508,1.20117.30762,1.626a4.03466,4.03466,0,0,1,.05859.4248,4.01862,4.01862,0,0,0,.0586.41016q.04393.20508.293,1.8457a.95409.95409,0,0,0,.20507.55664q.02931.0293,0,.08789a.33145.33145,0,0,0,.14649.46875.5771.5771,0,0,1,.16113.17578.42871.42871,0,0,1-.11719-.07324q-.07323-.05859-.11718-.04395a.3694.3694,0,0,0,.11718.33692q.10254.05859.0293.16113a.86236.86236,0,0,0-.11719.27832q-.04394.14649.13184.17578a.13346.13346,0,0,1-.07324.07324.0861.0861,0,0,0-.04395.07325.58938.58938,0,0,0,.01465.16113q.14649.61524.19043.74707a.59969.59969,0,0,1,0,.19043.24423.24423,0,0,0,.04394.19043l.01465.07324a.14223.14223,0,0,0,.0586.08789.16719.16719,0,0,1,.05859.23438.24024.24024,0,0,0,0,.20508l.16113.498a.11586.11586,0,0,1,.01465.07324,2.48493,2.48493,0,0,0,.0293.5127q.07324.41016.08789.5127a1.03309,1.03309,0,0,0,.07324.32226q.05859.21974.07324.30762.01466.11718.33692,1.69922.04393.16113.11719.4248a4.13507,4.13507,0,0,1,.11718.41016Q1587.38574,842.25977,1587.415,842.34766Zm-9.8584-.16114q0-.01464.0293-.01464l.01465.02929a.04221.04221,0,0,1-.0293.01465Q1577.542,842.20117,1577.55664,842.18652Zm.26367-1.333q-.07325-.01466-.07324-.0586.10254-.62988.11719-.64453a.9335.9335,0,0,1,.01465.64453Q1577.86426,840.85351,1577.82031,840.85352Zm.19043,1.83105q0,.0293-.04394.04395h-.10254a.013.013,0,0,1-.01465-.01465q-.01465-.0293,0-.0293.05859-.044.13184-.10254.05859-.0293.04394.0293A.163.163,0,0,1,1578.01074,842.68457Zm-.01465.17578q-.04394-.044.04395-.04394l.01465.01464q0,.02931-.04395.0293Q1577.9961,842.875,1577.99609,842.86035Zm.23438-1.66992q.04395-.20508.0293-.14648a.22954.22954,0,0,0-.04395-.0586q-.02929-.01464-.04394,0a.029.029,0,0,0-.01465.04395,1.1465,1.1465,0,0,0,.02929.16113Zm.23437,1.626a.05936.05936,0,0,1,.0293.07324.18448.18448,0,0,1-.19043.10254.32237.32237,0,0,1,.07324-.17578Q1578.40625,842.77246,1578.46484,842.81641Zm-.11718-.19043q.04394-.01465.02929-.01465a.013.013,0,0,0-.01465-.01465Zm.20507-.11719q0-.04395-.02929-.04395t-.0293.04395q-.01464.0293.0293.08789Zm.07325.32226q.0293,0,.02929.04395,0,.01465-.02929.0293-.0293,0-.04395-.04395Q1578.582,842.83106,1578.626,842.83105Zm.04394-5.083a2.47856,2.47856,0,0,1,.14649-.80567A2.31535,2.31535,0,0,1,1578.66992,837.74805Zm.11719,5.24414a.04691.04691,0,0,1,.04394.02929q.01465.01466-.01464.04395a.073.073,0,0,1-.07325.01465l-.01464-.0293Q1578.74316,842.99219,1578.78711,842.99219Zm.05859-.26367.0586.01464h0a.4361.4361,0,0,0-.04395.0586.05969.05969,0,0,1-.04394.01465.24.24,0,0,0-.01465-.0586l-.01465-.04394.01465.01465Q1578.9043,842.74316,1578.8457,842.72852Zm.9961-6.53321q-.01465.01466-.04395-.20508,0-.08789-.13183-.01464a.4909.4909,0,0,0-.26368.36621l-.11718.70312q-.0879.65919-.27832,1.46485a.47845.47845,0,0,0,.04394.3955.32168.32168,0,0,1,.01465.38086.11235.11235,0,0,1-.04395.01465q-.11718-.13184-.07324-.11719a1.46746,1.46746,0,0,0-.10254.52735.47505.47505,0,0,0,.07325-.13184.25765.25765,0,0,1,.10253-.10254.47139.47139,0,0,1,.0293.249.79106.79106,0,0,0-.01465.249.6469.6469,0,0,0,.04395-.11719q.20508-1.11329.293-1.55273.04394-.21974.11718-.249t.04395-.08789q0,.01465.04394-.20507a2.073,2.073,0,0,0,.04395-.58594q-.08788-.3955.13184-.542a.06379.06379,0,0,0,.01464-.08789A.23136.23136,0,0,1,1579.8418,836.19531Zm-.90821,6.15235v-.0586l-.04394.0293A.04692.04692,0,0,0,1578.93359,842.34766Zm.0586.43945a.04692.04692,0,0,1,.02929.04394.17117.17117,0,0,1-.10253.11719q.04393-.11718.05859-.14648A.013.013,0,0,1,1578.99219,842.78711Zm.05859-.14649.0293.01465q.0293.04395,0,.07325a.01294.01294,0,0,1-.01465.01464.02589.02589,0,0,1-.0293-.02929A.06639.06639,0,0,1,1579.05078,842.64062Zm.21973.16114v.08789l-.01465.01465-.01465-.0293v-.05859Zm.46875-9.873a2.82359,2.82359,0,0,0-.21973.43945.35253.35253,0,0,1-.05859-.30761,2.719,2.719,0,0,1,.11718-.33692q.02931-.07324.0879-.05859.05859,0,.08789.08789A.21491.21491,0,0,1,1579.73926,832.92871Zm-.0293,9.56543q.0293,0,.04395.04395l-.01465.01464a.04693.04693,0,0,1-.04395-.02929Q1579.68067,842.47949,1579.71,842.49414Zm.16113-8.18848q.26368-.0293.26368-.21972,0-.14649-.23438-.14649a.42839.42839,0,0,1,.10254.17578Q1580.00293,834.15918,1579.87109,834.30566Zm.33692-.55664a.61516.61516,0,0,0,.02929-.33691q-.01464-.293-.01464-.35156a1.97854,1.97854,0,0,0-.10254.542A.11821.11821,0,0,0,1580.208,833.749Zm.11719-7.83691a1.66762,1.66762,0,0,1-.0879.46875.308.308,0,0,1-.01464-.249,3.46764,3.46764,0,0,0,.08789-.77637.29076.29076,0,0,1,.02929-.13184.09682.09682,0,0,0,.01465-.08789q0-.01464-.05859-.04394t-.01465-.08789a.93865.93865,0,0,0,.13184-.08789.2558.2558,0,0,0,.05859-.14649,1.38511,1.38511,0,0,0,.0293-.32226q.01464-.01466-.0293-.04395-.08789-.07324,0-.16113a.224.224,0,0,0,.07324-.16114,2.45884,2.45884,0,0,1,.0586-.4248,1.0524,1.0524,0,0,0,.02929-.41016q-.0293-.19042.21973-.27832a.68338.68338,0,0,0-.04395.45411.22414.22414,0,0,1-.01464.13183,1.47721,1.47721,0,0,0-.14649.77637,3.158,3.158,0,0,1-.04394.35156.2399.2399,0,0,1-.01465.05859.23955.23955,0,0,0-.01465.0586q-.01465.07325.07324.10254a.013.013,0,0,1,.01465.01465q.0293.04393-.0293.249-.04394.21972-.08789.249-.07324.05859-.08789.07324-.0293.07324-.01465.0879t.0586,0q.04393-.01465.05859,0a.07852.07852,0,0,1-.05859.08789A.29092.29092,0,0,0,1580.3252,825.91211Zm.04394,15.9375q.07324.01465.0293.05859a.05969.05969,0,0,1-.04395.01465q-.04393-.01464-.04394-.04394A.059.059,0,0,1,1580.36914,841.84961Zm.30762-4.18945a.69065.69065,0,0,0,.05859-.30762,1.08526,1.08526,0,0,1,.0293-.32227.5097.5097,0,0,0-.10254.21973,1.77732,1.77732,0,0,1-.08789.30762v-.07324h-.01465a1.27032,1.27032,0,0,1-.01465-.17579.53541.53541,0,0,0-.0293-.13183,2.12073,2.12073,0,0,0-.17578.67383.74059.74059,0,0,0,.16114-.35157.013.013,0,0,0-.01465-.01464h.05859l.01465.07324.01465-.01465a5.29565,5.29565,0,0,1-.08789.73242q0,.01465-.14649.80566a1.02931,1.02931,0,0,0,.11719-.33691,2.82328,2.82328,0,0,1,.07324-.35156,1.34919,1.34919,0,0,0,.0586-.36621A.80091.80091,0,0,1,1580.67676,837.66016Zm-.21973-.17578.0293,3.48632.19043-.07324h.01465l.01464.01465-.01464.04394a.7689.7689,0,0,1-.07325.11719q-.01464.02929-.05859.01465a.31437.31437,0,0,1-.07324-.05859Q1580.44238,841,1580.48633,840.9707Zm.32226-4.16015q.04395-.01466.0293-.11719t-.04394-.07324q-.10254.10254-.17579-.01465l-.02929.0293q-.01466.11718.01465.13183Q1580.75,836.83985,1580.80859,836.81055Zm-.21972,5.24414q.13184-.01466.16113.08789.01465.0293-.0293.04394a.13006.13006,0,0,1-.05859-.01464.1124.1124,0,0,1-.01465-.04395Q1580.58887,842.02539,1580.58887,842.05469Zm.13183-.4541-.01465.02929q-.04393,0-.04394-.01465l.0293-.01464Zm3.16407-7.96875a.17081.17081,0,0,0,.16113-.23438q-.0293-.19043-.13184-.65918a.224.224,0,0,0-.04394-.11719.40437.40437,0,0,1-.07324-.26367q-.02931-.58593-.0586-.76172-.11718-.498-.10254-.38086-.0293-.36621-.20508-1.31836-.04393-.249-.08789-.26367-.05859-.02929-.11718-.20508-.13184-.45409-.13184-.43945a1.10393,1.10393,0,0,1-.04395-.19043,3.18942,3.18942,0,0,0-.17578-.61523,1.41823,1.41823,0,0,0-.08789.60058q.0293.19044.04395.41016a.0259.0259,0,0,1-.0293.0293l-.08789-.10254a1.02858,1.02858,0,0,0-.08789.27832q-.14649.76171-.17578.99609-.05859.36621-.17578.95215-.17578.791-.20508.9375-.249,1.28906-.249,1.31836a.44508.44508,0,0,0-.01465.249q.0293.044.27832.0293a1.15969,1.15969,0,0,0,.19043-.01465q.05859-.01464.21972-.04394.13184-.02931.21973-.04395a1.38054,1.38054,0,0,1,.43945-.01465.39883.39883,0,0,0,.21973-.04394.32984.32984,0,0,1,.20508-.0586A1.0352,1.0352,0,0,0,1583.88477,833.63184Zm-.67383-11.35254q-.04395-.13184-.23438-.0586.293.36621.27832.35157A.76986.76986,0,0,0,1583.21094,822.2793Zm1.90429,20.97656q-.10253.30762.14649.41016a.17081.17081,0,0,1-.23438-.16114,1.64659,1.64659,0,0,1,.01465-.4834A.17622.17622,0,0,1,1585.11523,843.25586Z" fill="#666"/>
      <path d="M1602.64355,822.7041q.07324.14649.0293.20508a.4011.4011,0,0,0-.05859.4541q.07324.1172-.08789.21973a5.81772,5.81772,0,0,1-.57129.33691q-.0293,0-.10254.08789a.9329.9329,0,0,0-.10254.16114.83126.83126,0,0,1-.95215.41015,6.67716,6.67716,0,0,0-1.86035-.01465q-.99609.0879-1.24512.08789-.62988.02931-.4541.58594a2.04121,2.04121,0,0,1,.07324.30762q.0293.17579-.02929.19043-.0293.01464-.10254-.13184l-.0293-.07324q-.04395.01465-.0293.11719-.01464-.0293.07325,1.05468a2.83367,2.83367,0,0,0,.08789.542.26736.26736,0,0,1,.01465.14648,6.13991,6.13991,0,0,0,.01464.68848,16.08069,16.08069,0,0,1-.01464,1.86035,2.63987,2.63987,0,0,0,0,.41016,1.42508,1.42508,0,0,1-.04395.3955v.0293a.80534.80534,0,0,1,.07324.4834,1.67058,1.67058,0,0,0-.01465.4834v.04394a.89291.89291,0,0,1-.07324.27832.54642.54642,0,0,0-.0293.293,1.759,1.759,0,0,1,.0293.542.82.82,0,0,0,0,.21973.62135.62135,0,0,1-.01465.293,4.86732,4.86732,0,0,0-.05859.9668q0,.08789-.01465.249t-.01465.23437a3.01011,3.01011,0,0,1,.04395.68848,4.8209,4.8209,0,0,1-.04395.64453q-.0293.42482-.02929.43946-.01465-.17579,0,1.90429a8.30463,8.30463,0,0,0,.04394.95215,9.55088,9.55088,0,0,1,.01465,1.02539,1.03812,1.03812,0,0,1-.16113.5127q-.0586.13184.02929.19043.0586.04393-.02929.13183a.55727.55727,0,0,0-.19043.42481,1.50111,1.50111,0,0,1-.32227.67383q-.02929.04394-.05859.02929l-.0293-.02929a.33476.33476,0,0,0-.20508-.0879.20907.20907,0,0,1-.19043-.11718q.01465.05859-.13183-.11719a.25527.25527,0,0,1-.07325-.13184,1.50753,1.50753,0,0,1-.05859-.21972q0-.04395-.0293-.4541a.94875.94875,0,0,0-.16113.32226q-.04395.1172-.17578.04395a.94668.94668,0,0,0-.35156,0q.01464,0-.07325.07324-.04393.0293-.05859.01465-.04395-.01465-.04394-.04395v-.4248a4.05285,4.05285,0,0,0-.01465-.42481.91029.91029,0,0,0-.01465-.17578q0-.0293-.04395-.04394-.05859,0-.05859.04394.01465.10254.0293.21973a3.56052,3.56052,0,0,1,.01465.58594.30442.30442,0,0,1-.11719.23437,1.111,1.111,0,0,1-.11719-.43945q-.02929-.17579-.17578-.14649-.07325,0-.08789-.10254a.52823.52823,0,0,1-.0293-.20507,6.21139,6.21139,0,0,0-.04394-.71778,1.66283,1.66283,0,0,1,0-.46875.23135.23135,0,0,0-.01465-.13183q-.044-.13184.10254-.20508a.24442.24442,0,0,0,.14648-.27832.81205.81205,0,0,1-.01465-.249.197.197,0,0,0-.14648-.21972q-.17579-.07324-.0293-.19043a.47838.47838,0,0,0,.14649-.39551.20948.20948,0,0,1,.08789-.16113.12994.12994,0,0,1,.05859-.01465q.05859.01464.04395.04394,0,.044-.0293.65918a3.69258,3.69258,0,0,0,.05859.835,3.20134,3.20134,0,0,1,.11719.67382q-.01465.10254.07324.11719t.10254-.11719l.0293-.13183q.249-.42482.21972-.35157a.40287.40287,0,0,0-.01464-.17578.26409.26409,0,0,1,0-.17578.22851.22851,0,0,0-.0293-.21972.21938.21938,0,0,1-.01465-.20508q.0293-.05859.01465-.07324a.38359.38359,0,0,1-.05859-.27832.87035.87035,0,0,0-.0293-.27833.45006.45006,0,0,1,.0293-.35156q-.04395.10254.08789-.16113a.19593.19593,0,0,0-.07325-.293.18769.18769,0,0,1-.11718-.17578,1.22233,1.22233,0,0,1,.05859-.39551,1.87328,1.87328,0,0,0,.05859-.293,1.29025,1.29025,0,0,1,.07325-.30761q.11718-.20508.07324-.20508a.47937.47937,0,0,1,.32226.07324q.05861.01466.0586.11719,0,.08788.04394.08789.07324,0,.08789-.10254a.58654.58654,0,0,0-.07324-.35156q-.08788-.13184-.19043-.0586a.151.151,0,0,1-.05859.0293.17921.17921,0,0,0-.16113-.04395.33762.33762,0,0,1-.16114.01465.07119.07119,0,0,1-.04394-.08789q-.0293.1172.02929-.10254a.73027.73027,0,0,0-.10254-.67383q-.04393-.01464-.07324.04395a.25582.25582,0,0,1-.293.14648q-.10254-.01464-.11718-.07324,0-.07325.10254-.07324.08789,0,.08789-.05859a.98521.98521,0,0,1,.07324-.30762.35558.35558,0,0,1,.20508-.23438.14475.14475,0,0,0,.07324-.21972q-.07325-.14649.10254-.27832a.22129.22129,0,0,1,.30762.01465,2.19341,2.19341,0,0,0,.20507.249q.0293-.01466.0586-.249a2.25765,2.25765,0,0,0,.02929-.39551.07768.07768,0,0,0-.08789-.08789q-.08789-.01465-.10254.02929-.0293.16115-.20507.07325.07323.04393-.19043.01464-.21973-.0293-.11719-.21972a.44443.44443,0,0,0,.0293-.35156q0-.01466.02929-.293a.1703.1703,0,0,0-.16113-.21973q.05859.01466-.16113-.01465-.07324-.01464-.0586-.07324.01465-.044.04395-.04395a1.25412,1.25412,0,0,1,.14648-.02929q.249-.044.20508-.27832-.01464,0-.05859-.13184-.249.13184-.26367.14649-.21974.08789-.19043-.14649a.723.723,0,0,1,.04394-.21973q.0293-.16113.17578-.13183a.57916.57916,0,0,0,.26367-.0293q.20508-.10254.08789-.27832l-.17578-.17578a.48118.48118,0,0,0,.249-.43945.09857.09857,0,0,0-.04395-.08789.17592.17592,0,0,0-.11719.01464.34073.34073,0,0,0-.17578.26368.44807.44807,0,0,1-.08789.23437.11931.11931,0,0,1-.13183.0293q-.0586-.02929-.0293-.10254a.48419.48419,0,0,0-.01465-.58594.57629.57629,0,0,1-.10254-.30761q-.01464-.10254.01465-.13184.19043-.16113-.01465-.32227-.0293-.01464-.01465-.13183a3.721,3.721,0,0,1,.0586-.542.31875.31875,0,0,0-.04395-.26368.38476.38476,0,0,1-.01465-.293.39815.39815,0,0,0-.02929-.30761.14117.14117,0,0,1,0-.20508.17889.17889,0,0,0,.02929-.23438.7161.7161,0,0,0-.04394-.07324.454.454,0,0,0-.0293-.08789.45715.45715,0,0,1-.05859-.35156,1.214,1.214,0,0,0,.01465-.21973v-.21972a.84665.84665,0,0,0-.08789-.55664.62444.62444,0,0,1-.0586-.32227,2.16969,2.16969,0,0,1-.01465-.30762q-.01464-.20508-.01465-.32226a.20442.20442,0,0,0-.10253-.17578q-.10254-.05861-.23438.05859l-.13184.11719q-.4541-.20508-.41015-.14649a.16726.16726,0,0,0-.19043-.07324.87819.87819,0,0,1-.11719.0293,1.91555,1.91555,0,0,0-.84961.19043q.07324-.0293-.33691.21972-.07324-.249-.13184-.27832a.53475.53475,0,0,0-.293.04395,3.3064,3.3064,0,0,1-.76172.13183.22567.22567,0,0,0-.23437.23438q-.01465.13184-.11719.07324a.58706.58706,0,0,1-.36621-.46875.24088.24088,0,0,0-.01465-.07324l-.02929-.01465a.54575.54575,0,0,1-.293.36621.22612.22612,0,0,1-.33692-.13183.44577.44577,0,0,0-.249-.249q-.17578-.07324-.01465-.19043.01466-.01464.46875-.30761.16113-.10254.14649-.20508-.02931-.19044.14648-.17578a.114.114,0,0,0,.10254-.04395,2.9048,2.9048,0,0,1,.68848-.4834,10.19094,10.19094,0,0,1,1.02539-.4248,7.44467,7.44467,0,0,0,.9375-.293,8.80612,8.80612,0,0,1,.89355-.27832.18675.18675,0,0,1,.17578,0q.0293.01464.0293.0293,0,.05859-.01465.05859a.427.427,0,0,1-.20508.07324,3.20552,3.20552,0,0,0-.62988.249l.23437.01465q.0586,0,.0586.01465.04393.05859-.0293.08789a.18017.18017,0,0,1-.07324.0293.15889.15889,0,0,0-.05859.0293q-.04395.0293-.04395.05859.01465.05859.05859.04395.19044-.01465.21973-.01465.19043-.05861.73242-.20508.46875-.13184.73242-.20508a1.75584,1.75584,0,0,1,.23438-.05859h.01465v-.04395l-.01465-.01465v-.02929a.909.909,0,0,1-.249,0,.14727.14727,0,0,1-.16114-.11719.22.22,0,0,1,.04395-.20508.51055.51055,0,0,1,.26367-.14648.10486.10486,0,0,1,.11719.05859.08113.08113,0,0,1-.01465.11719l-.08789.07324.01465.04395q.01464.01464.04394,0,.73242-.16115.89356-.21973a2.63293,2.63293,0,0,0,.26367-.13184.47783.47783,0,0,1,.39551-.20508.31833.31833,0,0,1-.13184.11719.24781.24781,0,0,0-.10254.10254h.0293q.10254.01466.11719.08789,0,.04395-.0586.07324-.08788.0293-.4248.14649a2.09656,2.09656,0,0,0,.92285.11719q0-.01466-.07324-.0586-.10254-.05859-.0293-.11719a.579.579,0,0,1,.52734-.13183.60059.60059,0,0,0,.32227,0q-.05859.01464.58594-.13184a1.3145,1.3145,0,0,0,.4834-.17578.21232.21232,0,0,1,.30761,0,.132.132,0,0,0,.14649,0q.791-.32226.62988-.21973a.86764.86764,0,0,1,.39551-.10253.31973.31973,0,0,0,.293-.11719q.04394-.04395.27832-.01465.16113.01466.20507-.05859.16115-.27832.65918-.19043.01465,0,.33692.08789a1.25357,1.25357,0,0,1,0,.4834q-.05859.11718.08789.26367a1.62634,1.62634,0,0,0,.26367.13183A.75239.75239,0,0,1,1602.64355,822.7041Zm-11.11816,2.68067.01465.01464v.04395a.62774.62774,0,0,1-.26367.17578.15088.15088,0,0,1-.0586-.0293.01831.01831,0,0,1,0-.02929A.43893.43893,0,0,1,1591.52539,825.38477Zm2.44629-.0293a.08437.08437,0,0,1,.05859.0293.224.224,0,0,1,.07325.16113q-.01465.13184-.17579.11719-.05859-.01465-.02929-.04395a.30311.30311,0,0,0,.02929-.20508A.05744.05744,0,0,1,1593.97168,825.35547Zm.13184-2.87109a.11106.11106,0,0,1-.14649.07324.041.041,0,0,1-.0293-.0586q.0586-.10254.14649-.07324A.041.041,0,0,1,1594.10352,822.48438Zm.27832,10.00488q.0293,0,.04394.04394.0293.07325-.04394.07325l-.04395-.0293Q1594.3086,832.50391,1594.38184,832.48926Zm.02929,1.40625q0-.05859.07325-.07324a1.25225,1.25225,0,0,1,.13183-.01465q.08789,0,.10254.04394.01465.05859-.08789.08789-.01465,0-.13184.01465Q1594.41114,833.93946,1594.41113,833.89551Zm.21973-.57129q-.0293.07325-.07324.05859t-.04395-.04394a.066.066,0,0,1,.08789-.0586Zm.04394,2.87109a.07876.07876,0,0,1-.07324-.10254q.01465-.02929.07324-.23437.10254.0293.16114.20508.0293.07323-.0586.11718A.12318.12318,0,0,1,1594.6748,836.19531Zm.0879-3.35449a.05792.05792,0,0,1-.0879.0293q-.0293-.01465-.01464-.0586.01464-.05859.07324-.02929Q1594.748,832.78223,1594.7627,832.84082Zm.80566-10.66406q-.05859.01464-.05859-.0293a.07851.07851,0,0,1,.08789-.05859.04094.04094,0,0,1,.02929.05859A.15889.15889,0,0,1,1595.56836,822.17676Zm1.80176,10.47363a.04217.04217,0,0,1,.02929.01465q.05861.0293.01465.21973-.0293.10253-.07324.11718a.19927.19927,0,0,1-.0293-.13183Q1597.32618,832.67968,1597.37012,832.65039Zm.14648-10.97168a.18215.18215,0,0,1-.10254,0q-.07325,0-.01465-.05859a.37014.37014,0,0,1,.08789-.04395q.0586,0,.07325.0293Q1597.58985,821.64942,1597.5166,821.67871Z" fill="#666"/>
      <path d="M1603.31152,829.3252q.0879,0,.08789.10253-.04393.05861-.05859.0586-.17578.04394-.10254-.11719A.08607.08607,0,0,1,1603.31152,829.3252Zm5.93262,10.51757a.58982.58982,0,0,1,.26367.10254.12175.12175,0,0,1,.04395.11719q-.0293.10254-.10254.08789a1.36935,1.36935,0,0,1-.82031-.30762.23457.23457,0,0,0-.249-.11718q-.08788.0293-.10254.07324-.01464.0293.07325.08789.19043.10254.02929.21973-.17577.13184-.14648.10253-.01466.01466-.11719.14649a1.87977,1.87977,0,0,1-.19043.05859q-.16113.0879-.01465.14649a5.72154,5.72154,0,0,0,.57129.23437q.293.05859.43946.498.08788.21972-.14649.19043-.08789-.01466-.23437-.04395-.16114-.01464-.23438-.02929-.14649-.01466-.16113.07324-.0293.26367-.293.17578a.2108.2108,0,0,0-.27832.14648.2136.2136,0,0,0-.0293.08789.45345.45345,0,0,1-.0293.0879.48532.48532,0,0,1-.30761.27832,2.51219,2.51219,0,0,0-.35156.13183.66126.66126,0,0,1-.67383-.01465.59874.59874,0,0,0-.27832-.07324.47761.47761,0,0,1-.26368-.10254.35122.35122,0,0,1-.11718-.249.83445.83445,0,0,0-.07324-.27832q-.23437-.38086.13183-1.11328-.05859.10254.19043-.26367a.36449.36449,0,0,0,.05859-.41016.1918.1918,0,0,1,.04395-.249,1.09645,1.09645,0,0,0,.293-.4834.44121.44121,0,0,1,.38086-.30762,2.34814,2.34814,0,0,1,.23437-.0293q.20508-.02929.19043-.01465a.42383.42383,0,0,0,.16114-.11718.1225.1225,0,0,1,.16113-.04395,1.85714,1.85714,0,0,0,.293.14649q.13184.07323.11718-.10254a.937.937,0,0,1-.02929-.14649.44416.44416,0,0,0-.01465-.13183q0-.05861.08789-.0293a.193.193,0,0,1,.10254.14648A1.95519,1.95519,0,0,0,1609.24414,839.84277Zm4.10156-16.21582q-.01464.14649-.20508.11719-.19042-.01464-.19042.14648a1.797,1.797,0,0,1-.07325.57129,9.11955,9.11955,0,0,1-.65918,1.74317,1.71331,1.71331,0,0,1-.14648.23437,2.18241,2.18241,0,0,0-.4541.77637q-.23437.62988-.21973.58594a.65831.65831,0,0,1-.4248.4248,4.28953,4.28953,0,0,0-.82032.61524q-.14648.10254-1.3916,1.50879a3.32893,3.32893,0,0,0-.61523,1.333q.0293-.11718-.16113.791a1.23458,1.23458,0,0,0-.01465.4248q.10254.9375.10254,1.14258a.6635.6635,0,0,1-.20508.62989.60448.60448,0,0,0-.14649.21972.78357.78357,0,0,1-.14648.26367q-.07325.07325,0,.26368a1.19264,1.19264,0,0,1-.23438.92285q-.04394.08789-.10254.08789-.98143-.07325-.80566-.0293-.17578-.04395-.19043-.17578-.14649-.87891-.14648-.84961-.01466-.13184-.0293-.4834a4.27936,4.27936,0,0,0-.04395-.46875,1.2586,1.2586,0,0,1,.0293-.33691q.10254-.61524.16113-.98145a.98581.98581,0,0,1,.14649-.39551,3.48333,3.48333,0,0,0,.38086-.92285,1.79785,1.79785,0,0,1,.30762-.64453,1.43708,1.43708,0,0,0,.35156-.80566q.01464-.0293.35156-.60059a7.54536,7.54536,0,0,1,.92285-1.21582q.57129-.62988,1.25977-1.377-.13184.14648.35156-.32227.17578-.16113.16113-.27832a.3384.3384,0,0,1,.19043-.35156,1.04375,1.04375,0,0,1,.17578-.16113.58346.58346,0,0,0,.20508-.60059,3.47339,3.47339,0,0,0-.38086-1.11328.92538.92538,0,0,0-.4248-.36621,3.50184,3.50184,0,0,0-.89356-.16113q-.249-.02931-.27832.19043a.306.306,0,0,1-.26367.249q-.30762.05859-.68848.60058a.35017.35017,0,0,0-.02929.36622.55474.55474,0,0,1-.16114.60058,2.00973,2.00973,0,0,1-.20507.20508q-.13184.13184-.23438-.05859a.31961.31961,0,0,1-.04394-.23438.64807.64807,0,0,0-.11719-.4834l-.08789.01465-.26367.10254q-.10254-.05859-.0586-.30762a3.58454,3.58454,0,0,1,.30762-.95215,1.03533,1.03533,0,0,0,.13184-.35156,2.1775,2.1775,0,0,1,.14648-.43945,1.046,1.046,0,0,0,.10254-.46875.73486.73486,0,0,1,.20508-.36621,3.89539,3.89539,0,0,1,.4834-.52735,4.19807,4.19807,0,0,0,.65918-.62988.44989.44989,0,0,1,.23437-.13183.89766.89766,0,0,1-.07324.11718q-.044.11719.05859.10254.77637-.16113.60059-.14648a8.9807,8.9807,0,0,1,1.18652-.07324,1.95215,1.95215,0,0,1,1.46484.60058.72492.72492,0,0,1,.19043.32227,1.12284,1.12284,0,0,0,.39551.68847.28268.28268,0,0,1,.07324.38086q-.10253.19044.14649.17578Q1613.38965,823.334,1613.3457,823.627Zm-5.09765,16.88965a.08611.08611,0,0,1-.07325-.04394.57771.57771,0,0,1-.05859-.11719,1.21394,1.21394,0,0,0,.13184.0293.09313.09313,0,0,1,.05859.07324Q1608.30664,840.50195,1608.24805,840.5166Zm.20507-2.06543q-.10253-.16113,0-.249.01466-.01466.20508-.13184.11719.01466.10254.08789a.824.824,0,0,1-.05859.23438q-.044.14648-.14649.14648Q1608.49707,838.53906,1608.45312,838.45117Zm.0586.42481a.07876.07876,0,0,1,.10254-.07325q.13183.044.05859.23438-.0293.08788-.10254.0293A.14265.14265,0,0,1,1608.51172,838.876Zm.14648-3.73536a.07768.07768,0,0,1-.08789-.08789q0-.07323.08789-.07324t.08789.07324Q1608.73145,835.14063,1608.6582,835.14062Zm.0586-.51269-.07325.04395q-.07323,0-.04394-.0879.0293-.05859.07324-.05859Q1608.7461,834.54,1608.7168,834.62793Zm.70312-13.74023a2.9204,2.9204,0,0,0-.26367.26367q-.01465-.32228.20508-.36621a.111.111,0,0,1,.10254.01464Q1609.52246,820.85841,1609.41992,820.8877Zm-.19043,20.63964q.10254-.0293.10254.0586a.05179.05179,0,0,1-.05859.05859q-.0879.01465-.08789-.05859Zm.542-19.59961q.02931,0,.61524-.26367a1.4653,1.4653,0,0,0-.9375-.01465q-.16113.05861-.01465.19043A.26554.26554,0,0,0,1609.77148,821.92773Zm1.39161.13184q.11718-.26367-.10254-.35156a.37181.37181,0,0,0-.46875.08789,2.31876,2.31876,0,0,1-.30762.21972,4.68925,4.68925,0,0,1,.80566.21973A.73941.73941,0,0,1,1611.16309,822.05957Zm1.24511.20508q.04395-.04395,0-.13184a.57869.57869,0,0,0-.4834-.36621q.27832.3955.32227.4541Q1612.335,822.33789,1612.4082,822.26465Zm1.18653,1.8164a.87274.87274,0,0,1,.07324.32227q-.01465.16113-.11719.17578-.249.04395-.32226-.14648a.2916.2916,0,0,1,.20507-.41016A.11532.11532,0,0,1,1613.59473,824.08105Zm-.14649.791a.128.128,0,0,1,.08789.14648q-.0293.0879-.08789.21973a.05937.05937,0,0,1-.07324.0293.09313.09313,0,0,1-.05859-.07324v-.17579Q1613.33105,824.81349,1613.44824,824.87207Z" fill="#666"/>
      <path d="M1619.50684,819.37891q.64452,0,1.29687.959a3.85756,3.85756,0,0,1,.65137,2.21973,6.42045,6.42045,0,0,1-1.04,3.31738q-1.04,1.72266-2.03613,1.72168v-.62988q1.06934-.62988,1.27441-2.78321a2.3632,2.3632,0,0,0-1.88965-2.35839V821.21Zm5.17089,0q.64453,0,1.29688.959a3.85756,3.85756,0,0,1,.65137,2.21973,6.42045,6.42045,0,0,1-1.04,3.31738q-1.04,1.72266-2.03614,1.72168v-.62988q1.06935-.62988,1.27442-2.78321a2.3632,2.3632,0,0,0-1.88965-2.35839V821.21Z" fill="#666"/>
    </g>
  </g>
</svg>
