<?xml version="1.0" encoding="utf-8"?>
<!-- Generator: Adobe Illustrator 24.0.0, SVG Export Plug-In . SVG Version: 6.00 Build 0)  -->
<svg version="1.1" id="图层_1" xmlns="http://www.w3.org/2000/svg" xmlns:xlink="http://www.w3.org/1999/xlink" x="0px" y="0px"
	 viewBox="0 0 83.5 83.5" style="enable-background:new 0 0 83.5 83.5;" xml:space="preserve">
<style type="text/css">
	.st0{fill:url(#SVGID_1_);}
	.st1{fill:none;stroke:#BBBBBB;stroke-width:2;stroke-miterlimit:10;}
</style>
<title>mouse_on</title>
<g id="黑底_背景">
	
		<radialGradient id="SVGID_1_" cx="41.7478" cy="44.2522" r="41.7478" gradientTransform="matrix(1 0 0 -1 0 86)" gradientUnits="userSpaceOnUse">
		<stop  offset="0" style="stop-color:#BBBBBB"/>
		<stop  offset="1" style="stop-color:#BBBBBB;stop-opacity:0"/>
	</radialGradient>
	<path class="st0" d="M41.7,0C18.7,0,0,18.7,0,41.7s18.7,41.7,41.7,41.7s41.7-18.7,41.7-41.7c0,0,0,0,0,0C83.5,18.7,64.8,0,41.7,0
		C41.7,0,41.7,0,41.7,0z M41.7,60.2c-10.2,0-18.5-8.3-18.5-18.5s8.3-18.5,18.5-18.5s18.5,8.3,18.5,18.5v0
		C60.2,51.9,51.9,60.2,41.7,60.2z"/>
	<circle class="st1" cx="41.7" cy="41.7" r="18.5"/>
</g>
</svg>
